
<svg xmlns="http://www.w3.org/2000/svg" version="1.1" xmlns:xlink="http://www.w3.org/1999/xlink" preserveAspectRatio="none" x="0px" y="0px" width="47px" height="54px" viewBox="0 0 47 54">
<defs>
<g id="Layer0_0_FILL">
<path fill="#FFFF33" stroke="none" d="
M 31.85 39.7
L 31.85 53.65 44.3 53.65 44.3 39.7 31.85 39.7
M 25.95 39.7
L 16.4 39.7 16.4 53.65 25.95 53.65 25.95 39.7
M 10.6 39.7
L 0 39.7 0 53.65 10.6 53.65 10.6 39.7
M 10.6 21.65
L 0 21.65 0 35.75 10.6 35.75 10.6 21.65
M 10.6 17.8
L 10.6 0 0 0 0 17.8 10.6 17.8
M 78.45 17.8
L 78.45 0 65.55 0 65.55 17.8 78.45 17.8
M 44.3 17.8
L 44.3 0 31.85 0 31.85 17.8 44.3 17.8
M 44.3 35.75
L 44.3 21.65 31.85 21.65 31.85 35.75 44.3 35.75
M 93.95 39.7
L 84.25 39.7 84.25 53.65 93.95 53.65 93.95 39.7
M 93.95 21.65
L 84.25 21.65 84.25 35.75 93.95 35.75 93.95 21.65
M 93.95 17.8
L 93.95 0 84.25 0 84.25 17.8 93.95 17.8
M 112.2 17.8
L 112.2 0 99.8 0 99.8 17.8 112.2 17.8
M 145.9 39.7
L 133.55 39.7 133.55 53.65 145.9 53.65 145.9 39.7
M 145.9 21.65
L 133.55 21.65 133.55 35.75 145.9 35.75 145.9 21.65
M 145.9 17.8
L 145.9 0 133.55 0 133.55 17.8 145.9 17.8
M 161.3 21.65
L 151.65 21.65 151.65 35.75 161.3 35.75 161.3 21.65
M 213.85 53.65
L 213.85 39.7 200.95 39.7 200.95 53.65 213.85 53.65
M 179.6 39.7
L 167.15 39.7 167.15 53.65 179.6 53.65 179.6 39.7
M 179.6 21.65
L 167.15 21.65 167.15 35.75 179.6 35.75 179.6 21.65
M 179.6 17.8
L 179.6 0 167.15 0 167.15 17.8 179.6 17.8
M 213.85 17.8
L 213.85 0 200.95 0 200.95 17.8 213.85 17.8
M 213.85 35.75
L 213.85 21.65 200.95 21.65 200.95 35.75 213.85 35.75 Z"/>
</g>
</defs>

<g transform="matrix( 1, 0, 0, 1, 0,0) ">
<use xlink:href="#Layer0_0_FILL"/>
</g>
</svg>
