
<svg xmlns="http://www.w3.org/2000/svg" version="1.1" xmlns:xlink="http://www.w3.org/1999/xlink" preserveAspectRatio="none" x="0px" y="0px" width="2593px" height="240px" viewBox="0 0 2593 240">
<defs>
<filter id="Filter_1" x="-20%" y="-20%" width="140%" height="140%" color-interpolation-filters="sRGB">
<feColorMatrix in="SourceGraphic" type="matrix" values="0.15 0 0 0 0 0 0.15 0 0 0 0 0 0.15 0 0 0 0 0 1 0" result="result1"/>
</filter>

<g id="Symbol_2_0_Layer0_0_FILL">
<path fill="#339933" stroke="none" d="
M 817.5 156.9
Q 817.35 156.3 817.2 155.7 807.95 121.75 769.75 121.4 759.3 119.5 749.8 122.65 747.25 123.45 744.8 124.65 742.1 125.95 740.5 127.45 740.85 119.65 738.7 111.45 737.95 108.6 736.05 106.5 721.4 90.45 698.25 88.75 697.95 88.8 697.65 88.9 693.4 90.05 689.35 91.6 687.55 92.3 686.05 93.4 687.5 84.15 684.65 73.4 678.05 48.4 650.2 48.85 635.25 53.3 622.85 63.2 621.6 64.2 620.65 65.35 620.5 59.3 615.85 53.4 604.95 39.55 589.2 35.6 571 38.05 557.25 49.35 555.3 50.95 553.6 52.6 551.35 50.1 548.8 47.75 536.3 36.45 519.8 34 505.5 37.95 495.6 51.8 491.35 57.7 491.25 63.75 490.35 62.6 489.25 61.6 478 51.7 464.4 47.25 439.15 46.8 433.15 71.8 430.55 82.55 431.85 91.8 430.5 90.7 428.85 90 425.2 88.45 421.35 87.3 421.05 87.2 420.8 87.15 415.85 87.55 411.3 88.75 411.2 88.75 411.15 88.75 410.85 88.8 410.55 88.9 406.3 90.05 402.25 91.6 400.45 92.3 398.95 93.4 400.4 84.15 397.55 73.4 390.95 48.4 363.1 48.85 348.15 53.3 335.75 63.2 334.5 64.2 333.55 65.35 333.4 59.3 328.75 53.4 317.85 39.55 302.1 35.6 283.9 38.05 270.15 49.35 268.2 50.95 266.5 52.6 264.25 50.1 261.7 47.75 249.2 36.45 232.7 34 218.4 37.95 208.5 51.8 204.25 57.7 204.15 63.75 203.25 62.6 202.15 61.6 194.05 54.45 184.7 50.15 181.1 48.5 177.3 47.25 152.05 46.8 146.05 71.8 143.45 82.55 144.75 91.8 143.4 90.7 141.75 90 138.1 88.45 134.25 87.3 133.95 87.2 133.7 87.15 112.7 88.85 99.4 104.9 97.65 107 97 109.85 95.05 118.05 95.35 125.85 93.9 124.35 91.45 123.05 85.75 120 79.65 119.3 74.35 118.7 68.8 119.8 36.4 121.35 21.4 138.55 18.15 142.25 15.75 146.7 13.9 150.05 11.85 155.7 7.9 166.35 3.15 185.15 -4.15 213.85 5.35 224.05 14.85 234.2 17.45 236.2 20 238.2 20.05 239.45
L 184.7 239.45 730.75 239.45
Q 740.9 239.5 749.8 239.1 802.8 236.5 811.75 216.1 822.2 192.25 820.65 177.75 819.1 163.25 817.5 156.9
M 2434.95 163.6
Q 2434.5 156 2434.05 149.75 2432.55 129.25 2430.95 122.9 2422.05 87.75 2383.2 87.4 2369.95 85 2358.25 90.65 2355.55 91.95 2353.95 93.45 2354.3 85.65 2352.15 77.45 2351.4 74.6 2349.5 72.5 2334.85 56.45 2311.7 54.75 2311.4 54.8 2311.1 54.9 2306.85 56.05 2302.8 57.6 2301 58.3 2299.5 59.4 2300.95 50.15 2298.1 39.4 2291.5 14.4 2263.65 14.85 2248.7 19.3 2236.3 29.2 2235.05 30.2 2234.1 31.35 2233.95 25.3 2229.3 19.4 2218.4 5.55 2202.65 1.6 2184.45 4.05 2170.7 15.35 2168.75 16.95 2167.05 18.6 2164.8 16.1 2162.25 13.75 2149.75 2.45 2133.25 0 2118.95 3.95 2109.05 17.8 2104.8 23.7 2104.7 29.75 2103.8 28.6 2102.7 27.6 2091.45 17.7 2077.85 13.25 2052.6 12.8 2046.6 37.8 2044 48.55 2045.3 57.8 2043.95 56.7 2042.3 56 2038.65 54.45 2034.8 53.3 2034.5 53.2 2034.25 53.15 2029.3 53.55 2024.75 54.75 2024.65 54.75 2024.6 54.75 2024.3 54.8 2024 54.9 2019.75 56.05 2015.7 57.6 2013.9 58.3 2012.4 59.4 2013.85 50.15 2011 39.4 2004.4 14.4 1976.55 14.85 1964.7 16.2 1956.4 23.15 1948.05 30.1 1947 31.35 1946.85 25.3 1940.05 15.4 1933.2 5.45 1919.15 3.35 1905.1 1.25 1893 9.5 1880.9 17.7 1879.95 18.6 1877.7 16.1 1875.15 13.75 1862.65 2.45 1847.3 3.35 1831.85 3.95 1821.95 17.8 1817.7 23.7 1817.6 29.75 1816.7 28.6 1815.6 27.6 1804.35 17.7 1790.75 13.25 1765.5 12.8 1759.5 37.8 1756.9 48.55 1758.2 57.8 1756.85 56.7 1755.2 56 1751.55 54.45 1747.7 53.3 1747.4 53.2 1747.15 53.15 1726.15 54.85 1712.85 70.9 1711.1 73 1710.45 75.85 1708.5 84.05 1708.8 91.85 1707.35 90.35 1704.9 89.05 1694.25 83.4 1682.25 85.8 1642.85 87.7 1624.55 111.15 1606.2 134.6 1604.95 157.25 1603.65 179.9 1612 190.1 1620.3 200.3 1628.95 203.3 1637.55 206.25 1718.3 205.45
L 2434.05 205.45 2436.95 205.45 2436.9 204.55
Q 2435.95 180.65 2434.95 163.6 Z"/>
</g>
</defs>

<g transform="matrix( 1.06402587890625, 0, 0, 1, 0,0) ">
<g transform="matrix( 1, 0, 0, 1, 0,0) ">
<use filter="url(#Filter_1)" xlink:href="#Symbol_2_0_Layer0_0_FILL"/>
</g>
</g>
</svg>
