
<svg xmlns="http://www.w3.org/2000/svg" version="1.1" xmlns:xlink="http://www.w3.org/1999/xlink" preserveAspectRatio="none" x="0px" y="0px" width="2593px" height="595px" viewBox="0 0 2593 595">
<defs>
<g id="Layer0_0_FILL">
<path fill="#041300" stroke="none" d="
M 2593.05 594.45
L 2593.05 103.55 2582.15 103.55 2582.1 103.55 2447.8 103.55 2440.75 103.55 1790.75 103.55 1053.05 103.55 849.05 103.55 283.95 103.55 178.9 103.55 30.2 103.55 28.15 103.55 17.05 103.55 13.05 103.55 3.95 103.55 0 103.55 0 244.8 0 594.45 2447.85 594.45 2593.05 594.45
M 2593.7 14
L 2593.7 0 2582.15 0 2447.8 0 2440.8 0 1790.75 0 1418.4 0 1053.05 0 849.05 0 283.95 0 247.45 0 178.9 0 30.2 0 28.15 0 17.05 0 13.05 0 3.95 0 1.6 0 1.6 14 3.95 14 13.05 14 17.05 14 28.15 14 30.2 14 178.9 14 247.45 14 283.95 14 849.05 14 1053.05 14 1418.4 14 1790.75 14 2440.8 14 2447.8 14 2582.15 14 2593.7 14 Z"/>

<path fill="#141414" stroke="none" d="
M 2593.25 74.45
L 2593.7 14 2582.15 14 2447.8 14 2440.8 14 1790.75 14 1418.4 14 1053.05 14 849.05 14 283.95 14 247.45 14 178.9 14 30.2 14 28.15 14 17.05 14 13.05 14 3.95 14 1.6 14 0.5 74.45 0 103.55 3.95 103.55 13.05 103.55 17.05 103.55 28.15 103.55 30.2 103.55 178.9 103.55 283.95 103.55 849.05 103.55 1053.05 103.55 1790.75 103.55 2440.75 103.55 2447.8 103.55 2582.1 103.55 2582.15 103.55 2593.05 103.55 2593.25 74.45 Z"/>
</g>
</defs>

<g transform="matrix( 1, 0, 0, 1, 0,0) ">
<use xlink:href="#Layer0_0_FILL"/>
</g>
</svg>
