
<svg xmlns="http://www.w3.org/2000/svg" version="1.1" xmlns:xlink="http://www.w3.org/1999/xlink" preserveAspectRatio="none" x="0px" y="0px" width="1787px" height="189px" viewBox="0 0 1787 189">
<defs>
<g id="Layer1_0_FILL">
<path fill="#021A02" stroke="none" d="
M 507.9 82.5
Q 501.63828125 77.933203125 495.25 75.45 494.8470703125 75.2958984375 494.45 75.15 479.0751953125 69.3794921875 462.85 75.45 458.5580078125 77.0591796875 454.2 79.5 452.8 80.25 451.35 81.15 451.5310546875 78.26484375 451.4 75.45 451.001953125 67.3865234375 448 59.9 446.05 54.95 442.4 51.9 441.5 51.15 440.55 50.55 417.35 35.55 396.35 56.65 396.1 48.65 394.7 40.8 393.15 32.3 387.15 27.7 368.6 13.4 344.85 11.65 338.35 13 331.3 14.85 324.25 16.7 305.6 34.75 298.15 19.45 285.95 15.2 282.6 14.05 279.2 13.1 278.7 12.95 278.15 12.85 274.3 11.75 270.4 11.05 268.35 10.65 266.3 10.35 264.9 10.25 263.5 10.2 259.843359375 10.0552734375 256.45 10.15 237.57265625 10.8193359375 226.85 19.55 213.4 30.45 211.8 38.9 210.15 47.35 209.9 55.35 186.9 34.25 161.5 49.25 156 52.45 153.35 58.6 149.786328125 66.68828125 149.55 75.45 149.5005859375 77.629296875 149.65 79.85 145.0892578125 77.2740234375 140.55 75.45 118.736328125 66.6009765625 98.25 75.45 92.9517578125 77.73515625 87.75 81.2 84.8 83.15 82.65 87 76.75 97.6 77.4 109.6 63.35 103.05 49.6 109.8 34.8 117.1 32.5 131.35 -2.8 128 0.25 160.85 2.05 180.05 24.5 181.85 61.5 184.85 263.5 184.6 271.25 184.6 279.2 184.6 286.8 184.55 294.6 184.55 316.25 184.5 442.4 183.85 448.2 183.8 454.2 183.75 502.75 183.5 565.65 183.15 575.7 183.1 581.45 177.45 586.95 172 587.8 162.15 590.6 129.3 553.55 139.05 556.25 118.4 542.75 111.1 530.2 104.35 517.35 110.9 517.55 106.65 517.05 102.55 516.05 95.15 512.55 88.3 510.6 84.45 507.9 82.5
M 1713.7 80
Q 1710.446484375 77.390625 1707.15 75.45 1688.0408203125 64.20078125 1667.5 75.45 1664.915625 76.870703125 1662.3 78.65 1662.3873046875 77.0412109375 1662.35 75.45 1662.361328125 66.11484375 1659.2 57.4 1657.05 51.3 1652.45 48.05 1631.4 33.05 1612.25 54.15 1612.05 46.2 1610.75 38.3 1609.3 29.7 1598.2 18.3 1586.95 6.75 1571.4 2.05 1555.7 -2.75 1540.1 3.7 1524.45 10.15 1514.6 24.95 1506.35 12.15 1493.2 5.45 1479.9 -1.25 1460.45 0.9 1434.85 3.45 1423.5 15.3 1412.25 27 1408.75 37.3 1405.25 47.55 1404.15 55.45 1383.5 37.7 1367.95 45.05 1352.5 52.35 1348.95 60.6 1346.1734375 67.065234375 1346.05 75.45 1346.044921875 77.634765625 1346.2 79.95 1341.504296875 77.3017578125 1337.05 75.45 1317.1693359375 67.1291015625 1302.65 74.9 1302.1271484375 75.176171875 1301.6 75.45 1284.7443359375 84.50859375 1281.25 91.4 1278.85 96.05 1277.65 102.55 1277 105.9 1276.7 109.7 1263.15 103.2 1249.9 109.9 1235.7 117.2 1240.7 139.45 1199.55 128.15 1202.45 160.95 1203.35 170.9 1211.45 178.95 1219.9 187.35 1230.45 187.55 1279.4 188.65 1321.85 188.15 1360.75 187.7 1408.4 185.7 1415.85 185.4 1581.75 184.45 1735.4 183.6 1766.25 180.65 1784.9 178.85 1786.4 159.65 1788.95 126.75 1759.6 130.15 1757.7 115.9 1745.4 108.6 1734 101.85 1722.3 108.4 1722.45 105.45 1722.25 102.55 1721.65 93.75 1717.9 85.8 1716.15 81.95 1713.7 80 Z"/>
</g>
</defs>

<g transform="matrix( 1, 0, 0, 1, 0,0) ">
<use xlink:href="#Layer1_0_FILL"/>
</g>
</svg>
