
<svg xmlns="http://www.w3.org/2000/svg" version="1.1" xmlns:xlink="http://www.w3.org/1999/xlink" preserveAspectRatio="none" x="0px" y="0px" width="134px" height="40px" viewBox="0 0 134 40">
<defs>
<filter id="Filter_1" x="-20%" y="-20%" width="140%" height="140%" color-interpolation-filters="sRGB">
<feColorMatrix in="SourceGraphic" type="matrix" values="1 0 0 0 0 0 1 0 0 0 0 0 1 0 0 0 0 0 0.5 0" result="result1"/>
</filter>

<g id="Layer0_0_FILL">
<path fill="#666666" stroke="none" d="
M 65.45 15.2
Q 55.65 15.8 60.3 33.55 65.15 34.65 71.95 33.55 75.3 14.5 65.45 15.2
M 60.95 23.7
Q 60.95 21.65 62.4 20.2 63.85 18.7 65.95 18.7 68 18.7 69.5 20.2 70.95 21.65 70.95 23.7 70.95 25.75 69.5 27.3 68 28.75 65.95 28.75 63.85 28.75 62.4 27.3 60.95 25.75 60.95 23.7 Z"/>

<path fill="#FFFFFF" stroke="none" d="
M 62.4 20.2
Q 60.95 21.65 60.95 23.7 60.95 25.75 62.4 27.3 63.85 28.75 65.95 28.75 68 28.75 69.5 27.3 70.95 25.75 70.95 23.7 70.95 21.65 69.5 20.2 68 18.7 65.95 18.7 63.85 18.7 62.4 20.2
M 62.55 23.7
Q 62.55 22.25 63.55 21.25 64.6 20.25 66.05 20.25 67.45 20.25 68.5 21.25 69.5 22.25 69.5 23.7 69.5 25.15 68.5 26.15 67.45 27.15 66.05 27.15 64.6 27.15 63.55 26.15 62.55 25.15 62.55 23.7
M 64.25 22.7
Q 64.3 22.25 64.55 21.95 65.2 21.3 65.2 20.7 64.15 21.55 63.85 22.8 63.3 25.1 65.35 25.95 65.4 25.9 65.35 25.9 63.9 24.55 64.25 22.7 Z"/>

<path fill="#000000" stroke="none" d="
M 63.55 21.25
Q 62.55 22.25 62.55 23.7 62.55 25.15 63.55 26.15 64.6 27.15 66.05 27.15 67.45 27.15 68.5 26.15 69.5 25.15 69.5 23.7 69.5 22.25 68.5 21.25 67.45 20.25 66.05 20.25 64.6 20.25 63.55 21.25
M 64.55 21.95
Q 64.3 22.25 64.25 22.7 63.9 24.55 65.35 25.9 65.4 25.9 65.35 25.95 63.3 25.1 63.85 22.8 64.15 21.55 65.2 20.7 65.2 21.3 64.55 21.95 Z"/>

<path fill="#CCCCCC" stroke="none" d="
M 115.7 5.8
L 115.45 4.05 114.1 4.05 113.75 4.05 113.7 4.3 112.85 9.15 104.6 8.7 80.45 7.4
Q 80.25 5.65 79.3 4.7 77.5888671875 3.725390625 75.75 3.05 67.591015625 0 57.35 3.05 55.0708984375 3.7255859375 52.7 4.7 51.7 5.55 51 7.8
L 22.25 9.75 21.45 4.85 19.15 4.85 18.45 10 14.9 10.15 14.9 13.3 50.8 11.7 51.2 15.05
Q 45.15 16.9 40.55 23 36.436328125 28.4103515625 33.25 35.7 32.9095703125 36.5619140625 32.55 37.45 33 39.15 35.1 37.8 35.53984375 36.7328125 36 35.7 38.7267578125 29.570703125 42.15 24.65 46.05 18.85 51.4 17.6 52.8 24.2 55.85 33.55
L 56.55 35.6
Q 56.666015625 35.65390625 56.8 35.7 58.1986328125 36.2126953125 60.95 35.8
L 60.3 33.55
Q 55.65 15.8 65.45 15.2 75.3 14.5 71.95 33.55
L 71.45 35.9
Q 73.8314453125 36.3669921875 75.4 35.7 75.541015625 35.6529296875 75.65 35.6
L 76.2 33.55
Q 78.75 23.7 79.8 16.05 82.65 16.8 84.85 18.1 86.75 19.35 88.45 21.35 92.55 26.1 93.75 29.5 94.831640625 32.466015625 95.65 35.7 95.9978515625 37.0998046875 96.3 38.55 97.55 39.65 98.5 38.55 98.257421875 37.09453125 97.95 35.7 97.2361328125 32.20859375 96.2 29.1 94.7 24.65 91.1 20.35 87.4 15.95 80.15 13.65 80.35 12.7 80.45 12
L 104.6 12 113.7 12 114.1 12 115.7 12 119.25 12 119.25 9.45 116.2 9.3 115.7 5.8 Z"/>
</g>

<g id="Tween_1_0_Layer0_0_FILL">
<path fill="#333333" stroke="none" d="
M 17.8 -39.75
Q 17.7 -40.35 17.15 -40.35 16.85 -40.35 16.6 -40.35 12.25 -40.35 7.85 -40.35 0.1 -40.05 -7.9 -40.05 -9.1 -40.05 -9.2 -38.95 -8.85 -38.65 -8.35 -38.35 -8.95 -38.35 -9.25 -37.8 -9.3 -37.8 -9.3 -37.55 -9.35 -37.25 -9.05 -37.25 -4.15 -36.7 0.55 -36.7 -0.8 -36.4 -2.2 -36.15 -3.9 -35.85 -5.65 -35.55 -8.9 -34.75 -12.05 -34.15
L -12.05 -33.9
Q -10.35 -32.5 -7.35 -33.05 -0.35 -34.45 5.8 -33.9 2.85 -33.6 -0.05 -33.35 -4.45 -33.05 -7.85 -31.35 -7.9 -31.35 -7.9 -31.1 -5.7 -30.25 -2.8 -30.8 1.05 -31.65 4.85 -31.95 3.45 -31.65 2.1 -31.35 -1.25 -31.1 -4.25 -29.7
L -4.3 -29.7
Q -4.3 -29.4 -4.25 -29.4 -1.75 -28.55 -2.85 -28.3 -3 -28.3 -3.05 -28 -3.2 -27.15 -2.3 -27.15 -1.1 -27.45 0.15 -27.15 -2.75 -26.9 -5.25 -25.5 -5.25 -24.65 -4.45 -24.65 -3.95 -24.65 -3.45 -24.65 -3.45 -24.35 -3.4 -24.1
L -3.3 -23.8
Q -3.2 -23.8 -3.15 -23.55 -1.6 -23.25 0.15 -23.55 2.4 -24.1 4.6 -24.35
L 4.45 -24.1
Q 3.35 -23.8 2.15 -23.8 -1.95 -22.95 -5.5 -21.85 -5.55 -21.85 -5.55 -21.55 -5.1 -20.15 -3.2 -20.7 -1.45 -21.3 -0.3 -20.15 -0.2 -20.15 -0.1 -20.15 -0.2 -19.9 -0.3 -19.9 -1.85 -19.9 -2.8 -19.05
L -2.85 -18.75
Q -2.8 -18.5 -2.65 -18.5 -0.85 -17.35 1.25 -17.65 3.75 -17.65 6.3 -18.2 6.55 -18.2 6.9 -18.2 5.7 -17.65 4.55 -17.35 1.25 -16.5 -1.6 -15.1 -1.65 -15.1 -1.65 -14.85 -1.55 -14.85 -1.45 -14.55 -0.95 -14 -0.15 -14 -0.15 -13.7 -0.05 -13.7 0.65 -12.9 1.35 -12.9 2.85 -12.9 3.55 -12.05 3.65 -11.75 3.8 -11.75 2.85 -11.5 2 -10.9 1.85 -10.9 1.7 -10.9 1.65 -10.65 1.9 -10.35 2.3 -9.8 2.6 -9.5
L 2.45 -9.5
Q 2.2 -9.25 2.15 -8.95 1.85 -8.1 2.8 -8.1 2.95 -8.1 3.15 -8.1
L 3.2 -7.85
Q 3.2 -7.55 3.3 -7.3 3.55 -6.45 4.3 -6.15 4.45 -6.15 4.65 -6.15 5.55 -7 5.35 -8.1 5.15 -8.95 5.45 -9.5 5.95 -10.65 7.25 -11.2 7.3 -11.2 7.4 -11.2 7.5 -11.5 7.6 -11.5 7.65 -11.75 7.7 -12.05 9.15 -12.6 9.75 -13.45
L 9.8 -13.7
Q 9.8 -14 9.45 -14.3 9 -14.55 8.7 -14.55
L 8.65 -14.85
Q 9.65 -15.1 9.8 -16.25 9.75 -16.5 9.7 -16.5 8.8 -17.1 8.75 -17.1
L 8.9 -17.35
Q 9.2 -17.65 9.55 -17.65 10.4 -17.9 10.45 -18.75
L 10.45 -19.05
Q 10.4 -19.6 9.7 -19.9 9.45 -20.15 9.3 -20.45 8.9 -21 9.1 -21.85 9.15 -22.15 9.05 -22.15 8.8 -22.4 8.6 -22.7 8.35 -22.7 8.1 -22.95
L 8 -22.95 7.95 -23.25
Q 9.4 -24.1 10.9 -24.35 12.05 -24.65 12.5 -25.75 12.55 -25.75 12.5 -26.05 12.45 -26.05 12.4 -26.05 12 -26.6 11.3 -26.6 11.8 -26.9 12.05 -27.45 12.35 -28 12.35 -28.55
L 12.4 -28.55
Q 13 -28.85 13.6 -29.4 13.7 -29.4 13.7 -29.7 13.85 -30.25 13.6 -30.55 13.4 -30.8 13.2 -31.35 13.1 -31.35 13.05 -31.65
L 10.85 -31.95
Q 11.35 -31.95 11.65 -32.2 12.2 -32.5 12.4 -33.05 12.45 -33.35 12.5 -33.35 13.85 -33.05 14.5 -33.9
L 14.6 -34.15 14.6 -34.45
Q 14.6 -34.75 14.2 -35 13.3 -35.3 13.95 -35.85 14 -35.85 14 -36.15 13.5 -36.7 17.7 -37.25 17.8 -37.25 17.8 -37.55 16.6 -38.1 15 -38.35 16.8 -38.35 17.7 -39.5
L 17.8 -39.75
M 3.05 1.95
Q 2.85 2.25 2.65 2.25 2.35 2.25 2.1 2.5 2 2.5 2.05 2.8 2.25 3.35 1.3 3.65 1.1 3.65 0.95 3.9 1.6 5.05 0.4 5.3 -0.25 5.3 -0.6 5.9 -0.6 6.15 -0.55 6.15 -0.55 6.45 -0.45 6.45 -0.4 6.7 -0.3 6.7 -0.25 6.7 -0.2 7 -0.4 7 -0.55 7.3 -0.6 7.55 -0.65 7.55 -0.7 7.55 -0.7 7.85
L -0.7 8.1
Q -1.9 8.4 -3.05 8.7 -3.2 8.7 -3.3 8.7 -4.45 8.95 -4.9 9.8 -4.8 10.1 -4.55 10.35 -4.05 10.9 -3.05 10.35 -2.45 10.1 -2.3 10.65 -2.45 11.2 -3.75 12.05 -4.1 12.05 -3.95 12.6 -3.4 13.45 -2.15 13.45 -2 13.45 -1.45 13.45 -2.3 13.7 -3.15 13.7 -5.8 14.3 -4.8 15.95 -4.9 16.8 -6.05 17.1 -8.05 17.1 -9.05 18.2 -9 18.5 -8.9 18.5 -8.45 19.05 -7.9 19.3
L -8.05 19.6
Q -8.35 20.45 -9.8 20.45 -10.6 20.45 -10.65 21.3 -6.9 22.15 -4.3 21.85 -5.9 22.15 -7.3 22.95 -12.25 24.65 -16.35 26.9 -12.75 27.75 -8.5 27.45 -8.55 27.45 -8.6 27.75 -8.7 27.75 -8.8 27.75
L -8.85 28 -8.85 28.3
Q -9.1 28.3 -9.4 28.3 -12.2 28.55 -13.95 29.95 -13.95 30.8 -13.15 30.8 -10.4 31.35 -7.35 30.8 -7.9 31.1 -8.4 31.1 -10.95 31.95 -12.75 33.35 -12.7 34.15 -12 34.45 -10.9 35 -9.75 35 -10.1 35.55 -11.5 35.85 -11.85 35.85 -11.9 36.15 -7.1 37.25 -1.35 36.7 -2.8 37.25 -3.8 38.1 -3.8 38.95 -2.95 38.95 6.05 38.1 14.55 35.85 14.7 35.3 14.65 35 14.55 34.15 14.55 33.05 14.6 32.5 14.55 31.65 14.2541015625 31.1076171875 13.85 31.1 14.2046875 31.1 14.5 31.1 16.65 30.8 17 29.15 16.85 28.85 16.7 28.85 14.55 28.85 13.15 28.3 13.3 28.3 13.4 28 13.85 27.45 13.95 26.6 14.05 26.35 13.9 26.05 13.6 25.75 13.2 25.75 11.1 25.75 12.75 25.5 13.9 24.95 15 24.1 15.65 23.8 15.5 22.95 9.9 23.25 8.95 21.55 9 20.45 10.6 20.15 13.35 19.6 13.7 17.35 13.55 17.35 13.35 17.1 11.45 15.95 8.95 15.95 8.45 15.1 8 14.55 7.8 14.3 7.4 14 7.45 13.7 7.5 13.7 7.5 12.6 8.3 12.05 8.85 11.5 8.9 10.9 8.8 10.65 8.7 10.65 7.9 10.1 7.25 10.1
L 7.35 9.5
Q 7.2 8.7 8.05 8.1 8.3 7.85 8.3 7.55
L 8.25 7.3
Q 8.05 7 7.55 6.7 7 6.7 6.45 6.7 6 5.9 5.05 5.3 4.1 5.05 3.9 4.75 4.15 4.5 4.3 4.2 4.6 3.65 4.55 3.1 4.5 2.8 4.65 2.5 4.3 2.25 4.05 2.25 3.85 2.25 3.65 1.95 3.35 1.95 3.05 1.95
M 2.65 12.3
Q 3.6 12.05 4.65 12.05 4.5 12.3 2.95 12.6 2.05 12.9 1.1 12.9 1.85 12.6 2.65 12.3
M 6.5 19.6
Q 7.15 19.3 7.9 19.3 8.84765625 18.7513671875 9.8 18.75 9.646875 18.7546875 9.45 19.05 8.7 19.3 8 19.6 7.25 19.9 6.5 19.6 Z"/>

<path fill="#999999" stroke="none" d="
M 32.15 -30.25
Q 30.15 -32.2 28.05 -33.9 23.3 -37.55 17.8 -39.75
L 17.7 -39.5
Q 16.8 -38.35 15 -38.35 16.6 -38.1 17.8 -37.55 17.8 -37.25 17.7 -37.25 13.5 -36.7 14 -36.15 14 -35.85 13.95 -35.85 13.3 -35.3 14.2 -35 14.6 -34.75 14.6 -34.45
L 14.6 -34.15 14.5 -33.9
Q 13.85 -33.05 12.5 -33.35 12.45 -33.35 12.4 -33.05 12.2 -32.5 11.65 -32.2 11.35 -31.95 10.85 -31.95
L 13.05 -31.65
Q 13.1 -31.35 13.2 -31.35 13.4 -30.8 13.6 -30.55 13.85 -30.25 13.7 -29.7 13.7 -29.4 13.6 -29.4 13 -28.85 12.4 -28.55
L 12.35 -28.55
Q 12.35 -28 12.05 -27.45 11.8 -26.9 11.3 -26.6 12 -26.6 12.4 -26.05 12.45 -26.05 12.5 -26.05 12.55 -25.75 12.5 -25.75 12.05 -24.65 10.9 -24.35 9.4 -24.1 7.95 -23.25
L 8 -22.95 8.1 -22.95
Q 8.35 -22.7 8.6 -22.7 8.8 -22.4 9.05 -22.15 9.15 -22.15 9.1 -21.85 8.9 -21 9.3 -20.45 9.45 -20.15 9.7 -19.9 10.4 -19.6 10.45 -19.05
L 10.45 -18.75
Q 10.4 -17.9 9.55 -17.65 9.2 -17.65 8.9 -17.35
L 8.75 -17.1
Q 8.8 -17.1 9.7 -16.5 9.75 -16.5 9.8 -16.25 9.65 -15.1 8.65 -14.85
L 8.7 -14.55
Q 9 -14.55 9.45 -14.3 9.8 -14 9.8 -13.7
L 9.75 -13.45
Q 9.15 -12.6 7.7 -12.05 7.65 -11.75 7.6 -11.5 7.5 -11.5 7.4 -11.2 7.3 -11.2 7.25 -11.2 5.95 -10.65 5.45 -9.5 5.15 -8.95 5.35 -8.1 5.55 -7 4.65 -6.15 4.45 -6.15 4.3 -6.15 3.55 -6.45 3.3 -7.3 3.2 -7.55 3.2 -7.85
L 3.15 -8.1
Q 2.95 -8.1 2.8 -8.1 1.85 -8.1 2.15 -8.95 2.2 -9.25 2.45 -9.5
L 2.6 -9.5
Q 2.3 -9.8 1.9 -10.35 1.65 -10.65 1.7 -10.9 1.85 -10.9 2 -10.9 2.85 -11.5 3.8 -11.75 3.65 -11.75 3.55 -12.05 2.85 -12.9 1.35 -12.9 0.65 -12.9 -0.05 -13.7 -0.15 -13.7 -0.15 -14 -0.95 -14 -1.45 -14.55 -1.55 -14.85 -1.65 -14.85 -1.65 -15.1 -1.6 -15.1 1.25 -16.5 4.55 -17.35 5.7 -17.65 6.9 -18.2 6.55 -18.2 6.3 -18.2 3.75 -17.65 1.25 -17.65 -0.85 -17.35 -2.65 -18.5 -2.8 -18.5 -2.85 -18.75
L -2.8 -19.05
Q -1.85 -19.9 -0.3 -19.9 -0.2 -19.9 -0.1 -20.15 -0.2 -20.15 -0.3 -20.15 -1.45 -21.3 -3.2 -20.7 -5.1 -20.15 -5.55 -21.55 -5.55 -21.85 -5.5 -21.85 -1.95 -22.95 2.15 -23.8 3.35 -23.8 4.45 -24.1
L 4.6 -24.35
Q 2.4 -24.1 0.15 -23.55 -1.6 -23.25 -3.15 -23.55 -3.2 -23.8 -3.3 -23.8
L -3.4 -24.1
Q -3.45 -24.35 -3.45 -24.65 -3.95 -24.65 -4.45 -24.65 -5.25 -24.65 -5.25 -25.5 -2.75 -26.9 0.15 -27.15 -1.1 -27.45 -2.3 -27.15 -3.2 -27.15 -3.05 -28 -3 -28.3 -2.85 -28.3 -1.75 -28.55 -4.25 -29.4 -4.3 -29.4 -4.3 -29.7
L -4.25 -29.7
Q -1.25 -31.1 2.1 -31.35 3.45 -31.65 4.85 -31.95 1.05 -31.65 -2.8 -30.8 -5.7 -30.25 -7.9 -31.1 -7.9 -31.35 -7.85 -31.35 -4.45 -33.05 -0.05 -33.35 2.85 -33.6 5.8 -33.9 -0.35 -34.45 -7.35 -33.05 -10.35 -32.5 -12.05 -33.9
L -12.05 -34.15
Q -8.9 -34.75 -5.65 -35.55 -3.9 -35.85 -2.2 -36.15 -0.8 -36.4 0.55 -36.7 -4.15 -36.7 -9.05 -37.25 -9.35 -37.25 -9.3 -37.55 -9.3 -37.8 -9.25 -37.8 -8.95 -38.35 -8.35 -38.35 -8.85 -38.65 -9.2 -38.95 -9.1 -40.05 -7.9 -40.05 0.1 -40.05 7.85 -40.35 12.25 -40.35 16.6 -40.35 9.35 -42.85 1 -42.85 -9.95 -42.85 -19.05 -38.35 -25.05 -35.3 -30.2 -30.25 -43.05 -17.9 -43.05 0 -43.05 17.65 -30.2 30.25 -26.9 33.35 -23.3 35.85 -12.6 42.85 1 42.85 14.65 42.85 25.35 35.85 28.9 33.35 32.15 30.25 36.1 26.35 38.85 22 45.05 12.2 45.05 0 45.05 -12.4 38.85 -22.1 36.1 -26.45 32.15 -30.25
M 2.65 2.25
Q 2.85 2.25 3.05 1.95 3.35 1.95 3.65 1.95 3.85 2.25 4.05 2.25 4.3 2.25 4.65 2.5 4.5 2.8 4.55 3.1 4.6 3.65 4.3 4.2 4.15 4.5 3.9 4.75 4.1 5.05 5.05 5.3 6 5.9 6.45 6.7 7 6.7 7.55 6.7 8.05 7 8.25 7.3
L 8.3 7.55
Q 8.3 7.85 8.05 8.1 7.2 8.7 7.35 9.5
L 7.25 10.1
Q 7.9 10.1 8.7 10.65 8.8 10.65 8.9 10.9 8.85 11.5 8.3 12.05 7.5 12.6 7.5 13.7 7.45 13.7 7.4 14 7.8 14.3 8 14.55 8.45 15.1 8.95 15.95 11.45 15.95 13.35 17.1 13.55 17.35 13.7 17.35 13.35 19.6 10.6 20.15 9 20.45 8.95 21.55 9.9 23.25 15.5 22.95 15.65 23.8 15 24.1 13.9 24.95 12.75 25.5 11.1 25.75 13.2 25.75 13.6 25.75 13.9 26.05 14.05 26.35 13.95 26.6 13.85 27.45 13.4 28 13.3 28.3 13.15 28.3 14.55 28.85 16.7 28.85 16.85 28.85 17 29.15 16.65 30.8 14.5 31.1 14.2046875 31.1 13.85 31.1 14.2541015625 31.1076171875 14.55 31.65 14.6 32.5 14.55 33.05 14.55 34.15 14.65 35 14.7 35.3 14.55 35.85 6.05 38.1 -2.95 38.95 -3.8 38.95 -3.8 38.1 -2.8 37.25 -1.35 36.7 -7.1 37.25 -11.9 36.15 -11.85 35.85 -11.5 35.85 -10.1 35.55 -9.75 35 -10.9 35 -12 34.45 -12.7 34.15 -12.75 33.35 -10.95 31.95 -8.4 31.1 -7.9 31.1 -7.35 30.8 -10.4 31.35 -13.15 30.8 -13.95 30.8 -13.95 29.95 -12.2 28.55 -9.4 28.3 -9.1 28.3 -8.85 28.3
L -8.85 28 -8.8 27.75
Q -8.7 27.75 -8.6 27.75 -8.55 27.45 -8.5 27.45 -12.75 27.75 -16.35 26.9 -12.25 24.65 -7.3 22.95 -5.9 22.15 -4.3 21.85 -6.9 22.15 -10.65 21.3 -10.6 20.45 -9.8 20.45 -8.35 20.45 -8.05 19.6
L -7.9 19.3
Q -8.45 19.05 -8.9 18.5 -9 18.5 -9.05 18.2 -8.05 17.1 -6.05 17.1 -4.9 16.8 -4.8 15.95 -5.8 14.3 -3.15 13.7 -2.3 13.7 -1.45 13.45 -2 13.45 -2.15 13.45 -3.4 13.45 -3.95 12.6 -4.1 12.05 -3.75 12.05 -2.45 11.2 -2.3 10.65 -2.45 10.1 -3.05 10.35 -4.05 10.9 -4.55 10.35 -4.8 10.1 -4.9 9.8 -4.45 8.95 -3.3 8.7 -3.2 8.7 -3.05 8.7 -1.9 8.4 -0.7 8.1
L -0.7 7.85
Q -0.7 7.55 -0.65 7.55 -0.6 7.55 -0.55 7.3 -0.4 7 -0.2 7 -0.25 6.7 -0.3 6.7 -0.4 6.7 -0.45 6.45 -0.55 6.45 -0.55 6.15 -0.6 6.15 -0.6 5.9 -0.25 5.3 0.4 5.3 1.6 5.05 0.95 3.9 1.1 3.65 1.3 3.65 2.25 3.35 2.05 2.8 2 2.5 2.1 2.5 2.35 2.25 2.65 2.25
M 7.9 19.3
Q 7.15 19.3 6.5 19.6 7.25 19.9 8 19.6 8.7 19.3 9.45 19.05 9.646875 18.7546875 9.8 18.75 8.84765625 18.7513671875 7.9 19.3
M 4.65 12.05
Q 3.6 12.05 2.65 12.3 1.85 12.6 1.1 12.9 2.05 12.9 2.95 12.6 4.5 12.3 4.65 12.05 Z"/>
</g>

<path id="Layer0_0_1_STROKES" stroke="#000000" stroke-width="2" stroke-linejoin="round" stroke-linecap="round" fill="none" d="
M 69.5 23.7
Q 69.5 25.15 68.5 26.15 67.45 27.15 66.05 27.15 64.6 27.15 63.55 26.15 62.55 25.15 62.55 23.7 62.55 22.25 63.55 21.25 64.6 20.25 66.05 20.25 67.45 20.25 68.5 21.25 69.5 22.25 69.5 23.7 Z"/>

<path id="Layer0_0_2_STROKES" stroke="#333333" stroke-width="2" stroke-linejoin="round" stroke-linecap="round" fill="none" d="
M 70.95 23.7
Q 70.95 25.75 69.5 27.3 68 28.75 65.95 28.75 63.85 28.75 62.4 27.3 60.95 25.75 60.95 23.7 60.95 21.65 62.4 20.2 63.85 18.7 65.95 18.7 68 18.7 69.5 20.2 70.95 21.65 70.95 23.7 Z"/>
</defs>

<g transform="matrix( 1, 0, 0, 1, 0,0) ">
<use xlink:href="#Layer0_0_FILL"/>

<use xlink:href="#Layer0_0_1_STROKES"/>

<use xlink:href="#Layer0_0_2_STROKES"/>
</g>

<g transform="matrix( 0.4356689453125, 0, 0, 0.0900115966796875, 114.1,3.85) ">
<g transform="matrix( 1, 0, 0, 1, 1,0) ">
<g transform="matrix( 1, 0, 0, 1, -1,0) ">
<use filter="url(#Filter_1)" xlink:href="#Tween_1_0_Layer0_0_FILL"/>
</g>
</g>
</g>

<g transform="matrix( 0.4356689453125, 0, 0, 0.0900115966796875, 18.75,4.85) ">
<g transform="matrix( 1, 0, 0, 1, 1,0) ">
<g transform="matrix( 1, 0, 0, 1, -1,0) ">
<use filter="url(#Filter_1)" xlink:href="#Tween_1_0_Layer0_0_FILL"/>
</g>
</g>
</g>
</svg>
