
<svg xmlns="http://www.w3.org/2000/svg" version="1.1" xmlns:xlink="http://www.w3.org/1999/xlink" preserveAspectRatio="none" x="0px" y="0px" width="155px" height="121px" viewBox="0 0 155 121">
<defs>
<g id="Layer0_0_FILL">
<path fill="#13191D" stroke="none" d="
M 33.75 28.35
L 33.75 0 0 0 0 13.65 0 28.35 0 86.05 33.75 86.05 33.75 28.35
M 98.95 28.35
L 98.95 0 75.05 0 69.5 0 54.15 0 54.15 28.35 54.15 86.05 69.5 86.05 98.95 86.05 98.95 28.35
M 154.6 28.35
L 154.6 13.65 154.6 0 121.35 0 121.35 28.35 121.35 86.05 154.6 86.05 154.6 28.35 Z"/>

<path fill="#0E1215" stroke="none" d="
M 54.15 28.35
L 54.15 0 33.75 0 33.75 28.35 33.75 86.05 54.15 86.05 54.15 28.35
M 98.95 0
L 98.95 28.35 98.95 86.05 121.35 86.05 121.35 28.35 121.35 0 98.95 0 Z"/>

<path fill="#35424B" stroke="none" d="
M 154.6 93.7
L 154.6 93.2 69.5 93.2 0 93.2 0 93.7 0 120.6 69.5 120.6 154.6 120.6 154.6 93.7 Z"/>

<path fill="#263037" stroke="none" d="
M 121.35 86.05
L 98.95 86.05 69.5 86.05 54.15 86.05 33.75 86.05 0 86.05 0 93.2 69.5 93.2 154.6 93.2 154.6 86.05 121.35 86.05 Z"/>
</g>
</defs>

<g transform="matrix( 1, 0, 0, 1, 0,0) ">
<use xlink:href="#Layer0_0_FILL"/>
</g>
</svg>
