
<svg xmlns="http://www.w3.org/2000/svg" version="1.1" xmlns:xlink="http://www.w3.org/1999/xlink" preserveAspectRatio="none" x="0px" y="0px" width="2542px" height="157px" viewBox="0 0 2542 157">
<defs>
<g id="Symbol_9_0_Layer0_0_FILL">
<path fill="#031900" stroke="none" d="
M 2524.05 156.95
L 2524.05 58.85
Q 2352.809375 34.9919921875 2069.6 20.1 2015.10546875 17.2341796875 1956.45 14.7 1615.45 0 1222.35 0 1117.6 0 1018 1.05 913.15 2.15 814 4.4 653.6 8.05 508.05 14.7 452.90234375 17.2384765625 402.35 20.1 319.4580078125 24.791015625 248.9 30.35 192.45 34.8 143.85 39.85 60.25 48.5 0 58.85
L 0 156.95 143.85 156.95 248.9 156.95 814.05 156.95 1018.05 156.95 2524.05 156.95 Z"/>
</g>
</defs>

<g transform="matrix( 1, 0, 0, 1, 0,0) ">
<g transform="matrix( 1, 0, 0, 1, 0,0) ">
<use xlink:href="#Symbol_9_0_Layer0_0_FILL"/>
</g>
</g>
</svg>
