
<svg xmlns="http://www.w3.org/2000/svg" version="1.1" xmlns:xlink="http://www.w3.org/1999/xlink" preserveAspectRatio="none" x="0px" y="0px" width="246px" height="73px" viewBox="0 0 246 73">
<defs>
<filter id="Filter_1" x="-20%" y="-20%" width="140%" height="140%" color-interpolation-filters="sRGB">
<feColorMatrix in="SourceGraphic" type="matrix" values="0.4 0 0 0 0 0 0.4 0 0 0 0 0 0.4 0 0 0 0 0 1 0" result="result1"/>
</filter>

<g id="Layer0_0_FILL">
<path fill="#FFFF00" stroke="none" d="
M 8.25 37.6
L 5 37.6 5 44.35 8.25 44.35 8.25 37.6 Z"/>
</g>

<g id="Symbol_6_0_Layer0_0_FILL">
<path fill="#0C0C0C" stroke="none" d="
M 33.75 51.25
Q 32.55 50.7 31.25 50.7 19.25 50.3 17.3 60.15 17.05 69.45 23.25 72.5 27.45 74.55 32.5 73.25 41.55 70.95 41.1 59.4 39.25 53.55 33.75 51.25
M 33.75 57.1
Q 34.45 57.7 35 58.15 36.25 60.1 36.05 63.35 36.05 63.55 36.05 63.6 34.75 67.45 30.75 68.65 30.65 68.65 30.65 68.8 26.1 69 24.1 66.65 24 66.55 23.9 66.55 23.05 65.4 22.55 63.9
L 22.4 63.9
Q 22.3 62.35 22.3 60.95 22.4 60.75 22.4 60.65 24.25 54.2 31.85 56.05 33.05 56.35 33.75 57.1
M 190.25 59.15
Q 188.35 53.95 183.6 51.6 181.85 50.75 180.1 50.75 168.15 50.4 166.45 60.65 166.55 69.55 172.8 72.5 176.9 74.55 181.8 73.2 190.8 70.85 190.25 59.15
M 184.5 64.6
Q 184.35 65.35 183.8 66.05 182.3 67.9 179.8 68.8 173.05 68.9 171.65 63.65 171.65 63.6 171.45 63.6 171.4 62.15 171.45 60.65 171.45 60.5 171.45 60.4 172.55 57.6 174.95 56.05 175 56.05 175 55.95 176.1 55.8 176.95 55.35 177.05 55.35 177.05 55.25 186.3 55.3 184.5 64.6
M 36.05 8.9
Q 35.95 8.9 35.75 8.9 26.1 8.9 16.6 8.9 16.5 18.55 16.6 28.25 16.6 28.35 16.6 28.5 26.1 28.5 35.75 28.5 35.95 28.5 36.05 28.5 36.05 28.35 36.05 28.25 36.05 18.55 36.05 8.9
M 42.85 29.65
Q 42.7 29.65 42.6 29.65 42.6 39.35 42.7 49.05
L 42.85 49.05
Q 52.6 49.05 62.3 49.05 62.45 49.05 62.5 49.05 62.5 48.75 62.5 48.45
L 62.5 29.95
Q 62.5 29.85 62.5 29.65
L 62.5 29.6
Q 52.7 29.45 42.85 29.45 42.85 29.6 42.85 29.65
M 43.05 48.5
Q 43.1 39.2 43.05 29.95 52.6 29.95 62.05 29.95 62.15 29.95 62.3 29.95 62.3 30.1 62.3 30.2 62.3 39.45 62.3 48.75 62.15 48.75 62.05 48.75 52.6 48.75 43.05 48.75 43.05 48.65 43.05 48.5
M 62.3 8.4
Q 62.15 8.4 62.05 8.4 52.5 8.4 42.85 8.4 42.8 18.05 42.85 27.7 42.85 27.85 42.85 28 52.5 28 62.05 28 62.15 28 62.3 28 62.3 27.85 62.3 27.7 62.25 18.05 62.3 8.4
M 85.5 8.65
Q 85.5 8.55 85.5 8.4 85.4 8.4 85.35 8.4 75.85 8.4 66.3 8.4 66.3 8.65 66.3 8.9 66.3 9 66.3 9.2 66.3 18.15 66.3 27.25 66.3 27.35 66.3 27.45 66.3 27.65 66.3 27.7 66.3 27.85 66.3 28 75.85 28 85.35 28 85.4 28 85.5 28 85.5 18.3 85.5 8.65
M 108.3 8.65
Q 108.2 8.65 108.05 8.65 98.6 8.65 89.1 8.65 89.1 18.15 89.1 27.7 89.1 27.85 89.1 28 98.6 28 108.05 28 108.2 28 108.3 28 108.3 27.85 108.3 27.7 108.3 18.15 108.3 8.65
M 131.55 8.65
Q 131.45 8.65 131.35 8.65 121.8 8.65 112.35 8.65 112.35 18.15 112.35 27.7 112.35 27.85 112.35 28 121.8 28 131.35 28 131.45 28 131.55 28 131.55 27.85 131.55 27.7 131.55 18.15 131.55 8.65
M 154.85 8.65
Q 154.65 8.65 154.6 8.65 144.9 8.65 135.4 8.65 135.4 18.15 135.4 27.7 135.4 27.85 135.4 28 144.9 28 154.6 28 154.65 28 154.85 28 154.85 27.85 154.85 27.7 154.85 18.15 154.85 8.65
M 177.8 8.9
Q 177.8 8.8 177.8 8.65 177.65 8.65 177.5 8.65 167.8 8.85 158.55 8.4 158.45 8.4 158.35 8.4 158.3 18.05 158.35 27.7 158.35 27.85 158.35 28 167.85 28 177.3 28 177.4 28 177.5 28 177.5 27.85 177.5 27.7 177.5 18.3 177.5 8.9 177.65 8.9 177.8 8.9
M 201.05 8.65
Q 200.95 8.65 200.8 8.65 191.35 8.65 181.8 8.65 181.8 18.15 181.8 27.7 181.8 27.85 181.8 28 191.35 28 200.8 28 200.95 28 201.05 28 201.05 27.85 201.05 27.7 201.05 18.15 201.05 8.65
M 239.65 44.25
L 239.65 40.65 67.5 40.65 67.5 44.25 239.65 44.25
M 239.4 36.25
L 239.4 32.65 67.25 32.65 67.25 36.25 239.4 36.25
M 224.05 8.4
Q 223.9 8.4 223.75 8.4 214.2 8.4 204.6 8.4 204.6 18.05 204.6 27.7 204.6 27.85 204.6 28 214.2 28 223.75 28 223.9 28 224.05 28 224.05 27.85 224.05 27.7 224.05 18.05 224.05 8.4
M 244.1 8.65
Q 244.1 8.55 244.1 8.4
L 243.85 8.4
Q 235.9 8.4 228.1 8.4 228.1 8.65 228.1 8.9 228.1 9 228.1 9.2 228.55 18.05 228.2 27.45
L 228.1 27.45
Q 228.1 27.65 228.1 27.7 228.1 27.85 228.1 28 235.9 28 243.85 28
L 244.1 28
Q 244.1 18.3 244.1 8.65 Z"/>

<path fill="#FCFCFC" stroke="none" d="
M 35 58.15
Q 34.45 57.7 33.75 57.1 33.05 56.35 31.85 56.05 24.25 54.2 22.4 60.65 22.4 60.75 22.3 60.95 22.3 62.35 22.4 63.9
L 22.55 63.9
Q 23.05 65.4 23.9 66.55 24 66.55 24.1 66.65 26.1 69 30.65 68.8 30.65 68.65 30.75 68.65 34.75 67.45 36.05 63.6 36.05 63.55 36.05 63.35 36.25 60.1 35 58.15
M 183.8 66.05
Q 184.35 65.35 184.5 64.6 186.3 55.3 177.05 55.25 177.05 55.35 176.95 55.35 176.1 55.8 175 55.95 175 56.05 174.95 56.05 172.55 57.6 171.45 60.4 171.45 60.5 171.45 60.65 171.4 62.15 171.45 63.6 171.65 63.6 171.65 63.65 173.05 68.9 179.8 68.8 182.3 67.9 183.8 66.05 Z"/>

<path fill="#53471E" fill-opacity="0.6078431372549019" stroke="none" d="
M 4.7 61.9
Q 4.7 62 4.7 62.15 10.2 62.15 15.8 62
L 15.8 61.9
Q 15.7 61.9 15.6 61.9 13.4 61.9 11.2 61.9 11.15 61.9 11 61.9 7.85 61.9 4.7 61.9 Z"/>

<path fill="#000000" fill-opacity="0.996078431372549" stroke="none" d="
M 4.7 51.75
Q 4.7 56.85 4.7 61.6 4.7 61.75 4.7 61.9 7.85 61.9 11 61.9 11.15 61.9 11.2 61.9 11.3 58.55 11.7 55.3 12.35 51 8.25 51.75
L 8 51.75
Q 7.85 51.75 7.7 51.75 6.2 51.75 4.7 51.75
M 3.55 10.6
L 3.55 10.5
Q 2.55 9.5 0.35 9.9
L 0.35 10.15 0.35 23.75
Q 2.65 24.25 2.85 22.95 3.3 20.1 3.25 17.3 3.2 14.5 3.55 11.85
L 8.15 8.95 8.4 8.9 8.4 7.65 8.15 7.7 3.55 10.6
M 246.3 5.2
Q 246.5 4.3 246.05 3.95 235.7 4.4 224.85 4.35 202.05 4.2 179.3 4.2 156.55 4.2 133.85 4.2 111.1 4.2 88.3 4.2
L 14.3 4.2
Q 14.25 4.7 14.3 5.2
L 14.3 5.45 54.75 5.55 88.3 5.45
Q 111.1 5.45 133.85 5.45 156.55 5.45 179.3 5.45 202.05 5.45 224.85 5.45 235.55 5.45 246.3 5.45 246.3 5.3 246.3 5.2 Z"/>

<path fill="#222424" fill-opacity="0.7098039215686275" stroke="none" d="
M 3.25 17.3
Q 3.3 20.1 2.85 22.95 2.65 24.25 0.35 23.75 1.6 24.15 3.3 24.05
L 3.55 24 3.55 11.85
Q 3.2 14.5 3.25 17.3 Z"/>

<path fill="#090909" fill-opacity="0.2" stroke="none" d="
M 0.35 10.15
L 0 10.15 0.15 23.75 0.35 23.75 0.35 10.15 Z"/>

<path fill="#B49523" fill-opacity="0.7137254901960784" stroke="none" d="
M 8.15 5.95
Q 7.7 5.95 7.65 5.8 6.5 3.6 6.8 0
L 6.6 0
Q 6.3 3.7 7.4 6.05 7.45 6.2 7.85 6.2
L 8.4 6.2 8.15 5.95 Z"/>

<path fill="#947A1C" fill-opacity="0.5882352941176471" stroke="none" d="
M 88.3 62.25
Q 111.1 62.15 133.85 62.25 149.45 62.3 164.4 61.9 149.25 61.9 134.15 61.9 111.35 61.9 88.6 61.9 77.1 61.9 65.55 62.05 76.85 62.3 88.3 62.25 Z"/>

<path fill="#A37E2F" stroke="none" d="
M 224.85 3.95
Q 202.05 3.95 179.3 3.95 156.55 3.95 133.85 3.95 111.1 3.95 88.3 3.95
L 14.3 3.95 14.3 4.2 88.3 4.2
Q 111.1 4.2 133.85 4.2 156.55 4.2 179.3 4.2 202.05 4.2 224.85 4.35 235.7 4.4 246.05 3.95 235.4 3.95 224.85 3.95 Z"/>

<path fill="#FDBE2D" fill-opacity="0.996078431372549" stroke="none" d="
M 246.05 3.95
Q 246.05 3.85 246 3.7 244.8 1 242.05 0 230.85 0 219.75 0 197 0 174.3 0 151.5 0 128.8 0 106 0 83.25 0
L 6.8 0
Q 6.5 3.6 7.65 5.8 7.7 5.95 8.15 5.95
L 8.4 6.2
Q 8.45 6.9 8.4 7.4
L 8.4 7.65 8.4 8.9 8.4 9.25
Q 8.65 15.15 8 51.75
L 8.25 51.75
Q 12.35 51 11.7 55.3 11.3 58.55 11.2 61.9 13.4 61.9 15.6 61.9 15.7 61.9 15.8 61.9 15.8 61.75 15.8 61.6 15.85 61 15.8 60.4 17.7 48.4 32.2 49.15 34.05 49.3 35.5 50 42.2 53.05 43.05 61.9
L 65.55 62.05
Q 77.1 61.9 88.6 61.9 111.35 61.9 134.15 61.9 149.25 61.9 164.4 61.9 164.4 61.75 164.4 61.6 164.4 61.1 164.4 60.65 166.25 48.6 180.55 49.1 183.15 49.2 185.05 50.25 190.8 53.35 191.75 61.1 191.85 61.2 191.9 61.2
L 246.25 61.2 246.25 43.5 246.3 43.5 246.3 32.15
Q 246.3 18.9 246.3 5.7 235.45 5.7 224.6 5.7 201.75 5.7 179.05 5.7 156.35 5.7 133.55 5.7 110.75 5.7 88.1 5.8 72.6 5.85 54.75 5.55
L 14.3 5.45 14.3 5.2
Q 14.25 4.7 14.3 4.2
L 14.3 3.95 88.3 3.95
Q 111.1 3.95 133.85 3.95 156.55 3.95 179.3 3.95 202.05 3.95 224.85 3.95 235.4 3.95 246.05 3.95
M 244.1 8.4
Q 244.1 8.55 244.1 8.65 244.1 18.3 244.1 28
L 243.85 28
Q 235.9 28 228.1 28 227.9 28 227.85 28
L 227.75 28
Q 227.6 18.05 227.6 8.2 227.75 8.2 227.85 8.2 235.9 8.2 244.1 8.25
L 244.1 8.4
M 224.3 8.25
L 224.3 8.4
Q 224.3 8.55 224.3 8.65 224.5 18.55 224.05 28 223.9 28 223.75 28 214.2 28 204.6 28 204.6 27.85 204.6 27.7 204.6 18.05 204.6 8.4 204.6 8.25 204.6 8.2 214.45 8.2 224.3 8.25
M 239.4 32.65
L 239.4 36.25 67.25 36.25 67.25 32.65 239.4 32.65
M 239.65 40.65
L 239.65 44.25 67.5 44.25 67.5 40.65 239.65 40.65
M 201.05 8.25
L 201.05 8.4
Q 201.5 17.85 201.15 28
L 201.05 28
Q 200.95 28 200.8 28 191.35 28 181.8 28 181.7 28 181.6 28
L 181.45 28
Q 181.35 18.05 181.35 8.2 181.45 8.2 181.6 8.2 191.3 8.2 201.05 8.25
M 178.05 8.25
L 178.05 8.4
Q 178.05 8.55 178.05 8.65 178.2 18.55 177.8 28 177.65 28 177.5 28 177.4 28 177.3 28 167.85 28 158.35 28 158.35 27.85 158.35 27.7 158.3 18.05 158.35 8.4 158.35 8.25 158.35 8.2 168.2 8.2 178.05 8.25
M 154.6 8.2
Q 154.65 8.2 154.85 8.2 155.2 17.8 154.95 28
L 154.85 28
Q 154.65 28 154.6 28 144.9 28 135.4 28
L 135.2 28
Q 135.15 18.05 135.15 8.2 135.2 8.2 135.4 8.2 144.9 8.2 154.6 8.2
M 131.8 8.25
L 131.8 8.4
Q 131.8 8.55 131.8 8.65 131.95 18.55 131.55 28 131.45 28 131.35 28 121.8 28 112.35 28
L 112.2 28
Q 112.1 18.15 112.1 8.4 112.1 8.25 112.1 8.2 121.95 8.2 131.8 8.25
M 108.3 8.2
Q 108.45 8.2 108.55 8.2 109 17.8 108.7 28
L 108.55 28
Q 108.45 28 108.3 28 108.2 28 108.05 28 98.6 28 89.1 28 89.1 27.85 89.1 27.7 89.1 18.15 89.1 8.65 89.1 8.55 89.1 8.4 89.1 8.25 89.1 8.2 98.7 8.2 108.3 8.2
M 85.5 8.4
Q 85.5 8.55 85.5 8.65 85.5 18.3 85.5 28 85.4 28 85.35 28 75.85 28 66.3 28 66.2 28 66.05 28
L 66 28
Q 65.95 18.05 65.95 8.2 66 8.2 66.05 8.2 75.85 8.2 85.5 8.25
L 85.5 8.4
M 62.5 8.4
Q 62.5 8.55 62.5 8.65 62.75 18.55 62.3 28 62.15 28 62.05 28 52.5 28 42.85 28 42.85 27.85 42.85 27.7 42.8 18.05 42.85 8.4 42.85 8.25 42.85 8.2 52.7 8.2 62.5 8.25
L 62.5 8.4
M 42.6 29.65
Q 42.7 29.65 42.85 29.65 42.85 29.6 42.85 29.45 52.7 29.45 62.5 29.6
L 62.5 29.65
Q 62.5 29.85 62.5 29.95
L 62.5 48.45
Q 62.5 48.75 62.5 49.05 62.45 49.05 62.3 49.05 52.6 49.05 42.85 49.05
L 42.7 49.05
Q 42.6 39.35 42.6 29.65
M 35.75 8.9
Q 35.95 8.9 36.05 8.9 36.05 18.55 36.05 28.25 36.05 28.35 36.05 28.5 35.95 28.5 35.75 28.5 26.1 28.5 16.6 28.5 16.6 28.35 16.6 28.25 16.5 18.55 16.6 8.9 26.1 8.9 35.75 8.9 Z"/>

<path fill="#FDBE2E" stroke="none" d="
M 43.05 29.95
Q 43.1 39.2 43.05 48.5 43.05 48.65 43.05 48.75 52.6 48.75 62.05 48.75 62.15 48.75 62.3 48.75 62.3 39.45 62.3 30.2 62.3 30.1 62.3 29.95 62.15 29.95 62.05 29.95 52.6 29.95 43.05 29.95 Z"/>

<path fill="#876A2F" stroke="none" d="
M 62.5 8.65
Q 62.5 8.55 62.5 8.4 62.45 8.4 62.3 8.4 62.25 18.05 62.3 27.7 62.3 27.85 62.3 28 62.75 18.55 62.5 8.65
M 224.3 8.4
Q 224.15 8.4 224.05 8.4 224.05 18.05 224.05 27.7 224.05 27.85 224.05 28 224.5 18.55 224.3 8.65 224.3 8.55 224.3 8.4 Z"/>

<path fill="#8D6F2F" stroke="none" d="
M 62.05 8.4
Q 62.15 8.4 62.3 8.4 62.45 8.4 62.5 8.4
L 62.5 8.25
Q 52.7 8.2 42.85 8.2 42.85 8.25 42.85 8.4 52.5 8.4 62.05 8.4
M 131.8 8.4
L 131.8 8.25
Q 121.95 8.2 112.1 8.2 112.1 8.25 112.1 8.4 112.2 8.4 112.35 8.4 121.8 8.4 131.35 8.4 131.45 8.4 131.55 8.4 131.6 8.4 131.8 8.4
M 177.8 8.4
Q 177.9 8.4 178.05 8.4
L 178.05 8.25
Q 168.2 8.2 158.35 8.2 158.35 8.25 158.35 8.4 158.45 8.4 158.55 8.4 168.1 8.4 177.5 8.4 177.65 8.4 177.8 8.4
M 224.05 8.4
Q 224.15 8.4 224.3 8.4
L 224.3 8.25
Q 214.45 8.2 204.6 8.2 204.6 8.25 204.6 8.4 214.2 8.4 223.75 8.4 223.9 8.4 224.05 8.4 Z"/>

<path fill="#0C182F" stroke="none" d="
M 66.3 8.4
Q 66.2 8.4 66.05 8.4 66.05 18.05 66.05 27.7 66.05 27.85 66.05 28 66.2 28 66.3 28 66.3 27.85 66.3 27.7 66.3 27.65 66.3 27.45 66.3 27.35 66.3 27.25 66.3 18.15 66.3 9.2 66.3 9 66.3 8.9 66.3 8.65 66.3 8.4
M 228.1 8.4
Q 227.9 8.4 227.85 8.4 227.85 18.05 227.85 27.7 227.85 27.85 227.85 28 227.9 28 228.1 28 228.1 27.85 228.1 27.7 228.1 27.65 228.1 27.45 228.1 27.35 228.1 27.25 228.1 18.15 228.1 9.2 228.1 9 228.1 8.9 228.1 8.65 228.1 8.4 Z"/>

<path fill="#94732F" stroke="none" d="
M 66.05 8.2
Q 66 8.2 65.95 8.2 65.95 18.05 66 28
L 66.05 28
Q 66.05 27.85 66.05 27.7 66.05 18.05 66.05 8.4 66.05 8.25 66.05 8.2
M 227.85 8.4
Q 227.85 8.25 227.85 8.2 227.75 8.2 227.6 8.2 227.6 18.05 227.75 28
L 227.85 28
Q 227.85 27.85 227.85 27.7 227.85 18.05 227.85 8.4 Z"/>

<path fill="#8C6E2F" stroke="none" d="
M 85.35 8.4
Q 85.4 8.4 85.5 8.4
L 85.5 8.25
Q 75.85 8.2 66.05 8.2 66.05 8.25 66.05 8.4 66.2 8.4 66.3 8.4 75.85 8.4 85.35 8.4
M 108.55 8.2
Q 108.45 8.2 108.3 8.2 98.7 8.2 89.1 8.2 89.1 8.25 89.1 8.4 98.7 8.4 108.3 8.4 108.45 8.4 108.55 8.4 108.55 8.25 108.55 8.2
M 154.85 8.2
Q 154.65 8.2 154.6 8.2 144.9 8.2 135.4 8.2 135.4 8.25 135.4 8.4 144.9 8.4 154.6 8.4 154.65 8.4 154.85 8.4 154.85 8.25 154.85 8.2
M 201.05 8.4
L 201.05 8.25
Q 191.3 8.2 181.6 8.2 181.6 8.25 181.6 8.4 191.2 8.4 200.8 8.4 200.95 8.4 201.05 8.4
M 243.85 8.4
L 244.1 8.4 244.1 8.25
Q 235.9 8.2 227.85 8.2 227.85 8.25 227.85 8.4 227.9 8.4 228.1 8.4 235.9 8.4 243.85 8.4 Z"/>

<path fill="#A7812F" stroke="none" d="
M 108.55 8.2
Q 108.55 8.25 108.55 8.4 108.55 18.05 108.55 27.7 108.55 27.85 108.55 28
L 108.7 28
Q 109 17.8 108.55 8.2 Z"/>

<path fill="#0F192F" stroke="none" d="
M 108.05 8.65
Q 108.2 8.65 108.3 8.65 108.3 18.15 108.3 27.7 108.3 27.85 108.3 28 108.45 28 108.55 28 108.55 27.85 108.55 27.7 108.55 18.05 108.55 8.4 108.45 8.4 108.3 8.4 98.7 8.4 89.1 8.4 89.1 8.55 89.1 8.65 98.6 8.65 108.05 8.65 Z"/>

<path fill="#735D2F" stroke="none" d="
M 112.35 8.4
Q 112.2 8.4 112.1 8.4 112.1 18.15 112.2 28
L 112.35 28
Q 112.35 27.85 112.35 27.7 112.35 18.15 112.35 8.65 112.35 8.55 112.35 8.4 Z"/>

<path fill="#0E192F" stroke="none" d="
M 131.35 8.65
Q 131.45 8.65 131.55 8.65 131.55 8.55 131.55 8.4 131.45 8.4 131.35 8.4 121.8 8.4 112.35 8.4 112.35 8.55 112.35 8.65 121.8 8.65 131.35 8.65
M 154.6 8.65
Q 154.65 8.65 154.85 8.65 154.85 8.55 154.85 8.4 154.65 8.4 154.6 8.4 144.9 8.4 135.4 8.4 135.4 8.55 135.4 8.65 144.9 8.65 154.6 8.65
M 177.8 8.4
Q 177.65 8.4 177.5 8.4 168.1 8.4 158.55 8.4 167.8 8.85 177.5 8.65 177.65 8.65 177.8 8.65 177.8 8.55 177.8 8.4 Z"/>

<path fill="#443E2F" stroke="none" d="
M 131.8 8.65
Q 131.8 8.55 131.8 8.4 131.6 8.4 131.55 8.4 131.55 8.55 131.55 8.65 131.55 18.15 131.55 27.7 131.55 27.85 131.55 28 131.95 18.55 131.8 8.65 Z"/>

<path fill="#D4A02F" stroke="none" d="
M 135.4 8.65
Q 135.4 8.55 135.4 8.4 135.4 8.25 135.4 8.2 135.2 8.2 135.15 8.2 135.15 18.05 135.2 28
L 135.4 28
Q 135.4 27.85 135.4 27.7 135.4 18.15 135.4 8.65 Z"/>

<path fill="#C8982F" stroke="none" d="
M 154.85 8.2
Q 154.85 8.25 154.85 8.4 154.85 8.55 154.85 8.65 154.85 18.15 154.85 27.7 154.85 27.85 154.85 28
L 154.95 28
Q 155.2 17.8 154.85 8.2 Z"/>

<path fill="#181F2F" stroke="none" d="
M 177.8 8.9
Q 177.65 8.9 177.5 8.9 177.5 18.3 177.5 27.7 177.5 27.85 177.5 28 177.65 28 177.8 28 177.8 27.85 177.8 27.7 177.8 18.3 177.8 8.9 Z"/>

<path fill="#65542F" stroke="none" d="
M 177.8 8.65
Q 177.8 8.8 177.8 8.9 177.8 18.3 177.8 27.7 177.8 27.85 177.8 28 178.2 18.55 178.05 8.65 178.05 8.55 178.05 8.4 177.9 8.4 177.8 8.4 177.8 8.55 177.8 8.65 Z"/>

<path fill="#B38B2F" stroke="none" d="
M 181.6 8.4
Q 181.6 8.25 181.6 8.2 181.45 8.2 181.35 8.2 181.35 18.05 181.45 28
L 181.6 28
Q 181.6 27.85 181.6 27.7 181.6 18.05 181.6 8.4 Z"/>

<path fill="#E6AD2E" stroke="none" d="
M 201.05 8.4
Q 201.05 8.55 201.05 8.65 201.05 18.15 201.05 27.7 201.05 27.85 201.05 28
L 201.15 28
Q 201.5 17.85 201.05 8.4 Z"/>

<path fill="#101A2F" stroke="none" d="
M 200.8 8.65
Q 200.95 8.65 201.05 8.65 201.05 8.55 201.05 8.4 200.95 8.4 200.8 8.4 191.2 8.4 181.6 8.4 181.6 18.05 181.6 27.7 181.6 27.85 181.6 28 181.7 28 181.8 28 181.8 27.85 181.8 27.7 181.8 18.15 181.8 8.65 191.35 8.65 200.8 8.65 Z"/>

<path fill="#35342F" stroke="none" d="
M 228.1 27.45
L 228.2 27.45
Q 228.55 18.05 228.1 9.2 228.1 18.15 228.1 27.25 228.1 27.35 228.1 27.45 Z"/>

<path fill="#DDA82E" fill-opacity="0.996078431372549" stroke="none" d="
M 246.3 5.7
Q 246.3 5.55 246.3 5.45 235.55 5.45 224.85 5.45 202.05 5.45 179.3 5.45 156.55 5.45 133.85 5.45 111.1 5.45 88.3 5.45
L 54.75 5.55
Q 72.6 5.85 88.1 5.8 110.75 5.7 133.55 5.7 156.35 5.7 179.05 5.7 201.75 5.7 224.6 5.7 235.45 5.7 246.3 5.7 Z"/>
</g>
</defs>

<g transform="matrix( 1, 0, 0, 1, 0,0) ">
<use xlink:href="#Layer0_0_FILL"/>
</g>

<g transform="matrix( 1, 0, 0, 1, 0,-0.5) ">
<g transform="matrix( 1, 0, 0, 1, 0,0) ">
<use filter="url(#Filter_1)" xlink:href="#Symbol_6_0_Layer0_0_FILL"/>
</g>
</g>
</svg>
