
<svg xmlns="http://www.w3.org/2000/svg" version="1.1" xmlns:xlink="http://www.w3.org/1999/xlink" preserveAspectRatio="none" x="0px" y="0px" width="1786px" height="188px" viewBox="0 0 1786 188">
<defs>
<g id="Layer1_0_FILL">
<path fill="#010900" stroke="none" d="
M 512.55 88.3
Q 510.6 84.45 507.9 82.5 482.25 63.8 454.2 79.5 452.8 80.25 451.35 81.15 452.05 70 448 59.9 445.55 53.75 440.55 50.55 417.35 35.55 396.35 56.65 396.1 48.65 394.7 40.8 393.15 32.3 387.15 27.7 368.6 13.4 344.85 11.65 338.35 13 331.3 14.85 330.02421875 15.184765625 328.35 16.05 320.8751953125 19.9662109375 305.6 34.75 298.8173828125 20.8203125 288.1 16.05 287.0427734375 15.5806640625 285.95 15.2 276.15 11.8 266.3 10.35 244.9150390625 8.9544921875 232.05 16.05 229.249609375 17.598046875 226.85 19.55 213.4 30.45 211.8 38.9 210.15 47.35 209.9 55.35 186.9 34.25 161.5 49.25 156 52.45 153.35 58.6 148.9 68.7 149.65 79.85 121.8310546875 64.1373046875 96.15 76.4 91.9208984375 78.4216796875 87.75 81.2 84.8 83.15 82.65 87 76.75 97.6 77.4 109.6 63.35 103.05 49.6 109.8 34.8 117.1 32.5 131.35 -2.8 128 0.25 160.85 2.05 180.05 24.5 181.85 64.25 185.05 294.6 184.55 317.25 184.5 454.2 183.75 502.75 183.5 565.65 183.15 575.7 183.1 581.45 177.45 586.95 172 587.8 162.15 590.6 129.3 553.55 139.05 556.25 118.4 542.75 111.1 530.2 104.35 517.35 110.9 517.95 98.9 512.55 88.3
M 1717.9 85.8
Q 1716.15 81.95 1713.7 80 1689.2 60.35 1662.3 78.65 1662.9 67.6 1659.2 57.4 1657.05 51.3 1652.45 48.05 1631.4 33.05 1612.25 54.15 1612.05 46.2 1610.75 38.3 1609.3 29.7 1598.2 18.3 1586.95 6.75 1571.4 2.05 1555.7 -2.75 1540.1 3.7 1524.45 10.15 1514.6 24.95 1506.35 12.15 1493.2 5.45 1479.9 -1.25 1460.45 0.9 1434.85 3.45 1423.5 15.3 1412.25 27 1408.75 37.3 1405.25 47.55 1404.15 55.45 1383.5 37.7 1367.95 45.05 1352.5 52.35 1348.95 60.6 1345.45 68.75 1346.2 79.95 1320.4 65.4 1302.65 74.9 1284.85 84.3 1281.25 91.4 1277.6 98.4 1276.7 109.7 1263.15 103.2 1249.9 109.9 1235.7 117.2 1240.7 139.45 1199.55 128.15 1202.45 160.95 1203.35 170.9 1211.45 178.95 1219.9 187.35 1230.45 187.55 1279.4 188.65 1321.85 188.15 1360.75 187.7 1408.4 185.7 1415.85 185.4 1581.75 184.45 1735.4 183.6 1766.25 180.65 1784.9 178.85 1786.4 159.65 1788.95 126.75 1759.6 130.15 1757.7 115.9 1745.4 108.6 1734 101.85 1722.3 108.4 1722.85 96.35 1717.9 85.8 Z"/>
</g>
</defs>

<g transform="matrix( 1, 0, 0, 1, 0,0) ">
<use xlink:href="#Layer1_0_FILL"/>
</g>
</svg>
