
<svg xmlns="http://www.w3.org/2000/svg" version="1.1" xmlns:xlink="http://www.w3.org/1999/xlink" preserveAspectRatio="none" x="0px" y="0px" width="47px" height="54px" viewBox="0 0 47 54">
<defs>
<g id="Layer0_0_FILL">
<path fill="#FFFF33" stroke="none" d="
M 46.7 39.95
L 35.85 39.95 35.85 54 46.7 54 46.7 39.95
M 30.2 39.95
L 18.4 39.95 18.4 54 30.2 54 30.2 39.95
M 12.6 39.95
L 0 39.95 0 54 12.6 54 12.6 39.95
M 12.6 21.8
L 0 21.8 0 36 12.6 36 12.6 21.8
M 12.6 17.9
L 12.6 0 0 0 0 17.9 12.6 17.9
M 30.2 17.9
L 30.2 0 18.4 0 18.4 17.9 30.2 17.9
M 46.7 36
L 46.7 21.8 35.85 21.8 35.85 36 46.7 36
M 46.7 17.9
L 46.7 0 35.85 0 35.85 17.9 46.7 17.9 Z"/>
</g>
</defs>

<g transform="matrix( 1, 0, 0, 1, 0,0) ">
<use xlink:href="#Layer0_0_FILL"/>
</g>
</svg>
