
<svg xmlns="http://www.w3.org/2000/svg" version="1.1" xmlns:xlink="http://www.w3.org/1999/xlink" preserveAspectRatio="none" x="0px" y="0px" width="47px" height="54px" viewBox="0 0 47 54">
<defs>
<g id="Layer0_0_FILL">
<path fill="#FFFF33" stroke="none" d="
M 33.6 39.7
L 33.6 53.65 46.05 53.65 46.05 39.7 33.6 39.7
M 18.1 21.65
L 18.1 35.75 27.75 35.75 27.75 21.65 18.1 21.65
M 12.35 39.7
L 0 39.7 0 53.65 12.35 53.65 12.35 39.7
M 12.35 21.65
L 0 21.65 0 35.75 12.35 35.75 12.35 21.65
M 0 0
L 0 17.8 12.35 17.8 12.35 0 0 0
M 46.05 17.8
L 46.05 0 33.6 0 33.6 17.8 46.05 17.8
M 46.05 35.75
L 46.05 21.65 33.6 21.65 33.6 35.75 46.05 35.75
M 146.85 39.7
L 133.95 39.7 133.95 53.65 146.85 53.65 146.85 39.7
M 146.85 35.75
L 146.85 21.65 133.95 21.65 133.95 35.75 146.85 35.75
M 146.85 17.8
L 146.85 0 133.95 0 133.95 17.8 146.85 17.8 Z"/>
</g>
</defs>

<g transform="matrix( 1, 0, 0, 1, 0,0) ">
<use xlink:href="#Layer0_0_FILL"/>
</g>
</svg>
