
<svg xmlns="http://www.w3.org/2000/svg" version="1.1" xmlns:xlink="http://www.w3.org/1999/xlink" preserveAspectRatio="none" x="0px" y="0px" width="2520px" height="1456px" viewBox="0 0 2520 1456">
<defs>
<g id="Layer0_0_FILL">
<path fill="#6A4D1A" stroke="none" d="
M 1643.6 841.45
Q 1645.05 840.65 1646.5 840.05 1649.85 838.7 1648.9 837.2 1648.2 837.55 1647.35 837.85 1644.5 838.8 1641.75 840.2 1624.65 849.15 1617.8 866.25 1617.65 865.1 1617.4 863.95 1619.9 852.1 1621.55 840.05 1624.8 817.25 1612.5 799.45
L 1612.35 799.55
Q 1616.5 806.25 1617.8 814.3 1621.3 835.75 1616.3 857.1 1616.1 858 1615.8 858.9 1614.55 855.9 1612.65 853.05 1612.05 852.15 1611.55 851.3 1604.3 838.35 1592.35 830.25 1591.8 830.25 1592.25 830.6 1597.15 834.45 1600.4 839.75 1603.1 844.15 1606.4 848.25 1606.15 849.65 1607.4 851.35 1609.65 854.55 1611.35 857.95 1611.3 858.05 1611.35 858.2 1611.5 858.75 1611.85 859.1 1612.05 859.6 1612.3 860.1 1612.35 861 1612.55 861.85 1613.9 867.75 1614.7 873.75 1614.7 874.6 1614.75 875.45 1614.75 877.1 1614.8 878.75 1614.8 878.85 1614.8 878.95 1614.8 879.2 1614.8 879.45 1614.6 879.1 1614.45 878.75 1613.4 876.85 1612.15 875.25 1607.95 869.9 1601.25 868.05
L 1600.4 867.95
Q 1605.15 869.75 1608 874.35 1608.1 874.5 1608.2 874.7 1609.1 876.15 1609.9 877.65 1610.2 878.2 1610.5 878.75 1611.95 881.3 1613.65 883.65 1613.85 884.6 1614.15 885.5 1614.35 886.1 1614.5 886.75 1614.7 887.9 1614.7 889.1
L 1614.75 889.15
Q 1614.6 895.75 1614.1 902.25 1613.55 902.75 1612.95 903.2 1612 904 1611.7 905 1612.6 905.25 1613.45 905.45 1616.2 906.7 1618.65 906.05 1621.65 906.1 1624.3 905.35 1622.05 904.95 1621.75 902.6 1621.25 898.25 1621.1 894 1621.05 891.45 1621.05 889.1 1621.45 888.1 1621.7 887.05 1621.75 886.9 1621.8 886.75 1622.95 882.35 1625.35 878.75 1626.9 876.4 1628.95 874.35 1629 874.3 1629.05 874.25 1631.6 871.75 1631.05 870.25 1630.25 870.4 1629.55 870.95 1627 872.85 1624.9 875.15 1623.35 876.85 1622.1 878.75 1621 880.3 1620.15 882 1620.15 880.35 1620.15 878.75 1620.15 877.15 1620.25 875.55 1620.4 870.85 1620.9 866.45 1627.55 850.25 1643.6 841.45 Z"/>

<path fill="#003300" stroke="none" d="
M 1605.25 783.8
Q 1602.2 784.05 1599.55 785 1588.55 788.7 1581.6 798.3 1575.25 807.1 1573.85 818.2 1573.15 823.8 1574.65 829.05 1575.5 832.15 1576.1 835.2 1578.5 846.8 1585.65 855.75 1586.75 857.15 1587.65 858.55 1591.2 864.1 1597.05 866.25 1598.9 867.75 1600.75 869.15 1604 871.65 1607.1 874.15 1607.65 874.55 1608.2 874.7 1608.1 874.5 1608 874.35 1605.15 869.75 1600.4 867.95
L 1601.25 868.05
Q 1607.95 869.9 1612.15 875.25 1613.45 875.35 1614.75 875.45 1614.7 874.6 1614.7 873.75 1613.9 867.75 1612.55 861.85 1612.35 861 1612.3 860.1 1612.05 859.6 1611.85 859.1 1611.5 858.75 1611.35 858.2 1611.3 858.05 1611.35 857.95 1609.65 854.55 1607.4 851.35 1606.15 849.65 1606.4 848.25 1603.1 844.15 1600.4 839.75 1597.15 834.45 1592.25 830.6 1591.8 830.25 1592.35 830.25 1604.3 838.35 1611.55 851.3 1612.05 852.15 1612.65 853.05 1614.55 855.9 1615.8 858.9 1616.1 858 1616.3 857.1 1621.3 835.75 1617.8 814.3 1616.5 806.25 1612.35 799.55
L 1612.5 799.45
Q 1624.8 817.25 1621.55 840.05 1619.9 852.1 1617.4 863.95 1617.65 865.1 1617.8 866.25 1624.65 849.15 1641.75 840.2 1644.5 838.8 1647.35 837.85 1648.2 837.55 1648.9 837.2 1649.85 838.7 1646.5 840.05 1645.05 840.65 1643.6 841.45 1627.55 850.25 1620.9 866.45 1620.4 870.85 1620.25 875.55 1620.95 875.5 1621.7 875.45 1623.3 875.35 1624.9 875.15 1627 872.85 1629.55 870.95 1630.25 870.4 1631.05 870.25 1631.6 871.75 1629.05 874.25 1629 874.3 1628.95 874.35 1631.8 873.65 1634.55 872.5 1642.05 869.3 1648.25 863.55 1654.65 857.6 1657.45 849.15 1661.65 836.15 1663.15 822.5 1664.5 810 1657.7 800 1654.65 795.5 1650.05 792.9 1636.35 785.15 1620.95 782.8 1613.2 783.05 1605.25 783.8
M 812.8 885.7
Q 821.65 880 826.25 870.7 829.1 865 829.25 858.55 829.5 850.2 826.35 843.2 821 831 809.6 825.6 809.3 821.65 807.65 817.5 804.05 808.35 795.55 803.1 786.8 797.65 776.15 797.35 767.85 798 761.2 802.85 751.25 810.1 749.75 821.95 749.2 826.05 748.5 830 743.3 833.5 738.75 838 724.65 851.9 731.7 869.8 733.15 873.4 735.35 876.35 745.3 889.55 762.8 890.45 768.5 890.7 772.55 888.55 771.05 881.7 767.35 875.75 765.55 872.9 762.25 871.5 766.45 871.1 769.95 875 771.3 876.5 772.4 877.9 771.15 872.9 772.35 866.9 775.55 851 777.7 834.7 778 832.35 778.5 830.3
L 778.5 830.25
Q 778.6 829.85 778.7 829.5 778.7 830.15 778.7 830.75 780.55 836.45 778.8 842.5 777.6 846.65 777.75 851.05 782.6 842.15 791.75 837.85 794.2 836.7 796.45 837 796.5 836.95 796.55 836.95
L 796.55 837
Q 796.8 837.05 797.05 837.1 796.75 837.2 796.45 837.3 796.15 837.8 795.5 838.25 795.15 838.45 794.75 838.65 793.25 840.15 791.05 841.95 789.05 843.7 787.2 844.85 787.2470703125 844.7087890625 787.35 844.6 779.4982421875 852.6087890625 777.05 864.35 774.85 875.35 780.15 885.3 785.5 885.2 788.8 880.35 790.4 878 792.2 876.75 790.6 883.45 786.55 889.4 797.9 892.55 809.5 887.5 811.3 886.75 812.8 885.7
M 1518.05 834.95
Q 1516.5 829 1511.8 824.85 1501.05 815.3 1487.25 811.15 1478.1 810.05 1471 815.2 1461.55 822.1 1456.5 832.45 1452.65 840.45 1452.2 849.8 1451.8 858.75 1456.2 866.05 1458 869.1 1459.8 872.15 1462.25 876.4 1466.45 878.75 1468.1 879.65 1469.95 880.3 1472.6 881.2 1473.9 882.4 1476.9 883.65 1479.9 884.9 1480.05 884.9 1480.25 884.95 1480.1 884.3 1479.9 883.7 1479.45 882.2 1478.95 880.85 1478.15 879.75 1477.3 878.75 1474.9 876 1471.7 873.9 1471.75 873.65 1472 873.6 1472.3 873.5 1472.65 873.45 1476.25 875.8 1479.35 878.75 1479.7 879.1 1480.05 879.45 1480 879.1 1480 878.75 1479.4 874.5 1478.35 870.4 1478.25 870.1 1478.25 869.8 1475.1 861.4 1469.55 855.15 1469.65 854.95 1469.8 854.9 1469.9 854.85 1470 854.8 1473.85 857.35 1476.3 861.5 1477.1 862.85 1477.85 864.2 1478.5 865.35 1479.1 866.5 1478.1 855.35 1478.95 844.2 1479.15 841.3 1480 838.9 1480.75 844.55 1480.7 850.7 1480.55 859.3 1480.95 867.65 1482.85 857.5 1488.75 848.75 1491.8 844.2 1492.55 839.25 1493.05 844.75 1490.25 850.25 1487.45 855.7 1485.1 861.4 1484.5 862.9 1484.1 864.5 1484.3 868.35 1484.5 872.5 1484.55 873.5 1484.65 874.5 1484.95 872.45 1486.3 870.35 1487.05 869.2 1487.8 868 1489.25 865.7 1491.1 863.9 1493.45 860.85 1496.6 858.4 1504.55 852.4 1508.45 843.85 1508.55 847.4 1506.1 850.9 1500.8 858.4 1493.9 864.6 1492.35 866 1491.35 867.85 1489.75 870.85 1488.4 873.95 1488.55 875.8 1488.6 877.75 1489.55 876.4 1490.5 875.1 1492.55 872.25 1495.55 870.9 1496.05 870.45 1496.55 870 1497.45 869.25 1498.6 869.1 1494.05 873.05 1490.95 878.6 1490.9 878.7 1490.9 878.75 1489.65 880.85 1488.4 882.8 1488.3 884.05 1488.25 885.3 1497.9 885.05 1505.25 879.95 1506.1 879.35 1506.85 878.75 1507.4 878.3 1507.9 877.85 1516.35 870.3 1520.55 859.2 1521.35 857.15 1521.2 855.1 1520.65 845 1518.05 834.95 Z"/>

<path fill="#7A540A" stroke="none" d="
M 778.5 830.3
Q 778 832.35 777.7 834.7 775.55 851 772.35 866.9 771.15 872.9 772.4 877.9 771.3 876.5 769.95 875 766.45 871.1 762.25 871.5 765.55 872.9 767.35 875.75 771.05 881.7 772.55 888.55 772.6 888.9 772.7 889.3 774.85 899.75 770.25 908.5 771.95 908.45 773.85 908.55 780.4 908.9 784.25 906.3 779.7 905.45 779.95 900.65 780.1 896.95 782.5 894.45 783.15 893.75 783.65 893.15 785.2 891.3 786.55 889.4 790.6 883.45 792.2 876.75 790.4 878 788.8 880.35 785.5 885.2 780.15 885.3 774.85 875.35 777.05 864.35 779.4982421875 852.6087890625 787.35 844.6 787.2470703125 844.7087890625 787.2 844.85 789.05 843.7 791.05 841.95 793.25 840.15 794.75 838.65 795.15 838.45 795.5 838.25 796.15 837.8 796.45 837.3 796.75 837.2 797.05 837.1 796.8 837.05 796.55 837
L 796.55 836.95
Q 796.5 836.95 796.45 837 794.2 836.7 791.75 837.85 782.6 842.15 777.75 851.05 777.6 846.65 778.8 842.5 780.55 836.45 778.7 830.75 778.7 830.15 778.7 829.5 778.6 829.85 778.5 830.25
L 778.5 830.3 Z"/>

<path fill="#573F0E" stroke="none" d="
M 1496.6 858.4
Q 1493.45 860.85 1491.1 863.9 1489.25 865.7 1487.8 868 1487.05 869.2 1486.3 870.35 1484.95 872.45 1484.65 874.5 1484.55 873.5 1484.5 872.5 1484.3 868.35 1484.1 864.5 1484.5 862.9 1485.1 861.4 1487.45 855.7 1490.25 850.25 1493.05 844.75 1492.55 839.25 1491.8 844.2 1488.75 848.75 1482.85 857.5 1480.95 867.65 1480.55 859.3 1480.7 850.7 1480.75 844.55 1480 838.9 1479.15 841.3 1478.95 844.2 1478.1 855.35 1479.1 866.5 1478.5 865.35 1477.85 864.2 1477.1 862.85 1476.3 861.5 1473.85 857.35 1470 854.8 1469.9 854.85 1469.8 854.9 1469.65 854.95 1469.55 855.15 1475.1 861.4 1478.25 869.8 1478.25 870.1 1478.35 870.4 1479.4 874.5 1480 878.75 1480 879.1 1480.05 879.45 1479.7 879.1 1479.35 878.75 1476.25 875.8 1472.65 873.45 1472.3 873.5 1472 873.6 1471.75 873.65 1471.7 873.9 1474.9 876 1477.3 878.75 1478.15 879.75 1478.95 880.85 1479.45 882.2 1479.9 883.7 1480.1 884.3 1480.25 884.95 1480.5 885.85 1480.7 886.75 1481.5 890.6 1481.55 894.65 1481.6 896.35 1481.85 898 1482.85 904.1 1477.6 906.8 1477.25 906.95 1477.45 907 1480.85 907.65 1484.75 908 1488.35 908.3 1491.45 906.75 1491.65 906.7 1491.85 906.7 1491.8 906.65 1491.75 906.6 1491.85 906.55 1491.9 906.5 1492.25 906.3 1492 906.35 1491.8 906.35 1491.65 906.4 1490.75 905.1 1490.3 903.4 1488.1 895.25 1488.25 886.75 1488.2 886 1488.25 885.3 1488.3 884.05 1488.4 882.8 1489.65 880.85 1490.9 878.75 1490.9 878.7 1490.95 878.6 1494.05 873.05 1498.6 869.1 1497.45 869.25 1496.55 870 1496.05 870.45 1495.55 870.9 1492.55 872.25 1490.5 875.1 1489.55 876.4 1488.6 877.75 1488.55 875.8 1488.4 873.95 1489.75 870.85 1491.35 867.85 1492.35 866 1493.9 864.6 1500.8 858.4 1506.1 850.9 1508.55 847.4 1508.45 843.85 1504.55 852.4 1496.6 858.4 Z"/>
</g>
</defs>

<g transform="matrix( 1, 0, 0, 1, 0,0) ">
<use xlink:href="#Layer0_0_FILL"/>
</g>
</svg>
