
<svg xmlns="http://www.w3.org/2000/svg" version="1.1" xmlns:xlink="http://www.w3.org/1999/xlink" preserveAspectRatio="none" x="0px" y="0px" width="2520px" height="1456px" viewBox="0 0 2520 1456">
<defs>
<g id="Layer0_0_FILL">
<path fill="#0C0C0C" stroke="none" d="
M 1717.65 912.2
Q 1715.8 912.2 1714 913.05 1709.1 915.4 1707.15 920.6 1706.55 932.3 1715.85 934.65 1720.95 936 1725.2 933.95 1731.65 931 1731.75 922.1 1730 911.85 1717.65 912.2
M 1717.95 930.25
Q 1715.35 929.35 1713.8 927.5 1713.25 926.8 1713.1 926.05 1711.2 916.75 1720.8 916.7 1720.8 916.8 1720.9 916.8 1721.75 917.25 1722.9 917.4 1722.9 917.5 1722.95 917.5 1725.45 919.05 1726.55 921.85 1726.55 921.95 1726.55 922.1 1726.6 923.6 1726.55 925.05 1726.35 925.05 1726.35 925.1 1724.9 930.35 1717.95 930.25
M 1871.5 912.15
Q 1870.15 912.15 1868.9 912.7 1863.25 915 1861.3 920.85 1860.85 932.4 1870.2 934.7 1875.45 936 1879.75 933.95 1886.15 930.9 1885.9 921.6 1883.9 911.75 1871.5 912.15
M 1880.65 922.1
Q 1880.65 922.2 1880.75 922.4 1880.75 923.8 1880.65 925.35
L 1880.5 925.35
Q 1879.95 926.85 1879.1 928 1879 928 1878.9 928.1 1876.8 930.45 1872.1 930.25 1872.1 930.1 1872 930.1 1867.9 928.9 1866.55 925.05 1866.55 925 1866.55 924.8 1866.35 921.55 1867.6 919.6 1868.2 919.15 1868.9 918.55 1869.65 917.8 1870.9 917.5 1878.75 915.65 1880.65 922.1
M 1672.5 869.85
Q 1672.35 869.85 1672.2 869.85 1672.2 879.5 1672.2 889.15 1672.2 889.3 1672.2 889.45 1672.35 889.45 1672.5 889.45 1682.4 889.45 1692.3 889.45 1692.3 889.3 1692.3 889.15 1692.3 879.5 1692.3 869.85 1682.4 869.85 1672.5 869.85
M 1651.75 869.85
L 1651.5 869.85
Q 1651.5 870 1651.5 870.1 1651.5 879.75 1651.5 889.45
L 1651.75 889.45
Q 1659.95 889.45 1668 889.45 1668 889.3 1668 889.15 1668 889.1 1668 888.9
L 1667.9 888.9
Q 1667.55 879.5 1668 870.65 1668 870.45 1668 870.35 1668 870.1 1668 869.85 1659.95 869.85 1651.75 869.85
M 1744 870.1
Q 1743.95 870.1 1743.75 870.1 1743.75 879.6 1743.75 889.15 1743.75 889.3 1743.75 889.45 1743.95 889.45 1744 889.45 1754 889.45 1763.85 889.45 1763.85 889.3 1763.85 889.15 1763.85 879.6 1763.85 870.1 1754 870.1 1744 870.1
M 1715.85 889.45
Q 1715.85 889.3 1715.85 889.15 1715.85 879.6 1715.85 870.1 1706 870.1 1696.25 870.1 1696.1 870.1 1696 870.1 1696 879.6 1696 889.15 1696 889.3 1696 889.45 1696.1 889.45 1696.25 889.45 1706 889.45 1715.85 889.45
M 1720.3 870.1
Q 1720.15 870.1 1720 870.1 1720 870.25 1720 870.35 1720.15 870.35 1720.3 870.35 1720.3 879.75 1720.3 889.15 1720.3 889.3 1720.3 889.45 1720.4 889.45 1720.55 889.45 1730.3 889.45 1740.1 889.45 1740.1 889.3 1740.1 889.15 1740.15 879.5 1740.1 869.85 1740 869.85 1739.9 869.85 1730.35 870.3 1720.3 870.1
M 1834.05 905.7
L 1834.05 902.1 1656.1 902.1 1656.1 905.7 1834.05 905.7
M 1834.3 897.7
L 1834.3 894.1 1656.35 894.1 1656.35 897.7 1834.3 897.7
M 1859.75 891.1
Q 1859.65 891.1 1859.5 891.1 1859.5 891.05 1859.5 890.9 1849.3 890.9 1839.2 891.05
L 1839.2 891.1
Q 1839.2 891.3 1839.2 891.4
L 1839.2 909.9
Q 1839.2 910.2 1839.2 910.5 1839.25 910.5 1839.4 910.5 1849.45 910.5 1859.5 910.5
L 1859.65 910.5
Q 1859.75 900.8 1859.75 891.1
M 1859.3 909.95
Q 1859.3 910.1 1859.3 910.2 1849.45 910.2 1839.65 910.2 1839.55 910.2 1839.4 910.2 1839.4 900.9 1839.4 891.65 1839.4 891.55 1839.4 891.4 1839.55 891.4 1839.65 891.4 1849.45 891.4 1859.3 891.4 1859.25 900.65 1859.3 909.95
M 1839.65 869.85
Q 1839.55 869.85 1839.4 869.85 1839.45 879.5 1839.4 889.15 1839.4 889.3 1839.4 889.45 1839.55 889.45 1839.65 889.45 1849.55 889.45 1859.5 889.45 1859.5 889.3 1859.5 889.15 1859.55 879.5 1859.5 869.85 1849.55 869.85 1839.65 869.85
M 1815.55 869.85
Q 1815.5 869.85 1815.4 869.85 1815.4 870 1815.4 870.1 1815.4 879.75 1815.4 889.45 1815.5 889.45 1815.55 889.45 1825.4 889.45 1835.25 889.45 1835.25 889.3 1835.25 889.15 1835.25 889.1 1835.25 888.9 1835.25 888.8 1835.25 888.7 1835.25 879.6 1835.25 870.65 1835.25 870.45 1835.25 870.35 1835.25 870.1 1835.25 869.85 1825.4 869.85 1815.55 869.85
M 1792.1 870.1
Q 1791.95 870.1 1791.85 870.1 1791.85 879.6 1791.85 889.15 1791.85 889.3 1791.85 889.45 1791.95 889.45 1792.1 889.45 1801.9 889.45 1811.7 889.45 1811.7 889.3 1811.7 889.15 1811.7 879.6 1811.7 870.1 1801.9 870.1 1792.1 870.1
M 1787.65 889.45
Q 1787.65 889.3 1787.65 889.15 1787.65 879.6 1787.65 870.1 1777.9 870.1 1768.05 870.1 1767.9 870.1 1767.8 870.1 1767.8 879.6 1767.8 889.15 1767.8 889.3 1767.8 889.45 1767.9 889.45 1768.05 889.45 1777.9 889.45 1787.65 889.45
M 1866.55 889.95
Q 1866.65 889.95 1866.85 889.95 1876.8 889.95 1886.65 889.95 1886.65 889.8 1886.65 889.7 1886.75 880 1886.65 870.35 1876.8 870.35 1866.85 870.35 1866.65 870.35 1866.55 870.35 1866.55 880 1866.55 889.7 1866.55 889.8 1866.55 889.95 Z"/>

<path fill="#FCFCFC" stroke="none" d="
M 1713.8 927.5
Q 1715.35 929.35 1717.95 930.25 1724.9 930.35 1726.35 925.1 1726.35 925.05 1726.55 925.05 1726.6 923.6 1726.55 922.1 1726.55 921.95 1726.55 921.85 1725.45 919.05 1722.95 917.5 1722.9 917.5 1722.9 917.4 1721.75 917.25 1720.9 916.8 1720.8 916.8 1720.8 916.7 1711.2 916.75 1713.1 926.05 1713.25 926.8 1713.8 927.5
M 1880.75 922.4
Q 1880.65 922.2 1880.65 922.1 1878.75 915.65 1870.9 917.5 1869.65 917.8 1868.9 918.55 1868.2 919.15 1867.6 919.6 1866.35 921.55 1866.55 924.8 1866.55 925 1866.55 925.05 1867.9 928.9 1872 930.1 1872.1 930.1 1872.1 930.25 1876.8 930.45 1878.9 928.1 1879 928 1879.1 928 1879.95 926.85 1880.5 925.35
L 1880.65 925.35
Q 1880.75 923.8 1880.75 922.4 Z"/>

<path fill="#53471E" fill-opacity="0.6078431372549019" stroke="none" d="
M 1898.95 923.6
Q 1898.95 923.45 1898.95 923.35 1895.7 923.35 1892.45 923.35 1892.25 923.35 1892.2 923.35 1889.95 923.35 1887.7 923.35 1887.55 923.35 1887.45 923.35
L 1887.45 923.45
Q 1893.25 923.6 1898.95 923.6 Z"/>

<path fill="#000000" fill-opacity="0.996078431372549" stroke="none" d="
M 1898.95 913.2
Q 1897.4 913.2 1895.85 913.2 1895.7 913.2 1895.55 913.2
L 1895.25 913.2
Q 1891.05 912.45 1891.7 916.75 1892.1 920 1892.2 923.35 1892.25 923.35 1892.45 923.35 1895.7 923.35 1898.95 923.35 1898.95 923.2 1898.95 923.05 1898.95 918.3 1898.95 913.2
M 1889 866.9
L 1889 866.65
Q 1889.05 866.15 1889 865.65
L 1812.5 865.65
Q 1788.95 865.65 1765.45 865.65 1741.95 865.65 1718.45 865.65 1694.95 865.65 1671.4 865.8 1660.15 865.85 1649.45 865.4 1649 865.75 1649.2 866.65 1649.2 866.75 1649.2 866.9 1660.3 866.9 1671.4 866.9 1694.95 866.9 1718.45 866.9 1741.95 866.9 1765.45 866.9 1788.95 866.9 1812.5 866.9
L 1847.2 867 1889 866.9
M 1900.15 871.95
L 1900.15 872.05 1895.35 869.15 1895.1 869.1 1895.1 870.35 1895.35 870.4 1900.15 873.3
Q 1900.5 875.95 1900.45 878.75 1900.4 881.55 1900.85 884.4 1901.05 885.7 1903.45 885.2
L 1903.45 871.6 1903.45 871.35
Q 1901.15 870.95 1900.15 871.95 Z"/>

<path fill="#947A1C" fill-opacity="0.5882352941176471" stroke="none" d="
M 1836.05 923.5
Q 1824.1 923.35 1812.2 923.35 1788.7 923.35 1765.15 923.35 1749.5 923.35 1733.85 923.35 1749.3 923.75 1765.45 923.7 1788.95 923.6 1812.5 923.7 1824.35 923.75 1836.05 923.5 Z"/>

<path fill="#DDA82E" fill-opacity="0.996078431372549" stroke="none" d="
M 1812.75 867.25
Q 1828.75 867.3 1847.2 867
L 1812.5 866.9
Q 1788.95 866.9 1765.45 866.9 1741.95 866.9 1718.45 866.9 1694.95 866.9 1671.4 866.9 1660.3 866.9 1649.2 866.9 1649.2 867 1649.2 867.15 1660.4 867.15 1671.65 867.15 1695.25 867.15 1718.7 867.15 1742.2 867.15 1765.75 867.15 1789.3 867.15 1812.75 867.25 Z"/>

<path fill="#090909" fill-opacity="0.2" stroke="none" d="
M 1903.45 871.6
L 1903.45 885.2 1903.65 885.2 1903.8 871.6 1903.45 871.6 Z"/>

<path fill="#222424" fill-opacity="0.7098039215686275" stroke="none" d="
M 1900.85 884.4
Q 1900.4 881.55 1900.45 878.75 1900.5 875.95 1900.15 873.3
L 1900.15 885.45 1900.4 885.5
Q 1902.15 885.6 1903.45 885.2 1901.05 885.7 1900.85 884.4 Z"/>

<path fill="#B49523" fill-opacity="0.7137254901960784" stroke="none" d="
M 1897 861.45
L 1896.75 861.45
Q 1897.1 865.05 1895.9 867.25 1895.85 867.4 1895.35 867.4
L 1895.1 867.65 1895.7 867.65
Q 1896.1 867.65 1896.15 867.5 1897.3 865.15 1897 861.45 Z"/>

<path fill="#FDBE2D" fill-opacity="0.996078431372549" stroke="none" d="
M 1889 865.4
L 1889 865.65
Q 1889.05 866.15 1889 866.65
L 1889 866.9 1847.2 867
Q 1828.75 867.3 1812.75 867.25 1789.3 867.15 1765.75 867.15 1742.2 867.15 1718.7 867.15 1695.25 867.15 1671.65 867.15 1660.4 867.15 1649.2 867.15 1649.2 880.35 1649.2 893.6
L 1649.2 904.95 1649.25 904.95 1649.25 922.65 1705.45 922.65
Q 1705.5 922.65 1705.6 922.55 1706.55 914.8 1712.5 911.7 1714.5 910.65 1717.15 910.55 1731.95 910.05 1733.85 922.1 1733.85 922.55 1733.85 923.05 1733.85 923.2 1733.85 923.35 1749.5 923.35 1765.15 923.35 1788.7 923.35 1812.2 923.35 1824.1 923.35 1836.05 923.5
L 1859.3 923.35
Q 1860.2 914.5 1867.1 911.45 1868.6 910.75 1870.5 910.6 1885.5 909.85 1887.45 921.85 1887.4 922.45 1887.45 923.05 1887.45 923.2 1887.45 923.35 1887.55 923.35 1887.7 923.35 1889.95 923.35 1892.2 923.35 1892.1 920 1891.7 916.75 1891.05 912.45 1895.25 913.2
L 1895.55 913.2
Q 1894.85 876.6 1895.1 870.7
L 1895.1 870.35 1895.1 869.1 1895.1 868.85
Q 1895.05 868.35 1895.1 867.65
L 1895.35 867.4
Q 1895.85 867.4 1895.9 867.25 1897.1 865.05 1896.75 861.45
L 1817.75 861.45
Q 1794.25 861.45 1770.65 861.45 1747.2 861.45 1723.65 861.45 1700.15 861.45 1676.65 861.45 1665.15 861.45 1653.6 861.45 1650.75 862.45 1649.5 865.15 1649.45 865.3 1649.45 865.4 1660.45 865.4 1671.4 865.4 1694.95 865.4 1718.45 865.4 1741.95 865.4 1765.45 865.4 1788.95 865.4 1812.5 865.4
L 1889 865.4
M 1866.85 889.95
Q 1866.65 889.95 1866.55 889.95 1866.55 889.8 1866.55 889.7 1866.55 880 1866.55 870.35 1866.65 870.35 1866.85 870.35 1876.8 870.35 1886.65 870.35 1886.75 880 1886.65 889.7 1886.65 889.8 1886.65 889.95 1876.8 889.95 1866.85 889.95
M 1787.9 869.65
Q 1787.9 869.7 1787.9 869.85 1787.9 879.6 1787.8 889.45
L 1787.65 889.45
Q 1777.9 889.45 1768.05 889.45 1767.9 889.45 1767.8 889.45 1767.4 880 1767.55 870.1 1767.55 870 1767.55 869.85
L 1767.55 869.7
Q 1777.75 869.65 1787.9 869.65
M 1791.6 869.65
Q 1791.7 869.65 1791.85 869.65 1801.75 869.65 1811.7 869.65 1811.7 869.7 1811.7 869.85 1811.7 870 1811.7 870.1 1811.7 879.6 1811.7 889.15 1811.7 889.3 1811.7 889.45 1801.9 889.45 1792.1 889.45 1791.95 889.45 1791.85 889.45 1791.7 889.45 1791.6 889.45
L 1791.45 889.45
Q 1791.15 879.25 1791.6 869.65
M 1815.4 870.1
Q 1815.4 870 1815.4 869.85
L 1815.4 869.7
Q 1825.4 869.65 1835.5 869.65 1835.6 869.65 1835.65 869.65 1835.65 879.5 1835.6 889.45
L 1835.5 889.45
Q 1835.35 889.45 1835.25 889.45 1825.4 889.45 1815.55 889.45 1815.5 889.45 1815.4 889.45 1815.4 879.75 1815.4 870.1
M 1839.2 870.1
Q 1839.2 870 1839.2 869.85
L 1839.2 869.7
Q 1849.3 869.65 1859.5 869.65 1859.5 869.7 1859.5 869.85 1859.55 879.5 1859.5 889.15 1859.5 889.3 1859.5 889.45 1849.55 889.45 1839.65 889.45 1839.55 889.45 1839.4 889.45 1838.95 880 1839.2 870.1
M 1859.5 891.1
Q 1859.65 891.1 1859.75 891.1 1859.75 900.8 1859.65 910.5
L 1859.5 910.5
Q 1849.45 910.5 1839.4 910.5 1839.25 910.5 1839.2 910.5 1839.2 910.2 1839.2 909.9
L 1839.2 891.4
Q 1839.2 891.3 1839.2 891.1
L 1839.2 891.05
Q 1849.3 890.9 1859.5 890.9 1859.5 891.05 1859.5 891.1
M 1834.3 894.1
L 1834.3 897.7 1656.35 897.7 1656.35 894.1 1834.3 894.1
M 1834.05 902.1
L 1834.05 905.7 1656.1 905.7 1656.1 902.1 1834.05 902.1
M 1719.75 870.1
Q 1719.75 870 1719.75 869.85
L 1719.75 869.7
Q 1729.95 869.65 1740.1 869.65 1740.1 869.7 1740.1 869.85 1740.15 879.5 1740.1 889.15 1740.1 889.3 1740.1 889.45 1730.3 889.45 1720.55 889.45 1720.4 889.45 1720.3 889.45 1720.15 889.45 1720 889.45 1719.6 880 1719.75 870.1
M 1716.1 869.65
Q 1716.25 869.65 1716.35 869.65 1716.35 879.5 1716.25 889.45
L 1716.1 889.45
Q 1716 889.45 1715.85 889.45 1706 889.45 1696.25 889.45 1696.1 889.45 1696 889.45
L 1695.85 889.45
Q 1695.5 879.3 1696 869.85
L 1696 869.7
Q 1706.05 869.65 1716.1 869.65
M 1743.75 869.65
Q 1743.95 869.65 1744 869.65 1754 869.65 1763.85 869.65 1764.05 869.65 1764.1 869.65 1764.1 879.5 1764.05 889.45
L 1763.85 889.45
Q 1754 889.45 1744 889.45 1743.95 889.45 1743.75 889.45
L 1743.65 889.45
Q 1743.35 879.25 1743.75 869.65
M 1651.5 869.85
L 1651.5 869.7
Q 1659.95 869.65 1668.25 869.65 1668.4 869.65 1668.55 869.65 1668.55 879.5 1668.4 889.45
L 1668.25 889.45
Q 1668.2 889.45 1668 889.45 1659.95 889.45 1651.75 889.45
L 1651.5 889.45
Q 1651.5 879.75 1651.5 870.1 1651.5 870 1651.5 869.85
M 1671.95 870.1
Q 1671.95 870 1671.95 869.85
L 1671.95 869.7
Q 1682.15 869.65 1692.3 869.65 1692.3 869.7 1692.3 869.85 1692.3 879.5 1692.3 889.15 1692.3 889.3 1692.3 889.45 1682.4 889.45 1672.5 889.45 1672.35 889.45 1672.2 889.45 1671.75 880 1671.95 870.1 Z"/>

<path fill="#8D6F2F" stroke="none" d="
M 1671.95 869.7
L 1671.95 869.85
Q 1672.1 869.85 1672.2 869.85 1672.35 869.85 1672.5 869.85 1682.4 869.85 1692.3 869.85 1692.3 869.7 1692.3 869.65 1682.15 869.65 1671.95 869.7
M 1719.75 869.85
Q 1719.9 869.85 1720 869.85 1720.15 869.85 1720.3 869.85 1730.05 869.85 1739.9 869.85 1740 869.85 1740.1 869.85 1740.1 869.7 1740.1 869.65 1729.95 869.65 1719.75 869.7
L 1719.75 869.85
M 1839.2 869.85
Q 1839.25 869.85 1839.4 869.85 1839.55 869.85 1839.65 869.85 1849.55 869.85 1859.5 869.85 1859.5 869.7 1859.5 869.65 1849.3 869.65 1839.2 869.7
L 1839.2 869.85
M 1787.9 869.85
Q 1787.9 869.7 1787.9 869.65 1777.75 869.65 1767.55 869.7
L 1767.55 869.85
Q 1767.75 869.85 1767.8 869.85 1767.9 869.85 1768.05 869.85 1777.9 869.85 1787.65 869.85 1787.8 869.85 1787.9 869.85 Z"/>

<path fill="#876A2F" stroke="none" d="
M 1671.95 869.85
Q 1671.95 870 1671.95 870.1 1671.75 880 1672.2 889.45 1672.2 889.3 1672.2 889.15 1672.2 879.5 1672.2 869.85 1672.1 869.85 1671.95 869.85
M 1839.4 869.85
Q 1839.25 869.85 1839.2 869.85 1839.2 870 1839.2 870.1 1838.95 880 1839.4 889.45 1839.4 889.3 1839.4 889.15 1839.45 879.5 1839.4 869.85 Z"/>

<path fill="#35342F" stroke="none" d="
M 1668 888.9
Q 1668 888.8 1668 888.7 1668 879.6 1668 870.65 1667.55 879.5 1667.9 888.9
L 1668 888.9 Z"/>

<path fill="#0C182F" stroke="none" d="
M 1668.25 869.85
Q 1668.2 869.85 1668 869.85 1668 870.1 1668 870.35 1668 870.45 1668 870.65 1668 879.6 1668 888.7 1668 888.8 1668 888.9 1668 889.1 1668 889.15 1668 889.3 1668 889.45 1668.2 889.45 1668.25 889.45 1668.25 889.3 1668.25 889.15 1668.25 879.5 1668.25 869.85
M 1835.25 870.35
Q 1835.25 870.45 1835.25 870.65 1835.25 879.6 1835.25 888.7 1835.25 888.8 1835.25 888.9 1835.25 889.1 1835.25 889.15 1835.25 889.3 1835.25 889.45 1835.35 889.45 1835.5 889.45 1835.5 889.3 1835.5 889.15 1835.5 879.5 1835.5 869.85 1835.35 869.85 1835.25 869.85 1835.25 870.1 1835.25 870.35 Z"/>

<path fill="#94732F" stroke="none" d="
M 1668.55 869.65
Q 1668.4 869.65 1668.25 869.65 1668.25 869.7 1668.25 869.85 1668.25 879.5 1668.25 889.15 1668.25 889.3 1668.25 889.45
L 1668.4 889.45
Q 1668.55 879.5 1668.55 869.65
M 1835.5 869.65
Q 1835.5 869.7 1835.5 869.85 1835.5 879.5 1835.5 889.15 1835.5 889.3 1835.5 889.45
L 1835.6 889.45
Q 1835.65 879.5 1835.65 869.65 1835.6 869.65 1835.5 869.65 Z"/>

<path fill="#8C6E2F" stroke="none" d="
M 1651.5 869.85
L 1651.75 869.85
Q 1659.95 869.85 1668 869.85 1668.2 869.85 1668.25 869.85 1668.25 869.7 1668.25 869.65 1659.95 869.65 1651.5 869.7
L 1651.5 869.85
M 1743.75 869.65
Q 1743.75 869.7 1743.75 869.85 1743.95 869.85 1744 869.85 1754 869.85 1763.85 869.85 1763.85 869.7 1763.85 869.65 1754 869.65 1744 869.65 1743.95 869.65 1743.75 869.65
M 1716.1 869.85
Q 1716.1 869.7 1716.1 869.65 1706.05 869.65 1696 869.7
L 1696 869.85
Q 1696.1 869.85 1696.25 869.85 1706.15 869.85 1716.1 869.85
M 1815.4 869.85
Q 1815.5 869.85 1815.55 869.85 1825.4 869.85 1835.25 869.85 1835.35 869.85 1835.5 869.85 1835.5 869.7 1835.5 869.65 1825.4 869.65 1815.4 869.7
L 1815.4 869.85
M 1791.6 869.65
Q 1791.6 869.7 1791.6 869.85 1791.7 869.85 1791.85 869.85 1801.75 869.85 1811.7 869.85 1811.7 869.7 1811.7 869.65 1801.75 869.65 1791.85 869.65 1791.7 869.65 1791.6 869.65 Z"/>

<path fill="#D4A02F" stroke="none" d="
M 1763.85 869.85
Q 1763.85 870 1763.85 870.1 1763.85 879.6 1763.85 889.15 1763.85 889.3 1763.85 889.45
L 1764.05 889.45
Q 1764.1 879.5 1764.1 869.65 1764.05 869.65 1763.85 869.65 1763.85 869.7 1763.85 869.85 Z"/>

<path fill="#C8982F" stroke="none" d="
M 1743.75 869.85
Q 1743.75 869.7 1743.75 869.65 1743.35 879.25 1743.65 889.45
L 1743.75 889.45
Q 1743.75 889.3 1743.75 889.15 1743.75 879.6 1743.75 870.1 1743.75 870 1743.75 869.85 Z"/>

<path fill="#0E192F" stroke="none" d="
M 1743.75 870.1
Q 1743.95 870.1 1744 870.1 1754 870.1 1763.85 870.1 1763.85 870 1763.85 869.85 1754 869.85 1744 869.85 1743.95 869.85 1743.75 869.85 1743.75 870 1743.75 870.1
M 1720 870.1
Q 1720.15 870.1 1720.3 870.1 1730.35 870.3 1739.9 869.85 1730.05 869.85 1720.3 869.85 1720.15 869.85 1720 869.85 1720 870 1720 870.1
M 1787.65 870.1
Q 1787.65 870 1787.65 869.85 1777.9 869.85 1768.05 869.85 1767.9 869.85 1767.8 869.85 1767.8 870 1767.8 870.1 1767.9 870.1 1768.05 870.1 1777.9 870.1 1787.65 870.1 Z"/>

<path fill="#E6AD2E" stroke="none" d="
M 1696 870.1
Q 1696 870 1696 869.85 1695.5 879.3 1695.85 889.45
L 1696 889.45
Q 1696 889.3 1696 889.15 1696 879.6 1696 870.1 Z"/>

<path fill="#101A2F" stroke="none" d="
M 1715.85 889.45
Q 1716 889.45 1716.1 889.45 1716.1 889.3 1716.1 889.15 1716.1 879.5 1716.1 869.85 1706.15 869.85 1696.25 869.85 1696.1 869.85 1696 869.85 1696 870 1696 870.1 1696.1 870.1 1696.25 870.1 1706 870.1 1715.85 870.1 1715.85 879.6 1715.85 889.15 1715.85 889.3 1715.85 889.45 Z"/>

<path fill="#B38B2F" stroke="none" d="
M 1716.1 869.65
Q 1716.1 869.7 1716.1 869.85 1716.1 879.5 1716.1 889.15 1716.1 889.3 1716.1 889.45
L 1716.25 889.45
Q 1716.35 879.5 1716.35 869.65 1716.25 869.65 1716.1 869.65 Z"/>

<path fill="#181F2F" stroke="none" d="
M 1720.3 870.35
Q 1720.15 870.35 1720 870.35 1720 879.75 1720 889.15 1720 889.3 1720 889.45 1720.15 889.45 1720.3 889.45 1720.3 889.3 1720.3 889.15 1720.3 879.75 1720.3 870.35 Z"/>

<path fill="#65542F" stroke="none" d="
M 1720 870.35
Q 1720 870.25 1720 870.1 1720 870 1720 869.85 1719.9 869.85 1719.75 869.85 1719.75 870 1719.75 870.1 1719.6 880 1720 889.45 1720 889.3 1720 889.15 1720 879.75 1720 870.35 Z"/>

<path fill="#FDBE2E" stroke="none" d="
M 1859.3 910.2
Q 1859.3 910.1 1859.3 909.95 1859.25 900.65 1859.3 891.4 1849.45 891.4 1839.65 891.4 1839.55 891.4 1839.4 891.4 1839.4 891.55 1839.4 891.65 1839.4 900.9 1839.4 910.2 1839.55 910.2 1839.65 910.2 1849.45 910.2 1859.3 910.2 Z"/>

<path fill="#0F192F" stroke="none" d="
M 1791.85 870.1
Q 1791.95 870.1 1792.1 870.1 1801.9 870.1 1811.7 870.1 1811.7 870 1811.7 869.85 1801.75 869.85 1791.85 869.85 1791.7 869.85 1791.6 869.85 1791.6 879.5 1791.6 889.15 1791.6 889.3 1791.6 889.45 1791.7 889.45 1791.85 889.45 1791.85 889.3 1791.85 889.15 1791.85 879.6 1791.85 870.1 Z"/>

<path fill="#A7812F" stroke="none" d="
M 1791.6 869.85
Q 1791.6 869.7 1791.6 869.65 1791.15 879.25 1791.45 889.45
L 1791.6 889.45
Q 1791.6 889.3 1791.6 889.15 1791.6 879.5 1791.6 869.85 Z"/>

<path fill="#443E2F" stroke="none" d="
M 1767.8 869.85
Q 1767.75 869.85 1767.55 869.85 1767.55 870 1767.55 870.1 1767.4 880 1767.8 889.45 1767.8 889.3 1767.8 889.15 1767.8 879.6 1767.8 870.1 1767.8 870 1767.8 869.85 Z"/>

<path fill="#735D2F" stroke="none" d="
M 1787.65 869.85
Q 1787.65 870 1787.65 870.1 1787.65 879.6 1787.65 889.15 1787.65 889.3 1787.65 889.45
L 1787.8 889.45
Q 1787.9 879.6 1787.9 869.85 1787.8 869.85 1787.65 869.85 Z"/>

<path fill="#A37E2F" stroke="none" d="
M 1889 865.65
L 1889 865.4 1812.5 865.4
Q 1788.95 865.4 1765.45 865.4 1741.95 865.4 1718.45 865.4 1694.95 865.4 1671.4 865.4 1660.45 865.4 1649.45 865.4 1660.15 865.85 1671.4 865.8 1694.95 865.65 1718.45 865.65 1741.95 865.65 1765.45 865.65 1788.95 865.65 1812.5 865.65
L 1889 865.65 Z"/>
</g>
</defs>

<g transform="matrix( 1, 0, 0, 1, 0,0) ">
<use xlink:href="#Layer0_0_FILL"/>
</g>
</svg>
