
<svg xmlns="http://www.w3.org/2000/svg" version="1.1" xmlns:xlink="http://www.w3.org/1999/xlink" preserveAspectRatio="none" x="0px" y="0px" width="2520px" height="1456px" viewBox="0 0 2520 1456">
<defs>
<g id="Layer0_0_FILL">
<path fill="#394552" stroke="none" d="
M 975.7 922.35
L 975.7 819.1 924.75 819
Q 916.3 819 907.85 818.95 907.2 818.95 906.55 818.95 905.8 818.95 905.05 818.95
L 863.95 818.95 863.95 922.35 975.7 922.35
M 971.85 842.15
L 971.85 864.9 945.4 864.9 945.4 842.15 971.85 842.15
M 1044.55 819.15
L 1044.35 819.15
Q 1044.05 819.15 1043.85 819.15 1039.5 819.15 1035.2 819.15
L 995.5 819.1 995.5 922.35 1044.55 922.35 1044.55 819.15
M 1004.65 864.9
L 1004.65 842.15 1031.1 842.15 1031.1 864.9 1004.65 864.9
M 1113.3 819.25
L 1064.35 819.2 1064.35 922.35 1113.3 922.35 1113.3 819.25
M 1072.15 864.9
L 1072.15 842.15 1098.6 842.15 1098.6 864.9 1072.15 864.9
M 1314.75 818.8
Q 1311.85 818.8 1308.95 818.9 1306 818.9 1303.05 818.95
L 1303.05 818.8 1283.25 818.8 1283.25 819
Q 1250.7 819.05 1218.3 819.15
L 1218.3 818.8 1198.5 818.8 1198.5 819.2
Q 1165.7 819.25 1133.1 819.25
L 1133.1 922.35 1428.75 922.35 1428.75 818.8 1314.75 818.8
M 1392.1 864.9
L 1392.1 842.15 1418.55 842.15 1418.55 864.9 1392.1 864.9
M 1164.6 842.15
L 1164.6 864.9 1138.15 864.9 1138.15 842.15 1164.6 842.15
M 1496.6 922.35
L 1496.6 818.8 1448.55 818.8 1448.55 922.35 1496.6 922.35
M 1489.4 842.15
L 1489.4 864.9 1462.95 864.9 1462.95 842.15 1489.4 842.15
M 1556.85 818.8
L 1516.4 818.8 1516.4 922.35 1556.85 922.35 1556.85 818.8
M 1550.15 842.15
L 1550.15 864.9 1523.7 864.9 1523.7 842.15 1550.15 842.15
M 1664.8 922.35
L 1664.8 818.8 1576.65 818.8 1576.65 922.35 1664.8 922.35
M 1606.9 842.15
L 1606.9 864.9 1580.45 864.9 1580.45 842.15 1606.9 842.15 Z"/>

<path fill="#BFBF36" stroke="none" d="
M 971.85 864.9
L 971.85 842.15 945.4 842.15 945.4 864.9 971.85 864.9
M 970.15 844.25
L 970.25 844.25 970.25 849.55 970.15 849.55 968.5 849.55 967.7 849.55 967.7 844.25 968.5 844.25 970.15 844.25
M 964.2 844.25
L 964.75 844.25 966.05 844.25 966.4 844.25 966.4 849.55 966.05 849.55 964.75 849.55 964.2 849.55 964.2 844.25
M 964.2 851.2
L 964.75 851.2 966.05 851.2 966.4 851.2 966.4 856.5 966.05 856.5 964.75 856.5 964.2 856.5 964.2 851.2
M 970.15 851.2
L 970.25 851.2 970.25 856.5 970.15 856.5 968.5 856.5 967.7 856.5 967.7 851.2 968.5 851.2 970.15 851.2
M 962.7 844.25
L 962.7 849.55 961.1 849.55 960.3 849.55 960.3 844.25 961.1 844.25 962.7 844.25
M 960.3 851.2
L 961.1 851.2 962.7 851.2 962.7 856.5 961.1 856.5 960.3 856.5 960.3 851.2
M 954.6 851.2
L 957 851.2 957 856.5 954.6 856.5 954.6 851.2
M 957 844.25
L 957 849.55 954.6 849.55 954.6 844.25 957 844.25
M 953.3 844.25
L 953.3 849.55 951.1 849.55 951.1 844.25 953.3 844.25
M 960.3 857.95
L 961.1 857.95 962.7 857.95 962.7 862.8 961.1 862.8 960.3 862.8 960.3 857.95
M 957 857.95
L 957 862.8 954.6 862.8 954.6 857.95 957 857.95
M 953.3 857.95
L 953.3 862.8 951.1 862.8 951.1 857.95 953.3 857.95
M 970.15 857.95
L 970.25 857.95 970.25 862.8 970.15 862.8 968.5 862.8 967.7 862.8 967.7 857.95 968.5 857.95 970.15 857.95
M 964.2 857.95
L 964.75 857.95 966.05 857.95 966.4 857.95 966.4 862.8 966.05 862.8 964.75 862.8 964.2 862.8 964.2 857.95
M 953.3 851.2
L 953.3 856.5 951.1 856.5 951.1 851.2 953.3 851.2
M 947.05 849.55
L 947.05 844.25 949.5 844.25 949.5 849.55 947.05 849.55
M 947.05 851.2
L 949.5 851.2 949.5 856.5 947.05 856.5 947.05 851.2
M 949.5 862.8
L 947.05 862.8 947.05 857.95 949.5 857.95 949.5 862.8
M 1004.65 842.15
L 1004.65 864.9 1031.1 864.9 1031.1 842.15 1004.65 842.15
M 1010.35 849.55
L 1010.35 844.25 1012.55 844.25 1012.55 849.55 1010.35 849.55
M 1006.3 844.25
L 1008.75 844.25 1008.75 849.55 1006.3 849.55 1006.3 844.25
M 1006.3 851.2
L 1008.75 851.2 1008.75 856.5 1006.3 856.5 1006.3 851.2
M 1008.75 862.8
L 1006.3 862.8 1006.3 857.95 1008.75 857.95 1008.75 862.8
M 1010.35 862.8
L 1010.35 857.95 1012.55 857.95 1012.55 862.8 1010.35 862.8
M 1010.35 856.5
L 1010.35 851.2 1012.55 851.2 1012.55 856.5 1010.35 856.5
M 1027.75 844.25
L 1029.4 844.25 1029.5 844.25 1029.5 849.55 1029.4 849.55 1027.75 849.55 1026.95 849.55 1026.95 844.25 1027.75 844.25
M 1023.45 844.25
L 1024 844.25 1025.3 844.25 1025.65 844.25 1025.65 849.55 1025.3 849.55 1024 849.55 1023.45 849.55 1023.45 844.25
M 1023.45 851.2
L 1024 851.2 1025.3 851.2 1025.65 851.2 1025.65 856.5 1025.3 856.5 1024 856.5 1023.45 856.5 1023.45 851.2
M 1029.4 851.2
L 1029.5 851.2 1029.5 856.5 1029.4 856.5 1027.75 856.5 1026.95 856.5 1026.95 851.2 1027.75 851.2 1029.4 851.2
M 1019.55 844.25
L 1020.35 844.25 1021.95 844.25 1021.95 849.55 1020.35 849.55 1019.55 849.55 1019.55 844.25
M 1013.85 844.25
L 1016.25 844.25 1016.25 849.55 1013.85 849.55 1013.85 844.25
M 1013.85 851.2
L 1016.25 851.2 1016.25 856.5 1013.85 856.5 1013.85 851.2
M 1020.35 851.2
L 1021.95 851.2 1021.95 856.5 1020.35 856.5 1019.55 856.5 1019.55 851.2 1020.35 851.2
M 1019.55 857.95
L 1020.35 857.95 1021.95 857.95 1021.95 862.8 1020.35 862.8 1019.55 862.8 1019.55 857.95
M 1013.85 857.95
L 1016.25 857.95 1016.25 862.8 1013.85 862.8 1013.85 857.95
M 1029.4 857.95
L 1029.5 857.95 1029.5 862.8 1029.4 862.8 1027.75 862.8 1026.95 862.8 1026.95 857.95 1027.75 857.95 1029.4 857.95
M 1023.45 857.95
L 1024 857.95 1025.3 857.95 1025.65 857.95 1025.65 862.8 1025.3 862.8 1024 862.8 1023.45 862.8 1023.45 857.95
M 1072.15 842.15
L 1072.15 864.9 1098.6 864.9 1098.6 842.15 1072.15 842.15
M 1090.95 844.25
L 1091.5 844.25 1092.8 844.25 1093.15 844.25 1093.15 849.55 1092.8 849.55 1091.5 849.55 1090.95 849.55 1090.95 844.25
M 1087.05 844.25
L 1087.85 844.25 1089.45 844.25 1089.45 849.55 1087.85 849.55 1087.05 849.55 1087.05 844.25
M 1087.05 851.2
L 1087.85 851.2 1089.45 851.2 1089.45 856.5 1087.85 856.5 1087.05 856.5 1087.05 851.2
M 1090.95 851.2
L 1091.5 851.2 1092.8 851.2 1093.15 851.2 1093.15 856.5 1092.8 856.5 1091.5 856.5 1090.95 856.5 1090.95 851.2
M 1083.75 844.25
L 1083.75 849.55 1081.35 849.55 1081.35 844.25 1083.75 844.25
M 1073.8 844.25
L 1076.25 844.25 1076.25 849.55 1073.8 849.55 1073.8 844.25
M 1073.8 851.2
L 1076.25 851.2 1076.25 856.5 1073.8 856.5 1073.8 851.2
M 1077.85 849.55
L 1077.85 844.25 1080.05 844.25 1080.05 849.55 1077.85 849.55
M 1077.85 851.2
L 1080.05 851.2 1080.05 856.5 1077.85 856.5 1077.85 851.2
M 1073.8 857.95
L 1076.25 857.95 1076.25 862.8 1073.8 862.8 1073.8 857.95
M 1081.35 862.8
L 1081.35 857.95 1083.75 857.95 1083.75 862.8 1081.35 862.8
M 1077.85 857.95
L 1080.05 857.95 1080.05 862.8 1077.85 862.8 1077.85 857.95
M 1090.95 857.95
L 1091.5 857.95 1092.8 857.95 1093.15 857.95 1093.15 862.8 1092.8 862.8 1091.5 862.8 1090.95 862.8 1090.95 857.95
M 1087.05 857.95
L 1087.85 857.95 1089.45 857.95 1089.45 862.8 1087.85 862.8 1087.05 862.8 1087.05 857.95
M 1081.35 851.2
L 1083.75 851.2 1083.75 856.5 1081.35 856.5 1081.35 851.2
M 1096.9 844.25
L 1097 844.25 1097 849.55 1096.9 849.55 1095.25 849.55 1094.45 849.55 1094.45 844.25 1095.25 844.25 1096.9 844.25
M 1096.9 851.2
L 1097 851.2 1097 856.5 1096.9 856.5 1095.25 856.5 1094.45 856.5 1094.45 851.2 1095.25 851.2 1096.9 851.2
M 1096.9 857.95
L 1097 857.95 1097 862.8 1096.9 862.8 1095.25 862.8 1094.45 862.8 1094.45 857.95 1095.25 857.95 1096.9 857.95
M 1164.6 864.9
L 1164.6 842.15 1138.15 842.15 1138.15 864.9 1164.6 864.9
M 1162.9 844.25
L 1163 844.25 1163 849.55 1162.9 849.55 1161.25 849.55 1160.45 849.55 1160.45 844.25 1161.25 844.25 1162.9 844.25
M 1156.95 844.25
L 1157.5 844.25 1158.8 844.25 1159.15 844.25 1159.15 849.55 1158.8 849.55 1157.5 849.55 1156.95 849.55 1156.95 844.25
M 1156.95 851.2
L 1157.5 851.2 1158.8 851.2 1159.15 851.2 1159.15 856.5 1158.8 856.5 1157.5 856.5 1156.95 856.5 1156.95 851.2
M 1162.9 851.2
L 1163 851.2 1163 856.5 1162.9 856.5 1161.25 856.5 1160.45 856.5 1160.45 851.2 1161.25 851.2 1162.9 851.2
M 1155.45 844.25
L 1155.45 849.55 1153.85 849.55 1153.05 849.55 1153.05 844.25 1153.85 844.25 1155.45 844.25
M 1162.9 857.95
L 1163 857.95 1163 862.8 1162.9 862.8 1161.25 862.8 1160.45 862.8 1160.45 857.95 1161.25 857.95 1162.9 857.95
M 1156.95 857.95
L 1157.5 857.95 1158.8 857.95 1159.15 857.95 1159.15 862.8 1158.8 862.8 1157.5 862.8 1156.95 862.8 1156.95 857.95
M 1155.45 857.95
L 1155.45 862.8 1153.85 862.8 1153.05 862.8 1153.05 857.95 1153.85 857.95 1155.45 857.95
M 1155.45 851.2
L 1155.45 856.5 1153.85 856.5 1153.05 856.5 1153.05 851.2 1153.85 851.2 1155.45 851.2
M 1147.35 851.2
L 1149.75 851.2 1149.75 856.5 1147.35 856.5 1147.35 851.2
M 1146.05 844.25
L 1146.05 849.55 1143.85 849.55 1143.85 844.25 1146.05 844.25
M 1149.75 844.25
L 1149.75 849.55 1147.35 849.55 1147.35 844.25 1149.75 844.25
M 1139.8 851.2
L 1142.25 851.2 1142.25 856.5 1139.8 856.5 1139.8 851.2
M 1139.8 849.55
L 1139.8 844.25 1142.25 844.25 1142.25 849.55 1139.8 849.55
M 1143.85 862.8
L 1143.85 857.95 1146.05 857.95 1146.05 862.8 1143.85 862.8
M 1142.25 862.8
L 1139.8 862.8 1139.8 857.95 1142.25 857.95 1142.25 862.8
M 1149.75 857.95
L 1149.75 862.8 1147.35 862.8 1147.35 857.95 1149.75 857.95
M 1143.85 851.2
L 1146.05 851.2 1146.05 856.5 1143.85 856.5 1143.85 851.2
M 1392.1 842.15
L 1392.1 864.9 1418.55 864.9 1418.55 842.15 1392.1 842.15
M 1412.75 844.25
L 1413.1 844.25 1413.1 849.55 1412.75 849.55 1411.45 849.55 1410.9 849.55 1410.9 844.25 1411.45 844.25 1412.75 844.25
M 1416.85 844.25
L 1416.95 844.25 1416.95 849.55 1416.85 849.55 1415.2 849.55 1414.4 849.55 1414.4 844.25 1415.2 844.25 1416.85 844.25
M 1407.8 844.25
L 1409.4 844.25 1409.4 849.55 1407.8 849.55 1407 849.55 1407 844.25 1407.8 844.25
M 1410.9 851.2
L 1411.45 851.2 1412.75 851.2 1413.1 851.2 1413.1 856.5 1412.75 856.5 1411.45 856.5 1410.9 856.5 1410.9 851.2
M 1407.8 851.2
L 1409.4 851.2 1409.4 856.5 1407.8 856.5 1407 856.5 1407 851.2 1407.8 851.2
M 1416.85 851.2
L 1416.95 851.2 1416.95 856.5 1416.85 856.5 1415.2 856.5 1414.4 856.5 1414.4 851.2 1415.2 851.2 1416.85 851.2
M 1397.8 844.25
L 1400 844.25 1400 849.55 1397.8 849.55 1397.8 844.25
M 1397.8 851.2
L 1400 851.2 1400 856.5 1397.8 856.5 1397.8 851.2
M 1401.3 844.25
L 1403.7 844.25 1403.7 849.55 1401.3 849.55 1401.3 844.25
M 1401.3 851.2
L 1403.7 851.2 1403.7 856.5 1401.3 856.5 1401.3 851.2
M 1397.8 857.95
L 1400 857.95 1400 862.8 1397.8 862.8 1397.8 857.95
M 1407 862.8
L 1407 857.95 1407.8 857.95 1409.4 857.95 1409.4 862.8 1407.8 862.8 1407 862.8
M 1403.7 857.95
L 1403.7 862.8 1401.3 862.8 1401.3 857.95 1403.7 857.95
M 1412.75 857.95
L 1413.1 857.95 1413.1 862.8 1412.75 862.8 1411.45 862.8 1410.9 862.8 1410.9 857.95 1411.45 857.95 1412.75 857.95
M 1416.85 857.95
L 1416.95 857.95 1416.95 862.8 1416.85 862.8 1415.2 862.8 1414.4 862.8 1414.4 857.95 1415.2 857.95 1416.85 857.95
M 1393.75 844.25
L 1396.2 844.25 1396.2 849.55 1393.75 849.55 1393.75 844.25
M 1393.75 851.2
L 1396.2 851.2 1396.2 856.5 1393.75 856.5 1393.75 851.2
M 1396.2 862.8
L 1393.75 862.8 1393.75 857.95 1396.2 857.95 1396.2 862.8
M 1489.4 864.9
L 1489.4 842.15 1462.95 842.15 1462.95 864.9 1489.4 864.9
M 1483.6 844.25
L 1483.95 844.25 1483.95 849.55 1483.6 849.55 1482.3 849.55 1481.75 849.55 1481.75 844.25 1482.3 844.25 1483.6 844.25
M 1487.7 844.25
L 1487.8 844.25 1487.8 849.55 1487.7 849.55 1486.05 849.55 1485.25 849.55 1485.25 844.25 1486.05 844.25 1487.7 844.25
M 1478.65 844.25
L 1480.25 844.25 1480.25 849.55 1478.65 849.55 1477.85 849.55 1477.85 844.25 1478.65 844.25
M 1478.65 851.2
L 1480.25 851.2 1480.25 856.5 1478.65 856.5 1477.85 856.5 1477.85 851.2 1478.65 851.2
M 1481.75 851.2
L 1482.3 851.2 1483.6 851.2 1483.95 851.2 1483.95 856.5 1483.6 856.5 1482.3 856.5 1481.75 856.5 1481.75 851.2
M 1487.7 851.2
L 1487.8 851.2 1487.8 856.5 1487.7 856.5 1486.05 856.5 1485.25 856.5 1485.25 851.2 1486.05 851.2 1487.7 851.2
M 1487.7 857.95
L 1487.8 857.95 1487.8 862.8 1487.7 862.8 1486.05 862.8 1485.25 862.8 1485.25 857.95 1486.05 857.95 1487.7 857.95
M 1483.6 857.95
L 1483.95 857.95 1483.95 862.8 1483.6 862.8 1482.3 862.8 1481.75 862.8 1481.75 857.95 1482.3 857.95 1483.6 857.95
M 1478.65 857.95
L 1480.25 857.95 1480.25 862.8 1478.65 862.8 1477.85 862.8 1477.85 857.95 1478.65 857.95
M 1468.65 844.25
L 1470.85 844.25 1470.85 849.55 1468.65 849.55 1468.65 844.25
M 1468.65 851.2
L 1470.85 851.2 1470.85 856.5 1468.65 856.5 1468.65 851.2
M 1472.15 844.25
L 1474.55 844.25 1474.55 849.55 1472.15 849.55 1472.15 844.25
M 1472.15 851.2
L 1474.55 851.2 1474.55 856.5 1472.15 856.5 1472.15 851.2
M 1464.6 851.2
L 1467.05 851.2 1467.05 856.5 1464.6 856.5 1464.6 851.2
M 1464.6 849.55
L 1464.6 844.25 1467.05 844.25 1467.05 849.55 1464.6 849.55
M 1467.05 862.8
L 1464.6 862.8 1464.6 857.95 1467.05 857.95 1467.05 862.8
M 1468.65 857.95
L 1470.85 857.95 1470.85 862.8 1468.65 862.8 1468.65 857.95
M 1474.55 857.95
L 1474.55 862.8 1472.15 862.8 1472.15 857.95 1474.55 857.95
M 1550.15 864.9
L 1550.15 842.15 1523.7 842.15 1523.7 864.9 1550.15 864.9
M 1544.35 844.25
L 1544.7 844.25 1544.7 849.55 1544.35 849.55 1543.05 849.55 1542.5 849.55 1542.5 844.25 1543.05 844.25 1544.35 844.25
M 1548.45 844.25
L 1548.55 844.25 1548.55 849.55 1548.45 849.55 1546.8 849.55 1546 849.55 1546 844.25 1546.8 844.25 1548.45 844.25
M 1539.4 844.25
L 1541 844.25 1541 849.55 1539.4 849.55 1538.6 849.55 1538.6 844.25 1539.4 844.25
M 1539.4 851.2
L 1541 851.2 1541 856.5 1539.4 856.5 1538.6 856.5 1538.6 851.2 1539.4 851.2
M 1542.5 851.2
L 1543.05 851.2 1544.35 851.2 1544.7 851.2 1544.7 856.5 1544.35 856.5 1543.05 856.5 1542.5 856.5 1542.5 851.2
M 1548.45 851.2
L 1548.55 851.2 1548.55 856.5 1548.45 856.5 1546.8 856.5 1546 856.5 1546 851.2 1546.8 851.2 1548.45 851.2
M 1548.45 857.95
L 1548.55 857.95 1548.55 862.8 1548.45 862.8 1546.8 862.8 1546 862.8 1546 857.95 1546.8 857.95 1548.45 857.95
M 1544.35 857.95
L 1544.7 857.95 1544.7 862.8 1544.35 862.8 1543.05 862.8 1542.5 862.8 1542.5 857.95 1543.05 857.95 1544.35 857.95
M 1539.4 857.95
L 1541 857.95 1541 862.8 1539.4 862.8 1538.6 862.8 1538.6 857.95 1539.4 857.95
M 1529.4 844.25
L 1531.6 844.25 1531.6 849.55 1529.4 849.55 1529.4 844.25
M 1529.4 851.2
L 1531.6 851.2 1531.6 856.5 1529.4 856.5 1529.4 851.2
M 1532.9 844.25
L 1535.3 844.25 1535.3 849.55 1532.9 849.55 1532.9 844.25
M 1532.9 851.2
L 1535.3 851.2 1535.3 856.5 1532.9 856.5 1532.9 851.2
M 1525.35 851.2
L 1527.8 851.2 1527.8 856.5 1525.35 856.5 1525.35 851.2
M 1525.35 849.55
L 1525.35 844.25 1527.8 844.25 1527.8 849.55 1525.35 849.55
M 1527.8 862.8
L 1525.35 862.8 1525.35 857.95 1527.8 857.95 1527.8 862.8
M 1529.4 857.95
L 1531.6 857.95 1531.6 862.8 1529.4 862.8 1529.4 857.95
M 1535.3 857.95
L 1535.3 862.8 1532.9 862.8 1532.9 857.95 1535.3 857.95
M 1606.9 864.9
L 1606.9 842.15 1580.45 842.15 1580.45 864.9 1606.9 864.9
M 1605.2 844.25
L 1605.3 844.25 1605.3 849.55 1605.2 849.55 1603.55 849.55 1602.75 849.55 1602.75 844.25 1603.55 844.25 1605.2 844.25
M 1599.8 844.25
L 1601.1 844.25 1601.45 844.25 1601.45 849.55 1601.1 849.55 1599.8 849.55 1599.25 849.55 1599.25 844.25 1599.8 844.25
M 1599.8 851.2
L 1601.1 851.2 1601.45 851.2 1601.45 856.5 1601.1 856.5 1599.8 856.5 1599.25 856.5 1599.25 851.2 1599.8 851.2
M 1602.75 851.2
L 1603.55 851.2 1605.2 851.2 1605.3 851.2 1605.3 856.5 1605.2 856.5 1603.55 856.5 1602.75 856.5 1602.75 851.2
M 1605.2 857.95
L 1605.3 857.95 1605.3 862.8 1605.2 862.8 1603.55 862.8 1602.75 862.8 1602.75 857.95 1603.55 857.95 1605.2 857.95
M 1599.8 857.95
L 1601.1 857.95 1601.45 857.95 1601.45 862.8 1601.1 862.8 1599.8 862.8 1599.25 862.8 1599.25 857.95 1599.8 857.95
M 1596.15 844.25
L 1597.75 844.25 1597.75 849.55 1596.15 849.55 1595.35 849.55 1595.35 844.25 1596.15 844.25
M 1589.65 844.25
L 1592.05 844.25 1592.05 849.55 1589.65 849.55 1589.65 844.25
M 1589.65 851.2
L 1592.05 851.2 1592.05 856.5 1589.65 856.5 1589.65 851.2
M 1596.15 851.2
L 1597.75 851.2 1597.75 856.5 1596.15 856.5 1595.35 856.5 1595.35 851.2 1596.15 851.2
M 1586.15 844.25
L 1588.35 844.25 1588.35 849.55 1586.15 849.55 1586.15 844.25
M 1582.1 844.25
L 1584.55 844.25 1584.55 849.55 1582.1 849.55 1582.1 844.25
M 1582.1 851.2
L 1584.55 851.2 1584.55 856.5 1582.1 856.5 1582.1 851.2
M 1586.15 851.2
L 1588.35 851.2 1588.35 856.5 1586.15 856.5 1586.15 851.2
M 1586.15 857.95
L 1588.35 857.95 1588.35 862.8 1586.15 862.8 1586.15 857.95
M 1582.1 857.95
L 1584.55 857.95 1584.55 862.8 1582.1 862.8 1582.1 857.95
M 1595.35 857.95
L 1596.15 857.95 1597.75 857.95 1597.75 862.8 1596.15 862.8 1595.35 862.8 1595.35 857.95
M 1589.65 857.95
L 1592.05 857.95 1592.05 862.8 1589.65 862.8 1589.65 857.95 Z"/>

<path fill="#0E0E0E" stroke="none" d="
M 947.05 862.8
L 949.5 862.8 949.5 857.95 947.05 857.95 947.05 862.8
M 949.5 851.2
L 947.05 851.2 947.05 856.5 949.5 856.5 949.5 851.2
M 947.05 844.25
L 947.05 849.55 949.5 849.55 949.5 844.25 947.05 844.25
M 953.3 856.5
L 953.3 851.2 951.1 851.2 951.1 856.5 953.3 856.5
M 964.75 857.95
L 964.2 857.95 964.2 862.8 964.75 862.8 966.05 862.8 966.4 862.8 966.4 857.95 966.05 857.95 964.75 857.95
M 970.25 857.95
L 970.15 857.95 968.5 857.95 967.7 857.95 967.7 862.8 968.5 862.8 970.15 862.8 970.25 862.8 970.25 857.95
M 953.3 862.8
L 953.3 857.95 951.1 857.95 951.1 862.8 953.3 862.8
M 957 862.8
L 957 857.95 954.6 857.95 954.6 862.8 957 862.8
M 961.1 857.95
L 960.3 857.95 960.3 862.8 961.1 862.8 962.7 862.8 962.7 857.95 961.1 857.95
M 953.3 849.55
L 953.3 844.25 951.1 844.25 951.1 849.55 953.3 849.55
M 957 849.55
L 957 844.25 954.6 844.25 954.6 849.55 957 849.55
M 957 851.2
L 954.6 851.2 954.6 856.5 957 856.5 957 851.2
M 961.1 851.2
L 960.3 851.2 960.3 856.5 961.1 856.5 962.7 856.5 962.7 851.2 961.1 851.2
M 962.7 849.55
L 962.7 844.25 961.1 844.25 960.3 844.25 960.3 849.55 961.1 849.55 962.7 849.55
M 970.25 851.2
L 970.15 851.2 968.5 851.2 967.7 851.2 967.7 856.5 968.5 856.5 970.15 856.5 970.25 856.5 970.25 851.2
M 964.75 851.2
L 964.2 851.2 964.2 856.5 964.75 856.5 966.05 856.5 966.4 856.5 966.4 851.2 966.05 851.2 964.75 851.2
M 964.75 844.25
L 964.2 844.25 964.2 849.55 964.75 849.55 966.05 849.55 966.4 849.55 966.4 844.25 966.05 844.25 964.75 844.25
M 970.25 844.25
L 970.15 844.25 968.5 844.25 967.7 844.25 967.7 849.55 968.5 849.55 970.15 849.55 970.25 849.55 970.25 844.25
M 1024 857.95
L 1023.45 857.95 1023.45 862.8 1024 862.8 1025.3 862.8 1025.65 862.8 1025.65 857.95 1025.3 857.95 1024 857.95
M 1029.5 857.95
L 1029.4 857.95 1027.75 857.95 1026.95 857.95 1026.95 862.8 1027.75 862.8 1029.4 862.8 1029.5 862.8 1029.5 857.95
M 1016.25 857.95
L 1013.85 857.95 1013.85 862.8 1016.25 862.8 1016.25 857.95
M 1020.35 857.95
L 1019.55 857.95 1019.55 862.8 1020.35 862.8 1021.95 862.8 1021.95 857.95 1020.35 857.95
M 1021.95 851.2
L 1020.35 851.2 1019.55 851.2 1019.55 856.5 1020.35 856.5 1021.95 856.5 1021.95 851.2
M 1016.25 851.2
L 1013.85 851.2 1013.85 856.5 1016.25 856.5 1016.25 851.2
M 1016.25 844.25
L 1013.85 844.25 1013.85 849.55 1016.25 849.55 1016.25 844.25
M 1020.35 844.25
L 1019.55 844.25 1019.55 849.55 1020.35 849.55 1021.95 849.55 1021.95 844.25 1020.35 844.25
M 1029.5 851.2
L 1029.4 851.2 1027.75 851.2 1026.95 851.2 1026.95 856.5 1027.75 856.5 1029.4 856.5 1029.5 856.5 1029.5 851.2
M 1024 851.2
L 1023.45 851.2 1023.45 856.5 1024 856.5 1025.3 856.5 1025.65 856.5 1025.65 851.2 1025.3 851.2 1024 851.2
M 1024 844.25
L 1023.45 844.25 1023.45 849.55 1024 849.55 1025.3 849.55 1025.65 849.55 1025.65 844.25 1025.3 844.25 1024 844.25
M 1029.4 844.25
L 1027.75 844.25 1026.95 844.25 1026.95 849.55 1027.75 849.55 1029.4 849.55 1029.5 849.55 1029.5 844.25 1029.4 844.25
M 1010.35 851.2
L 1010.35 856.5 1012.55 856.5 1012.55 851.2 1010.35 851.2
M 1010.35 857.95
L 1010.35 862.8 1012.55 862.8 1012.55 857.95 1010.35 857.95
M 1006.3 862.8
L 1008.75 862.8 1008.75 857.95 1006.3 857.95 1006.3 862.8
M 1008.75 851.2
L 1006.3 851.2 1006.3 856.5 1008.75 856.5 1008.75 851.2
M 1008.75 844.25
L 1006.3 844.25 1006.3 849.55 1008.75 849.55 1008.75 844.25
M 1010.35 844.25
L 1010.35 849.55 1012.55 849.55 1012.55 844.25 1010.35 844.25
M 1097 857.95
L 1096.9 857.95 1095.25 857.95 1094.45 857.95 1094.45 862.8 1095.25 862.8 1096.9 862.8 1097 862.8 1097 857.95
M 1097 851.2
L 1096.9 851.2 1095.25 851.2 1094.45 851.2 1094.45 856.5 1095.25 856.5 1096.9 856.5 1097 856.5 1097 851.2
M 1097 844.25
L 1096.9 844.25 1095.25 844.25 1094.45 844.25 1094.45 849.55 1095.25 849.55 1096.9 849.55 1097 849.55 1097 844.25
M 1083.75 851.2
L 1081.35 851.2 1081.35 856.5 1083.75 856.5 1083.75 851.2
M 1087.85 857.95
L 1087.05 857.95 1087.05 862.8 1087.85 862.8 1089.45 862.8 1089.45 857.95 1087.85 857.95
M 1091.5 857.95
L 1090.95 857.95 1090.95 862.8 1091.5 862.8 1092.8 862.8 1093.15 862.8 1093.15 857.95 1092.8 857.95 1091.5 857.95
M 1080.05 857.95
L 1077.85 857.95 1077.85 862.8 1080.05 862.8 1080.05 857.95
M 1081.35 857.95
L 1081.35 862.8 1083.75 862.8 1083.75 857.95 1081.35 857.95
M 1076.25 857.95
L 1073.8 857.95 1073.8 862.8 1076.25 862.8 1076.25 857.95
M 1080.05 851.2
L 1077.85 851.2 1077.85 856.5 1080.05 856.5 1080.05 851.2
M 1077.85 844.25
L 1077.85 849.55 1080.05 849.55 1080.05 844.25 1077.85 844.25
M 1076.25 851.2
L 1073.8 851.2 1073.8 856.5 1076.25 856.5 1076.25 851.2
M 1076.25 844.25
L 1073.8 844.25 1073.8 849.55 1076.25 849.55 1076.25 844.25
M 1083.75 849.55
L 1083.75 844.25 1081.35 844.25 1081.35 849.55 1083.75 849.55
M 1091.5 851.2
L 1090.95 851.2 1090.95 856.5 1091.5 856.5 1092.8 856.5 1093.15 856.5 1093.15 851.2 1092.8 851.2 1091.5 851.2
M 1087.85 851.2
L 1087.05 851.2 1087.05 856.5 1087.85 856.5 1089.45 856.5 1089.45 851.2 1087.85 851.2
M 1087.85 844.25
L 1087.05 844.25 1087.05 849.55 1087.85 849.55 1089.45 849.55 1089.45 844.25 1087.85 844.25
M 1091.5 844.25
L 1090.95 844.25 1090.95 849.55 1091.5 849.55 1092.8 849.55 1093.15 849.55 1093.15 844.25 1092.8 844.25 1091.5 844.25
M 975.7 786.8
L 966.1 786.8 966.1 799.85 975.7 799.85 975.7 786.8
M 1218.3 786.8
L 1204.65 786.8 1204.65 799.85 1218.3 799.85 1218.3 786.8
M 1218.3 685.65
L 1204.65 685.65 1204.65 703.45 1218.3 703.45 1218.3 685.65
M 1287.5 786.8
L 1275.05 786.8 1275.05 799.85 1287.5 799.85 1287.5 786.8
M 1287.5 754.3
L 1275.05 754.3 1275.05 767.75 1287.5 767.75 1287.5 754.3
M 1269.15 786.8
L 1259.6 786.8 1259.6 799.85 1269.15 799.85 1269.15 786.8
M 1275.05 771.4
L 1275.05 782.85 1287.5 782.85 1287.5 771.4 1275.05 771.4
M 1259.6 782.85
L 1269.15 782.85 1269.15 771.4 1259.6 771.4 1259.6 782.85
M 1269.15 754.3
L 1259.6 754.3 1259.6 767.75 1269.15 767.75 1269.15 754.3
M 1237.45 786.8
L 1224.2 786.8 1224.2 799.85 1237.45 799.85 1237.45 786.8
M 1237.45 754.3
L 1224.2 754.3 1224.2 767.75 1237.45 767.75 1237.45 754.3
M 1253.8 786.8
L 1243.2 786.8 1243.2 799.85 1253.8 799.85 1253.8 786.8
M 1243.2 782.85
L 1253.8 782.85 1253.8 771.4 1243.2 771.4 1243.2 782.85
M 1224.2 771.4
L 1224.2 782.85 1237.45 782.85 1237.45 771.4 1224.2 771.4
M 1253.8 754.3
L 1243.2 754.3 1243.2 767.75 1253.8 767.75 1253.8 754.3
M 1237.45 707.3
L 1224.2 707.3 1224.2 721.4 1237.45 721.4 1237.45 707.3
M 1253.8 725.35
L 1243.2 725.35 1243.2 739.3 1253.8 739.3 1253.8 725.35
M 1224.2 725.35
L 1224.2 739.3 1237.45 739.3 1237.45 725.35 1224.2 725.35
M 1253.8 707.3
L 1243.2 707.3 1243.2 721.4 1253.8 721.4 1253.8 707.3
M 1275.05 721.4
L 1287.5 721.4 1287.5 707.3 1275.05 707.3 1275.05 721.4
M 1275.05 725.35
L 1275.05 739.3 1287.5 739.3 1287.5 725.35 1275.05 725.35
M 1269.15 725.35
L 1259.6 725.35 1259.6 739.3 1269.15 739.3 1269.15 725.35
M 1269.15 707.3
L 1259.6 707.3 1259.6 721.4 1269.15 721.4 1269.15 707.3
M 1181.15 786.8
L 1171.6 786.8 1171.6 799.85 1181.15 799.85 1181.15 786.8
M 1204.65 754.3
L 1204.65 767.75 1218.3 767.75 1218.3 754.3 1204.65 754.3
M 1198.75 786.8
L 1187.1 786.8 1187.1 799.85 1198.75 799.85 1198.75 786.8
M 1198.75 754.3
L 1187.1 754.3 1187.1 767.75 1198.75 767.75 1198.75 754.3
M 1204.65 771.4
L 1204.65 782.85 1218.3 782.85 1218.3 771.4 1204.65 771.4
M 1187.1 771.4
L 1187.1 782.85 1198.75 782.85 1198.75 771.4 1187.1 771.4
M 1171.6 754.3
L 1171.6 767.75 1181.15 767.75 1181.15 754.3 1171.6 754.3
M 1165.75 786.8
L 1153.25 786.8 1153.25 799.85 1165.75 799.85 1165.75 786.8
M 1165.75 754.3
L 1153.25 754.3 1153.25 767.75 1165.75 767.75 1165.75 754.3
M 1171.6 771.4
L 1171.6 782.85 1181.15 782.85 1181.15 771.4 1171.6 771.4
M 1147.4 786.8
L 1136.55 786.8 1136.55 799.85 1147.4 799.85 1147.4 786.8
M 1153.25 771.4
L 1153.25 782.85 1165.75 782.85 1165.75 771.4 1153.25 771.4
M 1136.55 782.85
L 1147.4 782.85 1147.4 771.4 1136.55 771.4 1136.55 782.85
M 1147.4 754.3
L 1136.55 754.3 1136.55 767.75 1147.4 767.75 1147.4 754.3
M 1165.75 707.3
L 1153.25 707.3 1153.25 721.4 1165.75 721.4 1165.75 707.3
M 1153.25 725.35
L 1153.25 739.3 1165.75 739.3 1165.75 725.35 1153.25 725.35
M 1147.4 725.35
L 1136.55 725.35 1136.55 739.3 1147.4 739.3 1147.4 725.35
M 1147.4 707.3
L 1136.55 707.3 1136.55 721.4 1147.4 721.4 1147.4 707.3
M 1204.65 707.3
L 1204.65 721.4 1218.3 721.4 1218.3 707.3 1204.65 707.3
M 1181.15 721.4
L 1181.15 707.3 1171.6 707.3 1171.6 721.4 1181.15 721.4
M 1198.75 707.3
L 1187.1 707.3 1187.1 721.4 1198.75 721.4 1198.75 707.3
M 1204.65 725.35
L 1204.65 739.3 1218.3 739.3 1218.3 725.35 1204.65 725.35
M 1187.1 725.35
L 1187.1 739.3 1198.75 739.3 1198.75 725.35 1187.1 725.35
M 1181.15 739.3
L 1181.15 725.35 1171.6 725.35 1171.6 739.3 1181.15 739.3
M 1181.15 685.65
L 1171.6 685.65 1171.6 703.45 1181.15 703.45 1181.15 685.65
M 1198.75 685.65
L 1187.1 685.65 1187.1 703.45 1198.75 703.45 1198.75 685.65
M 1165.75 685.65
L 1153.25 685.65 1153.25 703.45 1165.75 703.45 1165.75 685.65
M 1147.4 685.65
L 1136.55 685.65 1136.55 703.45 1147.4 703.45 1147.4 685.65
M 1287.5 685.65
L 1275.05 685.65 1275.05 703.45 1287.5 703.45 1287.5 685.65
M 1269.15 685.65
L 1259.6 685.65 1259.6 703.45 1269.15 703.45 1269.15 685.65
M 1237.45 685.65
L 1224.2 685.65 1224.2 703.45 1237.45 703.45 1237.45 685.65
M 1253.8 685.65
L 1243.2 685.65 1243.2 703.45 1253.8 703.45 1253.8 685.65
M 1061.2 786.8
L 1050.35 786.8 1050.35 799.85 1061.2 799.85 1061.2 786.8
M 1061.2 685.65
L 1050.35 685.65 1050.35 703.45 1061.2 703.45 1061.2 685.65
M 1094.95 786.8
L 1085.35 786.8 1085.35 799.85 1094.95 799.85 1094.95 786.8
M 1130.9 786.8
L 1119.1 786.8 1119.1 799.85 1130.9 799.85 1130.9 786.8
M 1119.1 782.85
L 1130.9 782.85 1130.9 771.4 1119.1 771.4 1119.1 782.85
M 1113.3 786.8
L 1100.7 786.8 1100.7 799.85 1113.3 799.85 1113.3 786.8
M 1100.7 782.85
L 1113.3 782.85 1113.3 771.4 1100.7 771.4 1100.7 782.85
M 1113.3 754.3
L 1100.7 754.3 1100.7 767.75 1113.3 767.75 1113.3 754.3
M 1130.9 754.3
L 1119.1 754.3 1119.1 767.75 1130.9 767.75 1130.9 754.3
M 1085.35 754.3
L 1085.35 767.75 1094.95 767.75 1094.95 754.3 1085.35 754.3
M 1079.55 786.8
L 1067.05 786.8 1067.05 799.85 1079.55 799.85 1079.55 786.8
M 1079.55 754.3
L 1067.05 754.3 1067.05 767.75 1079.55 767.75 1079.55 754.3
M 1085.35 771.4
L 1085.35 782.85 1094.95 782.85 1094.95 771.4 1085.35 771.4
M 1067.05 771.4
L 1067.05 782.85 1079.55 782.85 1079.55 771.4 1067.05 771.4
M 1079.55 707.3
L 1067.05 707.3 1067.05 721.4 1079.55 721.4 1079.55 707.3
M 1067.05 725.35
L 1067.05 739.3 1079.55 739.3 1079.55 725.35 1067.05 725.35
M 1094.95 721.4
L 1094.95 707.3 1085.35 707.3 1085.35 721.4 1094.95 721.4
M 1130.9 725.35
L 1119.1 725.35 1119.1 739.3 1130.9 739.3 1130.9 725.35
M 1094.95 739.3
L 1094.95 725.35 1085.35 725.35 1085.35 739.3 1094.95 739.3
M 1113.3 725.35
L 1100.7 725.35 1100.7 739.3 1113.3 739.3 1113.3 725.35
M 1113.3 707.3
L 1100.7 707.3 1100.7 721.4 1113.3 721.4 1113.3 707.3
M 1130.9 707.3
L 1119.1 707.3 1119.1 721.4 1130.9 721.4 1130.9 707.3
M 1050.35 754.3
L 1050.35 767.75 1061.2 767.75 1061.2 754.3 1050.35 754.3
M 1044.55 786.8
L 1032.75 786.8 1032.75 799.85 1044.55 799.85 1044.55 786.8
M 1050.35 771.4
L 1050.35 782.85 1061.2 782.85 1061.2 771.4 1050.35 771.4
M 1032.75 782.85
L 1044.55 782.85 1044.55 771.4 1032.75 771.4 1032.75 782.85
M 1027.1 786.8
L 1015.4 786.8 1015.4 799.85 1027.1 799.85 1027.1 786.8
M 1015.4 782.85
L 1027.1 782.85 1027.1 771.4 1015.4 771.4 1015.4 782.85
M 1027.1 754.3
L 1015.4 754.3 1015.4 767.75 1027.1 767.75 1027.1 754.3
M 1044.55 754.3
L 1032.75 754.3 1032.75 767.75 1044.55 767.75 1044.55 754.3
M 994.05 786.8
L 981.65 786.8 981.65 799.85 994.05 799.85 994.05 786.8
M 994.05 754.3
L 981.65 754.3 981.65 767.75 994.05 767.75 994.05 754.3
M 1009.6 782.85
L 1009.6 771.4 1000 771.4 1000 782.85 1009.6 782.85
M 1009.6 786.8
L 1000 786.8 1000 799.85 1009.6 799.85 1009.6 786.8
M 981.65 771.4
L 981.65 782.85 994.05 782.85 994.05 771.4 981.65 771.4
M 1009.6 754.3
L 1000 754.3 1000 767.75 1009.6 767.75 1009.6 754.3
M 994.05 707.3
L 981.65 707.3 981.65 721.4 994.05 721.4 994.05 707.3
M 1009.6 725.35
L 1000 725.35 1000 739.3 1009.6 739.3 1009.6 725.35
M 981.65 725.35
L 981.65 739.3 994.05 739.3 994.05 725.35 981.65 725.35
M 1009.6 707.3
L 1000 707.3 1000 721.4 1009.6 721.4 1009.6 707.3
M 1050.35 707.3
L 1050.35 721.4 1061.2 721.4 1061.2 707.3 1050.35 707.3
M 1050.35 725.35
L 1050.35 739.3 1061.2 739.3 1061.2 725.35 1050.35 725.35
M 1044.55 725.35
L 1032.75 725.35 1032.75 739.3 1044.55 739.3 1044.55 725.35
M 1027.1 725.35
L 1015.4 725.35 1015.4 739.3 1027.1 739.3 1027.1 725.35
M 1027.1 707.3
L 1015.4 707.3 1015.4 721.4 1027.1 721.4 1027.1 707.3
M 1044.55 707.3
L 1032.75 707.3 1032.75 721.4 1044.55 721.4 1044.55 707.3
M 1044.55 685.65
L 1032.75 685.65 1032.75 703.45 1044.55 703.45 1044.55 685.65
M 1027.1 685.65
L 1015.4 685.65 1015.4 703.45 1027.1 703.45 1027.1 685.65
M 994.05 685.65
L 981.65 685.65 981.65 703.45 994.05 703.45 994.05 685.65
M 1009.6 685.65
L 1000 685.65 1000 703.45 1009.6 703.45 1009.6 685.65
M 1094.95 685.65
L 1085.35 685.65 1085.35 703.45 1094.95 703.45 1094.95 685.65
M 1130.9 685.65
L 1119.1 685.65 1119.1 703.45 1130.9 703.45 1130.9 685.65
M 1113.3 685.65
L 1100.7 685.65 1100.7 703.45 1113.3 703.45 1113.3 685.65
M 1079.55 685.65
L 1067.05 685.65 1067.05 703.45 1079.55 703.45 1079.55 685.65
M 966.1 685.65
L 966.1 703.45 975.7 703.45 975.7 685.65 966.1 685.65
M 966.1 754.3
L 966.1 767.75 975.7 767.75 975.7 754.3 966.1 754.3
M 960.3 786.8
L 947.55 786.8 947.55 799.85 960.3 799.85 960.3 786.8
M 960.3 754.3
L 947.55 754.3 947.55 767.75 960.3 767.75 960.3 754.3
M 966.1 771.4
L 966.1 782.85 975.7 782.85 975.7 771.4 966.1 771.4
M 947.55 771.4
L 947.55 782.85 960.3 782.85 960.3 771.4 947.55 771.4
M 941.75 771.4
L 932 771.4 932 782.85 941.75 782.85 941.75 771.4
M 941.75 786.8
L 932 786.8 932 799.85 941.75 799.85 941.75 786.8
M 941.75 754.3
L 932 754.3 932 767.75 941.75 767.75 941.75 754.3
M 913.65 782.85
L 926.2 782.85 926.2 771.4 913.65 771.4 913.65 782.85
M 926.2 786.8
L 913.65 786.8 913.65 799.85 926.2 799.85 926.2 786.8
M 891.7 782.85
L 907.85 782.85 907.85 771.4 891.7 771.4 891.7 782.85
M 907.85 786.8
L 891.7 786.8 891.7 799.85 907.85 799.85 907.85 786.8
M 907.85 754.3
L 891.7 754.3 891.7 767.75 907.85 767.75 907.85 754.3
M 926.2 754.3
L 913.65 754.3 913.65 767.75 926.2 767.75 926.2 754.3
M 926.2 725.35
L 913.65 725.35 913.65 739.3 926.2 739.3 926.2 725.35
M 907.85 725.35
L 891.7 725.35 891.7 739.3 907.85 739.3 907.85 725.35
M 907.85 707.3
L 891.7 707.3 891.7 721.4 907.85 721.4 907.85 707.3
M 926.2 707.3
L 913.65 707.3 913.65 721.4 926.2 721.4 926.2 707.3
M 966.1 707.3
L 966.1 721.4 975.7 721.4 975.7 707.3 966.1 707.3
M 960.3 707.3
L 947.55 707.3 947.55 721.4 960.3 721.4 960.3 707.3
M 966.1 725.35
L 966.1 739.3 975.7 739.3 975.7 725.35 966.1 725.35
M 947.55 725.35
L 947.55 739.3 960.3 739.3 960.3 725.35 947.55 725.35
M 941.75 725.35
L 932 725.35 932 739.3 941.75 739.3 941.75 725.35
M 941.75 707.3
L 932 707.3 932 721.4 941.75 721.4 941.75 707.3
M 885.9 786.8
L 869.75 786.8 869.75 799.85 885.9 799.85 885.9 786.8
M 885.9 754.3
L 869.75 754.3 869.75 767.75 885.9 767.75 885.9 754.3
M 869.75 771.4
L 869.75 782.85 885.9 782.85 885.9 771.4 869.75 771.4
M 885.9 707.3
L 869.75 707.3 869.75 721.4 885.9 721.4 885.9 707.3
M 869.75 725.35
L 869.75 739.3 885.9 739.3 885.9 725.35 869.75 725.35
M 885.9 685.65
L 869.75 685.65 869.75 703.45 885.9 703.45 885.9 685.65
M 960.3 685.65
L 947.55 685.65 947.55 703.45 960.3 703.45 960.3 685.65
M 941.75 685.65
L 932 685.65 932 703.45 941.75 703.45 941.75 685.65
M 926.2 685.65
L 913.65 685.65 913.65 703.45 926.2 703.45 926.2 685.65
M 907.85 685.65
L 891.7 685.65 891.7 703.45 907.85 703.45 907.85 685.65
M 1303.05 799.85
L 1303.05 786.8 1293.35 786.8 1293.35 799.85 1303.05 799.85
M 1146.05 851.2
L 1143.85 851.2 1143.85 856.5 1146.05 856.5 1146.05 851.2
M 1149.75 862.8
L 1149.75 857.95 1147.35 857.95 1147.35 862.8 1149.75 862.8
M 1139.8 862.8
L 1142.25 862.8 1142.25 857.95 1139.8 857.95 1139.8 862.8
M 1143.85 857.95
L 1143.85 862.8 1146.05 862.8 1146.05 857.95 1143.85 857.95
M 1139.8 844.25
L 1139.8 849.55 1142.25 849.55 1142.25 844.25 1139.8 844.25
M 1142.25 851.2
L 1139.8 851.2 1139.8 856.5 1142.25 856.5 1142.25 851.2
M 1149.75 849.55
L 1149.75 844.25 1147.35 844.25 1147.35 849.55 1149.75 849.55
M 1146.05 849.55
L 1146.05 844.25 1143.85 844.25 1143.85 849.55 1146.05 849.55
M 1149.75 851.2
L 1147.35 851.2 1147.35 856.5 1149.75 856.5 1149.75 851.2
M 1155.45 856.5
L 1155.45 851.2 1153.85 851.2 1153.05 851.2 1153.05 856.5 1153.85 856.5 1155.45 856.5
M 1155.45 862.8
L 1155.45 857.95 1153.85 857.95 1153.05 857.95 1153.05 862.8 1153.85 862.8 1155.45 862.8
M 1157.5 857.95
L 1156.95 857.95 1156.95 862.8 1157.5 862.8 1158.8 862.8 1159.15 862.8 1159.15 857.95 1158.8 857.95 1157.5 857.95
M 1163 857.95
L 1162.9 857.95 1161.25 857.95 1160.45 857.95 1160.45 862.8 1161.25 862.8 1162.9 862.8 1163 862.8 1163 857.95
M 1155.45 849.55
L 1155.45 844.25 1153.85 844.25 1153.05 844.25 1153.05 849.55 1153.85 849.55 1155.45 849.55
M 1163 851.2
L 1162.9 851.2 1161.25 851.2 1160.45 851.2 1160.45 856.5 1161.25 856.5 1162.9 856.5 1163 856.5 1163 851.2
M 1157.5 851.2
L 1156.95 851.2 1156.95 856.5 1157.5 856.5 1158.8 856.5 1159.15 856.5 1159.15 851.2 1158.8 851.2 1157.5 851.2
M 1157.5 844.25
L 1156.95 844.25 1156.95 849.55 1157.5 849.55 1158.8 849.55 1159.15 849.55 1159.15 844.25 1158.8 844.25 1157.5 844.25
M 1163 844.25
L 1162.9 844.25 1161.25 844.25 1160.45 844.25 1160.45 849.55 1161.25 849.55 1162.9 849.55 1163 849.55 1163 844.25
M 1393.75 862.8
L 1396.2 862.8 1396.2 857.95 1393.75 857.95 1393.75 862.8
M 1396.2 851.2
L 1393.75 851.2 1393.75 856.5 1396.2 856.5 1396.2 851.2
M 1396.2 844.25
L 1393.75 844.25 1393.75 849.55 1396.2 849.55 1396.2 844.25
M 1416.95 857.95
L 1416.85 857.95 1415.2 857.95 1414.4 857.95 1414.4 862.8 1415.2 862.8 1416.85 862.8 1416.95 862.8 1416.95 857.95
M 1413.1 857.95
L 1412.75 857.95 1411.45 857.95 1410.9 857.95 1410.9 862.8 1411.45 862.8 1412.75 862.8 1413.1 862.8 1413.1 857.95
M 1403.7 862.8
L 1403.7 857.95 1401.3 857.95 1401.3 862.8 1403.7 862.8
M 1407 857.95
L 1407 862.8 1407.8 862.8 1409.4 862.8 1409.4 857.95 1407.8 857.95 1407 857.95
M 1400 857.95
L 1397.8 857.95 1397.8 862.8 1400 862.8 1400 857.95
M 1403.7 851.2
L 1401.3 851.2 1401.3 856.5 1403.7 856.5 1403.7 851.2
M 1403.7 844.25
L 1401.3 844.25 1401.3 849.55 1403.7 849.55 1403.7 844.25
M 1400 851.2
L 1397.8 851.2 1397.8 856.5 1400 856.5 1400 851.2
M 1400 844.25
L 1397.8 844.25 1397.8 849.55 1400 849.55 1400 844.25
M 1416.95 851.2
L 1416.85 851.2 1415.2 851.2 1414.4 851.2 1414.4 856.5 1415.2 856.5 1416.85 856.5 1416.95 856.5 1416.95 851.2
M 1409.4 851.2
L 1407.8 851.2 1407 851.2 1407 856.5 1407.8 856.5 1409.4 856.5 1409.4 851.2
M 1411.45 851.2
L 1410.9 851.2 1410.9 856.5 1411.45 856.5 1412.75 856.5 1413.1 856.5 1413.1 851.2 1412.75 851.2 1411.45 851.2
M 1409.4 844.25
L 1407.8 844.25 1407 844.25 1407 849.55 1407.8 849.55 1409.4 849.55 1409.4 844.25
M 1416.95 844.25
L 1416.85 844.25 1415.2 844.25 1414.4 844.25 1414.4 849.55 1415.2 849.55 1416.85 849.55 1416.95 849.55 1416.95 844.25
M 1413.1 844.25
L 1412.75 844.25 1411.45 844.25 1410.9 844.25 1410.9 849.55 1411.45 849.55 1412.75 849.55 1413.1 849.55 1413.1 844.25
M 1474.55 862.8
L 1474.55 857.95 1472.15 857.95 1472.15 862.8 1474.55 862.8
M 1470.85 857.95
L 1468.65 857.95 1468.65 862.8 1470.85 862.8 1470.85 857.95
M 1464.6 862.8
L 1467.05 862.8 1467.05 857.95 1464.6 857.95 1464.6 862.8
M 1464.6 844.25
L 1464.6 849.55 1467.05 849.55 1467.05 844.25 1464.6 844.25
M 1467.05 851.2
L 1464.6 851.2 1464.6 856.5 1467.05 856.5 1467.05 851.2
M 1474.55 851.2
L 1472.15 851.2 1472.15 856.5 1474.55 856.5 1474.55 851.2
M 1474.55 844.25
L 1472.15 844.25 1472.15 849.55 1474.55 849.55 1474.55 844.25
M 1470.85 851.2
L 1468.65 851.2 1468.65 856.5 1470.85 856.5 1470.85 851.2
M 1470.85 844.25
L 1468.65 844.25 1468.65 849.55 1470.85 849.55 1470.85 844.25
M 1480.25 857.95
L 1478.65 857.95 1477.85 857.95 1477.85 862.8 1478.65 862.8 1480.25 862.8 1480.25 857.95
M 1483.95 857.95
L 1483.6 857.95 1482.3 857.95 1481.75 857.95 1481.75 862.8 1482.3 862.8 1483.6 862.8 1483.95 862.8 1483.95 857.95
M 1487.8 857.95
L 1487.7 857.95 1486.05 857.95 1485.25 857.95 1485.25 862.8 1486.05 862.8 1487.7 862.8 1487.8 862.8 1487.8 857.95
M 1487.8 851.2
L 1487.7 851.2 1486.05 851.2 1485.25 851.2 1485.25 856.5 1486.05 856.5 1487.7 856.5 1487.8 856.5 1487.8 851.2
M 1482.3 851.2
L 1481.75 851.2 1481.75 856.5 1482.3 856.5 1483.6 856.5 1483.95 856.5 1483.95 851.2 1483.6 851.2 1482.3 851.2
M 1480.25 851.2
L 1478.65 851.2 1477.85 851.2 1477.85 856.5 1478.65 856.5 1480.25 856.5 1480.25 851.2
M 1480.25 844.25
L 1478.65 844.25 1477.85 844.25 1477.85 849.55 1478.65 849.55 1480.25 849.55 1480.25 844.25
M 1487.8 844.25
L 1487.7 844.25 1486.05 844.25 1485.25 844.25 1485.25 849.55 1486.05 849.55 1487.7 849.55 1487.8 849.55 1487.8 844.25
M 1483.95 844.25
L 1483.6 844.25 1482.3 844.25 1481.75 844.25 1481.75 849.55 1482.3 849.55 1483.6 849.55 1483.95 849.55 1483.95 844.25
M 1535.3 862.8
L 1535.3 857.95 1532.9 857.95 1532.9 862.8 1535.3 862.8
M 1531.6 857.95
L 1529.4 857.95 1529.4 862.8 1531.6 862.8 1531.6 857.95
M 1525.35 862.8
L 1527.8 862.8 1527.8 857.95 1525.35 857.95 1525.35 862.8
M 1525.35 844.25
L 1525.35 849.55 1527.8 849.55 1527.8 844.25 1525.35 844.25
M 1527.8 851.2
L 1525.35 851.2 1525.35 856.5 1527.8 856.5 1527.8 851.2
M 1535.3 851.2
L 1532.9 851.2 1532.9 856.5 1535.3 856.5 1535.3 851.2
M 1535.3 844.25
L 1532.9 844.25 1532.9 849.55 1535.3 849.55 1535.3 844.25
M 1531.6 851.2
L 1529.4 851.2 1529.4 856.5 1531.6 856.5 1531.6 851.2
M 1531.6 844.25
L 1529.4 844.25 1529.4 849.55 1531.6 849.55 1531.6 844.25
M 1541 857.95
L 1539.4 857.95 1538.6 857.95 1538.6 862.8 1539.4 862.8 1541 862.8 1541 857.95
M 1544.7 857.95
L 1544.35 857.95 1543.05 857.95 1542.5 857.95 1542.5 862.8 1543.05 862.8 1544.35 862.8 1544.7 862.8 1544.7 857.95
M 1548.55 857.95
L 1548.45 857.95 1546.8 857.95 1546 857.95 1546 862.8 1546.8 862.8 1548.45 862.8 1548.55 862.8 1548.55 857.95
M 1548.55 851.2
L 1548.45 851.2 1546.8 851.2 1546 851.2 1546 856.5 1546.8 856.5 1548.45 856.5 1548.55 856.5 1548.55 851.2
M 1543.05 851.2
L 1542.5 851.2 1542.5 856.5 1543.05 856.5 1544.35 856.5 1544.7 856.5 1544.7 851.2 1544.35 851.2 1543.05 851.2
M 1541 851.2
L 1539.4 851.2 1538.6 851.2 1538.6 856.5 1539.4 856.5 1541 856.5 1541 851.2
M 1541 844.25
L 1539.4 844.25 1538.6 844.25 1538.6 849.55 1539.4 849.55 1541 849.55 1541 844.25
M 1548.55 844.25
L 1548.45 844.25 1546.8 844.25 1546 844.25 1546 849.55 1546.8 849.55 1548.45 849.55 1548.55 849.55 1548.55 844.25
M 1544.7 844.25
L 1544.35 844.25 1543.05 844.25 1542.5 844.25 1542.5 849.55 1543.05 849.55 1544.35 849.55 1544.7 849.55 1544.7 844.25
M 1592.05 857.95
L 1589.65 857.95 1589.65 862.8 1592.05 862.8 1592.05 857.95
M 1596.15 857.95
L 1595.35 857.95 1595.35 862.8 1596.15 862.8 1597.75 862.8 1597.75 857.95 1596.15 857.95
M 1584.55 857.95
L 1582.1 857.95 1582.1 862.8 1584.55 862.8 1584.55 857.95
M 1588.35 857.95
L 1586.15 857.95 1586.15 862.8 1588.35 862.8 1588.35 857.95
M 1588.35 851.2
L 1586.15 851.2 1586.15 856.5 1588.35 856.5 1588.35 851.2
M 1584.55 851.2
L 1582.1 851.2 1582.1 856.5 1584.55 856.5 1584.55 851.2
M 1584.55 844.25
L 1582.1 844.25 1582.1 849.55 1584.55 849.55 1584.55 844.25
M 1588.35 844.25
L 1586.15 844.25 1586.15 849.55 1588.35 849.55 1588.35 844.25
M 1597.75 851.2
L 1596.15 851.2 1595.35 851.2 1595.35 856.5 1596.15 856.5 1597.75 856.5 1597.75 851.2
M 1592.05 851.2
L 1589.65 851.2 1589.65 856.5 1592.05 856.5 1592.05 851.2
M 1592.05 844.25
L 1589.65 844.25 1589.65 849.55 1592.05 849.55 1592.05 844.25
M 1597.75 844.25
L 1596.15 844.25 1595.35 844.25 1595.35 849.55 1596.15 849.55 1597.75 849.55 1597.75 844.25
M 1601.1 857.95
L 1599.8 857.95 1599.25 857.95 1599.25 862.8 1599.8 862.8 1601.1 862.8 1601.45 862.8 1601.45 857.95 1601.1 857.95
M 1605.3 857.95
L 1605.2 857.95 1603.55 857.95 1602.75 857.95 1602.75 862.8 1603.55 862.8 1605.2 862.8 1605.3 862.8 1605.3 857.95
M 1603.55 851.2
L 1602.75 851.2 1602.75 856.5 1603.55 856.5 1605.2 856.5 1605.3 856.5 1605.3 851.2 1605.2 851.2 1603.55 851.2
M 1601.1 851.2
L 1599.8 851.2 1599.25 851.2 1599.25 856.5 1599.8 856.5 1601.1 856.5 1601.45 856.5 1601.45 851.2 1601.1 851.2
M 1601.1 844.25
L 1599.8 844.25 1599.25 844.25 1599.25 849.55 1599.8 849.55 1601.1 849.55 1601.45 849.55 1601.45 844.25 1601.1 844.25
M 1605.3 844.25
L 1605.2 844.25 1603.55 844.25 1602.75 844.25 1602.75 849.55 1603.55 849.55 1605.2 849.55 1605.3 849.55 1605.3 844.25
M 1632.3 786.8
L 1615.85 786.8 1615.85 799.85 1632.3 799.85 1632.3 786.8
M 1658.85 786.8
L 1638.25 786.8 1638.25 799.85 1658.85 799.85 1658.85 786.8
M 1658.85 754.3
L 1638.25 754.3 1638.25 767.75 1658.85 767.75 1658.85 754.3
M 1638.25 771.4
L 1638.25 782.85 1658.85 782.85 1658.85 771.4 1638.25 771.4
M 1658.85 707.3
L 1638.25 707.3 1638.25 721.4 1658.85 721.4 1658.85 707.3
M 1638.25 725.35
L 1638.25 739.3 1658.85 739.3 1658.85 725.35 1638.25 725.35
M 1658.85 685.65
L 1638.25 685.65 1638.25 703.45 1658.85 703.45 1658.85 685.65
M 1615.85 685.65
L 1615.85 703.45 1632.3 703.45 1632.3 685.65 1615.85 685.65
M 1541.2 786.8
L 1529.6 786.8 1529.6 799.85 1541.2 799.85 1541.2 786.8
M 1541.2 685.65
L 1529.6 685.65 1529.6 703.45 1541.2 703.45 1541.2 685.65
M 1615.85 754.3
L 1615.85 767.75 1632.3 767.75 1632.3 754.3 1615.85 754.3
M 1609.9 786.8
L 1597.45 786.8 1597.45 799.85 1609.9 799.85 1609.9 786.8
M 1609.9 754.3
L 1597.45 754.3 1597.45 767.75 1609.9 767.75 1609.9 754.3
M 1615.85 771.4
L 1615.85 782.85 1632.3 782.85 1632.3 771.4 1615.85 771.4
M 1591.7 786.8
L 1581.95 786.8 1581.95 799.85 1591.7 799.85 1591.7 786.8
M 1597.45 771.4
L 1597.45 782.85 1609.9 782.85 1609.9 771.4 1597.45 771.4
M 1581.95 782.85
L 1591.7 782.85 1591.7 771.4 1581.95 771.4 1581.95 782.85
M 1591.7 754.3
L 1581.95 754.3 1581.95 767.75 1591.7 767.75 1591.7 754.3
M 1576.15 786.8
L 1563.7 786.8 1563.7 799.85 1576.15 799.85 1576.15 786.8
M 1563.7 782.85
L 1576.15 782.85 1576.15 771.4 1563.7 771.4 1563.7 782.85
M 1547 771.4
L 1547 782.85 1557.8 782.85 1557.8 771.4 1547 771.4
M 1557.8 786.8
L 1547 786.8 1547 799.85 1557.8 799.85 1557.8 786.8
M 1557.8 754.3
L 1547 754.3 1547 767.75 1557.8 767.75 1557.8 754.3
M 1576.15 754.3
L 1563.7 754.3 1563.7 767.75 1576.15 767.75 1576.15 754.3
M 1576.15 725.35
L 1563.7 725.35 1563.7 739.3 1576.15 739.3 1576.15 725.35
M 1557.8 725.35
L 1547 725.35 1547 739.3 1557.8 739.3 1557.8 725.35
M 1557.8 707.3
L 1547 707.3 1547 721.4 1557.8 721.4 1557.8 707.3
M 1576.15 707.3
L 1563.7 707.3 1563.7 721.4 1576.15 721.4 1576.15 707.3
M 1615.85 707.3
L 1615.85 721.4 1632.3 721.4 1632.3 707.3 1615.85 707.3
M 1609.9 707.3
L 1597.45 707.3 1597.45 721.4 1609.9 721.4 1609.9 707.3
M 1615.85 725.35
L 1615.85 739.3 1632.3 739.3 1632.3 725.35 1615.85 725.35
M 1597.45 725.35
L 1597.45 739.3 1609.9 739.3 1609.9 725.35 1597.45 725.35
M 1591.7 725.35
L 1581.95 725.35 1581.95 739.3 1591.7 739.3 1591.7 725.35
M 1591.7 707.3
L 1581.95 707.3 1581.95 721.4 1591.7 721.4 1591.7 707.3
M 1506.2 786.8
L 1496.6 786.8 1496.6 799.85 1506.2 799.85 1506.2 786.8
M 1529.6 754.3
L 1529.6 767.75 1541.2 767.75 1541.2 754.3 1529.6 754.3
M 1523.7 786.8
L 1512.05 786.8 1512.05 799.85 1523.7 799.85 1523.7 786.8
M 1523.7 754.3
L 1512.05 754.3 1512.05 767.75 1523.7 767.75 1523.7 754.3
M 1529.6 771.4
L 1529.6 782.85 1541.2 782.85 1541.2 771.4 1529.6 771.4
M 1512.05 771.4
L 1512.05 782.85 1523.7 782.85 1523.7 771.4 1512.05 771.4
M 1496.6 754.3
L 1496.6 767.75 1506.2 767.75 1506.2 754.3 1496.6 754.3
M 1490.85 786.8
L 1478.2 786.8 1478.2 799.85 1490.85 799.85 1490.85 786.8
M 1490.85 754.3
L 1478.2 754.3 1478.2 767.75 1490.85 767.75 1490.85 754.3
M 1496.6 771.4
L 1496.6 782.85 1506.2 782.85 1506.2 771.4 1496.6 771.4
M 1478.2 771.4
L 1478.2 782.85 1490.85 782.85 1490.85 771.4 1478.2 771.4
M 1472.45 771.4
L 1462.95 771.4 1462.95 782.85 1472.45 782.85 1472.45 771.4
M 1472.45 786.8
L 1462.95 786.8 1462.95 799.85 1472.45 799.85 1472.45 786.8
M 1472.45 754.3
L 1462.95 754.3 1462.95 767.75 1472.45 767.75 1472.45 754.3
M 1490.85 707.3
L 1478.2 707.3 1478.2 721.4 1490.85 721.4 1490.85 707.3
M 1478.2 725.35
L 1478.2 739.3 1490.85 739.3 1490.85 725.35 1478.2 725.35
M 1472.45 725.35
L 1462.95 725.35 1462.95 739.3 1472.45 739.3 1472.45 725.35
M 1472.45 707.3
L 1462.95 707.3 1462.95 721.4 1472.45 721.4 1472.45 707.3
M 1529.6 707.3
L 1529.6 721.4 1541.2 721.4 1541.2 707.3 1529.6 707.3
M 1506.2 721.4
L 1506.2 707.3 1496.6 707.3 1496.6 721.4 1506.2 721.4
M 1523.7 707.3
L 1512.05 707.3 1512.05 721.4 1523.7 721.4 1523.7 707.3
M 1529.6 725.35
L 1529.6 739.3 1541.2 739.3 1541.2 725.35 1529.6 725.35
M 1506.2 739.3
L 1506.2 725.35 1496.6 725.35 1496.6 739.3 1506.2 739.3
M 1512.05 725.35
L 1512.05 739.3 1523.7 739.3 1523.7 725.35 1512.05 725.35
M 1506.2 685.65
L 1496.6 685.65 1496.6 703.45 1506.2 703.45 1506.2 685.65
M 1523.7 685.65
L 1512.05 685.65 1512.05 703.45 1523.7 703.45 1523.7 685.65
M 1490.85 685.65
L 1478.2 685.65 1478.2 703.45 1490.85 703.45 1490.85 685.65
M 1472.45 685.65
L 1462.95 685.65 1462.95 703.45 1472.45 703.45 1472.45 685.65
M 1609.9 685.65
L 1597.45 685.65 1597.45 703.45 1609.9 703.45 1609.9 685.65
M 1591.7 685.65
L 1581.95 685.65 1581.95 703.45 1591.7 703.45 1591.7 685.65
M 1576.15 685.65
L 1563.7 685.65 1563.7 703.45 1576.15 703.45 1576.15 685.65
M 1557.8 685.65
L 1547 685.65 1547 703.45 1557.8 703.45 1557.8 685.65
M 1389.1 786.8
L 1376.75 786.8 1376.75 799.85 1389.1 799.85 1389.1 786.8
M 1303.05 703.45
L 1303.05 685.65 1293.35 685.65 1293.35 703.45 1303.05 703.45
M 1389.1 703.45
L 1389.1 685.65 1376.75 685.65 1376.75 703.45 1389.1 703.45
M 1422.8 786.8
L 1410.35 786.8 1410.35 799.85 1422.8 799.85 1422.8 786.8
M 1438.3 786.8
L 1428.75 786.8 1428.75 799.85 1438.3 799.85 1438.3 786.8
M 1438.3 754.3
L 1428.75 754.3 1428.75 767.75 1438.3 767.75 1438.3 754.3
M 1457.05 771.4
L 1444.15 771.4 1444.15 782.85 1457.05 782.85 1457.05 771.4
M 1457.05 786.8
L 1444.15 786.8 1444.15 799.85 1457.05 799.85 1457.05 786.8
M 1428.75 771.4
L 1428.75 782.85 1438.3 782.85 1438.3 771.4 1428.75 771.4
M 1457.05 754.3
L 1444.15 754.3 1444.15 767.75 1457.05 767.75 1457.05 754.3
M 1410.35 754.3
L 1410.35 767.75 1422.8 767.75 1422.8 754.3 1410.35 754.3
M 1404.5 786.8
L 1394.85 786.8 1394.85 799.85 1404.5 799.85 1404.5 786.8
M 1404.5 754.3
L 1394.85 754.3 1394.85 767.75 1404.5 767.75 1404.5 754.3
M 1410.35 771.4
L 1410.35 782.85 1422.8 782.85 1422.8 771.4 1410.35 771.4
M 1394.85 771.4
L 1394.85 782.85 1404.5 782.85 1404.5 771.4 1394.85 771.4
M 1404.5 707.3
L 1394.85 707.3 1394.85 721.4 1404.5 721.4 1404.5 707.3
M 1394.85 725.35
L 1394.85 739.3 1404.5 739.3 1404.5 725.35 1394.85 725.35
M 1422.8 721.4
L 1422.8 707.3 1410.35 707.3 1410.35 721.4 1422.8 721.4
M 1438.3 707.3
L 1428.75 707.3 1428.75 721.4 1438.3 721.4 1438.3 707.3
M 1457.05 725.35
L 1444.15 725.35 1444.15 739.3 1457.05 739.3 1457.05 725.35
M 1428.75 725.35
L 1428.75 739.3 1438.3 739.3 1438.3 725.35 1428.75 725.35
M 1422.8 739.3
L 1422.8 725.35 1410.35 725.35 1410.35 739.3 1422.8 739.3
M 1457.05 707.3
L 1444.15 707.3 1444.15 721.4 1457.05 721.4 1457.05 707.3
M 1337.15 786.8
L 1327.45 786.8 1327.45 799.85 1337.15 799.85 1337.15 786.8
M 1376.75 754.3
L 1376.75 767.75 1389.1 767.75 1389.1 754.3 1376.75 754.3
M 1376.75 771.4
L 1376.75 782.85 1389.1 782.85 1389.1 771.4 1376.75 771.4
M 1370.9 771.4
L 1361.35 771.4 1361.35 782.85 1370.9 782.85 1370.9 771.4
M 1370.9 786.8
L 1361.35 786.8 1361.35 799.85 1370.9 799.85 1370.9 786.8
M 1355.4 771.4
L 1343 771.4 1343 782.85 1355.4 782.85 1355.4 771.4
M 1355.4 786.8
L 1343 786.8 1343 799.85 1355.4 799.85 1355.4 786.8
M 1355.4 754.3
L 1343 754.3 1343 767.75 1355.4 767.75 1355.4 754.3
M 1370.9 754.3
L 1361.35 754.3 1361.35 767.75 1370.9 767.75 1370.9 754.3
M 1327.45 754.3
L 1327.45 767.75 1337.15 767.75 1337.15 754.3 1327.45 754.3
M 1303.05 767.75
L 1303.05 754.3 1293.35 754.3 1293.35 767.75 1303.05 767.75
M 1321.65 786.8
L 1308.75 786.8 1308.75 799.85 1321.65 799.85 1321.65 786.8
M 1321.65 754.3
L 1308.75 754.3 1308.75 767.75 1321.65 767.75 1321.65 754.3
M 1327.45 771.4
L 1327.45 782.85 1337.15 782.85 1337.15 771.4 1327.45 771.4
M 1308.75 771.4
L 1308.75 782.85 1321.65 782.85 1321.65 771.4 1308.75 771.4
M 1303.05 782.85
L 1303.05 771.4 1293.35 771.4 1293.35 782.85 1303.05 782.85
M 1303.05 721.4
L 1303.05 707.3 1293.35 707.3 1293.35 721.4 1303.05 721.4
M 1308.75 721.4
L 1321.65 721.4 1321.65 707.3 1308.75 707.3 1308.75 721.4
M 1303.05 739.3
L 1303.05 725.35 1293.35 725.35 1293.35 739.3 1303.05 739.3
M 1308.75 725.35
L 1308.75 739.3 1321.65 739.3 1321.65 725.35 1308.75 725.35
M 1376.75 707.3
L 1376.75 721.4 1389.1 721.4 1389.1 707.3 1376.75 707.3
M 1337.15 721.4
L 1337.15 707.3 1327.45 707.3 1327.45 721.4 1337.15 721.4
M 1376.75 725.35
L 1376.75 739.3 1389.1 739.3 1389.1 725.35 1376.75 725.35
M 1370.9 725.35
L 1361.35 725.35 1361.35 739.3 1370.9 739.3 1370.9 725.35
M 1337.15 739.3
L 1337.15 725.35 1327.45 725.35 1327.45 739.3 1337.15 739.3
M 1355.4 725.35
L 1343 725.35 1343 739.3 1355.4 739.3 1355.4 725.35
M 1355.4 707.3
L 1343 707.3 1343 721.4 1355.4 721.4 1355.4 707.3
M 1370.9 707.3
L 1361.35 707.3 1361.35 721.4 1370.9 721.4 1370.9 707.3
M 1337.15 685.65
L 1327.45 685.65 1327.45 703.45 1337.15 703.45 1337.15 685.65
M 1370.9 685.65
L 1361.35 685.65 1361.35 703.45 1370.9 703.45 1370.9 685.65
M 1355.4 685.65
L 1343 685.65 1343 703.45 1355.4 703.45 1355.4 685.65
M 1321.65 685.65
L 1308.75 685.65 1308.75 703.45 1321.65 703.45 1321.65 685.65
M 1422.8 685.65
L 1410.35 685.65 1410.35 703.45 1422.8 703.45 1422.8 685.65
M 1438.3 685.65
L 1428.75 685.65 1428.75 703.45 1438.3 703.45 1438.3 685.65
M 1457.05 685.65
L 1444.15 685.65 1444.15 703.45 1457.05 703.45 1457.05 685.65
M 1404.5 685.65
L 1394.85 685.65 1394.85 703.45 1404.5 703.45 1404.5 685.65 Z"/>

<path fill="#7D8894" stroke="none" d="
M 975.7 818.8
L 975.7 819.1 975.7 922.35 995.5 922.35 995.5 819.1 995.5 818.8 975.7 818.8
M 1064.35 819.2
L 1064.35 818.8 1044.55 818.8 1044.55 819.15 1044.55 922.35 1064.35 922.35 1064.35 819.2
M 1113.3 818.8
L 1113.3 819.25 1113.3 922.35 1133.1 922.35 1133.1 819.25 1133.1 818.8 1113.3 818.8
M 1448.55 818.8
L 1428.75 818.8 1428.75 922.35 1448.55 922.35 1448.55 818.8
M 1516.4 818.8
L 1496.6 818.8 1496.6 922.35 1516.4 922.35 1516.4 818.8
M 1576.65 818.8
L 1556.85 818.8 1556.85 922.35 1576.65 922.35 1576.65 818.8 Z"/>

<path fill="#D03F33" stroke="none" d="
M 1136.55 786.8
L 1130.9 786.8 1130.9 799.85 1136.55 799.85 1136.55 786.8
M 1259.6 786.8
L 1253.8 786.8 1253.8 799.85 1259.6 799.85 1259.6 786.8
M 1293.35 786.8
L 1287.5 786.8 1287.5 799.85 1293.35 799.85 1293.35 786.8
M 1287.5 782.85
L 1293.35 782.85 1293.35 771.4 1287.5 771.4 1287.5 782.85
M 1275.05 786.8
L 1269.15 786.8 1269.15 799.85 1275.05 799.85 1275.05 786.8
M 1275.05 771.4
L 1269.15 771.4 1269.15 782.85 1275.05 782.85 1275.05 771.4
M 1275.05 754.3
L 1269.15 754.3 1269.15 767.75 1275.05 767.75 1275.05 754.3
M 1293.35 754.3
L 1287.5 754.3 1287.5 767.75 1293.35 767.75 1293.35 754.3
M 1253.8 754.3
L 1253.8 767.75 1259.6 767.75 1259.6 754.3 1253.8 754.3
M 1253.8 771.4
L 1253.8 782.85 1259.6 782.85 1259.6 771.4 1253.8 771.4
M 1243.2 786.8
L 1237.45 786.8 1237.45 799.85 1243.2 799.85 1243.2 786.8
M 1243.2 771.4
L 1237.45 771.4 1237.45 782.85 1243.2 782.85 1243.2 771.4
M 1224.2 786.8
L 1218.3 786.8 1218.3 799.85 1224.2 799.85 1224.2 786.8
M 1218.3 782.85
L 1224.2 782.85 1224.2 771.4 1218.3 771.4 1218.3 782.85
M 1224.2 754.3
L 1218.3 754.3 1218.3 767.75 1224.2 767.75 1224.2 754.3
M 1243.2 754.3
L 1237.45 754.3 1237.45 767.75 1243.2 767.75 1243.2 754.3
M 1243.2 725.35
L 1237.45 725.35 1237.45 739.3 1237.45 750.45 1243.2 750.45 1243.2 739.3 1243.2 725.35
M 1224.2 725.35
L 1218.3 725.35 1218.3 739.3 1218.3 750.45 1224.2 750.45 1224.2 739.3 1224.2 725.35
M 1224.2 707.3
L 1218.3 707.3 1218.3 721.4 1224.2 721.4 1224.2 707.3
M 1243.2 707.3
L 1237.45 707.3 1237.45 721.4 1243.2 721.4 1243.2 707.3
M 1259.6 721.4
L 1259.6 707.3 1253.8 707.3 1253.8 721.4 1259.6 721.4
M 1293.35 725.35
L 1287.5 725.35 1287.5 739.3 1287.5 750.45 1293.35 750.45 1293.35 739.3 1293.35 725.35
M 1259.6 739.3
L 1259.6 725.35 1253.8 725.35 1253.8 739.3 1253.8 750.45 1259.6 750.45 1259.6 739.3
M 1275.05 725.35
L 1269.15 725.35 1269.15 739.3 1269.15 750.45 1275.05 750.45 1275.05 739.3 1275.05 725.35
M 1275.05 707.3
L 1269.15 707.3 1269.15 721.4 1275.05 721.4 1275.05 707.3
M 1293.35 707.3
L 1287.5 707.3 1287.5 721.4 1293.35 721.4 1293.35 707.3
M 1204.65 786.8
L 1198.75 786.8 1198.75 799.85 1204.65 799.85 1204.65 786.8
M 1198.75 782.85
L 1204.65 782.85 1204.65 771.4 1198.75 771.4 1198.75 782.85
M 1187.1 786.8
L 1181.15 786.8 1181.15 799.85 1187.1 799.85 1187.1 786.8
M 1181.15 782.85
L 1187.1 782.85 1187.1 771.4 1181.15 771.4 1181.15 782.85
M 1187.1 754.3
L 1181.15 754.3 1181.15 767.75 1187.1 767.75 1187.1 754.3
M 1204.65 754.3
L 1198.75 754.3 1198.75 767.75 1204.65 767.75 1204.65 754.3
M 1171.6 786.8
L 1165.75 786.8 1165.75 799.85 1171.6 799.85 1171.6 786.8
M 1165.75 782.85
L 1171.6 782.85 1171.6 771.4 1165.75 771.4 1165.75 782.85
M 1153.25 786.8
L 1147.4 786.8 1147.4 799.85 1153.25 799.85 1153.25 786.8
M 1153.25 771.4
L 1147.4 771.4 1147.4 782.85 1153.25 782.85 1153.25 771.4
M 1153.25 754.3
L 1147.4 754.3 1147.4 767.75 1153.25 767.75 1153.25 754.3
M 1171.6 754.3
L 1165.75 754.3 1165.75 767.75 1171.6 767.75 1171.6 754.3
M 1171.6 725.35
L 1165.75 725.35 1165.75 739.3 1165.75 750.45 1171.6 750.45 1171.6 739.3 1171.6 725.35
M 1153.25 725.35
L 1147.4 725.35 1147.4 739.3 1147.4 750.45 1153.25 750.45 1153.25 739.3 1153.25 725.35
M 1153.25 707.3
L 1147.4 707.3 1147.4 721.4 1153.25 721.4 1153.25 707.3
M 1171.6 707.3
L 1165.75 707.3 1165.75 721.4 1171.6 721.4 1171.6 707.3
M 1204.65 725.35
L 1198.75 725.35 1198.75 739.3 1198.75 750.45 1204.65 750.45 1204.65 739.3 1204.65 725.35
M 1187.1 725.35
L 1181.15 725.35 1181.15 739.3 1181.15 750.45 1187.1 750.45 1187.1 739.3 1187.1 725.35
M 1187.1 707.3
L 1181.15 707.3 1181.15 721.4 1187.1 721.4 1187.1 707.3
M 1204.65 707.3
L 1198.75 707.3 1198.75 721.4 1204.65 721.4 1204.65 707.3
M 1204.65 685.65
L 1198.75 685.65 1198.75 703.45 1204.65 703.45 1204.65 685.65
M 1187.1 685.65
L 1181.15 685.65 1181.15 703.45 1187.1 703.45 1187.1 685.65
M 1171.6 685.65
L 1165.75 685.65 1165.75 703.45 1171.6 703.45 1171.6 685.65
M 1153.25 685.65
L 1147.4 685.65 1147.4 703.45 1153.25 703.45 1153.25 685.65
M 1259.6 685.65
L 1253.8 685.65 1253.8 703.45 1259.6 703.45 1259.6 685.65
M 1293.35 685.65
L 1287.5 685.65 1287.5 703.45 1293.35 703.45 1293.35 685.65
M 1275.05 685.65
L 1269.15 685.65 1269.15 703.45 1275.05 703.45 1275.05 685.65
M 1243.2 685.65
L 1237.45 685.65 1237.45 703.45 1243.2 703.45 1243.2 685.65
M 1224.2 685.65
L 1218.3 685.65 1218.3 703.45 1224.2 703.45 1224.2 685.65
M 1130.9 685.65
L 1130.9 703.45 1136.55 703.45 1136.55 685.65 1130.9 685.65
M 1130.9 754.3
L 1130.9 767.75 1136.55 767.75 1136.55 754.3 1130.9 754.3
M 1119.1 786.8
L 1113.3 786.8 1113.3 799.85 1119.1 799.85 1119.1 786.8
M 1119.1 754.3
L 1113.3 754.3 1113.3 767.75 1119.1 767.75 1119.1 754.3
M 1130.9 771.4
L 1130.9 782.85 1136.55 782.85 1136.55 771.4 1130.9 771.4
M 1113.3 771.4
L 1113.3 782.85 1119.1 782.85 1119.1 771.4 1113.3 771.4
M 1100.7 786.8
L 1094.95 786.8 1094.95 799.85 1100.7 799.85 1100.7 786.8
M 1100.7 771.4
L 1094.95 771.4 1094.95 782.85 1100.7 782.85 1100.7 771.4
M 1100.7 754.3
L 1094.95 754.3 1094.95 767.75 1100.7 767.75 1100.7 754.3
M 1085.35 786.8
L 1079.55 786.8 1079.55 799.85 1085.35 799.85 1085.35 786.8
M 1079.55 782.85
L 1085.35 782.85 1085.35 771.4 1079.55 771.4 1079.55 782.85
M 1067.05 786.8
L 1061.2 786.8 1061.2 799.85 1067.05 799.85 1067.05 786.8
M 1061.2 782.85
L 1067.05 782.85 1067.05 771.4 1061.2 771.4 1061.2 782.85
M 1067.05 754.3
L 1061.2 754.3 1061.2 767.75 1067.05 767.75 1067.05 754.3
M 1085.35 754.3
L 1079.55 754.3 1079.55 767.75 1085.35 767.75 1085.35 754.3
M 1085.35 725.35
L 1079.55 725.35 1079.55 739.3 1079.55 750.45 1085.35 750.45 1085.35 739.3 1085.35 725.35
M 1067.05 725.35
L 1061.2 725.35 1061.2 739.3 1061.2 750.45 1067.05 750.45 1067.05 739.3 1067.05 725.35
M 1067.05 707.3
L 1061.2 707.3 1061.2 721.4 1067.05 721.4 1067.05 707.3
M 1085.35 707.3
L 1079.55 707.3 1079.55 721.4 1085.35 721.4 1085.35 707.3
M 1130.9 707.3
L 1130.9 721.4 1136.55 721.4 1136.55 707.3 1130.9 707.3
M 1119.1 707.3
L 1113.3 707.3 1113.3 721.4 1119.1 721.4 1119.1 707.3
M 1130.9 725.35
L 1130.9 739.3 1130.9 750.45 1136.55 750.45 1136.55 739.3 1136.55 725.35 1130.9 725.35
M 1113.3 725.35
L 1113.3 739.3 1113.3 750.45 1119.1 750.45 1119.1 739.3 1119.1 725.35 1113.3 725.35
M 1100.7 725.35
L 1094.95 725.35 1094.95 739.3 1094.95 750.45 1100.7 750.45 1100.7 739.3 1100.7 725.35
M 1100.7 707.3
L 1094.95 707.3 1094.95 721.4 1100.7 721.4 1100.7 707.3
M 1015.4 786.8
L 1009.6 786.8 1009.6 799.85 1015.4 799.85 1015.4 786.8
M 1032.75 786.8
L 1027.1 786.8 1027.1 799.85 1032.75 799.85 1032.75 786.8
M 1032.75 754.3
L 1027.1 754.3 1027.1 767.75 1032.75 767.75 1032.75 754.3
M 1050.35 786.8
L 1044.55 786.8 1044.55 799.85 1050.35 799.85 1050.35 786.8
M 1050.35 771.4
L 1044.55 771.4 1044.55 782.85 1050.35 782.85 1050.35 771.4
M 1027.1 771.4
L 1027.1 782.85 1032.75 782.85 1032.75 771.4 1027.1 771.4
M 1050.35 754.3
L 1044.55 754.3 1044.55 767.75 1050.35 767.75 1050.35 754.3
M 1009.6 754.3
L 1009.6 767.75 1015.4 767.75 1015.4 754.3 1009.6 754.3
M 1009.6 771.4
L 1009.6 782.85 1015.4 782.85 1015.4 771.4 1009.6 771.4
M 1000 786.8
L 994.05 786.8 994.05 799.85 1000 799.85 1000 786.8
M 1000 771.4
L 994.05 771.4 994.05 782.85 1000 782.85 1000 771.4
M 975.7 782.85
L 981.65 782.85 981.65 771.4 975.7 771.4 975.7 782.85
M 981.65 786.8
L 975.7 786.8 975.7 799.85 981.65 799.85 981.65 786.8
M 981.65 754.3
L 975.7 754.3 975.7 767.75 981.65 767.75 981.65 754.3
M 1000 754.3
L 994.05 754.3 994.05 767.75 1000 767.75 1000 754.3
M 1000 725.35
L 994.05 725.35 994.05 739.3 994.05 750.45 1000 750.45 1000 739.3 1000 725.35
M 981.65 725.35
L 975.7 725.35 975.7 739.3 975.7 750.45 981.65 750.45 981.65 739.3 981.65 725.35
M 981.65 707.3
L 975.7 707.3 975.7 721.4 981.65 721.4 981.65 707.3
M 1000 707.3
L 994.05 707.3 994.05 721.4 1000 721.4 1000 707.3
M 1015.4 721.4
L 1015.4 707.3 1009.6 707.3 1009.6 721.4 1015.4 721.4
M 1032.75 707.3
L 1027.1 707.3 1027.1 721.4 1032.75 721.4 1032.75 707.3
M 1050.35 725.35
L 1044.55 725.35 1044.55 739.3 1044.55 750.45 1050.35 750.45 1050.35 739.3 1050.35 725.35
M 1015.4 739.3
L 1015.4 725.35 1009.6 725.35 1009.6 739.3 1009.6 750.45 1015.4 750.45 1015.4 739.3
M 1027.1 725.35
L 1027.1 739.3 1027.1 750.45 1032.75 750.45 1032.75 739.3 1032.75 725.35 1027.1 725.35
M 1050.35 707.3
L 1044.55 707.3 1044.55 721.4 1050.35 721.4 1050.35 707.3
M 1015.4 685.65
L 1009.6 685.65 1009.6 703.45 1015.4 703.45 1015.4 685.65
M 1032.75 685.65
L 1027.1 685.65 1027.1 703.45 1032.75 703.45 1032.75 685.65
M 1050.35 685.65
L 1044.55 685.65 1044.55 703.45 1050.35 703.45 1050.35 685.65
M 1000 685.65
L 994.05 685.65 994.05 703.45 1000 703.45 1000 685.65
M 981.65 685.65
L 975.7 685.65 975.7 703.45 981.65 703.45 981.65 685.65
M 1119.1 685.65
L 1113.3 685.65 1113.3 703.45 1119.1 703.45 1119.1 685.65
M 1100.7 685.65
L 1094.95 685.65 1094.95 703.45 1100.7 703.45 1100.7 685.65
M 1085.35 685.65
L 1079.55 685.65 1079.55 703.45 1085.35 703.45 1085.35 685.65
M 1067.05 685.65
L 1061.2 685.65 1061.2 703.45 1067.05 703.45 1067.05 685.65
M 891.7 786.8
L 885.9 786.8 885.9 799.85 891.7 799.85 891.7 786.8
M 891.7 685.65
L 885.9 685.65 885.9 703.45 891.7 703.45 891.7 685.65
M 932 786.8
L 926.2 786.8 926.2 799.85 932 799.85 932 786.8
M 960.3 782.85
L 966.1 782.85 966.1 771.4 960.3 771.4 960.3 782.85
M 966.1 786.8
L 960.3 786.8 960.3 799.85 966.1 799.85 966.1 786.8
M 947.55 786.8
L 941.75 786.8 941.75 799.85 947.55 799.85 947.55 786.8
M 947.55 771.4
L 941.75 771.4 941.75 782.85 947.55 782.85 947.55 771.4
M 947.55 754.3
L 941.75 754.3 941.75 767.75 947.55 767.75 947.55 754.3
M 966.1 754.3
L 960.3 754.3 960.3 767.75 966.1 767.75 966.1 754.3
M 926.2 754.3
L 926.2 767.75 932 767.75 932 754.3 926.2 754.3
M 913.65 786.8
L 907.85 786.8 907.85 799.85 913.65 799.85 913.65 786.8
M 913.65 754.3
L 907.85 754.3 907.85 767.75 913.65 767.75 913.65 754.3
M 926.2 771.4
L 926.2 782.85 932 782.85 932 771.4 926.2 771.4
M 907.85 771.4
L 907.85 782.85 913.65 782.85 913.65 771.4 907.85 771.4
M 913.65 707.3
L 907.85 707.3 907.85 721.4 913.65 721.4 913.65 707.3
M 907.85 725.35
L 907.85 739.3 907.85 750.45 913.65 750.45 913.65 739.3 913.65 725.35 907.85 725.35
M 932 721.4
L 932 707.3 926.2 707.3 926.2 721.4 932 721.4
M 966.1 725.35
L 960.3 725.35 960.3 739.3 960.3 750.45 966.1 750.45 966.1 739.3 966.1 725.35
M 932 739.3
L 932 725.35 926.2 725.35 926.2 739.3 926.2 750.45 932 750.45 932 739.3
M 947.55 725.35
L 941.75 725.35 941.75 739.3 941.75 750.45 947.55 750.45 947.55 739.3 947.55 725.35
M 947.55 707.3
L 941.75 707.3 941.75 721.4 947.55 721.4 947.55 707.3
M 966.1 707.3
L 960.3 707.3 960.3 721.4 966.1 721.4 966.1 707.3
M 885.9 754.3
L 885.9 767.75 891.7 767.75 891.7 754.3 885.9 754.3
M 885.9 771.4
L 885.9 782.85 891.7 782.85 891.7 771.4 885.9 771.4
M 869.75 786.8
L 863.95 786.8 863.95 799.85 869.75 799.85 869.75 786.8
M 863.95 771.4
L 863.95 772 863.95 782.85 869.75 782.85 869.75 771.4 863.95 771.4
M 869.75 754.3
L 863.95 754.3 863.95 767.75 869.75 767.75 869.75 754.3
M 885.9 707.3
L 885.9 721.4 891.7 721.4 891.7 707.3 885.9 707.3
M 885.9 725.35
L 885.9 739.3 885.9 750.45 891.7 750.45 891.7 739.3 891.7 725.35 885.9 725.35
M 869.75 725.35
L 863.95 725.35 863.95 739.3 863.95 750.45 869.75 750.45 869.75 739.3 869.75 725.35
M 869.75 707.3
L 863.95 707.3 863.95 721.4 869.75 721.4 869.75 707.3
M 869.75 685.65
L 863.95 685.65 863.95 703.45 869.75 703.45 869.75 685.65
M 932 685.65
L 926.2 685.65 926.2 703.45 932 703.45 932 685.65
M 966.1 685.65
L 960.3 685.65 960.3 703.45 966.1 703.45 966.1 685.65
M 947.55 685.65
L 941.75 685.65 941.75 703.45 947.55 703.45 947.55 685.65
M 913.65 685.65
L 907.85 685.65 907.85 703.45 913.65 703.45 913.65 685.65
M 1664.8 818.8
L 1664.8 809.65 863.95 809.65 863.95 818.95 905.05 818.95
Q 905.8 818.95 906.55 818.95 907.2 818.95 907.85 818.95 916.3 819 924.75 819
L 975.7 819.1 975.7 818.8 995.5 818.8 995.5 819.1 1035.2 819.15
Q 1039.5 819.15 1043.85 819.15 1044.05 819.15 1044.35 819.15
L 1044.55 819.15 1044.55 818.8 1064.35 818.8 1064.35 819.2 1113.3 819.25 1113.3 818.8 1133.1 818.8 1133.1 819.25
Q 1165.7 819.25 1198.5 819.2
L 1198.5 818.8 1218.3 818.8 1218.3 819.15
Q 1250.7 819.05 1283.25 819
L 1283.25 818.8 1303.05 818.8 1303.05 818.95
Q 1306 818.9 1308.95 818.9 1311.85 818.8 1314.75 818.8
L 1428.75 818.8 1448.55 818.8 1496.6 818.8 1516.4 818.8 1556.85 818.8 1576.65 818.8 1664.8 818.8
M 1664.8 786.8
L 1658.85 786.8 1658.85 799.85 1664.8 799.85 1664.8 786.8
M 1658.85 754.3
L 1658.85 767.75 1664.8 767.75 1664.8 754.3 1658.85 754.3
M 1658.85 771.4
L 1658.85 782.85 1664.8 782.85 1664.8 772 1664.8 771.4 1658.85 771.4
M 1638.25 786.8
L 1632.3 786.8 1632.3 799.85 1638.25 799.85 1638.25 786.8
M 1632.3 782.85
L 1638.25 782.85 1638.25 771.4 1632.3 771.4 1632.3 782.85
M 1638.25 754.3
L 1632.3 754.3 1632.3 767.75 1638.25 767.75 1638.25 754.3
M 1638.25 725.35
L 1632.3 725.35 1632.3 739.3 1632.3 750.45 1638.25 750.45 1638.25 739.3 1638.25 725.35
M 1638.25 707.3
L 1632.3 707.3 1632.3 721.4 1638.25 721.4 1638.25 707.3
M 1664.8 721.4
L 1664.8 707.3 1658.85 707.3 1658.85 721.4 1664.8 721.4
M 1664.8 739.3
L 1664.8 725.35 1658.85 725.35 1658.85 739.3 1658.85 750.45 1664.8 750.45 1664.8 739.3
M 1664.8 685.65
L 1658.85 685.65 1658.85 703.45 1664.8 703.45 1664.8 685.65
M 1638.25 685.65
L 1632.3 685.65 1632.3 703.45 1638.25 703.45 1638.25 685.65
M 1462.95 786.8
L 1457.05 786.8 1457.05 799.85 1462.95 799.85 1462.95 786.8
M 1581.95 786.8
L 1576.15 786.8 1576.15 799.85 1581.95 799.85 1581.95 786.8
M 1615.85 786.8
L 1609.9 786.8 1609.9 799.85 1615.85 799.85 1615.85 786.8
M 1609.9 782.85
L 1615.85 782.85 1615.85 771.4 1609.9 771.4 1609.9 782.85
M 1597.45 786.8
L 1591.7 786.8 1591.7 799.85 1597.45 799.85 1597.45 786.8
M 1597.45 771.4
L 1591.7 771.4 1591.7 782.85 1597.45 782.85 1597.45 771.4
M 1597.45 754.3
L 1591.7 754.3 1591.7 767.75 1597.45 767.75 1597.45 754.3
M 1615.85 754.3
L 1609.9 754.3 1609.9 767.75 1615.85 767.75 1615.85 754.3
M 1576.15 754.3
L 1576.15 767.75 1581.95 767.75 1581.95 754.3 1576.15 754.3
M 1563.7 786.8
L 1557.8 786.8 1557.8 799.85 1563.7 799.85 1563.7 786.8
M 1563.7 754.3
L 1557.8 754.3 1557.8 767.75 1563.7 767.75 1563.7 754.3
M 1576.15 771.4
L 1576.15 782.85 1581.95 782.85 1581.95 771.4 1576.15 771.4
M 1557.8 771.4
L 1557.8 782.85 1563.7 782.85 1563.7 771.4 1557.8 771.4
M 1547 786.8
L 1541.2 786.8 1541.2 799.85 1547 799.85 1547 786.8
M 1547 771.4
L 1541.2 771.4 1541.2 782.85 1547 782.85 1547 771.4
M 1547 754.3
L 1541.2 754.3 1541.2 767.75 1547 767.75 1547 754.3
M 1563.7 707.3
L 1557.8 707.3 1557.8 721.4 1563.7 721.4 1563.7 707.3
M 1557.8 725.35
L 1557.8 739.3 1557.8 750.45 1563.7 750.45 1563.7 739.3 1563.7 725.35 1557.8 725.35
M 1547 725.35
L 1541.2 725.35 1541.2 739.3 1541.2 750.45 1547 750.45 1547 739.3 1547 725.35
M 1547 707.3
L 1541.2 707.3 1541.2 721.4 1547 721.4 1547 707.3
M 1581.95 721.4
L 1581.95 707.3 1576.15 707.3 1576.15 721.4 1581.95 721.4
M 1615.85 725.35
L 1609.9 725.35 1609.9 739.3 1609.9 750.45 1615.85 750.45 1615.85 739.3 1615.85 725.35
M 1581.95 739.3
L 1581.95 725.35 1576.15 725.35 1576.15 739.3 1576.15 750.45 1581.95 750.45 1581.95 739.3
M 1597.45 725.35
L 1591.7 725.35 1591.7 739.3 1591.7 750.45 1597.45 750.45 1597.45 739.3 1597.45 725.35
M 1597.45 707.3
L 1591.7 707.3 1591.7 721.4 1597.45 721.4 1597.45 707.3
M 1615.85 707.3
L 1609.9 707.3 1609.9 721.4 1615.85 721.4 1615.85 707.3
M 1523.7 782.85
L 1529.6 782.85 1529.6 771.4 1523.7 771.4 1523.7 782.85
M 1529.6 786.8
L 1523.7 786.8 1523.7 799.85 1529.6 799.85 1529.6 786.8
M 1506.2 782.85
L 1512.05 782.85 1512.05 771.4 1506.2 771.4 1506.2 782.85
M 1512.05 786.8
L 1506.2 786.8 1506.2 799.85 1512.05 799.85 1512.05 786.8
M 1512.05 754.3
L 1506.2 754.3 1506.2 767.75 1512.05 767.75 1512.05 754.3
M 1529.6 754.3
L 1523.7 754.3 1523.7 767.75 1529.6 767.75 1529.6 754.3
M 1490.85 782.85
L 1496.6 782.85 1496.6 771.4 1490.85 771.4 1490.85 782.85
M 1496.6 786.8
L 1490.85 786.8 1490.85 799.85 1496.6 799.85 1496.6 786.8
M 1478.2 786.8
L 1472.45 786.8 1472.45 799.85 1478.2 799.85 1478.2 786.8
M 1478.2 771.4
L 1472.45 771.4 1472.45 782.85 1478.2 782.85 1478.2 771.4
M 1478.2 754.3
L 1472.45 754.3 1472.45 767.75 1478.2 767.75 1478.2 754.3
M 1496.6 754.3
L 1490.85 754.3 1490.85 767.75 1496.6 767.75 1496.6 754.3
M 1496.6 725.35
L 1490.85 725.35 1490.85 739.3 1490.85 750.45 1496.6 750.45 1496.6 739.3 1496.6 725.35
M 1478.2 725.35
L 1472.45 725.35 1472.45 739.3 1472.45 750.45 1478.2 750.45 1478.2 739.3 1478.2 725.35
M 1478.2 707.3
L 1472.45 707.3 1472.45 721.4 1478.2 721.4 1478.2 707.3
M 1496.6 707.3
L 1490.85 707.3 1490.85 721.4 1496.6 721.4 1496.6 707.3
M 1529.6 725.35
L 1523.7 725.35 1523.7 739.3 1523.7 750.45 1529.6 750.45 1529.6 739.3 1529.6 725.35
M 1512.05 725.35
L 1506.2 725.35 1506.2 739.3 1506.2 750.45 1512.05 750.45 1512.05 739.3 1512.05 725.35
M 1512.05 707.3
L 1506.2 707.3 1506.2 721.4 1512.05 721.4 1512.05 707.3
M 1529.6 707.3
L 1523.7 707.3 1523.7 721.4 1529.6 721.4 1529.6 707.3
M 1529.6 685.65
L 1523.7 685.65 1523.7 703.45 1529.6 703.45 1529.6 685.65
M 1512.05 685.65
L 1506.2 685.65 1506.2 703.45 1512.05 703.45 1512.05 685.65
M 1496.6 685.65
L 1490.85 685.65 1490.85 703.45 1496.6 703.45 1496.6 685.65
M 1478.2 685.65
L 1472.45 685.65 1472.45 703.45 1478.2 703.45 1478.2 685.65
M 1581.95 685.65
L 1576.15 685.65 1576.15 703.45 1581.95 703.45 1581.95 685.65
M 1615.85 685.65
L 1609.9 685.65 1609.9 703.45 1615.85 703.45 1615.85 685.65
M 1597.45 685.65
L 1591.7 685.65 1591.7 703.45 1597.45 703.45 1597.45 685.65
M 1563.7 685.65
L 1557.8 685.65 1557.8 703.45 1563.7 703.45 1563.7 685.65
M 1547 685.65
L 1541.2 685.65 1541.2 703.45 1547 703.45 1547 685.65
M 1457.05 685.65
L 1457.05 703.45 1462.95 703.45 1462.95 685.65 1457.05 685.65
M 1457.05 754.3
L 1457.05 767.75 1462.95 767.75 1462.95 754.3 1457.05 754.3
M 1457.05 771.4
L 1457.05 782.85 1462.95 782.85 1462.95 771.4 1457.05 771.4
M 1444.15 786.8
L 1438.3 786.8 1438.3 799.85 1444.15 799.85 1444.15 786.8
M 1444.15 771.4
L 1438.3 771.4 1438.3 782.85 1444.15 782.85 1444.15 771.4
M 1422.8 782.85
L 1428.75 782.85 1428.75 771.4 1422.8 771.4 1422.8 782.85
M 1428.75 786.8
L 1422.8 786.8 1422.8 799.85 1428.75 799.85 1428.75 786.8
M 1428.75 754.3
L 1422.8 754.3 1422.8 767.75 1428.75 767.75 1428.75 754.3
M 1444.15 754.3
L 1438.3 754.3 1438.3 767.75 1444.15 767.75 1444.15 754.3
M 1404.5 782.85
L 1410.35 782.85 1410.35 771.4 1404.5 771.4 1404.5 782.85
M 1410.35 786.8
L 1404.5 786.8 1404.5 799.85 1410.35 799.85 1410.35 786.8
M 1389.1 782.85
L 1394.85 782.85 1394.85 771.4 1389.1 771.4 1389.1 782.85
M 1394.85 786.8
L 1389.1 786.8 1389.1 799.85 1394.85 799.85 1394.85 786.8
M 1394.85 754.3
L 1389.1 754.3 1389.1 767.75 1394.85 767.75 1394.85 754.3
M 1410.35 754.3
L 1404.5 754.3 1404.5 767.75 1410.35 767.75 1410.35 754.3
M 1410.35 725.35
L 1404.5 725.35 1404.5 739.3 1404.5 750.45 1410.35 750.45 1410.35 739.3 1410.35 725.35
M 1394.85 725.35
L 1389.1 725.35 1389.1 739.3 1389.1 750.45 1394.85 750.45 1394.85 739.3 1394.85 725.35
M 1394.85 707.3
L 1389.1 707.3 1389.1 721.4 1394.85 721.4 1394.85 707.3
M 1410.35 707.3
L 1404.5 707.3 1404.5 721.4 1410.35 721.4 1410.35 707.3
M 1457.05 707.3
L 1457.05 721.4 1462.95 721.4 1462.95 707.3 1457.05 707.3
M 1457.05 725.35
L 1457.05 739.3 1457.05 750.45 1462.95 750.45 1462.95 739.3 1462.95 725.35 1457.05 725.35
M 1444.15 725.35
L 1438.3 725.35 1438.3 739.3 1438.3 750.45 1444.15 750.45 1444.15 739.3 1444.15 725.35
M 1428.75 725.35
L 1422.8 725.35 1422.8 739.3 1422.8 750.45 1428.75 750.45 1428.75 739.3 1428.75 725.35
M 1428.75 707.3
L 1422.8 707.3 1422.8 721.4 1428.75 721.4 1428.75 707.3
M 1444.15 707.3
L 1438.3 707.3 1438.3 721.4 1444.15 721.4 1444.15 707.3
M 1361.35 786.8
L 1355.4 786.8 1355.4 799.85 1361.35 799.85 1361.35 786.8
M 1361.35 754.3
L 1355.4 754.3 1355.4 767.75 1361.35 767.75 1361.35 754.3
M 1376.75 786.8
L 1370.9 786.8 1370.9 799.85 1376.75 799.85 1376.75 786.8
M 1376.75 771.4
L 1370.9 771.4 1370.9 782.85 1376.75 782.85 1376.75 771.4
M 1355.4 771.4
L 1355.4 782.85 1361.35 782.85 1361.35 771.4 1355.4 771.4
M 1343 786.8
L 1337.15 786.8 1337.15 799.85 1343 799.85 1343 786.8
M 1343 771.4
L 1337.15 771.4 1337.15 782.85 1343 782.85 1343 771.4
M 1343 754.3
L 1337.15 754.3 1337.15 767.75 1343 767.75 1343 754.3
M 1376.75 754.3
L 1370.9 754.3 1370.9 767.75 1376.75 767.75 1376.75 754.3
M 1321.65 782.85
L 1327.45 782.85 1327.45 771.4 1321.65 771.4 1321.65 782.85
M 1327.45 786.8
L 1321.65 786.8 1321.65 799.85 1327.45 799.85 1327.45 786.8
M 1303.05 782.85
L 1308.75 782.85 1308.75 771.4 1303.05 771.4 1303.05 782.85
M 1308.75 786.8
L 1303.05 786.8 1303.05 799.85 1308.75 799.85 1308.75 786.8
M 1308.75 754.3
L 1303.05 754.3 1303.05 767.75 1308.75 767.75 1308.75 754.3
M 1327.45 754.3
L 1321.65 754.3 1321.65 767.75 1327.45 767.75 1327.45 754.3
M 1327.45 725.35
L 1321.65 725.35 1321.65 739.3 1321.65 750.45 1327.45 750.45 1327.45 739.3 1327.45 725.35
M 1308.75 725.35
L 1303.05 725.35 1303.05 739.3 1303.05 750.45 1308.75 750.45 1308.75 739.3 1308.75 725.35
M 1308.75 707.3
L 1303.05 707.3 1303.05 721.4 1308.75 721.4 1308.75 707.3
M 1327.45 707.3
L 1321.65 707.3 1321.65 721.4 1327.45 721.4 1327.45 707.3
M 1361.35 721.4
L 1361.35 707.3 1355.4 707.3 1355.4 721.4 1361.35 721.4
M 1376.75 725.35
L 1370.9 725.35 1370.9 739.3 1370.9 750.45 1376.75 750.45 1376.75 739.3 1376.75 725.35
M 1355.4 725.35
L 1355.4 739.3 1355.4 750.45 1361.35 750.45 1361.35 739.3 1361.35 725.35 1355.4 725.35
M 1343 725.35
L 1337.15 725.35 1337.15 739.3 1337.15 750.45 1343 750.45 1343 739.3 1343 725.35
M 1343 707.3
L 1337.15 707.3 1337.15 721.4 1343 721.4 1343 707.3
M 1376.75 707.3
L 1370.9 707.3 1370.9 721.4 1376.75 721.4 1376.75 707.3
M 1361.35 685.65
L 1355.4 685.65 1355.4 703.45 1361.35 703.45 1361.35 685.65
M 1376.75 685.65
L 1370.9 685.65 1370.9 703.45 1376.75 703.45 1376.75 685.65
M 1343 685.65
L 1337.15 685.65 1337.15 703.45 1343 703.45 1343 685.65
M 1327.45 685.65
L 1321.65 685.65 1321.65 703.45 1327.45 703.45 1327.45 685.65
M 1308.75 685.65
L 1303.05 685.65 1303.05 703.45 1308.75 703.45 1308.75 685.65
M 1444.15 685.65
L 1438.3 685.65 1438.3 703.45 1444.15 703.45 1444.15 685.65
M 1428.75 685.65
L 1422.8 685.65 1422.8 703.45 1428.75 703.45 1428.75 685.65
M 1410.35 685.65
L 1404.5 685.65 1404.5 703.45 1410.35 703.45 1410.35 685.65
M 1394.85 685.65
L 1389.1 685.65 1389.1 703.45 1394.85 703.45 1394.85 685.65 Z"/>

<path fill="#F1F165" stroke="none" d="
M 1237.45 739.3
L 1224.2 739.3 1224.2 750.45 1237.45 750.45 1237.45 739.3
M 1253.8 739.3
L 1243.2 739.3 1243.2 750.45 1253.8 750.45 1253.8 739.3
M 1287.5 739.3
L 1275.05 739.3 1275.05 750.45 1287.5 750.45 1287.5 739.3
M 1269.15 739.3
L 1259.6 739.3 1259.6 750.45 1269.15 750.45 1269.15 739.3
M 1204.65 739.3
L 1204.65 750.45 1218.3 750.45 1218.3 739.3 1204.65 739.3
M 1171.6 750.45
L 1181.15 750.45 1181.15 739.3 1171.6 739.3 1171.6 750.45
M 1165.75 739.3
L 1153.25 739.3 1153.25 750.45 1165.75 750.45 1165.75 739.3
M 1147.4 739.3
L 1136.55 739.3 1136.55 750.45 1147.4 750.45 1147.4 739.3
M 1198.75 739.3
L 1187.1 739.3 1187.1 750.45 1198.75 750.45 1198.75 739.3
M 1085.35 750.45
L 1094.95 750.45 1094.95 739.3 1085.35 739.3 1085.35 750.45
M 1079.55 739.3
L 1067.05 739.3 1067.05 750.45 1079.55 750.45 1079.55 739.3
M 1130.9 739.3
L 1119.1 739.3 1119.1 750.45 1130.9 750.45 1130.9 739.3
M 1113.3 739.3
L 1100.7 739.3 1100.7 750.45 1113.3 750.45 1113.3 739.3
M 1050.35 739.3
L 1050.35 750.45 1061.2 750.45 1061.2 739.3 1050.35 739.3
M 994.05 739.3
L 981.65 739.3 981.65 750.45 994.05 750.45 994.05 739.3
M 1009.6 739.3
L 1000 739.3 1000 750.45 1009.6 750.45 1009.6 739.3
M 1044.55 739.3
L 1032.75 739.3 1032.75 750.45 1044.55 750.45 1044.55 739.3
M 1027.1 739.3
L 1015.4 739.3 1015.4 750.45 1027.1 750.45 1027.1 739.3
M 966.1 739.3
L 966.1 750.45 975.7 750.45 975.7 739.3 966.1 739.3
M 926.2 739.3
L 913.65 739.3 913.65 750.45 926.2 750.45 926.2 739.3
M 907.85 739.3
L 891.7 739.3 891.7 750.45 907.85 750.45 907.85 739.3
M 960.3 739.3
L 947.55 739.3 947.55 750.45 960.3 750.45 960.3 739.3
M 941.75 739.3
L 932 739.3 932 750.45 941.75 750.45 941.75 739.3
M 885.9 739.3
L 869.75 739.3 869.75 750.45 885.9 750.45 885.9 739.3
M 1664.8 809.65
L 1664.8 799.85 1658.85 799.85 1638.25 799.85 1632.3 799.85 1615.85 799.85 1609.9 799.85 1597.45 799.85 1591.7 799.85 1581.95 799.85 1576.15 799.85 1563.7 799.85 1557.8 799.85 1547 799.85 1541.2 799.85 1529.6 799.85 1523.7 799.85 1512.05 799.85 1506.2 799.85 1496.6 799.85 1490.85 799.85 1478.2 799.85 1472.45 799.85 1462.95 799.85 1457.05 799.85 1444.15 799.85 1438.3 799.85 1428.75 799.85 1422.8 799.85 1410.35 799.85 1404.5 799.85 1394.85 799.85 1389.1 799.85 1376.75 799.85 1370.9 799.85 1361.35 799.85 1355.4 799.85 1343 799.85 1337.15 799.85 1327.45 799.85 1321.65 799.85 1308.75 799.85 1303.05 799.85 1293.35 799.85 1287.5 799.85 1275.05 799.85 1269.15 799.85 1259.6 799.85 1253.8 799.85 1243.2 799.85 1237.45 799.85 1224.2 799.85 1218.3 799.85 1204.65 799.85 1198.75 799.85 1187.1 799.85 1181.15 799.85 1171.6 799.85 1165.75 799.85 1153.25 799.85 1147.4 799.85 1136.55 799.85 1130.9 799.85 1119.1 799.85 1113.3 799.85 1100.7 799.85 1094.95 799.85 1085.35 799.85 1079.55 799.85 1067.05 799.85 1061.2 799.85 1050.35 799.85 1044.55 799.85 1032.75 799.85 1027.1 799.85 1015.4 799.85 1009.6 799.85 1000 799.85 994.05 799.85 981.65 799.85 975.7 799.85 966.1 799.85 960.3 799.85 947.55 799.85 941.75 799.85 932 799.85 926.2 799.85 913.65 799.85 907.85 799.85 891.7 799.85 885.9 799.85 869.75 799.85 863.95 799.85 863.95 809.65 1664.8 809.65
M 1658.85 739.3
L 1638.25 739.3 1638.25 750.45 1658.85 750.45 1658.85 739.3
M 1615.85 739.3
L 1615.85 750.45 1632.3 750.45 1632.3 739.3 1615.85 739.3
M 1576.15 739.3
L 1563.7 739.3 1563.7 750.45 1576.15 750.45 1576.15 739.3
M 1557.8 739.3
L 1547 739.3 1547 750.45 1557.8 750.45 1557.8 739.3
M 1609.9 739.3
L 1597.45 739.3 1597.45 750.45 1609.9 750.45 1609.9 739.3
M 1591.7 739.3
L 1581.95 739.3 1581.95 750.45 1591.7 750.45 1591.7 739.3
M 1529.6 739.3
L 1529.6 750.45 1541.2 750.45 1541.2 739.3 1529.6 739.3
M 1496.6 750.45
L 1506.2 750.45 1506.2 739.3 1496.6 739.3 1496.6 750.45
M 1490.85 739.3
L 1478.2 739.3 1478.2 750.45 1490.85 750.45 1490.85 739.3
M 1472.45 739.3
L 1462.95 739.3 1462.95 750.45 1472.45 750.45 1472.45 739.3
M 1523.7 739.3
L 1512.05 739.3 1512.05 750.45 1523.7 750.45 1523.7 739.3
M 1410.35 750.45
L 1422.8 750.45 1422.8 739.3 1410.35 739.3 1410.35 750.45
M 1404.5 739.3
L 1394.85 739.3 1394.85 750.45 1404.5 750.45 1404.5 739.3
M 1438.3 739.3
L 1428.75 739.3 1428.75 750.45 1438.3 750.45 1438.3 739.3
M 1457.05 739.3
L 1444.15 739.3 1444.15 750.45 1457.05 750.45 1457.05 739.3
M 1303.05 750.45
L 1303.05 739.3 1293.35 739.3 1293.35 750.45 1303.05 750.45
M 1337.15 739.3
L 1327.45 739.3 1327.45 750.45 1337.15 750.45 1337.15 739.3
M 1376.75 739.3
L 1376.75 750.45 1389.1 750.45 1389.1 739.3 1376.75 739.3
M 1321.65 739.3
L 1308.75 739.3 1308.75 750.45 1321.65 750.45 1321.65 739.3
M 1370.9 739.3
L 1361.35 739.3 1361.35 750.45 1370.9 750.45 1370.9 739.3
M 1355.4 739.3
L 1343 739.3 1343 750.45 1355.4 750.45 1355.4 739.3
M 1389.1 685.65
L 1394.85 685.65 1404.5 685.65 1410.35 685.65 1422.8 685.65 1428.75 685.65 1438.3 685.65 1444.15 685.65 1457.05 685.65 1462.95 685.65 1472.45 685.65 1478.2 685.65 1490.85 685.65 1496.6 685.65 1506.2 685.65 1512.05 685.65 1523.7 685.65 1529.6 685.65 1541.2 685.65 1547 685.65 1557.8 685.65 1563.7 685.65 1576.15 685.65 1581.95 685.65 1591.7 685.65 1597.45 685.65 1609.9 685.65 1615.85 685.65 1632.3 685.65 1638.25 685.65 1658.85 685.65 1664.8 685.65 1664.8 674.55 1198 674.55 863.95 674.55 863.95 685.65 869.75 685.65 885.9 685.65 891.7 685.65 907.85 685.65 913.65 685.65 926.2 685.65 932 685.65 941.75 685.65 947.55 685.65 960.3 685.65 966.1 685.65 975.7 685.65 981.65 685.65 994.05 685.65 1000 685.65 1009.6 685.65 1015.4 685.65 1027.1 685.65 1032.75 685.65 1044.55 685.65 1050.35 685.65 1061.2 685.65 1067.05 685.65 1079.55 685.65 1085.35 685.65 1094.95 685.65 1100.7 685.65 1113.3 685.65 1119.1 685.65 1130.9 685.65 1136.55 685.65 1147.4 685.65 1153.25 685.65 1165.75 685.65 1171.6 685.65 1181.15 685.65 1187.1 685.65 1198.75 685.65 1204.65 685.65 1218.3 685.65 1224.2 685.65 1237.45 685.65 1243.2 685.65 1253.8 685.65 1259.6 685.65 1269.15 685.65 1275.05 685.65 1287.5 685.65 1293.35 685.65 1303.05 685.65 1308.75 685.65 1321.65 685.65 1327.45 685.65 1337.15 685.65 1343 685.65 1355.4 685.65 1361.35 685.65 1370.9 685.65 1376.75 685.65 1389.1 685.65 Z"/>

<path fill="#FEF8F6" stroke="none" d="
M 1308.75 767.75
L 1303.05 767.75 1293.35 767.75 1287.5 767.75 1275.05 767.75 1269.15 767.75 1259.6 767.75 1253.8 767.75 1243.2 767.75 1237.45 767.75 1224.2 767.75 1218.3 767.75 1204.65 767.75 1198.75 767.75 1187.1 767.75 1181.15 767.75 1171.6 767.75 1165.75 767.75 1153.25 767.75 1147.4 767.75 1136.55 767.75 1130.9 767.75 1119.1 767.75 1113.3 767.75 1100.7 767.75 1094.95 767.75 1085.35 767.75 1079.55 767.75 1067.05 767.75 1061.2 767.75 1050.35 767.75 1044.55 767.75 1032.75 767.75 1027.1 767.75 1015.4 767.75 1009.6 767.75 1000 767.75 994.05 767.75 981.65 767.75 975.7 767.75 966.1 767.75 960.3 767.75 947.55 767.75 941.75 767.75 932 767.75 926.2 767.75 913.65 767.75 907.85 767.75 891.7 767.75 885.9 767.75 869.75 767.75 863.95 767.75 863.95 771.4 869.75 771.4 885.9 771.4 891.7 771.4 907.85 771.4 913.65 771.4 926.2 771.4 932 771.4 941.75 771.4 947.55 771.4 960.3 771.4 966.1 771.4 975.7 771.4 981.65 771.4 994.05 771.4 1000 771.4 1009.6 771.4 1015.4 771.4 1027.1 771.4 1032.75 771.4 1044.55 771.4 1050.35 771.4 1061.2 771.4 1067.05 771.4 1079.55 771.4 1085.35 771.4 1094.95 771.4 1100.7 771.4 1113.3 771.4 1119.1 771.4 1130.9 771.4 1136.55 771.4 1147.4 771.4 1153.25 771.4 1165.75 771.4 1171.6 771.4 1181.15 771.4 1187.1 771.4 1198.75 771.4 1204.65 771.4 1218.3 771.4 1224.2 771.4 1237.45 771.4 1243.2 771.4 1253.8 771.4 1259.6 771.4 1269.15 771.4 1275.05 771.4 1287.5 771.4 1293.35 771.4 1303.05 771.4 1308.75 771.4 1321.65 771.4 1327.45 771.4 1337.15 771.4 1343 771.4 1355.4 771.4 1361.35 771.4 1370.9 771.4 1376.75 771.4 1389.1 771.4 1394.85 771.4 1404.5 771.4 1410.35 771.4 1422.8 771.4 1428.75 771.4 1438.3 771.4 1444.15 771.4 1457.05 771.4 1462.95 771.4 1472.45 771.4 1478.2 771.4 1490.85 771.4 1496.6 771.4 1506.2 771.4 1512.05 771.4 1523.7 771.4 1529.6 771.4 1541.2 771.4 1547 771.4 1557.8 771.4 1563.7 771.4 1576.15 771.4 1581.95 771.4 1591.7 771.4 1597.45 771.4 1609.9 771.4 1615.85 771.4 1632.3 771.4 1638.25 771.4 1658.85 771.4 1664.8 771.4 1664.8 767.75 1658.85 767.75 1638.25 767.75 1632.3 767.75 1615.85 767.75 1609.9 767.75 1597.45 767.75 1591.7 767.75 1581.95 767.75 1576.15 767.75 1563.7 767.75 1557.8 767.75 1547 767.75 1541.2 767.75 1529.6 767.75 1523.7 767.75 1512.05 767.75 1506.2 767.75 1496.6 767.75 1490.85 767.75 1478.2 767.75 1472.45 767.75 1462.95 767.75 1457.05 767.75 1444.15 767.75 1438.3 767.75 1428.75 767.75 1422.8 767.75 1410.35 767.75 1404.5 767.75 1394.85 767.75 1389.1 767.75 1376.75 767.75 1370.9 767.75 1361.35 767.75 1355.4 767.75 1343 767.75 1337.15 767.75 1327.45 767.75 1321.65 767.75 1308.75 767.75
M 1303.05 786.8
L 1308.75 786.8 1321.65 786.8 1327.45 786.8 1337.15 786.8 1343 786.8 1355.4 786.8 1361.35 786.8 1370.9 786.8 1376.75 786.8 1389.1 786.8 1394.85 786.8 1404.5 786.8 1410.35 786.8 1422.8 786.8 1428.75 786.8 1438.3 786.8 1444.15 786.8 1457.05 786.8 1462.95 786.8 1472.45 786.8 1478.2 786.8 1490.85 786.8 1496.6 786.8 1506.2 786.8 1512.05 786.8 1523.7 786.8 1529.6 786.8 1541.2 786.8 1547 786.8 1557.8 786.8 1563.7 786.8 1576.15 786.8 1581.95 786.8 1591.7 786.8 1597.45 786.8 1609.9 786.8 1615.85 786.8 1632.3 786.8 1638.25 786.8 1658.85 786.8 1664.8 786.8 1664.8 782.85 1658.85 782.85 1638.25 782.85 1632.3 782.85 1615.85 782.85 1609.9 782.85 1597.45 782.85 1591.7 782.85 1581.95 782.85 1576.15 782.85 1563.7 782.85 1557.8 782.85 1547 782.85 1541.2 782.85 1529.6 782.85 1523.7 782.85 1512.05 782.85 1506.2 782.85 1496.6 782.85 1490.85 782.85 1478.2 782.85 1472.45 782.85 1462.95 782.85 1457.05 782.85 1444.15 782.85 1438.3 782.85 1428.75 782.85 1422.8 782.85 1410.35 782.85 1404.5 782.85 1394.85 782.85 1389.1 782.85 1376.75 782.85 1370.9 782.85 1361.35 782.85 1355.4 782.85 1343 782.85 1337.15 782.85 1327.45 782.85 1321.65 782.85 1308.75 782.85 1303.05 782.85 1293.35 782.85 1287.5 782.85 1275.05 782.85 1269.15 782.85 1259.6 782.85 1253.8 782.85 1243.2 782.85 1237.45 782.85 1224.2 782.85 1218.3 782.85 1204.65 782.85 1198.75 782.85 1187.1 782.85 1181.15 782.85 1171.6 782.85 1165.75 782.85 1153.25 782.85 1147.4 782.85 1136.55 782.85 1130.9 782.85 1119.1 782.85 1113.3 782.85 1100.7 782.85 1094.95 782.85 1085.35 782.85 1079.55 782.85 1067.05 782.85 1061.2 782.85 1050.35 782.85 1044.55 782.85 1032.75 782.85 1027.1 782.85 1015.4 782.85 1009.6 782.85 1000 782.85 994.05 782.85 981.65 782.85 975.7 782.85 966.1 782.85 960.3 782.85 947.55 782.85 941.75 782.85 932 782.85 926.2 782.85 913.65 782.85 907.85 782.85 891.7 782.85 885.9 782.85 869.75 782.85 863.95 782.85 863.95 786.8 869.75 786.8 885.9 786.8 891.7 786.8 907.85 786.8 913.65 786.8 926.2 786.8 932 786.8 941.75 786.8 947.55 786.8 960.3 786.8 966.1 786.8 975.7 786.8 981.65 786.8 994.05 786.8 1000 786.8 1009.6 786.8 1015.4 786.8 1027.1 786.8 1032.75 786.8 1044.55 786.8 1050.35 786.8 1061.2 786.8 1067.05 786.8 1079.55 786.8 1085.35 786.8 1094.95 786.8 1100.7 786.8 1113.3 786.8 1119.1 786.8 1130.9 786.8 1136.55 786.8 1147.4 786.8 1153.25 786.8 1165.75 786.8 1171.6 786.8 1181.15 786.8 1187.1 786.8 1198.75 786.8 1204.65 786.8 1218.3 786.8 1224.2 786.8 1237.45 786.8 1243.2 786.8 1253.8 786.8 1259.6 786.8 1269.15 786.8 1275.05 786.8 1287.5 786.8 1293.35 786.8 1303.05 786.8
M 1327.45 750.45
L 1321.65 750.45 1308.75 750.45 1303.05 750.45 1293.35 750.45 1287.5 750.45 1275.05 750.45 1269.15 750.45 1259.6 750.45 1253.8 750.45 1243.2 750.45 1237.45 750.45 1224.2 750.45 1218.3 750.45 1204.65 750.45 1198.75 750.45 1187.1 750.45 1181.15 750.45 1171.6 750.45 1165.75 750.45 1153.25 750.45 1147.4 750.45 1136.55 750.45 1130.9 750.45 1119.1 750.45 1113.3 750.45 1100.7 750.45 1094.95 750.45 1085.35 750.45 1079.55 750.45 1067.05 750.45 1061.2 750.45 1050.35 750.45 1044.55 750.45 1032.75 750.45 1027.1 750.45 1015.4 750.45 1009.6 750.45 1000 750.45 994.05 750.45 981.65 750.45 975.7 750.45 966.1 750.45 960.3 750.45 947.55 750.45 941.75 750.45 932 750.45 926.2 750.45 913.65 750.45 907.85 750.45 891.7 750.45 885.9 750.45 869.75 750.45 863.95 750.45 863.95 754.3 869.75 754.3 885.9 754.3 891.7 754.3 907.85 754.3 913.65 754.3 926.2 754.3 932 754.3 941.75 754.3 947.55 754.3 960.3 754.3 966.1 754.3 975.7 754.3 981.65 754.3 994.05 754.3 1000 754.3 1009.6 754.3 1015.4 754.3 1027.1 754.3 1032.75 754.3 1044.55 754.3 1050.35 754.3 1061.2 754.3 1067.05 754.3 1079.55 754.3 1085.35 754.3 1094.95 754.3 1100.7 754.3 1113.3 754.3 1119.1 754.3 1130.9 754.3 1136.55 754.3 1147.4 754.3 1153.25 754.3 1165.75 754.3 1171.6 754.3 1181.15 754.3 1187.1 754.3 1198.75 754.3 1204.65 754.3 1218.3 754.3 1224.2 754.3 1237.45 754.3 1243.2 754.3 1253.8 754.3 1259.6 754.3 1269.15 754.3 1275.05 754.3 1287.5 754.3 1293.35 754.3 1303.05 754.3 1308.75 754.3 1321.65 754.3 1327.45 754.3 1337.15 754.3 1343 754.3 1355.4 754.3 1361.35 754.3 1370.9 754.3 1376.75 754.3 1389.1 754.3 1394.85 754.3 1404.5 754.3 1410.35 754.3 1422.8 754.3 1428.75 754.3 1438.3 754.3 1444.15 754.3 1457.05 754.3 1462.95 754.3 1472.45 754.3 1478.2 754.3 1490.85 754.3 1496.6 754.3 1506.2 754.3 1512.05 754.3 1523.7 754.3 1529.6 754.3 1541.2 754.3 1547 754.3 1557.8 754.3 1563.7 754.3 1576.15 754.3 1581.95 754.3 1591.7 754.3 1597.45 754.3 1609.9 754.3 1615.85 754.3 1632.3 754.3 1638.25 754.3 1658.85 754.3 1664.8 754.3 1664.8 750.45 1658.85 750.45 1638.25 750.45 1632.3 750.45 1615.85 750.45 1609.9 750.45 1597.45 750.45 1591.7 750.45 1581.95 750.45 1576.15 750.45 1563.7 750.45 1557.8 750.45 1547 750.45 1541.2 750.45 1529.6 750.45 1523.7 750.45 1512.05 750.45 1506.2 750.45 1496.6 750.45 1490.85 750.45 1478.2 750.45 1472.45 750.45 1462.95 750.45 1457.05 750.45 1444.15 750.45 1438.3 750.45 1428.75 750.45 1422.8 750.45 1410.35 750.45 1404.5 750.45 1394.85 750.45 1389.1 750.45 1376.75 750.45 1370.9 750.45 1361.35 750.45 1355.4 750.45 1343 750.45 1337.15 750.45 1327.45 750.45
M 1343 721.4
L 1337.15 721.4 1327.45 721.4 1321.65 721.4 1308.75 721.4 1303.05 721.4 1293.35 721.4 1287.5 721.4 1275.05 721.4 1269.15 721.4 1259.6 721.4 1253.8 721.4 1243.2 721.4 1237.45 721.4 1224.2 721.4 1218.3 721.4 1204.65 721.4 1198.75 721.4 1187.1 721.4 1181.15 721.4 1171.6 721.4 1165.75 721.4 1153.25 721.4 1147.4 721.4 1136.55 721.4 1130.9 721.4 1119.1 721.4 1113.3 721.4 1100.7 721.4 1094.95 721.4 1085.35 721.4 1079.55 721.4 1067.05 721.4 1061.2 721.4 1050.35 721.4 1044.55 721.4 1032.75 721.4 1027.1 721.4 1015.4 721.4 1009.6 721.4 1000 721.4 994.05 721.4 981.65 721.4 975.7 721.4 966.1 721.4 960.3 721.4 947.55 721.4 941.75 721.4 932 721.4 926.2 721.4 913.65 721.4 907.85 721.4 891.7 721.4 885.9 721.4 869.75 721.4 863.95 721.4 863.95 725.35 869.75 725.35 885.9 725.35 891.7 725.35 907.85 725.35 913.65 725.35 926.2 725.35 932 725.35 941.75 725.35 947.55 725.35 960.3 725.35 966.1 725.35 975.7 725.35 981.65 725.35 994.05 725.35 1000 725.35 1009.6 725.35 1015.4 725.35 1027.1 725.35 1032.75 725.35 1044.55 725.35 1050.35 725.35 1061.2 725.35 1067.05 725.35 1079.55 725.35 1085.35 725.35 1094.95 725.35 1100.7 725.35 1113.3 725.35 1119.1 725.35 1130.9 725.35 1136.55 725.35 1147.4 725.35 1153.25 725.35 1165.75 725.35 1171.6 725.35 1181.15 725.35 1187.1 725.35 1198.75 725.35 1204.65 725.35 1218.3 725.35 1224.2 725.35 1237.45 725.35 1243.2 725.35 1253.8 725.35 1259.6 725.35 1269.15 725.35 1275.05 725.35 1287.5 725.35 1293.35 725.35 1303.05 725.35 1308.75 725.35 1321.65 725.35 1327.45 725.35 1337.15 725.35 1343 725.35 1355.4 725.35 1361.35 725.35 1370.9 725.35 1376.75 725.35 1389.1 725.35 1394.85 725.35 1404.5 725.35 1410.35 725.35 1422.8 725.35 1428.75 725.35 1438.3 725.35 1444.15 725.35 1457.05 725.35 1462.95 725.35 1472.45 725.35 1478.2 725.35 1490.85 725.35 1496.6 725.35 1506.2 725.35 1512.05 725.35 1523.7 725.35 1529.6 725.35 1541.2 725.35 1547 725.35 1557.8 725.35 1563.7 725.35 1576.15 725.35 1581.95 725.35 1591.7 725.35 1597.45 725.35 1609.9 725.35 1615.85 725.35 1632.3 725.35 1638.25 725.35 1658.85 725.35 1664.8 725.35 1664.8 721.4 1658.85 721.4 1638.25 721.4 1632.3 721.4 1615.85 721.4 1609.9 721.4 1597.45 721.4 1591.7 721.4 1581.95 721.4 1576.15 721.4 1563.7 721.4 1557.8 721.4 1547 721.4 1541.2 721.4 1529.6 721.4 1523.7 721.4 1512.05 721.4 1506.2 721.4 1496.6 721.4 1490.85 721.4 1478.2 721.4 1472.45 721.4 1462.95 721.4 1457.05 721.4 1444.15 721.4 1438.3 721.4 1428.75 721.4 1422.8 721.4 1410.35 721.4 1404.5 721.4 1394.85 721.4 1389.1 721.4 1376.75 721.4 1370.9 721.4 1361.35 721.4 1355.4 721.4 1343 721.4
M 1376.75 703.45
L 1370.9 703.45 1361.35 703.45 1355.4 703.45 1343 703.45 1337.15 703.45 1327.45 703.45 1321.65 703.45 1308.75 703.45 1303.05 703.45 1293.35 703.45 1287.5 703.45 1275.05 703.45 1269.15 703.45 1259.6 703.45 1253.8 703.45 1243.2 703.45 1237.45 703.45 1224.2 703.45 1218.3 703.45 1204.65 703.45 1198.75 703.45 1187.1 703.45 1181.15 703.45 1171.6 703.45 1165.75 703.45 1153.25 703.45 1147.4 703.45 1136.55 703.45 1130.9 703.45 1119.1 703.45 1113.3 703.45 1100.7 703.45 1094.95 703.45 1085.35 703.45 1079.55 703.45 1067.05 703.45 1061.2 703.45 1050.35 703.45 1044.55 703.45 1032.75 703.45 1027.1 703.45 1015.4 703.45 1009.6 703.45 1000 703.45 994.05 703.45 981.65 703.45 975.7 703.45 966.1 703.45 960.3 703.45 947.55 703.45 941.75 703.45 932 703.45 926.2 703.45 913.65 703.45 907.85 703.45 891.7 703.45 885.9 703.45 869.75 703.45 863.95 703.45 863.95 707.3 869.75 707.3 885.9 707.3 891.7 707.3 907.85 707.3 913.65 707.3 926.2 707.3 932 707.3 941.75 707.3 947.55 707.3 960.3 707.3 966.1 707.3 975.7 707.3 981.65 707.3 994.05 707.3 1000 707.3 1009.6 707.3 1015.4 707.3 1027.1 707.3 1032.75 707.3 1044.55 707.3 1050.35 707.3 1061.2 707.3 1067.05 707.3 1079.55 707.3 1085.35 707.3 1094.95 707.3 1100.7 707.3 1113.3 707.3 1119.1 707.3 1130.9 707.3 1136.55 707.3 1147.4 707.3 1153.25 707.3 1165.75 707.3 1171.6 707.3 1181.15 707.3 1187.1 707.3 1198.75 707.3 1204.65 707.3 1218.3 707.3 1224.2 707.3 1237.45 707.3 1243.2 707.3 1253.8 707.3 1259.6 707.3 1269.15 707.3 1275.05 707.3 1287.5 707.3 1293.35 707.3 1303.05 707.3 1308.75 707.3 1321.65 707.3 1327.45 707.3 1337.15 707.3 1343 707.3 1355.4 707.3 1361.35 707.3 1370.9 707.3 1376.75 707.3 1389.1 707.3 1394.85 707.3 1404.5 707.3 1410.35 707.3 1422.8 707.3 1428.75 707.3 1438.3 707.3 1444.15 707.3 1457.05 707.3 1462.95 707.3 1472.45 707.3 1478.2 707.3 1490.85 707.3 1496.6 707.3 1506.2 707.3 1512.05 707.3 1523.7 707.3 1529.6 707.3 1541.2 707.3 1547 707.3 1557.8 707.3 1563.7 707.3 1576.15 707.3 1581.95 707.3 1591.7 707.3 1597.45 707.3 1609.9 707.3 1615.85 707.3 1632.3 707.3 1638.25 707.3 1658.85 707.3 1664.8 707.3 1664.8 703.45 1658.85 703.45 1638.25 703.45 1632.3 703.45 1615.85 703.45 1609.9 703.45 1597.45 703.45 1591.7 703.45 1581.95 703.45 1576.15 703.45 1563.7 703.45 1557.8 703.45 1547 703.45 1541.2 703.45 1529.6 703.45 1523.7 703.45 1512.05 703.45 1506.2 703.45 1496.6 703.45 1490.85 703.45 1478.2 703.45 1472.45 703.45 1462.95 703.45 1457.05 703.45 1444.15 703.45 1438.3 703.45 1428.75 703.45 1422.8 703.45 1410.35 703.45 1404.5 703.45 1394.85 703.45 1389.1 703.45 1376.75 703.45 Z"/>
</g>
</defs>

<g transform="matrix( 1, 0, 0, 1, 0,0) ">
<use xlink:href="#Layer0_0_FILL"/>
</g>
</svg>
