
<svg xmlns="http://www.w3.org/2000/svg" version="1.1" xmlns:xlink="http://www.w3.org/1999/xlink" preserveAspectRatio="none" x="0px" y="0px" width="113px" height="35px" viewBox="0 0 113 35">
<defs>
<g id="Layer0_0_FILL">
<path fill="#FFFFFF" stroke="none" d="
M 87.2 19.55
Q 87.05 16.3 87 15.95 86.3 7.15 77.35 5.15 72.65 5.1 68.3 7.05 65.15 8.45 64.05 16.1 64.15 9.6 63.7 8.2 60.8 -0.55 50.8 0.05 49.75 0.25 48.55 0.6 44.65 1.6 42.35 4.85 41.85 5.55 42.25 13.5 40.4 6.05 36.8 3.75 33.2 1.4 26.3 3.25 19.35 5.1 21.15 15.4 17.95 13.35 17.65 13.25 15.6 12.4 13.6 13 11.6 13.6 10 16.55 8.4 19.5 10.95 24.75 8.65 22.95 8.5 22.9 6.7 22.4 3.9 22.7 3.25 22.75 2.25 23.95 -0.85 27.65 0.35 32 1.1 34.55 2.45 35.5
L 110.4 35.5
Q 114.4 34.15 113 26.5 111.55 18.8 98.2 14.9 97.35 14.9 96.85 14.9 96.1 15.05 94.6 15.3 90.2 16.05 87.2 19.55 Z"/>
</g>
</defs>

<g transform="matrix( 1, 0, 0, 1, 0,0) ">
<use xlink:href="#Layer0_0_FILL"/>
</g>
</svg>
