
<svg xmlns="http://www.w3.org/2000/svg" version="1.1" xmlns:xlink="http://www.w3.org/1999/xlink" preserveAspectRatio="none" x="0px" y="0px" width="47px" height="54px" viewBox="0 0 47 54">
<defs>
<g id="Layer0_0_FILL">
<path fill="#FFFF33" stroke="none" d="
M 15.5 36.1
L 27.15 36.1 27.15 22 15.5 22 15.5 36.1
M 27.15 40.05
L 15.5 40.05 15.5 54 27.15 54 27.15 40.05
M 9.55 22
L 0 22 0 36.1 9.55 36.1 9.55 22
M 9.55 0.35
L 0 0.35 0 18.15 9.55 18.15 9.55 0.35
M 46.7 36.1
L 46.7 22 33.05 22 33.05 36.1 46.7 36.1
M 46.7 18.15
L 46.7 0.35 33.05 0.35 33.05 18.15 46.7 18.15 Z"/>
</g>
</defs>

<g transform="matrix( 1, 0, 0, 1, 0,0) ">
<use xlink:href="#Layer0_0_FILL"/>
</g>
</svg>
