
<svg xmlns="http://www.w3.org/2000/svg" version="1.1" xmlns:xlink="http://www.w3.org/1999/xlink" preserveAspectRatio="none" x="0px" y="0px" width="47px" height="54px" viewBox="0 0 47 54">
<defs>
<g id="Layer0_0_FILL">
<path fill="#FFFF33" stroke="none" d="
M 28.4 39.7
L 18.7 39.7 18.7 53.65 28.4 53.65 28.4 39.7
M 28.4 21.65
L 18.7 21.65 18.7 35.75 28.4 35.75 28.4 21.65
M 12.9 17.8
L 12.9 0 0 0 0 17.8 12.9 17.8
M 28.4 17.8
L 28.4 0 18.7 0 18.7 17.8 28.4 17.8
M 78.9 39.7
L 66.55 39.7 66.55 53.65 78.9 53.65 78.9 39.7
M 46.65 17.8
L 46.65 0 34.25 0 34.25 17.8 46.65 17.8
M 78.9 21.65
L 66.55 21.65 66.55 35.75 78.9 35.75 78.9 21.65
M 78.9 17.8
L 78.9 0 66.55 0 66.55 17.8 78.9 17.8
M 112.6 39.7
L 100.15 39.7 100.15 53.65 112.6 53.65 112.6 39.7
M 112.6 21.65
L 100.15 21.65 100.15 35.75 112.6 35.75 112.6 21.65
M 94.3 21.65
L 84.65 21.65 84.65 35.75 94.3 35.75 94.3 21.65
M 112.6 17.8
L 112.6 0 100.15 0 100.15 17.8 112.6 17.8
M 146.85 39.7
L 133.95 39.7 133.95 53.65 146.85 53.65 146.85 39.7
M 146.85 35.75
L 146.85 21.65 133.95 21.65 133.95 35.75 146.85 35.75
M 146.85 17.8
L 146.85 0 133.95 0 133.95 17.8 146.85 17.8 Z"/>
</g>
</defs>

<g transform="matrix( 1, 0, 0, 1, 0,0) ">
<use xlink:href="#Layer0_0_FILL"/>
</g>
</svg>
