
<svg xmlns="http://www.w3.org/2000/svg" version="1.1" xmlns:xlink="http://www.w3.org/1999/xlink" preserveAspectRatio="none" x="0px" y="0px" width="255px" height="74px" viewBox="0 0 255 74">
<defs>
<g id="Layer1_0_FILL">
<path fill="#0C0C0C" stroke="none" d="
M 34.9 51.25
Q 33.65 50.7 32.3 50.7 19.9 50.3 17.9 60.15 17.65 69.45 24.05 72.5 28.35 74.55 33.6 73.25 42.95 70.95 42.5 59.4 40.55 53.55 34.9 51.25
M 34.9 57.1
Q 35.6 57.7 36.2 58.15 37.45 60.1 37.25 63.35 37.25 63.55 37.25 63.6 35.9 67.45 31.8 68.65 31.7 68.65 31.7 68.8 27 69 24.9 66.65 24.8 66.55 24.7 66.55 23.85 65.4 23.3 63.9
L 23.15 63.9
Q 23.05 62.35 23.05 60.95 23.15 60.75 23.15 60.65 25.05 54.2 32.9 56.05 34.15 56.35 34.9 57.1
M 189.7 51.6
Q 187.95 50.75 186.1 50.75 173.75 50.4 172 60.65 172.1 69.55 178.55 72.5 182.8 74.55 187.9 73.2 197.15 70.85 196.55 59.15 194.6 53.95 189.7 51.6
M 182.85 55.35
Q 182.95 55.35 182.95 55.25 192.5 55.3 190.6 64.6 190.45 65.35 189.9 66.05 188.35 67.9 185.8 68.8 178.85 68.9 177.4 63.65 177.4 63.6 177.2 63.6 177.15 62.15 177.2 60.65 177.2 60.5 177.2 60.4 178.3 57.6 180.8 56.05 180.85 56.05 180.85 55.95 182 55.8 182.85 55.35
M 37.25 8.9
Q 37.15 8.9 36.95 8.9 27 8.9 17.15 8.9 17.05 18.55 17.15 28.25 17.15 28.35 17.15 28.5 27 28.5 36.95 28.5 37.15 28.5 37.25 28.5 37.25 28.35 37.25 28.25 37.25 18.55 37.25 8.9
M 44.3 29.65
Q 44.15 29.65 44.05 29.65 44.05 39.35 44.15 49.05
L 44.3 49.05
Q 54.35 49.05 64.35 49.05 64.5 49.05 64.55 49.05 64.55 48.75 64.55 48.45
L 64.55 29.95
Q 64.55 29.85 64.55 29.65
L 64.55 29.6
Q 54.5 29.45 44.3 29.45 44.3 29.6 44.3 29.65
M 44.5 48.5
Q 44.55 39.2 44.5 29.95 54.35 29.95 64.1 29.95 64.2 29.95 64.35 29.95 64.35 30.1 64.35 30.2 64.35 39.45 64.35 48.75 64.2 48.75 64.1 48.75 54.35 48.75 44.5 48.75 44.5 48.65 44.5 48.5
M 64.35 8.4
Q 64.2 8.4 64.1 8.4 54.25 8.4 44.3 8.4 44.25 18.05 44.3 27.7 44.3 27.85 44.3 28 54.25 28 64.1 28 64.2 28 64.35 28 64.35 27.85 64.35 27.7 64.3 18.05 64.35 8.4
M 88.35 8.65
Q 88.35 8.55 88.35 8.4 88.25 8.4 88.2 8.4 78.35 8.4 68.5 8.4 68.5 8.65 68.5 8.9 68.5 9 68.5 9.2 68.5 18.15 68.5 27.25 68.5 27.35 68.5 27.45 68.5 27.65 68.5 27.7 68.5 27.85 68.5 28 78.35 28 88.2 28 88.25 28 88.35 28 88.35 18.3 88.35 8.65
M 111.9 8.65
Q 111.8 8.65 111.65 8.65 101.85 8.65 92.05 8.65 92.05 18.15 92.05 27.7 92.05 27.85 92.05 28 101.85 28 111.65 28 111.8 28 111.9 28 111.9 27.85 111.9 27.7 111.9 18.15 111.9 8.65
M 135.95 8.65
Q 135.85 8.65 135.7 8.65 125.85 8.65 116.1 8.65 116.1 18.15 116.1 27.7 116.1 27.85 116.1 28 125.85 28 135.7 28 135.85 28 135.95 28 135.95 27.85 135.95 27.7 135.95 18.15 135.95 8.65
M 160 8.65
Q 159.8 8.65 159.75 8.65 149.75 8.65 139.9 8.65 139.9 18.15 139.9 27.7 139.9 27.85 139.9 28 149.75 28 159.75 28 159.8 28 160 28 160 27.85 160 27.7 160 18.15 160 8.65
M 183.75 8.9
Q 183.75 8.8 183.75 8.65 183.6 8.65 183.45 8.65 173.4 8.85 163.85 8.4 163.75 8.4 163.65 8.4 163.6 18.05 163.65 27.7 163.65 27.85 163.65 28 173.45 28 183.2 28 183.35 28 183.45 28 183.45 27.85 183.45 27.7 183.45 18.3 183.45 8.9 183.6 8.9 183.75 8.9
M 207.7 8.65
Q 207.6 8.65 207.45 8.65 197.7 8.65 187.9 8.65 187.9 18.15 187.9 27.7 187.9 27.85 187.9 28 197.7 28 207.45 28 207.6 28 207.7 28 207.7 27.85 207.7 27.7 207.7 18.15 207.7 8.65
M 231.5 8.4
Q 231.35 8.4 231.2 8.4 227.1498046875 8.4 223.1 8.4 217.2498046875 8.4 211.4 8.4 211.4 18.05 211.4 27.7 211.4 27.85 211.4 28 217.2498046875 28 223.1 28 227.1498046875 28 231.2 28 231.35 28 231.5 28 231.5 27.85 231.5 27.7 231.5 18.05 231.5 8.4
M 247.35 36.25
L 247.35 32.65 69.45 32.65 69.45 36.25 247.35 36.25
M 247.6 44.25
L 247.6 40.65 69.7 40.65 69.7 44.25 247.6 44.25
M 252.2 8.4
L 251.95 8.4
Q 243.75 8.4 235.7 8.4 235.7 8.65 235.7 8.9 235.7 9 235.7 9.2 236.15 18.05 235.8 27.45
L 235.7 27.45
Q 235.7 27.65 235.7 27.7 235.7 27.85 235.7 28 243.75 28 251.95 28
L 252.2 28
Q 252.2 18.3 252.2 8.65 252.2 8.55 252.2 8.4 Z"/>

<path fill="#FCFCFC" stroke="none" d="
M 36.2 58.15
Q 35.6 57.7 34.9 57.1 34.15 56.35 32.9 56.05 25.05 54.2 23.15 60.65 23.15 60.75 23.05 60.95 23.05 62.35 23.15 63.9
L 23.3 63.9
Q 23.85 65.4 24.7 66.55 24.8 66.55 24.9 66.65 27 69 31.7 68.8 31.7 68.65 31.8 68.65 35.9 67.45 37.25 63.6 37.25 63.55 37.25 63.35 37.45 60.1 36.2 58.15
M 182.95 55.25
Q 182.95 55.35 182.85 55.35 182 55.8 180.85 55.95 180.85 56.05 180.8 56.05 178.3 57.6 177.2 60.4 177.2 60.5 177.2 60.65 177.15 62.15 177.2 63.6 177.4 63.6 177.4 63.65 178.85 68.9 185.8 68.8 188.35 67.9 189.9 66.05 190.45 65.35 190.6 64.6 192.5 55.3 182.95 55.25 Z"/>

<path fill="#53471E" fill-opacity="0.6078431372549019" stroke="none" d="
M 4.85 61.9
Q 4.85 62 4.85 62.15 10.55 62.15 16.35 62
L 16.35 61.9
Q 16.25 61.9 16.1 61.9 13.85 61.9 11.6 61.9 11.55 61.9 11.35 61.9 8.1 61.9 4.85 61.9 Z"/>

<path fill="#000000" fill-opacity="0.996078431372549" stroke="none" d="
M 4.85 51.75
Q 4.85 56.85 4.85 61.6 4.85 61.75 4.85 61.9 8.1 61.9 11.35 61.9 11.55 61.9 11.6 61.9 11.7 58.55 12.1 55.3 12.75 51 8.55 51.75
L 8.25 51.75
Q 8.1 51.75 7.95 51.75 6.4 51.75 4.85 51.75
M 3.65 10.6
L 3.65 10.5
Q 2.65 9.5 0.35 9.9
L 0.35 10.15 0.35 23.75
Q 2.75 24.25 2.95 22.95 3.4 20.1 3.35 17.3 3.3 14.5 3.65 11.85
L 8.45 8.95 8.7 8.9 8.7 7.65 8.45 7.7 3.65 10.6
M 254.5 5.2
Q 254.7 4.3 254.25 3.95 243.55 4.4 232.3 4.35 227.6982421875 4.320703125 223.1 4.3 204.1677734375 4.2 185.3 4.2 161.8 4.2 138.3 4.2 114.8 4.2 91.25 4.2
L 14.8 4.2
Q 14.75 4.7 14.8 5.2
L 14.8 5.45 56.6 5.55 91.25 5.45
Q 114.8 5.45 138.3 5.45 161.8 5.45 185.3 5.45 204.1673828125 5.45 223.1 5.45 227.6978515625 5.45 232.3 5.45 243.4 5.45 254.5 5.45 254.5 5.3 254.5 5.2 Z"/>

<path fill="#222424" fill-opacity="0.7098039215686275" stroke="none" d="
M 3.4 24.05
L 3.65 24 3.65 11.85
Q 3.3 14.5 3.35 17.3 3.4 20.1 2.95 22.95 2.75 24.25 0.35 23.75 1.65 24.15 3.4 24.05 Z"/>

<path fill="#090909" fill-opacity="0.2" stroke="none" d="
M 0.35 10.15
L 0 10.15 0.15 23.75 0.35 23.75 0.35 10.15 Z"/>

<path fill="#B49523" fill-opacity="0.7137254901960784" stroke="none" d="
M 6.8 0
Q 6.5 3.7 7.65 6.05 7.7 6.2 8.1 6.2
L 8.7 6.2 8.45 5.95
Q 7.95 5.95 7.9 5.8 6.7 3.6 7.05 0
L 6.8 0 Z"/>

<path fill="#947A1C" fill-opacity="0.5882352941176471" stroke="none" d="
M 138.6 61.9
Q 115.05 61.9 91.55 61.9 79.65 61.9 67.7 62.05 79.4 62.3 91.25 62.25 114.8 62.15 138.3 62.25 154.45 62.3 169.9 61.9 154.25 61.9 138.6 61.9 Z"/>

<path fill="#A37E2F" stroke="none" d="
M 223.1 4.3
Q 227.6982421875 4.320703125 232.3 4.35 243.55 4.4 254.25 3.95 243.25 3.95 232.3 3.95 227.6978515625 3.95 223.1 3.95 204.1673828125 3.95 185.3 3.95 161.8 3.95 138.3 3.95 114.8 3.95 91.25 3.95
L 14.8 3.95 14.8 4.2 91.25 4.2
Q 114.8 4.2 138.3 4.2 161.8 4.2 185.3 4.2 204.1677734375 4.2 223.1 4.3 Z"/>

<path fill="#DDA82E" fill-opacity="0.996078431372549" stroke="none" d="
M 254.5 5.7
Q 254.5 5.55 254.5 5.45 243.4 5.45 232.3 5.45 227.6978515625 5.45 223.1 5.45 204.1673828125 5.45 185.3 5.45 161.8 5.45 138.3 5.45 114.8 5.45 91.25 5.45
L 56.6 5.55
Q 75 5.85 91 5.8 114.45 5.7 138 5.7 161.55 5.7 185.05 5.7 204.009375 5.7 223.1 5.7 227.5712890625 5.7 232.05 5.7 243.3 5.7 254.5 5.7 Z"/>

<path fill="#FDBE2D" fill-opacity="0.996078431372549" stroke="none" d="
M 254.2 3.7
Q 252.95 1 250.1 0 238.55 0 227.05 0 225.074609375 0 223.1 0 201.5787109375 0 180.1 0 156.55 0 133.1 0 109.5 0 86 0
L 7.05 0
Q 6.7 3.6 7.9 5.8 7.95 5.95 8.45 5.95
L 8.7 6.2
Q 8.75 6.9 8.7 7.4
L 8.7 7.65 8.7 8.9 8.7 9.25
Q 8.95 15.15 8.25 51.75
L 8.55 51.75
Q 12.75 51 12.1 55.3 11.7 58.55 11.6 61.9 13.85 61.9 16.1 61.9 16.25 61.9 16.35 61.9 16.35 61.75 16.35 61.6 16.4 61 16.35 60.4 18.3 48.4 33.3 49.15 35.2 49.3 36.7 50 43.6 53.05 44.5 61.9
L 67.7 62.05
Q 79.65 61.9 91.55 61.9 115.05 61.9 138.6 61.9 154.25 61.9 169.9 61.9 169.9 61.75 169.9 61.6 169.9 61.1 169.9 60.65 171.8 48.6 186.6 49.1 189.2 49.2 191.2 50.25 197.15 53.35 198.1 61.1 198.2 61.2 198.25 61.2
L 254.45 61.2 254.45 43.5 254.5 43.5 254.5 32.15
Q 254.5 18.9 254.5 5.7 243.3 5.7 232.05 5.7 227.5712890625 5.7 223.1 5.7 204.009375 5.7 185.05 5.7 161.55 5.7 138 5.7 114.45 5.7 91 5.8 75 5.85 56.6 5.55
L 14.8 5.45 14.8 5.2
Q 14.75 4.7 14.8 4.2
L 14.8 3.95 91.25 3.95
Q 114.8 3.95 138.3 3.95 161.8 3.95 185.3 3.95 204.1673828125 3.95 223.1 3.95 227.6978515625 3.95 232.3 3.95 243.25 3.95 254.25 3.95 254.25 3.85 254.2 3.7
M 252.2 8.25
L 252.2 8.4
Q 252.2 8.55 252.2 8.65 252.2 18.3 252.2 28
L 251.95 28
Q 243.75 28 235.7 28 235.5 28 235.45 28
L 235.3 28
Q 235.15 18.05 235.15 8.2 235.3 8.2 235.45 8.2 243.75 8.2 252.2 8.25
M 247.6 40.65
L 247.6 44.25 69.7 44.25 69.7 40.65 247.6 40.65
M 247.35 32.65
L 247.35 36.25 69.45 36.25 69.45 32.65 247.35 32.65
M 231.75 8.25
L 231.75 8.4
Q 231.75 8.55 231.75 8.65 231.95 18.55 231.5 28 231.35 28 231.2 28 227.1498046875 28 223.1 28 217.2498046875 28 211.4 28 211.4 27.85 211.4 27.7 211.4 18.05 211.4 8.4 211.4 8.25 211.4 8.2 217.2416015625 8.2 223.1 8.2 227.4205078125 8.2287109375 231.75 8.25
M 207.7 8.25
L 207.7 8.4
Q 208.2 17.85 207.85 28
L 207.7 28
Q 207.6 28 207.45 28 197.7 28 187.9 28 187.75 28 187.65 28
L 187.5 28
Q 187.4 18.05 187.4 8.2 187.5 8.2 187.65 8.2 197.65 8.2 207.7 8.25
M 184 8.25
L 184 8.4
Q 184 8.55 184 8.65 184.15 18.55 183.75 28 183.6 28 183.45 28 183.35 28 183.2 28 173.45 28 163.65 28 163.65 27.85 163.65 27.7 163.6 18.05 163.65 8.4 163.65 8.25 163.65 8.2 173.8 8.2 184 8.25
M 159.75 8.2
Q 159.8 8.2 160 8.2 160.4 17.8 160.1 28
L 160 28
Q 159.8 28 159.75 28 149.75 28 139.9 28
L 139.7 28
Q 139.65 18.05 139.65 8.2 139.7 8.2 139.9 8.2 149.75 8.2 159.75 8.2
M 136.2 8.25
L 136.2 8.4
Q 136.2 8.55 136.2 8.65 136.35 18.55 135.95 28 135.85 28 135.7 28 125.85 28 116.1 28
L 115.95 28
Q 115.85 18.15 115.85 8.4 115.85 8.25 115.85 8.2 126 8.2 136.2 8.25
M 111.9 8.2
Q 112.05 8.2 112.15 8.2 112.6 17.8 112.3 28
L 112.15 28
Q 112.05 28 111.9 28 111.8 28 111.65 28 101.85 28 92.05 28 92.05 27.85 92.05 27.7 92.05 18.15 92.05 8.65 92.05 8.55 92.05 8.4 92.05 8.25 92.05 8.2 102 8.2 111.9 8.2
M 88.35 8.4
Q 88.35 8.55 88.35 8.65 88.35 18.3 88.35 28 88.25 28 88.2 28 78.35 28 68.5 28 68.4 28 68.25 28
L 68.15 28
Q 68.1 18.05 68.1 8.2 68.15 8.2 68.25 8.2 78.35 8.2 88.35 8.25
L 88.35 8.4
M 64.55 8.4
Q 64.55 8.55 64.55 8.65 64.8 18.55 64.35 28 64.2 28 64.1 28 54.25 28 44.3 28 44.3 27.85 44.3 27.7 44.25 18.05 44.3 8.4 44.3 8.25 44.3 8.2 54.5 8.2 64.55 8.25
L 64.55 8.4
M 44.05 29.65
Q 44.15 29.65 44.3 29.65 44.3 29.6 44.3 29.45 54.5 29.45 64.55 29.6
L 64.55 29.65
Q 64.55 29.85 64.55 29.95
L 64.55 48.45
Q 64.55 48.75 64.55 49.05 64.5 49.05 64.35 49.05 54.35 49.05 44.3 49.05
L 44.15 49.05
Q 44.05 39.35 44.05 29.65
M 36.95 8.9
Q 37.15 8.9 37.25 8.9 37.25 18.55 37.25 28.25 37.25 28.35 37.25 28.5 37.15 28.5 36.95 28.5 27 28.5 17.15 28.5 17.15 28.35 17.15 28.25 17.05 18.55 17.15 8.9 27 8.9 36.95 8.9 Z"/>

<path fill="#FDBE2E" stroke="none" d="
M 44.5 29.95
Q 44.55 39.2 44.5 48.5 44.5 48.65 44.5 48.75 54.35 48.75 64.1 48.75 64.2 48.75 64.35 48.75 64.35 39.45 64.35 30.2 64.35 30.1 64.35 29.95 64.2 29.95 64.1 29.95 54.35 29.95 44.5 29.95 Z"/>

<path fill="#8D6F2F" stroke="none" d="
M 64.55 8.4
L 64.55 8.25
Q 54.5 8.2 44.3 8.2 44.3 8.25 44.3 8.4 54.25 8.4 64.1 8.4 64.2 8.4 64.35 8.4 64.5 8.4 64.55 8.4
M 136.2 8.4
L 136.2 8.25
Q 126 8.2 115.85 8.2 115.85 8.25 115.85 8.4 115.95 8.4 116.1 8.4 125.85 8.4 135.7 8.4 135.85 8.4 135.95 8.4 136 8.4 136.2 8.4
M 183.45 8.4
Q 183.6 8.4 183.75 8.4 183.85 8.4 184 8.4
L 184 8.25
Q 173.8 8.2 163.65 8.2 163.65 8.25 163.65 8.4 163.75 8.4 163.85 8.4 173.7 8.4 183.45 8.4
M 231.2 8.4
Q 231.35 8.4 231.5 8.4 231.6 8.4 231.75 8.4
L 231.75 8.25
Q 227.4205078125 8.2287109375 223.1 8.2 217.2416015625 8.2 211.4 8.2 211.4 8.25 211.4 8.4 217.2498046875 8.4 223.1 8.4 227.1498046875 8.4 231.2 8.4 Z"/>

<path fill="#876A2F" stroke="none" d="
M 64.55 8.65
Q 64.55 8.55 64.55 8.4 64.5 8.4 64.35 8.4 64.3 18.05 64.35 27.7 64.35 27.85 64.35 28 64.8 18.55 64.55 8.65
M 231.75 8.4
Q 231.6 8.4 231.5 8.4 231.5 18.05 231.5 27.7 231.5 27.85 231.5 28 231.95 18.55 231.75 8.65 231.75 8.55 231.75 8.4 Z"/>

<path fill="#94732F" stroke="none" d="
M 68.25 8.4
Q 68.25 8.25 68.25 8.2 68.15 8.2 68.1 8.2 68.1 18.05 68.15 28
L 68.25 28
Q 68.25 27.85 68.25 27.7 68.25 18.05 68.25 8.4
M 235.45 8.2
Q 235.3 8.2 235.15 8.2 235.15 18.05 235.3 28
L 235.45 28
Q 235.45 27.85 235.45 27.7 235.45 18.05 235.45 8.4 235.45 8.25 235.45 8.2 Z"/>

<path fill="#0C182F" stroke="none" d="
M 68.5 8.4
Q 68.4 8.4 68.25 8.4 68.25 18.05 68.25 27.7 68.25 27.85 68.25 28 68.4 28 68.5 28 68.5 27.85 68.5 27.7 68.5 27.65 68.5 27.45 68.5 27.35 68.5 27.25 68.5 18.15 68.5 9.2 68.5 9 68.5 8.9 68.5 8.65 68.5 8.4
M 235.7 9.2
Q 235.7 9 235.7 8.9 235.7 8.65 235.7 8.4 235.5 8.4 235.45 8.4 235.45 18.05 235.45 27.7 235.45 27.85 235.45 28 235.5 28 235.7 28 235.7 27.85 235.7 27.7 235.7 27.65 235.7 27.45 235.7 27.35 235.7 27.25 235.7 18.15 235.7 9.2 Z"/>

<path fill="#8C6E2F" stroke="none" d="
M 88.2 8.4
Q 88.25 8.4 88.35 8.4
L 88.35 8.25
Q 78.35 8.2 68.25 8.2 68.25 8.25 68.25 8.4 68.4 8.4 68.5 8.4 78.35 8.4 88.2 8.4
M 112.15 8.4
Q 112.15 8.25 112.15 8.2 112.05 8.2 111.9 8.2 102 8.2 92.05 8.2 92.05 8.25 92.05 8.4 102 8.4 111.9 8.4 112.05 8.4 112.15 8.4
M 159.75 8.4
Q 159.8 8.4 160 8.4 160 8.25 160 8.2 159.8 8.2 159.75 8.2 149.75 8.2 139.9 8.2 139.9 8.25 139.9 8.4 149.75 8.4 159.75 8.4
M 207.7 8.4
L 207.7 8.25
Q 197.65 8.2 187.65 8.2 187.65 8.25 187.65 8.4 197.55 8.4 207.45 8.4 207.6 8.4 207.7 8.4
M 252.2 8.4
L 252.2 8.25
Q 243.75 8.2 235.45 8.2 235.45 8.25 235.45 8.4 235.5 8.4 235.7 8.4 243.75 8.4 251.95 8.4
L 252.2 8.4 Z"/>

<path fill="#A7812F" stroke="none" d="
M 112.15 8.2
Q 112.15 8.25 112.15 8.4 112.15 18.05 112.15 27.7 112.15 27.85 112.15 28
L 112.3 28
Q 112.6 17.8 112.15 8.2 Z"/>

<path fill="#0F192F" stroke="none" d="
M 111.65 8.65
Q 111.8 8.65 111.9 8.65 111.9 18.15 111.9 27.7 111.9 27.85 111.9 28 112.05 28 112.15 28 112.15 27.85 112.15 27.7 112.15 18.05 112.15 8.4 112.05 8.4 111.9 8.4 102 8.4 92.05 8.4 92.05 8.55 92.05 8.65 101.85 8.65 111.65 8.65 Z"/>

<path fill="#735D2F" stroke="none" d="
M 116.1 8.4
Q 115.95 8.4 115.85 8.4 115.85 18.15 115.95 28
L 116.1 28
Q 116.1 27.85 116.1 27.7 116.1 18.15 116.1 8.65 116.1 8.55 116.1 8.4 Z"/>

<path fill="#0E192F" stroke="none" d="
M 135.95 8.4
Q 135.85 8.4 135.7 8.4 125.85 8.4 116.1 8.4 116.1 8.55 116.1 8.65 125.85 8.65 135.7 8.65 135.85 8.65 135.95 8.65 135.95 8.55 135.95 8.4
M 160 8.4
Q 159.8 8.4 159.75 8.4 149.75 8.4 139.9 8.4 139.9 8.55 139.9 8.65 149.75 8.65 159.75 8.65 159.8 8.65 160 8.65 160 8.55 160 8.4
M 183.75 8.4
Q 183.6 8.4 183.45 8.4 173.7 8.4 163.85 8.4 173.4 8.85 183.45 8.65 183.6 8.65 183.75 8.65 183.75 8.55 183.75 8.4 Z"/>

<path fill="#443E2F" stroke="none" d="
M 136.2 8.65
Q 136.2 8.55 136.2 8.4 136 8.4 135.95 8.4 135.95 8.55 135.95 8.65 135.95 18.15 135.95 27.7 135.95 27.85 135.95 28 136.35 18.55 136.2 8.65 Z"/>

<path fill="#D4A02F" stroke="none" d="
M 139.9 8.65
Q 139.9 8.55 139.9 8.4 139.9 8.25 139.9 8.2 139.7 8.2 139.65 8.2 139.65 18.05 139.7 28
L 139.9 28
Q 139.9 27.85 139.9 27.7 139.9 18.15 139.9 8.65 Z"/>

<path fill="#C8982F" stroke="none" d="
M 160 8.2
Q 160 8.25 160 8.4 160 8.55 160 8.65 160 18.15 160 27.7 160 27.85 160 28
L 160.1 28
Q 160.4 17.8 160 8.2 Z"/>

<path fill="#181F2F" stroke="none" d="
M 183.75 8.9
Q 183.6 8.9 183.45 8.9 183.45 18.3 183.45 27.7 183.45 27.85 183.45 28 183.6 28 183.75 28 183.75 27.85 183.75 27.7 183.75 18.3 183.75 8.9 Z"/>

<path fill="#65542F" stroke="none" d="
M 183.75 8.65
Q 183.75 8.8 183.75 8.9 183.75 18.3 183.75 27.7 183.75 27.85 183.75 28 184.15 18.55 184 8.65 184 8.55 184 8.4 183.85 8.4 183.75 8.4 183.75 8.55 183.75 8.65 Z"/>

<path fill="#B38B2F" stroke="none" d="
M 187.65 8.4
Q 187.65 8.25 187.65 8.2 187.5 8.2 187.4 8.2 187.4 18.05 187.5 28
L 187.65 28
Q 187.65 27.85 187.65 27.7 187.65 18.05 187.65 8.4 Z"/>

<path fill="#101A2F" stroke="none" d="
M 207.7 8.65
Q 207.7 8.55 207.7 8.4 207.6 8.4 207.45 8.4 197.55 8.4 187.65 8.4 187.65 18.05 187.65 27.7 187.65 27.85 187.65 28 187.75 28 187.9 28 187.9 27.85 187.9 27.7 187.9 18.15 187.9 8.65 197.7 8.65 207.45 8.65 207.6 8.65 207.7 8.65 Z"/>

<path fill="#E6AD2E" stroke="none" d="
M 207.7 8.4
Q 207.7 8.55 207.7 8.65 207.7 18.15 207.7 27.7 207.7 27.85 207.7 28
L 207.85 28
Q 208.2 17.85 207.7 8.4 Z"/>

<path fill="#35342F" stroke="none" d="
M 235.7 27.45
L 235.8 27.45
Q 236.15 18.05 235.7 9.2 235.7 18.15 235.7 27.25 235.7 27.35 235.7 27.45 Z"/>
</g>
</defs>

<g transform="matrix( 1, 0, 0, 1, 0,0) ">
<use xlink:href="#Layer1_0_FILL"/>
</g>
</svg>
