
<svg xmlns="http://www.w3.org/2000/svg" version="1.1" xmlns:xlink="http://www.w3.org/1999/xlink" preserveAspectRatio="none" x="0px" y="0px" width="2437px" height="240px" viewBox="0 0 2437 240">
<defs>
<g id="Layer1_0_FILL">
<path fill="#011001" stroke="none" d="
M 2434.05 185.75
Q 2432.55 165.25 2430.95 158.9 2422.05 123.75 2383.2 123.4 2369.95 121 2358.25 126.65 2355.55 127.95 2353.95 129.45 2354.3 121.65 2352.15 113.45 2351.4 110.6 2349.5 108.5 2341.2 99.4 2330.15 94.9 2321.7 91.5 2311.7 90.75 2311.4 90.8 2311.1 90.9 2306.85 92.05 2302.8 93.6 2301.45 94.15 2300.25 94.9 2299.85 95.15 2299.5 95.4 2299.55 95.15 2299.6 94.9 2300.85 85.85 2298.1 75.4 2291.5 50.4 2263.65 50.85 2248.7 55.3 2236.3 65.2 2235.05 66.2 2234.1 67.35 2233.95 61.3 2229.3 55.4 2218.4 41.55 2202.65 37.6 2184.45 40.05 2170.7 51.35 2168.75 52.95 2167.05 54.6 2164.8 52.1 2162.25 49.75 2149.75 38.45 2133.25 36 2118.95 39.95 2109.05 53.8 2104.8 59.7 2104.7 65.75 2103.8 64.6 2102.7 63.6 2091.45 53.7 2077.85 49.25 2052.6 48.8 2046.6 73.8 2044 84.55 2045.3 93.8 2043.95 92.7 2042.3 92 2038.65 90.45 2034.8 89.3 2034.5 89.2 2034.25 89.15 2029.3 89.55 2024.75 90.75 2024.65 90.75 2024.6 90.75 2024.3 90.8 2024 90.9 2019.75 92.05 2015.7 93.6 2014.35 94.15 2013.15 94.9 2012.75 95.15 2012.4 95.4 2012.45 95.15 2012.5 94.9 2013.75 85.85 2011 75.4 2004.4 50.4 1976.55 50.85 1964.7 52.2 1956.4 59.15 1948.05 66.1 1947 67.35 1946.85 61.3 1940.05 51.4 1933.2 41.45 1919.15 39.35 1905.1 37.25 1893 45.5 1880.9 53.7 1879.95 54.6 1877.7 52.1 1875.15 49.75 1862.65 38.45 1847.3 39.35 1831.85 39.95 1821.95 53.8 1817.7 59.7 1817.6 65.75 1816.7 64.6 1815.6 63.6 1804.35 53.7 1790.75 49.25 1765.5 48.8 1759.5 73.8 1756.9 84.55 1758.2 93.8 1756.85 92.7 1755.2 92 1751.55 90.45 1747.7 89.3 1747.4 89.2 1747.15 89.15 1736.1 90.05 1727.2 94.9 1719.15 99.3 1712.85 106.9 1711.1 109 1710.45 111.85 1708.5 120.05 1708.8 127.85 1707.35 126.35 1704.9 125.05 1694.25 119.4 1682.25 121.8 1642.85 123.7 1624.55 147.15 1606.2 170.6 1604.95 193.25 1603.65 215.9 1612 226.1 1613.15 227.5 1614.3 228.75 1621.5 236.7 1628.95 239.3 1637.55 242.25 1718.3 241.45
L 2434.05 241.45 2436.95 241.45 2436.9 240.55
Q 2436.65 234.45 2436.4 228.75 2435.7 212.3 2434.95 199.6 2434.5 192 2434.05 185.75
M 819.6 192.75
Q 821.3498046875 184.2970703125 820.65 177.75 819.1 163.25 817.5 156.9 808.6 121.75 769.75 121.4 759.3 119.5 749.8 122.65 747.25 123.45 744.8 124.65 742.1 125.95 740.5 127.45 740.85 119.65 738.7 111.45 738.45 110.4 738 109.5 737.25 107.85 736.05 106.5 721.4 90.45 698.25 88.75 697.95 88.8 697.65 88.9 693.4 90.05 689.35 91.6 687.55 92.3 686.05 93.4 687.5 84.15 684.65 73.4 682.3 64.55 677.35 58.9 672.7 53.65 665.8 51.15 659.1 48.7 650.2 48.85 646.8 49.85 643.55 51.15 635.75 54.25 628.75 58.9 625.75 60.9 622.85 63.2 621.6 64.2 620.65 65.35 620.55 62.1 619.2 58.9 618 56.15 615.85 53.4 614.95 52.25 614 51.15 603.65 39.2 589.2 35.6 581.6 36.6 574.8 39.2 574.25 39.35 573.75 39.6 569.75 41.15 566 43.3 562.45 45.35 559.1 47.9 558.15 48.6 557.25 49.35 555.3 50.95 553.6 52.6 551.35 50.1 548.8 47.75 536.3 36.45 519.8 34 505.5 37.95 495.6 51.8 491.35 57.7 491.25 63.75 490.35 62.6 489.25 61.6 478 51.7 464.4 47.25 439.15 46.8 433.15 71.8 430.55 82.55 431.85 91.8 430.5 90.7 428.85 90 425.2 88.45 421.35 87.3 421.05 87.2 420.8 87.15 415.85 87.55 411.3 88.75 411.2 88.75 411.15 88.75 410.85 88.8 410.55 88.9 406.3 90.05 402.25 91.6 400.45 92.3 398.95 93.4 400.4 84.15 397.55 73.4 390.95 48.4 363.1 48.85 348.15 53.3 335.75 63.2 334.5 64.2 333.55 65.35 333.4 59.3 328.75 53.4 317.85 39.55 302.1 35.6 283.9 38.05 270.15 49.35 268.2 50.95 266.5 52.6 264.25 50.1 261.7 47.75 249.2 36.45 232.7 34 218.4 37.95 208.5 51.8 204.25 57.7 204.15 63.75 203.25 62.6 202.15 61.6 190.9 51.7 177.3 47.25 152.05 46.8 146.05 71.8 143.45 82.55 144.75 91.8 143.4 90.7 141.75 90 138.1 88.45 134.25 87.3 133.95 87.2 133.7 87.15 112.7 88.85 99.4 104.9 97.65 107 97 109.85 95.05 118.05 95.35 125.85 93.9 124.35 91.45 123.05 80.8 117.4 68.8 119.8 29.4 121.7 15.75 146.7 10.4 156.4 3.15 185.15 2.13828125 189.127734375 1.45 192.75 -2.8333984375 215.263671875 5.35 224.05 14.85 234.2 17.45 236.2 20 238.2 20.05 239.45
L 559.1 239.45 574.8 239.45 730.75 239.45
Q 734.45 239.45 738 239.45 744.15 239.35 749.8 239.1 802.8 236.5 811.75 216.1 817.481640625 203.01875 819.6 192.75 Z"/>
</g>
</defs>

<g transform="matrix( 1, 0, 0, 1, 0,0) ">
<use xlink:href="#Layer1_0_FILL"/>
</g>
</svg>
