
<svg xmlns="http://www.w3.org/2000/svg" version="1.1" xmlns:xlink="http://www.w3.org/1999/xlink" preserveAspectRatio="none" x="0px" y="0px" width="151px" height="57px" viewBox="0 0 151 57">
<defs>
<g id="Layer0_0_FILL">
<path fill="#FFFFFF" stroke="none" d="
M 144.1 42.3
Q 144.00078125 42.2732421875 143.9 42.25 142.6 42.35 141.3 42.3 140.65 42.25 140.1 42.35 143.85 38.8 143.1 33.85 142.85 32.2 141.9 30.85 139 26.8 134.45 25.25 129.85 23.6 125.25 24.9 120.75 26.15 115.25 30 119.75 21.55 117.8 14.45 114.35 1.75 100.3 0 90.7 2.15 85.9 10.45 84.55 12.65 84.75 19.65 82.4 11.5 79 8.85 77.05 7.45 75.1 6.75 66.7 4.85 62.15 10.75 59.2 14.55 60.95 25 48.6 14 40.45 22.8 36.65 26.95 36.15 32.4 36.1 32.6 35.15 37.5 23.05 23.45 13.6 33.8 11.85 35.65 11.2 38.45 10.75 40.2 12.8 44.9 10.2 42.5 9.5 42.1 8.8 41.65 6.75 41.65 -1.1 42.95 0.2 49.7 1.55 56.4 10.45 57.05
L 146.75 57.05
Q 152.15 52.85 150.85 48.2 149.5732421875 43.6330078125 144.1 42.3 Z"/>
</g>
</defs>

<g transform="matrix( 1, 0, 0, 1, 0,0) ">
<use xlink:href="#Layer0_0_FILL"/>
</g>
</svg>
