
<svg xmlns="http://www.w3.org/2000/svg" version="1.1" xmlns:xlink="http://www.w3.org/1999/xlink" preserveAspectRatio="none" x="0px" y="0px" width="2520px" height="1456px" viewBox="0 0 2520 1456">
<defs>
<g id="Layer0_0_FILL">
<path fill="#021A02" stroke="none" d="
M 523.3 969.9
Q 517.8 973.1 515.15 979.25 510.7 989.35 511.45 1000.5 479.05 982.2 449.55 1001.85 446.6 1003.8 444.45 1007.65 438.55 1018.25 439.2 1030.25 425.15 1023.7 411.4 1030.45 396.6 1037.75 394.3 1052 359 1048.65 362.05 1081.5 363.85 1100.7 386.3 1102.5 426.05 1105.7 656.4 1105.2 687.05 1105.1 927.45 1103.8 937.5 1103.75 943.25 1098.1 948.75 1092.65 949.6 1082.8 952.4 1049.95 915.35 1059.7 918.05 1039.05 904.55 1031.75 892 1025 879.15 1031.55 879.75 1019.55 874.35 1008.95 872.4 1005.1 869.7 1003.15 842.75 983.5 813.15 1001.8 813.85 990.65 809.8 980.55 807.35 974.4 802.35 971.2 779.15 956.2 758.15 977.3 757.9 969.3 756.5 961.45 754.95 952.95 748.95 948.35 730.4 934.05 706.65 932.3 700.15 933.65 693.1 935.5 686.05 937.35 667.4 955.4 659.95 940.1 647.75 935.85 637.95 932.45 628.1 931 602.05 929.3 588.65 940.2 575.2 951.1 573.6 959.55 571.95 968 571.7 976 548.7 954.9 523.3 969.9
M 1822.25 921.55
Q 1796.65 924.1 1785.3 935.95 1774.05 947.65 1770.55 957.95 1767.05 968.2 1765.95 976.1 1745.3 958.35 1729.75 965.7 1714.3 973 1710.75 981.25 1707.25 989.4 1708 1000.6 1682.2 986.05 1664.45 995.55 1646.65 1004.95 1643.05 1012.05 1639.4 1019.05 1638.5 1030.35 1624.95 1023.85 1611.7 1030.55 1597.5 1037.85 1602.5 1060.1 1561.35 1048.8 1564.25 1081.6 1565.15 1091.55 1573.25 1099.6 1581.7 1108 1592.25 1108.2 1641.2 1109.3 1683.65 1108.8 1722.55 1108.35 1770.2 1106.35 1777.65 1106.05 1943.55 1105.1 2097.2 1104.25 2128.05 1101.3 2146.7 1099.5 2148.2 1080.3 2150.75 1047.4 2121.4 1050.8 2119.5 1036.55 2107.2 1029.25 2095.8 1022.5 2084.1 1029.05 2084.65 1017 2079.7 1006.45 2077.95 1002.6 2075.5 1000.65 2051 981 2024.1 999.3 2024.7 988.25 2021 978.05 2018.85 971.95 2014.25 968.7 1993.2 953.7 1974.05 974.8 1973.85 966.85 1972.55 958.95 1971.1 950.35 1960 938.95 1948.75 927.4 1933.2 922.7 1917.5 917.9 1901.9 924.35 1886.25 930.8 1876.4 945.6 1868.15 932.8 1855 926.1 1841.7 919.4 1822.25 921.55 Z"/>
</g>
</defs>

<g transform="matrix( 1, 0, 0, 1, 0,0) ">
<use xlink:href="#Layer0_0_FILL"/>
</g>
</svg>
