
<svg xmlns="http://www.w3.org/2000/svg" version="1.1" xmlns:xlink="http://www.w3.org/1999/xlink" preserveAspectRatio="none" x="0px" y="0px" width="2520px" height="1456px" viewBox="0 0 2520 1456">
<defs>
<g id="Layer0_0_FILL">
<path fill="#011001" stroke="none" d="
M 477.5 1053.05
Q 477.4 1053.05 477.35 1053.05 477.05 1053.1 476.75 1053.2 472.5 1054.35 468.45 1055.9 466.65 1056.6 465.15 1057.7 466.6 1048.45 463.75 1037.7 457.15 1012.7 429.3 1013.15 414.35 1017.6 401.95 1027.5 400.7 1028.5 399.75 1029.65 399.6 1023.6 394.95 1017.7 384.05 1003.85 368.3 999.9 350.1 1002.35 336.35 1013.65 334.4 1015.25 332.7 1016.9 330.45 1014.4 327.9 1012.05 315.4 1000.75 298.9 998.3 284.6 1002.25 274.7 1016.1 270.45 1022 270.35 1028.05 269.45 1026.9 268.35 1025.9 257.1 1016 243.5 1011.55 218.25 1011.1 212.25 1036.1 209.65 1046.85 210.95 1056.1 209.6 1055 207.95 1054.3 204.3 1052.75 200.45 1051.6 200.15 1051.5 199.9 1051.45 178.9 1053.15 165.6 1069.2 163.85 1071.3 163.2 1074.15 161.25 1082.35 161.55 1090.15 160.1 1088.65 157.65 1087.35 147 1081.7 135 1084.1 95.6 1086 81.95 1111 76.6 1120.7 69.35 1149.45 62.05 1178.15 71.55 1188.35 81.05 1198.5 83.65 1200.5 86.2 1202.5 86.25 1203.75
L 796.95 1203.75
Q 867.5 1204.2 877.95 1180.4 888.4 1156.55 886.85 1142.05 885.3 1127.55 883.7 1121.2 874.8 1086.05 835.95 1085.7 822.7 1083.3 811 1088.95 808.3 1090.25 806.7 1091.75 807.05 1083.95 804.9 1075.75 804.15 1072.9 802.25 1070.8 787.6 1054.75 764.45 1053.05 764.15 1053.1 763.85 1053.2 759.6 1054.35 755.55 1055.9 753.75 1056.6 752.25 1057.7 753.7 1048.45 750.85 1037.7 744.25 1012.7 716.4 1013.15 701.45 1017.6 689.05 1027.5 687.8 1028.5 686.85 1029.65 686.7 1023.6 682.05 1017.7 671.15 1003.85 655.4 999.9 637.2 1002.35 623.45 1013.65 621.5 1015.25 619.8 1016.9 617.55 1014.4 615 1012.05 602.5 1000.75 586 998.3 571.7 1002.25 561.8 1016.1 557.55 1022 557.45 1028.05 556.55 1026.9 555.45 1025.9 544.2 1016 530.6 1011.55 505.35 1011.1 499.35 1036.1 496.75 1046.85 498.05 1056.1 496.7 1055 495.05 1054.3 491.4 1052.75 487.55 1051.6 487.25 1051.5 487 1051.45 482.05 1051.85 477.5 1053.05
M 1941.35 978.05
Q 1928.85 966.75 1913.5 967.65 1898.05 968.25 1888.15 982.1 1883.9 988 1883.8 994.05 1882.9 992.9 1881.8 991.9 1870.55 982 1856.95 977.55 1831.7 977.1 1825.7 1002.1 1823.1 1012.85 1824.4 1022.1 1823.05 1021 1821.4 1020.3 1817.75 1018.75 1813.9 1017.6 1813.6 1017.5 1813.35 1017.45 1792.35 1019.15 1779.05 1035.2 1777.3 1037.3 1776.65 1040.15 1774.7 1048.35 1775 1056.15 1773.55 1054.65 1771.1 1053.35 1760.45 1047.7 1748.45 1050.1 1709.05 1052 1690.75 1075.45 1672.4 1098.9 1671.15 1121.55 1669.85 1144.2 1678.2 1154.4 1686.5 1164.6 1695.15 1167.6 1703.75 1170.55 1784.5 1169.75
L 2500.25 1169.75 2503.15 1169.75 2503.1 1168.85
Q 2502.15 1144.95 2501.15 1127.9 2500.7 1120.3 2500.25 1114.05 2498.75 1093.55 2497.15 1087.2 2488.25 1052.05 2449.4 1051.7 2436.15 1049.3 2424.45 1054.95 2421.75 1056.25 2420.15 1057.75 2420.5 1049.95 2418.35 1041.75 2417.6 1038.9 2415.7 1036.8 2401.05 1020.75 2377.9 1019.05 2377.6 1019.1 2377.3 1019.2 2373.05 1020.35 2369 1021.9 2367.2 1022.6 2365.7 1023.7 2367.15 1014.45 2364.3 1003.7 2357.7 978.7 2329.85 979.15 2314.9 983.6 2302.5 993.5 2301.25 994.5 2300.3 995.65 2300.15 989.6 2295.5 983.7 2284.6 969.85 2268.85 965.9 2250.65 968.35 2236.9 979.65 2234.95 981.25 2233.25 982.9 2231 980.4 2228.45 978.05 2215.95 966.75 2199.45 964.3 2185.15 968.25 2175.25 982.1 2171 988 2170.9 994.05 2170 992.9 2168.9 991.9 2157.65 982 2144.05 977.55 2118.8 977.1 2112.8 1002.1 2110.2 1012.85 2111.5 1022.1 2110.15 1021 2108.5 1020.3 2104.85 1018.75 2101 1017.6 2100.7 1017.5 2100.45 1017.45 2095.5 1017.85 2090.95 1019.05 2090.85 1019.05 2090.8 1019.05 2090.5 1019.1 2090.2 1019.2 2085.95 1020.35 2081.9 1021.9 2080.1 1022.6 2078.6 1023.7 2080.05 1014.45 2077.2 1003.7 2070.6 978.7 2042.75 979.15 2030.9 980.5 2022.6 987.45 2014.25 994.4 2013.2 995.65 2013.05 989.6 2006.25 979.7 1999.4 969.75 1985.35 967.65 1971.3 965.55 1959.2 973.8 1947.1 982 1946.15 982.9 1943.9 980.4 1941.35 978.05 Z"/>
</g>
</defs>

<g transform="matrix( 1, 0, 0, 1, 0,0) ">
<use xlink:href="#Layer0_0_FILL"/>
</g>
</svg>
