
<svg xmlns="http://www.w3.org/2000/svg" version="1.1" xmlns:xlink="http://www.w3.org/1999/xlink" preserveAspectRatio="none" x="0px" y="0px" width="2520px" height="1456px" viewBox="0 0 2520 1456">
<defs>
<g id="Layer0_0_FILL">
<path fill="#0E0E0E" stroke="none" d="
M 777.1 832.5
L 761.6 832.5 761.6 851.65 777.1 851.65 777.1 832.5
M 783.1 877.8
L 798.6 877.8 798.6 858.7 783.1 858.7 783.1 877.8
M 761.6 858.7
L 761.6 877.8 777.1 877.8 777.1 858.7 761.6 858.7
M 755.6 858.7
L 742.1 858.7 742.1 877.8 755.6 877.8 755.6 858.7
M 755.6 832.5
L 742.1 832.5 742.1 851.65 755.6 851.65 755.6 832.5
M 742.1 805
L 742.1 825.45 755.6 825.45 755.6 805 742.1 805
M 798.6 832.5
L 783.1 832.5 783.1 851.65 798.6 851.65 798.6 832.5
M 777.1 825.45
L 777.1 805 761.6 805 761.6 825.45 777.1 825.45
M 783.1 825.45
L 798.6 825.45 798.6 805 783.1 805 783.1 825.45
M 818.1 851.65
L 818.1 832.5 804.6 832.5 804.6 851.65 818.1 851.65
M 866.2 851.65
L 866.2 832.5 846.5 832.5 846.5 851.65 866.2 851.65
M 818.1 877.8
L 818.1 858.7 804.6 858.7 804.6 877.8 818.1 877.8
M 846.5 858.7
L 846.5 877.8 866.2 877.8 866.2 858.7 846.5 858.7
M 824.1 858.7
L 824.1 877.8 840.5 877.8 840.5 858.7 824.1 858.7
M 818.1 825.45
L 818.1 805 804.6 805 804.6 825.45 818.1 825.45
M 840.5 832.5
L 824.1 832.5 824.1 851.65 840.5 851.65 840.5 832.5
M 824.1 825.45
L 840.5 825.45 840.5 805 824.1 805 824.1 825.45
M 866.2 825.45
L 866.2 805 846.5 805 846.5 825.45 866.2 825.45
M 818.1 774.3
L 804.6 774.3 804.6 797.95 818.1 797.95 818.1 774.3
M 866.2 774.3
L 846.5 774.3 846.5 797.95 866.2 797.95 866.2 774.3
M 840.5 774.3
L 824.1 774.3 824.1 797.95 840.5 797.95 840.5 774.3
M 846.5 744.25
L 846.5 767.25 866.2 767.25 866.2 744.25 846.5 744.25
M 824.1 767.25
L 840.5 767.25 840.5 744.25 824.1 744.25 824.1 767.25
M 777.1 774.3
L 761.6 774.3 761.6 797.95 777.1 797.95 777.1 774.3
M 804.6 744.25
L 804.6 767.25 818.1 767.25 818.1 744.25 804.6 744.25
M 783.1 767.25
L 798.6 767.25 798.6 744.25 783.1 744.25 783.1 767.25
M 798.6 774.3
L 783.1 774.3 783.1 797.95 798.6 797.95 798.6 774.3
M 761.6 744.25
L 761.6 767.25 777.1 767.25 777.1 744.25 761.6 744.25
M 755.6 774.3
L 742.1 774.3 742.1 797.95 755.6 797.95 755.6 774.3
M 755.6 744.25
L 742.1 744.25 742.1 767.25 755.6 767.25 755.6 744.25
M 1706.5 850.4
L 1706.5 831.25 1685.65 831.25 1685.65 850.4 1706.5 850.4
M 1752.85 831.25
L 1739.35 831.25 1739.35 850.4 1752.85 850.4 1752.85 831.25
M 1774.35 857.45
L 1758.85 857.45 1758.85 876.55 1774.35 876.55 1774.35 857.45
M 1706.5 876.55
L 1706.5 857.45 1685.65 857.45 1685.65 876.55 1706.5 876.55
M 1739.35 857.45
L 1739.35 876.55 1752.85 876.55 1752.85 857.45 1739.35 857.45
M 1733.35 857.45
L 1712.5 857.45 1712.5 876.55 1733.35 876.55 1733.35 857.45
M 1706.5 824.2
L 1706.5 803.75 1685.65 803.75 1685.65 824.2 1706.5 824.2
M 1733.35 831.25
L 1712.5 831.25 1712.5 850.4 1733.35 850.4 1733.35 831.25
M 1733.35 803.75
L 1712.5 803.75 1712.5 824.2 1733.35 824.2 1733.35 803.75
M 1774.35 831.25
L 1758.85 831.25 1758.85 850.4 1774.35 850.4 1774.35 831.25
M 1752.85 824.2
L 1752.85 803.75 1739.35 803.75 1739.35 824.2 1752.85 824.2
M 1758.85 824.2
L 1774.35 824.2 1774.35 803.75 1758.85 803.75 1758.85 824.2
M 1795.85 850.4
L 1795.85 831.25 1780.35 831.25 1780.35 850.4 1795.85 850.4
M 1795.85 876.55
L 1795.85 857.45 1780.35 857.45 1780.35 876.55 1795.85 876.55
M 1801.85 876.55
L 1815.35 876.55 1815.35 857.45 1801.85 857.45 1801.85 876.55
M 1815.35 831.25
L 1801.85 831.25 1801.85 850.4 1815.35 850.4 1815.35 831.25
M 1795.85 824.2
L 1795.85 803.75 1780.35 803.75 1780.35 824.2 1795.85 824.2
M 1815.35 824.2
L 1815.35 803.75 1801.85 803.75 1801.85 824.2 1815.35 824.2
M 1795.85 773.05
L 1780.35 773.05 1780.35 796.7 1795.85 796.7 1795.85 773.05
M 1815.35 773.05
L 1801.85 773.05 1801.85 796.7 1815.35 796.7 1815.35 773.05
M 1815.35 766
L 1815.35 743 1801.85 743 1801.85 766 1815.35 766
M 1706.5 773.05
L 1685.65 773.05 1685.65 796.7 1706.5 796.7 1706.5 773.05
M 1752.85 773.05
L 1739.35 773.05 1739.35 796.7 1752.85 796.7 1752.85 773.05
M 1774.35 773.05
L 1758.85 773.05 1758.85 796.7 1774.35 796.7 1774.35 773.05
M 1780.35 743
L 1780.35 766 1795.85 766 1795.85 743 1780.35 743
M 1774.35 766
L 1774.35 743 1758.85 743 1758.85 766 1774.35 766
M 1733.35 773.05
L 1712.5 773.05 1712.5 796.7 1733.35 796.7 1733.35 773.05
M 1739.35 743
L 1739.35 766 1752.85 766 1752.85 743 1739.35 743
M 1733.35 766
L 1733.35 743 1712.5 743 1712.5 766 1733.35 766
M 1685.65 743
L 1685.65 766 1706.5 766 1706.5 743 1685.65 743 Z"/>

<path fill="#D03F33" stroke="none" d="
M 783.1 858.7
L 777.1 858.7 777.1 877.8 783.1 877.8 783.1 858.7
M 804.6 858.7
L 798.6 858.7 798.6 877.8 804.6 877.8 804.6 858.7
M 761.6 858.7
L 755.6 858.7 755.6 877.8 761.6 877.8 761.6 858.7
M 761.6 832.5
L 755.6 832.5 755.6 851.65 761.6 851.65 761.6 832.5
M 761.6 805
L 755.6 805 755.6 825.45 761.6 825.45 761.6 805
M 804.6 832.5
L 798.6 832.5 798.6 851.65 804.6 851.65 804.6 832.5
M 783.1 832.5
L 777.1 832.5 777.1 851.65 783.1 851.65 783.1 832.5
M 783.1 805
L 777.1 805 777.1 825.45 783.1 825.45 783.1 805
M 804.6 805
L 798.6 805 798.6 825.45 804.6 825.45 804.6 805
M 872.2 858.7
L 866.2 858.7 866.2 877.8 872.2 877.8 872.2 858.7
M 824.1 858.7
L 818.1 858.7 818.1 877.8 824.1 877.8 824.1 858.7
M 846.5 858.7
L 840.5 858.7 840.5 877.8 846.5 877.8 846.5 858.7
M 846.5 832.5
L 840.5 832.5 840.5 851.65 846.5 851.65 846.5 832.5
M 824.1 832.5
L 818.1 832.5 818.1 851.65 824.1 851.65 824.1 832.5
M 824.1 805
L 818.1 805 818.1 825.45 824.1 825.45 824.1 805
M 846.5 805
L 840.5 805 840.5 825.45 846.5 825.45 846.5 805
M 866.2 825.45
L 872.2 825.45 872.2 805 866.2 805 866.2 825.45
M 872.2 832.5
L 866.2 832.5 866.2 851.65 872.2 851.65 872.2 832.5
M 872.2 774.3
L 866.2 774.3 866.2 797.95 872.2 797.95 872.2 774.3
M 866.2 767.25
L 872.2 767.25 872.2 744.25 866.2 744.25 866.2 767.25
M 846.5 774.3
L 840.5 774.3 840.5 797.95 846.5 797.95 846.5 774.3
M 824.1 774.3
L 818.1 774.3 818.1 797.95 824.1 797.95 824.1 774.3
M 824.1 744.25
L 818.1 744.25 818.1 767.25 824.1 767.25 824.1 744.25
M 846.5 744.25
L 840.5 744.25 840.5 767.25 846.5 767.25 846.5 744.25
M 804.6 774.3
L 798.6 774.3 798.6 797.95 804.6 797.95 804.6 774.3
M 783.1 774.3
L 777.1 774.3 777.1 797.95 783.1 797.95 783.1 774.3
M 783.1 744.25
L 777.1 744.25 777.1 767.25 783.1 767.25 783.1 744.25
M 804.6 744.25
L 798.6 744.25 798.6 767.25 804.6 767.25 804.6 744.25
M 761.6 774.3
L 755.6 774.3 755.6 797.95 761.6 797.95 761.6 774.3
M 761.6 744.25
L 755.6 744.25 755.6 767.25 761.6 767.25 761.6 744.25
M 1685.65 857.45
L 1679.65 857.45 1679.65 876.55 1685.65 876.55 1685.65 857.45
M 1685.65 831.25
L 1679.65 831.25 1679.65 850.4 1685.65 850.4 1685.65 831.25
M 1685.65 803.75
L 1679.65 803.75 1679.65 824.2 1685.65 824.2 1685.65 803.75
M 1758.85 857.45
L 1752.85 857.45 1752.85 876.55 1758.85 876.55 1758.85 857.45
M 1780.35 857.45
L 1774.35 857.45 1774.35 876.55 1780.35 876.55 1780.35 857.45
M 1712.5 857.45
L 1706.5 857.45 1706.5 876.55 1712.5 876.55 1712.5 857.45
M 1739.35 857.45
L 1733.35 857.45 1733.35 876.55 1739.35 876.55 1739.35 857.45
M 1739.35 831.25
L 1733.35 831.25 1733.35 850.4 1739.35 850.4 1739.35 831.25
M 1712.5 831.25
L 1706.5 831.25 1706.5 850.4 1712.5 850.4 1712.5 831.25
M 1712.5 803.75
L 1706.5 803.75 1706.5 824.2 1712.5 824.2 1712.5 803.75
M 1739.35 803.75
L 1733.35 803.75 1733.35 824.2 1739.35 824.2 1739.35 803.75
M 1780.35 831.25
L 1774.35 831.25 1774.35 850.4 1780.35 850.4 1780.35 831.25
M 1758.85 831.25
L 1752.85 831.25 1752.85 850.4 1758.85 850.4 1758.85 831.25
M 1758.85 803.75
L 1752.85 803.75 1752.85 824.2 1758.85 824.2 1758.85 803.75
M 1780.35 803.75
L 1774.35 803.75 1774.35 824.2 1780.35 824.2 1780.35 803.75
M 1801.85 857.45
L 1795.85 857.45 1795.85 876.55 1801.85 876.55 1801.85 857.45
M 1801.85 831.25
L 1795.85 831.25 1795.85 850.4 1801.85 850.4 1801.85 831.25
M 1801.85 803.75
L 1795.85 803.75 1795.85 824.2 1801.85 824.2 1801.85 803.75
M 1801.85 773.05
L 1795.85 773.05 1795.85 796.7 1801.85 796.7 1801.85 773.05
M 1795.85 766
L 1801.85 766 1801.85 743 1795.85 743 1795.85 766
M 1780.35 773.05
L 1774.35 773.05 1774.35 796.7 1780.35 796.7 1780.35 773.05
M 1758.85 773.05
L 1752.85 773.05 1752.85 796.7 1758.85 796.7 1758.85 773.05
M 1752.85 766
L 1758.85 766 1758.85 743 1752.85 743 1752.85 766
M 1774.35 766
L 1780.35 766 1780.35 743 1774.35 743 1774.35 766
M 1739.35 773.05
L 1733.35 773.05 1733.35 796.7 1739.35 796.7 1739.35 773.05
M 1712.5 773.05
L 1706.5 773.05 1706.5 796.7 1712.5 796.7 1712.5 773.05
M 1706.5 766
L 1712.5 766 1712.5 743 1706.5 743 1706.5 766
M 1733.35 766
L 1739.35 766 1739.35 743 1733.35 743 1733.35 766
M 1679.65 766
L 1685.65 766 1685.65 743 1679.65 743 1679.65 766
M 1685.65 773.05
L 1679.65 773.05 1679.65 796.7 1685.65 796.7 1685.65 773.05 Z"/>

<path fill="#F2F253" stroke="none" d="
M 824.1 877.8
L 818.1 877.8 804.6 877.8 798.6 877.8 783.1 877.8 777.1 877.8 761.6 877.8 755.6 877.8 742.1 877.8 742.1 926.05 872.2 926.05 872.2 877.8 866.2 877.8 846.5 877.8 840.5 877.8 824.1 877.8
M 755.6 744.25
L 761.6 744.25 777.1 744.25 783.1 744.25 798.6 744.25 804.6 744.25 818.1 744.25 824.1 744.25 840.5 744.25 846.5 744.25 866.2 744.25 872.2 744.25 872.2 716.75 742.1 716.75 742.1 744.25 755.6 744.25
M 1801.85 876.55
L 1795.85 876.55 1780.35 876.55 1774.35 876.55 1758.85 876.55 1752.85 876.55 1739.35 876.55 1733.35 876.55 1712.5 876.55 1706.5 876.55 1685.65 876.55 1679.65 876.55 1679.65 922.05 1815.35 922.05 1815.35 876.55 1801.85 876.55
M 1679.65 743
L 1685.65 743 1706.5 743 1712.5 743 1733.35 743 1739.35 743 1752.85 743 1758.85 743 1774.35 743 1780.35 743 1795.85 743 1801.85 743 1815.35 743 1815.35 715.5 1679.65 715.5 1679.65 743 Z"/>

<path fill="#FEF8F6" stroke="none" d="
M 846.5 851.65
L 840.5 851.65 824.1 851.65 818.1 851.65 804.6 851.65 798.6 851.65 783.1 851.65 777.1 851.65 761.6 851.65 755.6 851.65 742.1 851.65 742.1 858.7 755.6 858.7 761.6 858.7 777.1 858.7 783.1 858.7 798.6 858.7 804.6 858.7 818.1 858.7 824.1 858.7 840.5 858.7 846.5 858.7 866.2 858.7 872.2 858.7 872.2 851.65 866.2 851.65 846.5 851.65
M 866.2 805
L 872.2 805 872.2 797.95 866.2 797.95 846.5 797.95 840.5 797.95 824.1 797.95 818.1 797.95 804.6 797.95 798.6 797.95 783.1 797.95 777.1 797.95 761.6 797.95 755.6 797.95 742.1 797.95 742.1 805 755.6 805 761.6 805 777.1 805 783.1 805 798.6 805 804.6 805 818.1 805 824.1 805 840.5 805 846.5 805 866.2 805
M 872.2 832.5
L 872.2 825.45 866.2 825.45 846.5 825.45 840.5 825.45 824.1 825.45 818.1 825.45 804.6 825.45 798.6 825.45 783.1 825.45 777.1 825.45 761.6 825.45 755.6 825.45 742.1 825.45 742.1 832.5 755.6 832.5 761.6 832.5 777.1 832.5 783.1 832.5 798.6 832.5 804.6 832.5 818.1 832.5 824.1 832.5 840.5 832.5 846.5 832.5 866.2 832.5 872.2 832.5
M 742.1 767.25
L 742.1 774.3 755.6 774.3 761.6 774.3 777.1 774.3 783.1 774.3 798.6 774.3 804.6 774.3 818.1 774.3 824.1 774.3 840.5 774.3 846.5 774.3 866.2 774.3 872.2 774.3 872.2 772 872.2 767.25 866.2 767.25 846.5 767.25 840.5 767.25 824.1 767.25 818.1 767.25 804.6 767.25 798.6 767.25 783.1 767.25 777.1 767.25 761.6 767.25 755.6 767.25 742.1 767.25
M 1815.35 857.45
L 1815.35 850.4 1801.85 850.4 1795.85 850.4 1780.35 850.4 1774.35 850.4 1758.85 850.4 1752.85 850.4 1739.35 850.4 1733.35 850.4 1712.5 850.4 1706.5 850.4 1685.65 850.4 1679.65 850.4 1679.65 857.45 1685.65 857.45 1706.5 857.45 1712.5 857.45 1733.35 857.45 1739.35 857.45 1752.85 857.45 1758.85 857.45 1774.35 857.45 1780.35 857.45 1795.85 857.45 1801.85 857.45 1815.35 857.45
M 1801.85 824.2
L 1795.85 824.2 1780.35 824.2 1774.35 824.2 1758.85 824.2 1752.85 824.2 1739.35 824.2 1733.35 824.2 1712.5 824.2 1706.5 824.2 1685.65 824.2 1679.65 824.2 1679.65 831.25 1685.65 831.25 1706.5 831.25 1712.5 831.25 1733.35 831.25 1739.35 831.25 1752.85 831.25 1758.85 831.25 1774.35 831.25 1780.35 831.25 1795.85 831.25 1801.85 831.25 1815.35 831.25 1815.35 824.2 1801.85 824.2
M 1815.35 803.75
L 1815.35 796.7 1801.85 796.7 1795.85 796.7 1780.35 796.7 1774.35 796.7 1758.85 796.7 1752.85 796.7 1739.35 796.7 1733.35 796.7 1712.5 796.7 1706.5 796.7 1685.65 796.7 1679.65 796.7 1679.65 803.75 1685.65 803.75 1706.5 803.75 1712.5 803.75 1733.35 803.75 1739.35 803.75 1752.85 803.75 1758.85 803.75 1774.35 803.75 1780.35 803.75 1795.85 803.75 1801.85 803.75 1815.35 803.75
M 1679.65 772
L 1679.65 773.05 1685.65 773.05 1706.5 773.05 1712.5 773.05 1733.35 773.05 1739.35 773.05 1752.85 773.05 1758.85 773.05 1774.35 773.05 1780.35 773.05 1795.85 773.05 1801.85 773.05 1815.35 773.05 1815.35 766 1801.85 766 1795.85 766 1780.35 766 1774.35 766 1758.85 766 1752.85 766 1739.35 766 1733.35 766 1712.5 766 1706.5 766 1685.65 766 1679.65 766 1679.65 772 Z"/>

<path fill="#7D8894" stroke="none" d="
M 711.1 716.75
L 711.1 772 711.1 926.05 742.1 926.05 742.1 877.8 742.1 858.7 742.1 851.65 742.1 832.5 742.1 825.45 742.1 805 742.1 797.95 742.1 774.3 742.1 767.25 742.1 744.25 742.1 716.75 711.1 716.75
M 1815.35 743
L 1815.35 766 1815.35 773.05 1815.35 796.7 1815.35 803.75 1815.35 824.2 1815.35 831.25 1815.35 850.4 1815.35 857.45 1815.35 876.55 1815.35 922.05 1846.35 922.05 1846.35 772 1846.35 715.5 1815.35 715.5 1815.35 743 Z"/>
</g>
</defs>

<g transform="matrix( 1, 0, 0, 1, 0,0) ">
<use xlink:href="#Layer0_0_FILL"/>
</g>
</svg>
