
<svg xmlns="http://www.w3.org/2000/svg" version="1.1" xmlns:xlink="http://www.w3.org/1999/xlink" preserveAspectRatio="none" x="0px" y="0px" width="2520px" height="1456px" viewBox="0 0 2520 1456">
<defs>
<g id="Layer0_0_FILL">
<path fill="#13191D" stroke="none" d="
M 1236.8 882
L 1236.8 795.95 1203.05 795.95 1203.05 809.6 1203.05 882 1236.8 882
M 1302 882
L 1302 795.95 1257.2 795.95 1257.2 882 1302 882
M 1357.65 809.6
L 1357.65 795.95 1324.4 795.95 1324.4 882 1357.65 882 1357.65 809.6 Z"/>

<path fill="#0E1215" stroke="none" d="
M 1257.2 795.95
L 1236.8 795.95 1236.8 882 1257.2 882 1257.2 795.95
M 1324.4 795.95
L 1302 795.95 1302 882 1324.4 882 1324.4 795.95 Z"/>

<path fill="#35424B" stroke="none" d="
M 1357.65 889.65
L 1357.65 889.15 1203.05 889.15 1203.05 889.65 1203.05 916.55 1357.65 916.55 1357.65 889.65 Z"/>

<path fill="#263037" stroke="none" d="
M 1324.4 882
L 1302 882 1257.2 882 1236.8 882 1203.05 882 1203.05 889.15 1357.65 889.15 1357.65 882 1324.4 882 Z"/>
</g>
</defs>

<g transform="matrix( 1, 0, 0, 1, 0,0) ">
<use xlink:href="#Layer0_0_FILL"/>
</g>
</svg>
