
<svg xmlns="http://www.w3.org/2000/svg" version="1.1" xmlns:xlink="http://www.w3.org/1999/xlink" preserveAspectRatio="none" x="0px" y="0px" width="2520px" height="1456px" viewBox="0 0 2520 1456">
<defs>
<g id="Layer0_0_FILL">
<path fill="#7D8894" stroke="none" d="
M 942.2 621.75
L 823.2 621.75 823.2 772 823.2 925.55 942.2 925.55 942.2 772 942.2 621.75
M 910.25 645.35
L 910.25 679.25 877.25 679.25 877.25 645.35 910.25 645.35
M 877.25 734.45
L 877.25 700.55 910.25 700.55 910.25 734.45 877.25 734.45
M 877.25 764
L 910.25 764 910.25 797.9 877.25 797.9 877.25 764
M 910.25 827.55
L 910.25 861.45 877.25 861.45 877.25 827.55 910.25 827.55
M 1614.35 620.5
L 1614.35 772 1614.35 921.95 1733.35 921.95 1733.35 772 1733.35 620.5 1614.35 620.5
M 1646.3 644.1
L 1646.3 644 1679.3 644 1679.3 644.1 1679.3 678 1646.3 678 1646.3 644.1
M 1679.3 699.3
L 1679.3 733.2 1646.3 733.2 1646.3 699.3 1679.3 699.3
M 1646.3 762.75
L 1679.3 762.75 1679.3 796.65 1646.3 796.65 1646.3 762.75
M 1679.3 826.3
L 1679.3 860.2 1646.3 860.2 1646.3 826.3 1679.3 826.3 Z"/>

<path fill="#D03F33" stroke="none" d="
M 910.25 861.45
L 910.25 827.55 877.25 827.55 877.25 861.45 910.25 861.45
M 907.4 831
L 907.4 858 880 858 880 831 907.4 831
M 910.25 764
L 877.25 764 877.25 797.9 910.25 797.9 910.25 764
M 880 767.45
L 907.4 767.45 907.4 794.45 880 794.45 880 767.45
M 877.25 700.55
L 877.25 734.45 910.25 734.45 910.25 700.55 877.25 700.55
M 880 731
L 880 704 907.4 704 907.4 731 880 731
M 910.25 679.25
L 910.25 645.35 877.25 645.35 877.25 679.25 910.25 679.25
M 907.4 648.8
L 907.4 675.8 880 675.8 880 648.8 907.4 648.8
M 1679.3 860.2
L 1679.3 826.3 1646.3 826.3 1646.3 860.2 1679.3 860.2
M 1676.55 829.75
L 1676.55 856.75 1649.15 856.75 1649.15 829.75 1676.55 829.75
M 1679.3 762.75
L 1646.3 762.75 1646.3 796.65 1679.3 796.65 1679.3 762.75
M 1649.15 766.2
L 1676.55 766.2 1676.55 793.2 1649.15 793.2 1649.15 766.2
M 1679.3 733.2
L 1679.3 699.3 1646.3 699.3 1646.3 733.2 1679.3 733.2
M 1676.55 702.75
L 1676.55 729.75 1649.15 729.75 1649.15 702.75 1676.55 702.75
M 1646.3 644.1
L 1646.3 678 1679.3 678 1679.3 644.1 1646.3 644.1
M 1649.15 674.55
L 1649.15 647.55 1676.55 647.55 1676.55 674.55 1649.15 674.55 Z"/>

<path fill="#BFBF36" stroke="none" d="
M 907.4 858
L 907.4 831 880 831 880 858 907.4 858
M 895.6 834.5
L 904.95 834.5 904.95 842.25 895.6 842.25 895.6 834.5
M 891.65 846.25
L 891.65 855 882.45 855 882.45 846.25 891.65 846.25
M 904.95 846.25
L 904.95 855 895.6 855 895.6 846.25 904.95 846.25
M 891.65 834.5
L 891.65 842.25 882.45 842.25 882.45 834.5 891.65 834.5
M 907.4 767.45
L 880 767.45 880 794.45 907.4 794.45 907.4 767.45
M 882.45 791.45
L 882.45 782.7 891.65 782.7 891.65 791.45 882.45 791.45
M 882.45 778.7
L 882.45 770.95 891.65 770.95 891.65 778.7 882.45 778.7
M 904.95 770.95
L 904.95 778.7 895.6 778.7 895.6 770.95 904.95 770.95
M 895.6 791.45
L 895.6 782.7 904.95 782.7 904.95 791.45 895.6 791.45
M 880 704
L 880 731 907.4 731 907.4 704 880 704
M 882.45 728
L 882.45 719.25 891.65 719.25 891.65 728 882.45 728
M 882.45 715.25
L 882.45 707.5 891.65 707.5 891.65 715.25 882.45 715.25
M 904.95 707.5
L 904.95 715.25 895.6 715.25 895.6 707.5 904.95 707.5
M 904.95 719.25
L 904.95 728 895.6 728 895.6 719.25 904.95 719.25
M 907.4 675.8
L 907.4 648.8 880 648.8 880 675.8 907.4 675.8
M 891.65 652.3
L 891.65 660.05 882.45 660.05 882.45 652.3 891.65 652.3
M 904.95 652.3
L 904.95 660.05 895.6 660.05 895.6 652.3 904.95 652.3
M 895.6 664.05
L 904.95 664.05 904.95 672.8 895.6 672.8 895.6 664.05
M 891.65 664.05
L 891.65 672.8 882.45 672.8 882.45 664.05 891.65 664.05
M 1676.55 856.75
L 1676.55 829.75 1649.15 829.75 1649.15 856.75 1676.55 856.75
M 1674.1 833.25
L 1674.1 841 1664.9 841 1664.9 833.25 1674.1 833.25
M 1660.95 833.25
L 1660.95 841 1651.6 841 1651.6 833.25 1660.95 833.25
M 1651.6 853.75
L 1651.6 845 1660.95 845 1660.95 853.75 1651.6 853.75
M 1674.1 853.75
L 1664.9 853.75 1664.9 845 1674.1 845 1674.1 853.75
M 1676.55 766.2
L 1649.15 766.2 1649.15 793.2 1676.55 793.2 1676.55 766.2
M 1651.6 790.2
L 1651.6 781.45 1660.95 781.45 1660.95 790.2 1651.6 790.2
M 1651.6 777.45
L 1651.6 769.7 1660.95 769.7 1660.95 777.45 1651.6 777.45
M 1674.1 769.7
L 1674.1 777.45 1664.9 777.45 1664.9 769.7 1674.1 769.7
M 1664.9 790.2
L 1664.9 781.45 1674.1 781.45 1674.1 790.2 1664.9 790.2
M 1676.55 729.75
L 1676.55 702.75 1649.15 702.75 1649.15 729.75 1676.55 729.75
M 1664.9 706.25
L 1674.1 706.25 1674.1 714 1664.9 714 1664.9 706.25
M 1660.95 706.25
L 1660.95 714 1651.6 714 1651.6 706.25 1660.95 706.25
M 1660.95 718
L 1660.95 726.75 1651.6 726.75 1651.6 718 1660.95 718
M 1674.1 718
L 1674.1 726.75 1664.9 726.75 1664.9 718 1674.1 718
M 1649.15 647.55
L 1649.15 674.55 1676.55 674.55 1676.55 647.55 1649.15 647.55
M 1651.6 671.55
L 1651.6 662.8 1660.95 662.8 1660.95 671.55 1651.6 671.55
M 1651.6 658.8
L 1651.6 651.05 1660.95 651.05 1660.95 658.8 1651.6 658.8
M 1674.1 651.05
L 1674.1 658.8 1664.9 658.8 1664.9 651.05 1674.1 651.05
M 1664.9 662.8
L 1674.1 662.8 1674.1 671.55 1664.9 671.55 1664.9 662.8 Z"/>

<path fill="#0E0E0E" stroke="none" d="
M 891.65 842.25
L 891.65 834.5 882.45 834.5 882.45 842.25 891.65 842.25
M 904.95 855
L 904.95 846.25 895.6 846.25 895.6 855 904.95 855
M 891.65 855
L 891.65 846.25 882.45 846.25 882.45 855 891.65 855
M 904.95 834.5
L 895.6 834.5 895.6 842.25 904.95 842.25 904.95 834.5
M 895.6 782.7
L 895.6 791.45 904.95 791.45 904.95 782.7 895.6 782.7
M 904.95 778.7
L 904.95 770.95 895.6 770.95 895.6 778.7 904.95 778.7
M 882.45 770.95
L 882.45 778.7 891.65 778.7 891.65 770.95 882.45 770.95
M 882.45 782.7
L 882.45 791.45 891.65 791.45 891.65 782.7 882.45 782.7
M 904.95 728
L 904.95 719.25 895.6 719.25 895.6 728 904.95 728
M 904.95 715.25
L 904.95 707.5 895.6 707.5 895.6 715.25 904.95 715.25
M 882.45 707.5
L 882.45 715.25 891.65 715.25 891.65 707.5 882.45 707.5
M 882.45 719.25
L 882.45 728 891.65 728 891.65 719.25 882.45 719.25
M 891.65 672.8
L 891.65 664.05 882.45 664.05 882.45 672.8 891.65 672.8
M 904.95 664.05
L 895.6 664.05 895.6 672.8 904.95 672.8 904.95 664.05
M 904.95 660.05
L 904.95 652.3 895.6 652.3 895.6 660.05 904.95 660.05
M 891.65 660.05
L 891.65 652.3 882.45 652.3 882.45 660.05 891.65 660.05
M 1664.9 853.75
L 1674.1 853.75 1674.1 845 1664.9 845 1664.9 853.75
M 1651.6 845
L 1651.6 853.75 1660.95 853.75 1660.95 845 1651.6 845
M 1660.95 841
L 1660.95 833.25 1651.6 833.25 1651.6 841 1660.95 841
M 1674.1 841
L 1674.1 833.25 1664.9 833.25 1664.9 841 1674.1 841
M 1664.9 781.45
L 1664.9 790.2 1674.1 790.2 1674.1 781.45 1664.9 781.45
M 1674.1 777.45
L 1674.1 769.7 1664.9 769.7 1664.9 777.45 1674.1 777.45
M 1651.6 769.7
L 1651.6 777.45 1660.95 777.45 1660.95 769.7 1651.6 769.7
M 1651.6 781.45
L 1651.6 790.2 1660.95 790.2 1660.95 781.45 1651.6 781.45
M 1674.1 726.75
L 1674.1 718 1664.9 718 1664.9 726.75 1674.1 726.75
M 1660.95 726.75
L 1660.95 718 1651.6 718 1651.6 726.75 1660.95 726.75
M 1660.95 714
L 1660.95 706.25 1651.6 706.25 1651.6 714 1660.95 714
M 1674.1 706.25
L 1664.9 706.25 1664.9 714 1674.1 714 1674.1 706.25
M 1674.1 662.8
L 1664.9 662.8 1664.9 671.55 1674.1 671.55 1674.1 662.8
M 1674.1 658.8
L 1674.1 651.05 1664.9 651.05 1664.9 658.8 1674.1 658.8
M 1651.6 651.05
L 1651.6 658.8 1660.95 658.8 1660.95 651.05 1651.6 651.05
M 1651.6 662.8
L 1651.6 671.55 1660.95 671.55 1660.95 662.8 1651.6 662.8 Z"/>
</g>
</defs>

<g transform="matrix( 1, 0, 0, 1, 0,0) ">
<use xlink:href="#Layer0_0_FILL"/>
</g>
</svg>
