
<svg xmlns="http://www.w3.org/2000/svg" version="1.1" xmlns:xlink="http://www.w3.org/1999/xlink" preserveAspectRatio="none" x="0px" y="0px" width="2520px" height="1456px" viewBox="0 0 2520 1456">
<defs>
<g id="Layer0_0_FILL">
<path fill="#981E1E" stroke="none" d="
M 1248.45 812.85
L 1243.6 812.85 1243.6 824.4 1248.45 824.4 1248.45 812.85
M 1266.9 812.85
L 1263.6 812.85 1263.6 824.4 1266.9 824.4 1266.9 812.85
M 1274.65 812.85
L 1271.25 812.85 1271.25 824.4 1274.65 824.4 1274.65 812.85
M 1291.5 812.85
L 1287.7 812.85 1287.7 824.4 1291.5 824.4 1291.5 812.85
M 1318.1 824.4
L 1318.1 812.85 1313.35 812.85 1313.35 824.4 1318.1 824.4
M 1248.45 809.9
L 1248.45 801.95 1243.6 801.95 1243.6 809.9 1248.45 809.9
M 1266.9 801.95
L 1263.6 801.95 1263.6 809.9 1266.9 809.9 1266.9 801.95
M 1248.45 793.6
L 1248.45 793.5 1243.6 793.5 1243.6 798.9 1248.45 798.9 1248.45 793.6
M 1266.9 798.9
L 1266.9 793.5 1263.6 793.5 1263.6 793.6 1263.6 798.9 1266.9 798.9
M 1274.65 801.95
L 1271.25 801.95 1271.25 809.9 1274.65 809.9 1274.65 801.95
M 1291.5 801.95
L 1287.7 801.95 1287.7 809.9 1291.5 809.9 1291.5 801.95
M 1274.65 793.6
L 1274.65 793.5 1271.25 793.5 1271.25 798.9 1274.65 798.9 1274.65 793.6
M 1287.7 793.6
L 1287.7 798.9 1291.5 798.9 1291.5 793.5 1287.7 793.5 1287.7 793.6
M 1299.75 798.9
L 1299.75 793.6 1299.75 793.5 1296 793.5 1296 798.9 1299.75 798.9
M 1318.1 798.9
L 1318.1 793.6 1313.35 793.6 1313.35 798.9 1318.1 798.9
M 1299.75 801.95
L 1296 801.95 1296 809.9 1299.75 809.9 1299.75 801.95
M 1318.1 809.9
L 1318.1 801.95 1313.35 801.95 1313.35 809.9 1318.1 809.9
M 1299.75 812.85
L 1296 812.85 1296 824.4 1299.75 824.4 1299.75 812.85 Z"/>

<path fill="#0E0E0E" stroke="none" d="
M 1263.6 824.4
L 1263.6 812.85 1248.45 812.85 1248.45 824.4 1263.6 824.4
M 1287.7 812.85
L 1274.65 812.85 1274.65 824.4 1287.7 824.4 1287.7 812.85
M 1313.35 812.85
L 1299.75 812.85 1299.75 824.4 1313.35 824.4 1313.35 812.85
M 1263.6 809.9
L 1263.6 801.95 1248.45 801.95 1248.45 809.9 1263.6 809.9
M 1263.6 798.9
L 1263.6 793.6 1248.45 793.6 1248.45 798.9 1263.6 798.9
M 1287.7 809.9
L 1287.7 801.95 1274.65 801.95 1274.65 809.9 1287.7 809.9
M 1287.7 798.9
L 1287.7 793.6 1274.65 793.6 1274.65 798.9 1287.7 798.9
M 1313.35 798.9
L 1313.35 793.6 1299.75 793.6 1299.75 798.9 1313.35 798.9
M 1313.35 801.95
L 1299.75 801.95 1299.75 809.9 1313.35 809.9 1313.35 801.95 Z"/>

<path fill="#66798F" stroke="none" d="
M 1197.6 774.95
Q 1176.5 774.95 1176.5 774.35
L 1176.5 782.85 1176.5 786.8 1176.5 799.85 1176.5 809.65 1176.5 818.8 1176.5 918.55 1208.5 918.55 1225.55 918.55 1225.55 824.4
Q 1225.53671875 825 1222.15 825 1218.7 825 1218.7 824.4
L 1218.7 774.35
Q 1218.7 774.95 1197.6 774.95
M 1218.75 918.35
L 1218.3 918.35 1218.3 918.05 1218.75 918.35
M 1362.25 774.55
Q 1340.25 774.55 1340.25 773.95
L 1340.25 824.4
Q 1340.25 825 1337.7 825 1335.169921875 825 1335.15 824.4
L 1335.15 917.95 1344.55 918.15 1384.2 918.15 1384.2 818.4 1384.2 809.25 1384.2 799.45 1384.2 773.95
Q 1384.2 774.55 1362.25 774.55 Z"/>

<path fill="#35424B" stroke="none" d="
M 1218.3 918.35
L 1218.75 918.35 1218.3 918.05 1218.3 918.35 Z"/>

<path fill="#D03F33" stroke="none" d="
M 1296 812.85
L 1299.75 812.85 1313.35 812.85 1318.1 812.85 1318.1 824.4 1321.2 824.4 1321.2 789.55 1240.45 789.55 1240.45 824.4 1243.6 824.4 1243.6 812.85 1248.45 812.85 1263.6 812.85 1266.9 812.85 1266.9 824.4 1271.25 824.4 1271.25 812.85 1274.65 812.85 1287.7 812.85 1291.5 812.85 1291.5 824.4 1296 824.4 1296 812.85
M 1318.1 801.95
L 1318.1 809.9 1313.35 809.9 1299.75 809.9 1296 809.9 1296 801.95 1299.75 801.95 1313.35 801.95 1318.1 801.95
M 1318.1 793.6
L 1318.1 798.9 1313.35 798.9 1299.75 798.9 1296 798.9 1296 793.5 1299.75 793.5 1299.75 793.6 1313.35 793.6 1318.1 793.6
M 1291.5 798.9
L 1287.7 798.9 1274.65 798.9 1271.25 798.9 1271.25 793.5 1274.65 793.5 1274.65 793.6 1287.7 793.6 1287.7 793.5 1291.5 793.5 1291.5 798.9
M 1287.7 801.95
L 1291.5 801.95 1291.5 809.9 1287.7 809.9 1274.65 809.9 1271.25 809.9 1271.25 801.95 1274.65 801.95 1287.7 801.95
M 1266.9 793.5
L 1266.9 798.9 1263.6 798.9 1248.45 798.9 1243.6 798.9 1243.6 793.5 1248.45 793.5 1248.45 793.6 1263.6 793.6 1263.6 793.5 1266.9 793.5
M 1263.6 801.95
L 1266.9 801.95 1266.9 809.9 1263.6 809.9 1248.45 809.9 1243.6 809.9 1243.6 801.95 1248.45 801.95 1263.6 801.95 Z"/>

<path fill="#F2F253" stroke="none" d="
M 1340.25 773.95
L 1340.25 772 1340.25 754 1218.7 754 1218.7 774.35 1218.7 824.4
Q 1218.7 825 1222.15 825 1225.53671875 825 1225.55 824.4 1225.55 825 1233 825 1240.45 825 1240.45 824.4
L 1240.45 789.55 1321.2 789.55 1321.2 824.4
Q 1321.2 825 1328.2 825 1335.15 825 1335.15 824.4 1335.169921875 825 1337.7 825 1340.25 825 1340.25 824.4
L 1340.25 773.95 Z"/>
</g>
</defs>

<g transform="matrix( 1, 0, 0, 1, 0,0) ">
<use xlink:href="#Layer0_0_FILL"/>
</g>

<g transform="matrix( 0.145538330078125, 0, 0, 0.1733551025390625, 1227.9,766.5) ">
<clipPath id="Mask_Mask_1">
<rect x="-2" y="-2" width="742.9" height="113.2" fill="#FFFFFF" stroke="none"/>
</clipPath>

<text clip-path="url(#Mask_Mask_1)" writing-mode="lr"><tspan x="0.1" y="43.45" baseline-shift="0%" font-family="Arial" font-weight="bold" font-size="48" fill="#000000" xml:space="preserve">GOVT. ENGINEERING COLLEGE</tspan><tspan x="246.8" y="99.05" baseline-shift="0%" font-family="Arial" font-weight="bold" font-size="48" fill="#000000" xml:space="preserve">THRISSUR</tspan></text>
</g>
</svg>
