
<svg xmlns="http://www.w3.org/2000/svg" version="1.1" xmlns:xlink="http://www.w3.org/1999/xlink" preserveAspectRatio="none" x="0px" y="0px" width="2520px" height="1456px" viewBox="0 0 2520 1456">
<defs>
<g id="Layer0_0_FILL">
<path fill="#D03F33" stroke="none" d="
M 1200.6 901.5
Q 1196.75 906.5 1192.9 912
L 1192.9 922.85 1200.6 922.85 1200.6 901.5
M 1204.15 922.85
L 1211.6 922.85 1211.6 888.4
Q 1207.8 892.4 1204.15 897
L 1204.15 922.85
M 1346.95 922.85
L 1354.15 922.85 1354.15 896.65
Q 1350.5 892.5 1346.95 888.7
L 1346.95 922.85
M 1366.3 911.45
Q 1362.2 906.1 1358.15 901.3
L 1358.15 922.85 1366.3 922.85 1366.3 911.45
M 1385.65 827.35
L 1385.65 818.4 1175.45 818.4 1175.45 827.35 1193.9 827.35 1193.9 830.8 1193.7 830.8 1193.7 884.8
Q 1181.25 901.25 1169.7 922.85
L 1175.7 922.85
Q 1177.05 920.35 1183.9 909.1 1187.35 903.35 1192.25 895.4 1192.95 894.2 1193.7 893 1195.25 890.75 1199.8 884.9 1201.85 882.25 1203.2 880.6 1204.35 879.1 1204.95 878.35 1208.6 874.05 1212.4 870.25 1213.35 869.25 1217.95 865.15 1218.45 864.65 1219.05 864.1 1225.8 858.05 1229 855.8 1229.2 855.55 1229.25 855.6 1233.75 852.3 1238.4 849.7 1243.5 846.75 1248.75 844.55
L 1249.1 844.4
Q 1252.9 842.8 1261 840.3 1261.8 840.1 1266.15 839.2 1270.45 838.35 1274.25 838.1 1278 837.85 1279.75 837.85 1280.05 837.8 1280.35 837.85 1288 837.95 1295.5 839.7
L 1298.1 840.3
Q 1298.25 840.3 1298.45 840.35 1305.85 842.2 1313.15 845.65 1313.25 845.6 1315.35 846.7 1315.5 846.75 1315.65 846.85 1317.1 847.6 1319.05 848.75 1323.2 851.15 1329.6 855.35
L 1331.05 856.6
Q 1331.15 856.65 1331.3 856.75 1332.2 857.45 1333.45 858.45 1335.4 860.05 1338.25 862.4 1342.5 866 1342.5 866.1
L 1342.4 866.15
Q 1342.9 866.6 1343.4 867.1 1343.5 867.15 1343.65 867.3 1345.3 868.8 1346.9 870.5 1347.35 870.95 1347.75 871.4 1351.1 874.85 1354.5 878.7 1354.5 878.65 1354.65 878.7
L 1354.95 879.35
Q 1355.15 879.6 1355.4 879.85 1355.5 880 1355.65 880.1 1357.25 882.05 1358.85 884.05
L 1360.6 882.8 1358.85 884.05
Q 1358.9 884.1 1358.95 884.15 1361.35 887.1 1363.8 890.3 1363.8 890.25 1364.7 891.5 1364.8 891.6 1364.9 891.75 1366 893.25 1367.1 894.8 1368.2 896.35 1369.35 897.95 1372.25 902.15 1375.15 906.6
L 1375.65 907.5
Q 1375.75 907.65 1375.85 907.85 1376.25 908.45 1376.65 909.1
L 1378.65 912.35
Q 1378.622265625 912.3171875 1378.6 912.25 1381.75 917.35 1384.8 922.85
L 1390.5 922.85
Q 1379.05 902.65 1367.1 886.85
L 1367.1 827.35 1385.65 827.35
M 1355.15 831.85
L 1354.95 831.85 1354.95 827.35 1358.95 827.35 1358.95 876.75
Q 1357 874.45 1354.95 872.25
L 1354.95 859.1 1355.15 859.1 1355.15 831.85
M 1347.75 827.35
L 1347.75 864.7
Q 1314.05 831.4 1276.7 831.85 1242.4 834.3 1212.55 863.3
L 1212.55 831.85 1212.4 831.85 1212.4 827.35 1347.75 827.35
M 1201.4 827.35
L 1204.95 827.35 1204.95 871.15
Q 1203.2 873.1 1201.4 875.25
L 1201.4 827.35 Z"/>

<path fill="#FFFFFF" stroke="none" d="
M 1187.4 910.85
L 1183.9 909.1
Q 1177.05 920.35 1175.7 922.85
L 1179.95 922.85
Q 1181.35 920.35 1186.25 912.65 1186.85 911.7 1187.4 910.85
M 1183.9 909.1
L 1187.4 910.85
Q 1191.35 904.65 1192.9 902.5 1193.3 901.9 1196 898.3
L 1192.25 895.4
Q 1187.35 903.35 1183.9 909.1
M 1207.4 884.45
L 1203.2 880.6
Q 1201.85 882.25 1199.8 884.9 1195.25 890.75 1193.7 893 1192.95 894.2 1192.25 895.4
L 1196 898.3
Q 1196.05 898.2 1196.15 898.1 1199.2 894.05 1200.6 892.35 1202.4 890.1 1204.15 888.05 1205.5 886.55 1207.25 884.6 1207.3 884.5 1207.4 884.45
M 1221.45 871.5
Q 1221.95 871.1 1222.45 870.7
L 1217.95 865.15
Q 1213.35 869.25 1212.4 870.25 1208.6 874.05 1204.95 878.35 1204.35 879.1 1203.2 880.6
L 1207.4 884.45
Q 1210.35 881.2 1211.6 880 1213.75 877.85 1221.45 871.5
M 1242.3 857.4
L 1238.4 849.7
Q 1233.75 852.3 1229.25 855.6 1229.2 855.55 1229 855.8 1225.8 858.05 1219.05 864.1 1218.45 864.65 1217.95 865.15
L 1222.45 870.7
Q 1230 864.55 1233.05 862.65 1233.35 862.45 1233.3 862.45 1237.7 859.6 1242.3 857.4
M 1238.4 849.7
L 1242.3 857.4
Q 1247.15 855.05 1249.7 854.25 1252.2 853.4 1253.7 852.85 1255.15 852.3 1264 850.15
L 1261 840.3
Q 1252.9 842.8 1249.1 844.4
L 1248.75 844.55
Q 1243.5 846.75 1238.4 849.7
M 1280.35 837.85
Q 1280.05 837.8 1279.75 837.85
L 1279.75 848.7
Q 1285.5 848.75 1288.45 849.25 1291.4 849.75 1291.45 849.8 1291.45 849.85 1294.25 850.45
L 1298.1 840.3 1295.5 839.7
Q 1288 837.95 1280.35 837.85
M 1266.15 839.2
Q 1261.8 840.1 1261 840.3
L 1264 850.15
Q 1264.9 849.95 1266.45 849.65 1267.95 849.3 1270.7 849.05 1273.45 848.8 1275.65 848.75 1277.8 848.65 1279.75 848.7
L 1279.75 837.85
Q 1278 837.85 1274.25 838.1 1270.45 838.35 1266.15 839.2
M 1376.65 909.1
L 1372.65 910.75 1374.55 913.5
Q 1378.9 919.8 1380.85 922.85
L 1384.8 922.85
Q 1381.75 917.35 1378.6 912.25 1378.622265625 912.3171875 1378.65 912.35
L 1376.65 909.1
M 1364.65 900.1
Q 1365.4 901.05 1366.3 902.1 1368.55 904.95 1370.75 908
L 1372.65 910.75 1376.65 909.1
Q 1376.25 908.45 1375.85 907.85 1375.75 907.65 1375.65 907.5
L 1375.15 906.6
Q 1372.25 902.15 1369.35 897.95
L 1364.65 900.1
M 1353.9 887.45
Q 1354.05 887.55 1354.15 887.7 1356.2 889.85 1358.15 892.15 1358.45 892.5 1358.8 892.9 1358.75 892.95 1364.65 900.1
L 1369.35 897.95
Q 1368.2 896.35 1367.1 894.8 1366 893.25 1364.9 891.75 1364.8 891.6 1364.7 891.5 1363.8 890.25 1363.8 890.3 1361.35 887.1 1358.95 884.15 1358.9 884.1 1358.85 884.05
L 1353.9 887.45
M 1347.75 871.4
Q 1347.35 870.95 1346.9 870.5
L 1341.4 875.3
Q 1345.1 878.5 1346.95 880.3 1347.8 881 1348.6 881.8 1348.5 881.9 1353.9 887.45
L 1358.85 884.05
Q 1357.25 882.05 1355.65 880.1 1355.5 880 1355.4 879.85 1355.15 879.6 1354.95 879.35
L 1354.65 878.7
Q 1354.5 878.65 1354.5 878.7 1351.1 874.85 1347.75 871.4
M 1333.45 858.45
L 1327.85 864.8
Q 1333.05 868.3 1335.45 870.2
L 1335.45 870.25 1339.8 873.95
Q 1340.65 874.65 1341.4 875.3
L 1346.9 870.5
Q 1345.3 868.8 1343.65 867.3 1343.5 867.15 1343.4 867.1 1342.9 866.6 1342.4 866.15
L 1342.5 866.1
Q 1342.5 866 1338.25 862.4 1335.4 860.05 1333.45 858.45
M 1327.85 864.8
L 1333.45 858.45
Q 1332.2 857.45 1331.3 856.75 1331.15 856.65 1331.05 856.6
L 1329.6 855.35
Q 1323.2 851.15 1319.05 848.75
L 1313.4 856.75
Q 1320.05 859.75 1323.25 861.7
L 1327.85 864.8
M 1298.45 840.35
Q 1298.25 840.3 1298.1 840.3
L 1294.25 850.45
Q 1295.5 850.75 1297.35 851.15 1304.2 852.75 1307.4 853.95 1307.35 854 1307.4 854.1
L 1313.4 856.75 1319.05 848.75
Q 1317.1 847.6 1315.65 846.85 1315.5 846.75 1315.35 846.7 1313.25 845.6 1313.15 845.65 1305.85 842.2 1298.45 840.35 Z"/>

<path fill="#B7362B" stroke="none" d="
M 1327.85 864.8
L 1323.25 861.7
Q 1320.05 859.75 1313.4 856.75
L 1307.4 854.1
Q 1307.35 854 1307.4 853.95 1304.2 852.75 1297.35 851.15 1295.5 850.75 1294.25 850.45 1291.45 849.85 1291.45 849.8 1291.4 849.75 1288.45 849.25 1285.5 848.75 1279.75 848.7 1277.8 848.65 1275.65 848.75 1273.45 848.8 1270.7 849.05 1267.95 849.3 1266.45 849.65 1264.9 849.95 1264 850.15 1255.15 852.3 1253.7 852.85 1252.2 853.4 1249.7 854.25 1247.15 855.05 1242.3 857.4 1237.7 859.6 1233.3 862.45 1233.35 862.45 1233.05 862.65 1230 864.55 1222.45 870.7 1221.95 871.1 1221.45 871.5 1213.75 877.85 1211.6 880 1210.35 881.2 1207.4 884.45 1207.3 884.5 1207.25 884.6 1205.5 886.55 1204.15 888.05 1202.4 890.1 1200.6 892.35 1199.2 894.05 1196.15 898.1 1196.05 898.2 1196 898.3 1193.3 901.9 1192.9 902.5 1191.35 904.65 1187.4 910.85 1186.85 911.7 1186.25 912.65 1181.35 920.35 1179.95 922.85
L 1185.65 922.85
Q 1189.25 917.15 1192.9 912 1196.75 906.5 1200.6 901.5 1202.4 899.2 1204.15 897 1207.8 892.4 1211.6 888.4 1242.4 854.35 1278.55 854.35 1313.95 854.2 1346.95 888.7 1350.5 892.5 1354.15 896.65 1356.15 898.85 1358.15 901.3 1362.2 906.1 1366.3 911.45 1370.5 916.9 1374.65 922.85
L 1380.85 922.85
Q 1378.9 919.8 1374.55 913.5
L 1372.65 910.75 1370.75 908
Q 1368.55 904.95 1366.3 902.1 1365.4 901.05 1364.65 900.1 1358.75 892.95 1358.8 892.9 1358.45 892.5 1358.15 892.15 1356.2 889.85 1354.15 887.7 1354.05 887.55 1353.9 887.45 1348.5 881.9 1348.6 881.8 1347.8 881 1346.95 880.3 1345.1 878.5 1341.4 875.3 1340.65 874.65 1339.8 873.95
L 1335.45 870.25 1335.45 870.2
Q 1333.05 868.3 1327.85 864.8 Z"/>
</g>

<path id="Layer0_0_1_STROKES" stroke="#999999" stroke-width="1" stroke-linejoin="round" stroke-linecap="round" fill="none" d="
M 1380.85 922.85
L 1384.8 922.85
M 1175.7 922.85
L 1179.95 922.85
M 1358.85 884.05
L 1360.6 882.8
M 1327.85 864.8
L 1333.45 858.45
M 1341.4 875.3
L 1346.9 870.5
M 1313.4 856.75
L 1319.05 848.75
M 1364.65 900.1
L 1369.35 897.95
M 1353.9 887.45
L 1358.85 884.05
M 1372.65 910.75
L 1376.65 909.1
M 1238.4 849.7
L 1242.3 857.4
M 1264 850.15
L 1261 840.3
M 1217.95 865.15
L 1222.45 870.7
M 1294.25 850.45
L 1298.1 840.3
M 1279.75 837.85
L 1279.75 848.7
M 1203.2 880.6
L 1207.4 884.45
M 1183.9 909.1
L 1187.4 910.85
M 1192.25 895.4
L 1196 898.3"/>
</defs>

<g transform="matrix( 1, 0, 0, 1, 0,0) ">
<use xlink:href="#Layer0_0_FILL"/>

<use xlink:href="#Layer0_0_1_STROKES"/>
</g>
</svg>
