
<svg xmlns="http://www.w3.org/2000/svg" version="1.1" xmlns:xlink="http://www.w3.org/1999/xlink" preserveAspectRatio="none" x="0px" y="0px" width="143px" height="57px" viewBox="0 0 143 57">
<defs>
<g id="Layer0_0_FILL">
<path fill="#FFFFFF" stroke="none" d="
M 137.45 41.65
Q 135.5 41.65 134.85 42.1 134.2 42.5 131.7 44.9 133.65 40.2 133.25 38.45 132.6 35.65 130.95 33.8 121.95 23.45 110.4 37.5 109.5 32.6 109.45 32.4 109 26.95 105.35 22.8 97.6 14 85.85 25 87.5 14.55 84.7 10.75 80.35 4.85 72.35 6.75 70.5 7.45 68.65 8.85 65.4 11.5 63.2 19.65 63.35 12.65 62.1 10.45 59.35 5.45 54.95 2.7 52 0.85 48.35 0 35 1.75 31.7 14.45 29.85 21.55 34.15 30 28.9 26.15 24.6 24.9 20.25 23.6 15.85 25.25 11.5 26.8 8.75 30.85 7.85 32.2 7.6 33.85 6.9 38.8 10.45 42.35 9.95 42.25 9.35 42.3 8.1 42.35 6.85 42.25 1.45 43.55 0.25 48.2 -1 52.85 4.15 57.05
L 133.95 57.05
Q 142.4 56.4 143.7 49.7 144.95 42.95 137.45 41.65 Z"/>
</g>
</defs>

<g transform="matrix( 1, 0, 0, 1, 0,0) ">
<use xlink:href="#Layer0_0_FILL"/>
</g>
</svg>
