
<svg xmlns="http://www.w3.org/2000/svg" version="1.1" xmlns:xlink="http://www.w3.org/1999/xlink" preserveAspectRatio="none" x="0px" y="0px" width="1000px" height="500px" viewBox="0 0 1000 500">
<defs>
<g id="Tween_10_0_Layer0_0_FILL">
<path fill="#333333" stroke="none" d="
M 177.05 314.05
L 177.05 330.05 193.05 330.05 193.05 314.05 177.05 314.05
M 177.05 257.6
L 177.05 273.6 193.05 273.6 193.05 257.6 177.05 257.6
M 193.05 284.55
L 177.05 284.55 177.05 300.55 193.05 300.55 193.05 284.55
M 829.95 312.5
L 829.95 328.5 845.95 328.5 845.95 312.5 829.95 312.5
M 829.95 256.05
L 829.95 272.05 845.95 272.05 845.95 256.05 829.95 256.05
M 845.95 283
L 829.95 283 829.95 299 845.95 299 845.95 283 Z"/>
</g>

<g id="Tween_8_0_Layer0_0_FILL">
<path fill="#333333" stroke="none" d="
M 232.65 215.65
L 232.65 228.3 240.8 228.3 240.8 215.65 232.65 215.65
M 232.9 232.6
L 232.9 245.25 241.05 245.25 241.05 232.6 232.9 232.6
M 257.95 215.65
L 257.95 228.3 266.1 228.3 266.1 215.65 257.95 215.65
M 270.55 232.6
L 270.55 245.25 278.7 245.25 278.7 232.6 270.55 232.6
M 245.25 232.6
L 245.25 245.25 253.4 245.25 253.4 232.6 245.25 232.6
M 258.2 232.6
L 258.2 245.25 266.35 245.25 266.35 232.6 258.2 232.6
M 253.15 215.65
L 245 215.65 245 228.3 253.15 228.3 253.15 215.65
M 278.45 215.65
L 270.3 215.65 270.3 228.3 278.45 228.3 278.45 215.65
M 296 215.65
L 296 228.3 304.15 228.3 304.15 215.65 296 215.65
M 309.2 232.6
L 309.2 245.25 317.35 245.25 317.35 232.6 309.2 232.6
M 283.9 232.6
L 283.9 245.25 292.05 245.25 292.05 232.6 283.9 232.6
M 296.25 232.6
L 296.25 245.25 304.4 245.25 304.4 232.6 296.25 232.6
M 291.8 215.65
L 283.65 215.65 283.65 228.3 291.8 228.3 291.8 215.65
M 317.1 215.65
L 308.95 215.65 308.95 228.3 317.1 228.3 317.1 215.65
M 501.95 215.65
L 501.95 228.3 510.1 228.3 510.1 215.65 501.95 215.65
M 515.15 232.6
L 515.15 245.25 523.3 245.25 523.3 232.6 515.15 232.6
M 489.85 232.6
L 489.85 245.25 498 245.25 498 232.6 489.85 232.6
M 502.2 232.6
L 502.2 245.25 510.35 245.25 510.35 232.6 502.2 232.6
M 497.75 215.65
L 489.6 215.65 489.6 228.3 497.75 228.3 497.75 215.65
M 523.05 215.65
L 514.9 215.65 514.9 228.3 523.05 228.3 523.05 215.65
M 541.9 215.65
L 541.9 228.3 550.05 228.3 550.05 215.65 541.9 215.65
M 554.5 232.6
L 554.5 245.25 562.65 245.25 562.65 232.6 554.5 232.6
M 527.5 232.6
L 527.5 245.25 535.65 245.25 535.65 232.6 527.5 232.6
M 542.15 232.6
L 542.15 245.25 550.3 245.25 550.3 232.6 542.15 232.6
M 535.4 215.65
L 527.25 215.65 527.25 228.3 535.4 228.3 535.4 215.65
M 562.4 215.65
L 554.25 215.65 554.25 228.3 562.4 228.3 562.4 215.65
M 579.55 215.65
L 579.55 228.3 587.7 228.3 587.7 215.65 579.55 215.65
M 593.15 232.6
L 593.15 245.25 601.3 245.25 601.3 232.6 593.15 232.6
M 567.45 232.6
L 567.45 245.25 575.6 245.25 575.6 232.6 567.45 232.6
M 579.8 232.6
L 579.8 245.25 587.95 245.25 587.95 232.6 579.8 232.6
M 575.35 215.65
L 567.2 215.65 567.2 228.3 575.35 228.3 575.35 215.65
M 601.05 215.65
L 592.9 215.65 592.9 228.3 601.05 228.3 601.05 215.65
M 613.4 228.3
L 613.4 215.65 605.25 215.65 605.25 228.3 613.4 228.3
M 630.8 232.6
L 630.8 245.25 638.95 245.25 638.95 232.6 630.8 232.6
M 618.45 232.6
L 618.45 245.25 626.6 245.25 626.6 232.6 618.45 232.6
M 613.65 245.25
L 613.65 232.6 605.5 232.6 605.5 245.25 613.65 245.25
M 626.35 215.65
L 618.2 215.65 618.2 228.3 626.35 228.3 626.35 215.65
M 638.7 215.65
L 630.55 215.65 630.55 228.3 638.7 228.3 638.7 215.65
M 329.45 228.3
L 329.45 215.65 321.3 215.65 321.3 228.3 329.45 228.3
M 348.55 232.6
L 348.55 245.25 356.7 245.25 356.7 232.6 348.55 232.6
M 329.7 245.25
L 329.7 232.6 321.55 232.6 321.55 245.25 329.7 245.25
M 336.2 232.6
L 336.2 245.25 344.35 245.25 344.35 232.6 336.2 232.6
M 344.1 215.65
L 335.95 215.65 335.95 228.3 344.1 228.3 344.1 215.65
M 356.45 215.65
L 348.3 215.65 348.3 228.3 356.45 228.3 356.45 215.65
M 369.4 228.3
L 369.4 215.65 361.25 215.65 361.25 228.3 369.4 228.3
M 387.2 232.6
L 387.2 245.25 395.35 245.25 395.35 232.6 387.2 232.6
M 373.85 232.6
L 373.85 245.25 382 245.25 382 232.6 373.85 232.6
M 369.65 245.25
L 369.65 232.6 361.5 232.6 361.5 245.25 369.65 245.25
M 381.75 215.65
L 373.6 215.65 373.6 228.3 381.75 228.3 381.75 215.65
M 395.1 215.65
L 386.95 215.65 386.95 228.3 395.1 228.3 395.1 215.65
M 407.45 228.3
L 407.45 215.65 399.3 215.65 399.3 228.3 407.45 228.3
M 424.6 215.65
L 424.6 228.3 432.75 228.3 432.75 215.65 424.6 215.65
M 407.7 245.25
L 407.7 232.6 399.55 232.6 399.55 245.25 407.7 245.25
M 412.5 232.6
L 412.5 245.25 420.65 245.25 420.65 232.6 412.5 232.6
M 424.85 232.6
L 424.85 245.25 433 245.25 433 232.6 424.85 232.6
M 420.4 215.65
L 412.25 215.65 412.25 228.3 420.4 228.3 420.4 215.65
M 463.9 215.65
L 463.9 228.3 472.05 228.3 472.05 215.65 463.9 215.65
M 446.75 228.3
L 446.75 215.65 438.6 215.65 438.6 228.3 446.75 228.3
M 476.5 232.6
L 476.5 245.25 484.65 245.25 484.65 232.6 476.5 232.6
M 451.2 232.6
L 451.2 245.25 459.35 245.25 459.35 232.6 451.2 232.6
M 447 245.25
L 447 232.6 438.85 232.6 438.85 245.25 447 245.25
M 464.15 232.6
L 464.15 245.25 472.3 245.25 472.3 232.6 464.15 232.6
M 459.1 215.65
L 450.95 215.65 450.95 228.3 459.1 228.3 459.1 215.65
M 484.4 215.65
L 476.25 215.65 476.25 228.3 484.4 228.3 484.4 215.65
M 651.4 228.3
L 651.4 215.65 643.25 215.65 643.25 228.3 651.4 228.3
M 668.8 232.6
L 668.8 245.25 676.95 245.25 676.95 232.6 668.8 232.6
M 655.85 232.6
L 655.85 245.25 664 245.25 664 232.6 655.85 232.6
M 651.65 245.25
L 651.65 232.6 643.5 232.6 643.5 245.25 651.65 245.25
M 663.75 215.65
L 655.6 215.65 655.6 228.3 663.75 228.3 663.75 215.65
M 676.7 215.65
L 668.55 215.65 668.55 228.3 676.7 228.3 676.7 215.65
M 706.6 215.65
L 706.6 228.3 714.75 228.3 714.75 215.65 706.6 215.65
M 689.05 228.3
L 689.05 215.65 680.9 215.65 680.9 228.3 689.05 228.3
M 719.8 232.6
L 719.8 245.25 727.95 245.25 727.95 232.6 719.8 232.6
M 694.5 232.6
L 694.5 245.25 702.65 245.25 702.65 232.6 694.5 232.6
M 706.85 232.6
L 706.85 245.25 715 245.25 715 232.6 706.85 232.6
M 689.3 245.25
L 689.3 232.6 681.15 232.6 681.15 245.25 689.3 245.25
M 702.4 215.65
L 694.25 215.65 694.25 228.3 702.4 228.3 702.4 215.65
M 727.7 215.65
L 719.55 215.65 719.55 228.3 727.7 228.3 727.7 215.65
M 745.8 215.65
L 745.8 228.3 753.95 228.3 753.95 215.65 745.8 215.65
M 758.4 232.6
L 758.4 245.25 766.55 245.25 766.55 232.6 758.4 232.6
M 732.15 232.6
L 732.15 245.25 740.3 245.25 740.3 232.6 732.15 232.6
M 746.05 232.6
L 746.05 245.25 754.2 245.25 754.2 232.6 746.05 232.6
M 740.05 215.65
L 731.9 215.65 731.9 228.3 740.05 228.3 740.05 215.65
M 766.3 215.65
L 758.15 215.65 758.15 228.3 766.3 228.3 766.3 215.65
M 783.45 215.65
L 783.45 228.3 791.6 228.3 791.6 215.65 783.45 215.65
M 779.5 232.6
L 771.35 232.6 771.35 245.25 779.5 245.25 779.5 232.6
M 783.7 232.6
L 783.7 245.25 791.85 245.25 791.85 232.6 783.7 232.6
M 779.25 215.65
L 771.1 215.65 771.1 228.3 779.25 228.3 779.25 215.65 Z"/>
</g>

<g id="Tween_7_0_Layer0_0_FILL">
<path fill="#333333" stroke="none" d="
M -87.25 -36.3
L -87.25 -23.65 -79.1 -23.65 -79.1 -36.3 -87.25 -36.3
M -87 -19.35
L -87 -6.7 -78.85 -6.7 -78.85 -19.35 -87 -19.35
M -99.35 -19.35
L -99.35 -6.7 -91.2 -6.7 -91.2 -19.35 -99.35 -19.35
M -104.15 -6.7
L -104.15 -19.35 -112.3 -19.35 -112.3 -6.7 -104.15 -6.7
M -104.4 -36.3
L -112.55 -36.3 -112.55 -23.65 -104.4 -23.65 -104.4 -36.3
M -91.45 -36.3
L -99.6 -36.3 -99.6 -23.65 -91.45 -23.65 -91.45 -36.3
M -124.9 -36.3
L -124.9 -23.65 -116.75 -23.65 -116.75 -36.3 -124.9 -36.3
M -129.85 -19.35
L -138 -19.35 -138 -6.7 -129.85 -6.7 -129.85 -19.35
M -124.65 -19.35
L -124.65 -6.7 -116.5 -6.7 -116.5 -19.35 -124.65 -19.35
M -150.35 -19.35
L -150.35 -6.7 -142.2 -6.7 -142.2 -19.35 -150.35 -19.35
M -142.45 -36.3
L -150.6 -36.3 -150.6 -23.65 -142.45 -23.65 -142.45 -36.3
M -130.1 -36.3
L -138.25 -36.3 -138.25 -23.65 -130.1 -23.65 -130.1 -36.3
M -163.55 -36.3
L -163.55 -23.65 -155.4 -23.65 -155.4 -36.3 -163.55 -36.3
M -163.3 -19.35
L -163.3 -6.7 -155.15 -6.7 -155.15 -19.35 -163.3 -19.35
M -175.65 -6.7
L -167.5 -6.7 -167.5 -19.35 -175.65 -19.35 -175.65 -6.7
M -190.3 -19.35
L -190.3 -6.7 -182.15 -6.7 -182.15 -19.35 -190.3 -19.35
M -182.4 -36.3
L -190.55 -36.3 -190.55 -23.65 -182.4 -23.65 -182.4 -36.3
M -167.75 -36.3
L -175.9 -36.3 -175.9 -23.65 -167.75 -23.65 -167.75 -36.3
M -202.9 -36.3
L -202.9 -23.65 -194.75 -23.65 -194.75 -36.3 -202.9 -36.3
M -228.2 -36.3
L -228.2 -23.65 -220.05 -23.65 -220.05 -36.3 -228.2 -36.3
M -202.65 -19.35
L -202.65 -6.7 -194.5 -6.7 -194.5 -19.35 -202.65 -19.35
M -215.6 -6.7
L -207.45 -6.7 -207.45 -19.35 -215.6 -19.35 -215.6 -6.7
M -227.95 -19.35
L -227.95 -6.7 -219.8 -6.7 -219.8 -19.35 -227.95 -19.35
M -241.3 -19.35
L -241.3 -6.7 -233.15 -6.7 -233.15 -19.35 -241.3 -19.35
M -233.4 -36.3
L -241.55 -36.3 -241.55 -23.65 -233.4 -23.65 -233.4 -36.3
M -207.7 -36.3
L -215.85 -36.3 -215.85 -23.65 -207.7 -23.65 -207.7 -36.3
M -266.85 -36.3
L -266.85 -23.65 -258.7 -23.65 -258.7 -36.3 -266.85 -36.3
M -245.5 -19.35
L -253.65 -19.35 -253.65 -6.7 -245.5 -6.7 -245.5 -19.35
M -270.8 -19.35
L -278.95 -19.35 -278.95 -6.7 -270.8 -6.7 -270.8 -19.35
M -266.6 -19.35
L -266.6 -6.7 -258.45 -6.7 -258.45 -19.35 -266.6 -19.35
M -271.05 -36.3
L -279.2 -36.3 -279.2 -23.65 -271.05 -23.65 -271.05 -36.3
M -245.75 -36.3
L -253.9 -36.3 -253.9 -23.65 -245.75 -23.65 -245.75 -36.3
M 267.4 -23.65
L 267.4 -36.3 259.25 -36.3 259.25 -23.65 267.4 -23.65
M 280 -6.7
L 280 -19.35 271.85 -19.35 271.85 -6.7 280 -6.7
M 259.5 -19.35
L 259.5 -6.7 267.65 -6.7 267.65 -19.35 259.5 -19.35
M 246.55 -19.35
L 246.55 -6.7 254.7 -6.7 254.7 -19.35 246.55 -19.35
M 254.45 -36.3
L 246.3 -36.3 246.3 -23.65 254.45 -23.65 254.45 -36.3
M 279.75 -36.3
L 271.6 -36.3 271.6 -23.65 279.75 -23.65 279.75 -36.3
M 220.05 -36.3
L 220.05 -23.65 228.2 -23.65 228.2 -36.3 220.05 -36.3
M 242.35 -19.35
L 234.2 -19.35 234.2 -6.7 242.35 -6.7 242.35 -19.35
M 216.1 -19.35
L 207.95 -19.35 207.95 -6.7 216.1 -6.7 216.1 -19.35
M 220.3 -19.35
L 220.3 -6.7 228.45 -6.7 228.45 -19.35 220.3 -19.35
M 215.85 -36.3
L 207.7 -36.3 207.7 -23.65 215.85 -23.65 215.85 -36.3
M 242.1 -36.3
L 233.95 -36.3 233.95 -23.65 242.1 -23.65 242.1 -36.3
M 194.75 -36.3
L 194.75 -23.65 202.9 -23.65 202.9 -36.3 194.75 -36.3
M 195 -19.35
L 195 -6.7 203.15 -6.7 203.15 -19.35 195 -19.35
M 190.8 -19.35
L 182.65 -19.35 182.65 -6.7 190.8 -6.7 190.8 -19.35
M 169.3 -19.35
L 169.3 -6.7 177.45 -6.7 177.45 -19.35 169.3 -19.35
M 177.2 -36.3
L 169.05 -36.3 169.05 -23.65 177.2 -23.65 177.2 -36.3
M 190.55 -36.3
L 182.4 -36.3 182.4 -23.65 190.55 -23.65 190.55 -36.3
M 156.7 -36.3
L 156.7 -23.65 164.85 -23.65 164.85 -36.3 156.7 -36.3
M 152.15 -19.35
L 144 -19.35 144 -6.7 152.15 -6.7 152.15 -19.35
M 156.95 -19.35
L 156.95 -6.7 165.1 -6.7 165.1 -19.35 156.95 -19.35
M 139.8 -6.7
L 139.8 -19.35 131.65 -19.35 131.65 -6.7 139.8 -6.7
M 139.55 -36.3
L 131.4 -36.3 131.4 -23.65 139.55 -23.65 139.55 -36.3
M 151.9 -36.3
L 143.75 -36.3 143.75 -23.65 151.9 -23.65 151.9 -36.3
M 118.7 -36.3
L 118.7 -23.65 126.85 -23.65 126.85 -36.3 118.7 -36.3
M 101.55 -23.65
L 101.55 -36.3 93.4 -36.3 93.4 -23.65 101.55 -23.65
M 114.75 -19.35
L 106.6 -19.35 106.6 -6.7 114.75 -6.7 114.75 -19.35
M 118.95 -19.35
L 118.95 -6.7 127.1 -6.7 127.1 -19.35 118.95 -19.35
M 93.65 -19.35
L 93.65 -6.7 101.8 -6.7 101.8 -19.35 93.65 -19.35
M 81.3 -19.35
L 81.3 -6.7 89.45 -6.7 89.45 -19.35 81.3 -19.35
M 89.2 -36.3
L 81.05 -36.3 81.05 -23.65 89.2 -23.65 89.2 -36.3
M 114.5 -36.3
L 106.35 -36.3 106.35 -23.65 114.5 -23.65 114.5 -36.3
M 75.85 -36.3
L 67.7 -36.3 67.7 -23.65 75.85 -23.65 75.85 -36.3
M 67.95 -6.7
L 76.1 -6.7 76.1 -19.35 67.95 -19.35 67.95 -6.7 Z"/>
</g>

<g id="Tween_6_0_Layer0_0_FILL">
<path fill="#333333" stroke="none" d="
M 539.9 302.55
L 535.65 302.55 535.65 345.1 539.9 345.1 539.9 302.55
M 550.25 302.05
L 547.4 302.05 547.4 345.1 550.25 345.1 550.25 302.05
M 463.85 345.1
L 466.35 345.1 466.35 303.55 463.85 303.55 463.85 345.1
M 451.6 345.1
L 456.1 345.1 456.1 293.3 559.15 293.3 559.15 345.1 564.4 345.1 564.4 286.8 451.6 286.8 451.6 345.1
M 474 303.05
L 471.65 303.05 471.65 345.1 474 345.1 474 303.05 Z"/>
</g>

<g id="Tween_4_0_Layer0_0_FILL">
<path fill="#1F1F1F" stroke="none" d="
M 462.35 345.1
L 469 345.1
Q 488.35 311.2 508.9 309.5 524.25 308 548.95 345.1
L 556.9 345.1
Q 532 298.8 510 297.65 509.8 297.65 509.6 297.65 487.1 298.75 462.35 345.1 Z"/>
</g>

<path id="Tween_10_0_Layer0_0_1_STROKES" stroke="#333333" stroke-width="2" stroke-linejoin="round" stroke-linecap="round" fill="none" d="
M 804.2 237.1
L 871.2 237.1 871.2 345.1 804.2 345.1 804.2 237.1 Z
M 829.95 283
L 845.95 283 845.95 299 829.95 299 829.95 283 Z
M 829.95 256.05
L 845.95 256.05 845.95 272.05 829.95 272.05 829.95 256.05 Z
M 829.95 312.5
L 845.95 312.5 845.95 328.5 829.95 328.5 829.95 312.5 Z
M 153.05 237.1
L 220.05 237.1 220.05 345.1 153.05 345.1 153.05 237.1 Z
M 177.05 284.55
L 193.05 284.55 193.05 300.55 177.05 300.55 177.05 284.55 Z
M 177.05 257.6
L 193.05 257.6 193.05 273.6 177.05 273.6 177.05 257.6 Z
M 177.05 314.05
L 193.05 314.05 193.05 330.05 177.05 330.05 177.05 314.05 Z"/>

<path id="Tween_8_0_Layer0_0_1_STROKES" stroke="#333333" stroke-width="2" stroke-linejoin="round" stroke-linecap="round" fill="none" d="
M 771.1 215.65
L 779.25 215.65 779.25 228.3 771.1 228.3 771.1 215.65 Z
M 783.7 232.6
L 791.85 232.6 791.85 245.25 783.7 245.25 783.7 232.6 Z
M 771.35 232.6
L 779.5 232.6 779.5 245.25 771.35 245.25 771.35 232.6 Z
M 783.45 215.65
L 791.6 215.65 791.6 228.3 783.45 228.3 783.45 215.65 Z
M 758.15 215.65
L 766.3 215.65 766.3 228.3 758.15 228.3 758.15 215.65 Z
M 731.9 215.65
L 740.05 215.65 740.05 228.3 731.9 228.3 731.9 215.65 Z
M 746.05 232.6
L 754.2 232.6 754.2 245.25 746.05 245.25 746.05 232.6 Z
M 732.15 232.6
L 740.3 232.6 740.3 245.25 732.15 245.25 732.15 232.6 Z
M 758.4 232.6
L 766.55 232.6 766.55 245.25 758.4 245.25 758.4 232.6 Z
M 745.8 215.65
L 753.95 215.65 753.95 228.3 745.8 228.3 745.8 215.65 Z
M 220.05 200.05
L 804.2 200.05 804.2 251.05 220.05 251.05 220.05 200.05 Z
M 719.55 215.65
L 727.7 215.65 727.7 228.3 719.55 228.3 719.55 215.65 Z
M 694.25 215.65
L 702.4 215.65 702.4 228.3 694.25 228.3 694.25 215.65 Z
M 681.15 232.6
L 689.3 232.6 689.3 245.25 681.15 245.25 681.15 232.6 Z
M 706.85 232.6
L 715 232.6 715 245.25 706.85 245.25 706.85 232.6 Z
M 694.5 232.6
L 702.65 232.6 702.65 245.25 694.5 245.25 694.5 232.6 Z
M 719.8 232.6
L 727.95 232.6 727.95 245.25 719.8 245.25 719.8 232.6 Z
M 680.9 215.65
L 689.05 215.65 689.05 228.3 680.9 228.3 680.9 215.65 Z
M 706.6 215.65
L 714.75 215.65 714.75 228.3 706.6 228.3 706.6 215.65 Z
M 668.55 215.65
L 676.7 215.65 676.7 228.3 668.55 228.3 668.55 215.65 Z
M 655.6 215.65
L 663.75 215.65 663.75 228.3 655.6 228.3 655.6 215.65 Z
M 643.5 232.6
L 651.65 232.6 651.65 245.25 643.5 245.25 643.5 232.6 Z
M 655.85 232.6
L 664 232.6 664 245.25 655.85 245.25 655.85 232.6 Z
M 668.8 232.6
L 676.95 232.6 676.95 245.25 668.8 245.25 668.8 232.6 Z
M 643.25 215.65
L 651.4 215.65 651.4 228.3 643.25 228.3 643.25 215.65 Z
M 476.25 215.65
L 484.4 215.65 484.4 228.3 476.25 228.3 476.25 215.65 Z
M 450.95 215.65
L 459.1 215.65 459.1 228.3 450.95 228.3 450.95 215.65 Z
M 464.15 232.6
L 472.3 232.6 472.3 245.25 464.15 245.25 464.15 232.6 Z
M 438.85 232.6
L 447 232.6 447 245.25 438.85 245.25 438.85 232.6 Z
M 451.2 232.6
L 459.35 232.6 459.35 245.25 451.2 245.25 451.2 232.6 Z
M 476.5 232.6
L 484.65 232.6 484.65 245.25 476.5 245.25 476.5 232.6 Z
M 438.6 215.65
L 446.75 215.65 446.75 228.3 438.6 228.3 438.6 215.65 Z
M 463.9 215.65
L 472.05 215.65 472.05 228.3 463.9 228.3 463.9 215.65 Z
M 412.25 215.65
L 420.4 215.65 420.4 228.3 412.25 228.3 412.25 215.65 Z
M 424.85 232.6
L 433 232.6 433 245.25 424.85 245.25 424.85 232.6 Z
M 412.5 232.6
L 420.65 232.6 420.65 245.25 412.5 245.25 412.5 232.6 Z
M 399.55 232.6
L 407.7 232.6 407.7 245.25 399.55 245.25 399.55 232.6 Z
M 424.6 215.65
L 432.75 215.65 432.75 228.3 424.6 228.3 424.6 215.65 Z
M 399.3 215.65
L 407.45 215.65 407.45 228.3 399.3 228.3 399.3 215.65 Z
M 386.95 215.65
L 395.1 215.65 395.1 228.3 386.95 228.3 386.95 215.65 Z
M 373.6 215.65
L 381.75 215.65 381.75 228.3 373.6 228.3 373.6 215.65 Z
M 361.5 232.6
L 369.65 232.6 369.65 245.25 361.5 245.25 361.5 232.6 Z
M 373.85 232.6
L 382 232.6 382 245.25 373.85 245.25 373.85 232.6 Z
M 387.2 232.6
L 395.35 232.6 395.35 245.25 387.2 245.25 387.2 232.6 Z
M 361.25 215.65
L 369.4 215.65 369.4 228.3 361.25 228.3 361.25 215.65 Z
M 348.3 215.65
L 356.45 215.65 356.45 228.3 348.3 228.3 348.3 215.65 Z
M 335.95 215.65
L 344.1 215.65 344.1 228.3 335.95 228.3 335.95 215.65 Z
M 336.2 232.6
L 344.35 232.6 344.35 245.25 336.2 245.25 336.2 232.6 Z
M 321.55 232.6
L 329.7 232.6 329.7 245.25 321.55 245.25 321.55 232.6 Z
M 348.55 232.6
L 356.7 232.6 356.7 245.25 348.55 245.25 348.55 232.6 Z
M 321.3 215.65
L 329.45 215.65 329.45 228.3 321.3 228.3 321.3 215.65 Z
M 630.55 215.65
L 638.7 215.65 638.7 228.3 630.55 228.3 630.55 215.65 Z
M 618.2 215.65
L 626.35 215.65 626.35 228.3 618.2 228.3 618.2 215.65 Z
M 605.5 232.6
L 613.65 232.6 613.65 245.25 605.5 245.25 605.5 232.6 Z
M 618.45 232.6
L 626.6 232.6 626.6 245.25 618.45 245.25 618.45 232.6 Z
M 630.8 232.6
L 638.95 232.6 638.95 245.25 630.8 245.25 630.8 232.6 Z
M 605.25 215.65
L 613.4 215.65 613.4 228.3 605.25 228.3 605.25 215.65 Z
M 592.9 215.65
L 601.05 215.65 601.05 228.3 592.9 228.3 592.9 215.65 Z
M 567.2 215.65
L 575.35 215.65 575.35 228.3 567.2 228.3 567.2 215.65 Z
M 579.8 232.6
L 587.95 232.6 587.95 245.25 579.8 245.25 579.8 232.6 Z
M 567.45 232.6
L 575.6 232.6 575.6 245.25 567.45 245.25 567.45 232.6 Z
M 593.15 232.6
L 601.3 232.6 601.3 245.25 593.15 245.25 593.15 232.6 Z
M 579.55 215.65
L 587.7 215.65 587.7 228.3 579.55 228.3 579.55 215.65 Z
M 554.25 215.65
L 562.4 215.65 562.4 228.3 554.25 228.3 554.25 215.65 Z
M 527.25 215.65
L 535.4 215.65 535.4 228.3 527.25 228.3 527.25 215.65 Z
M 542.15 232.6
L 550.3 232.6 550.3 245.25 542.15 245.25 542.15 232.6 Z
M 527.5 232.6
L 535.65 232.6 535.65 245.25 527.5 245.25 527.5 232.6 Z
M 554.5 232.6
L 562.65 232.6 562.65 245.25 554.5 245.25 554.5 232.6 Z
M 541.9 215.65
L 550.05 215.65 550.05 228.3 541.9 228.3 541.9 215.65 Z
M 514.9 215.65
L 523.05 215.65 523.05 228.3 514.9 228.3 514.9 215.65 Z
M 489.6 215.65
L 497.75 215.65 497.75 228.3 489.6 228.3 489.6 215.65 Z
M 502.2 232.6
L 510.35 232.6 510.35 245.25 502.2 245.25 502.2 232.6 Z
M 489.85 232.6
L 498 232.6 498 245.25 489.85 245.25 489.85 232.6 Z
M 515.15 232.6
L 523.3 232.6 523.3 245.25 515.15 245.25 515.15 232.6 Z
M 501.95 215.65
L 510.1 215.65 510.1 228.3 501.95 228.3 501.95 215.65 Z
M 308.95 215.65
L 317.1 215.65 317.1 228.3 308.95 228.3 308.95 215.65 Z
M 283.65 215.65
L 291.8 215.65 291.8 228.3 283.65 228.3 283.65 215.65 Z
M 296.25 232.6
L 304.4 232.6 304.4 245.25 296.25 245.25 296.25 232.6 Z
M 283.9 232.6
L 292.05 232.6 292.05 245.25 283.9 245.25 283.9 232.6 Z
M 309.2 232.6
L 317.35 232.6 317.35 245.25 309.2 245.25 309.2 232.6 Z
M 296 215.65
L 304.15 215.65 304.15 228.3 296 228.3 296 215.65 Z
M 270.3 215.65
L 278.45 215.65 278.45 228.3 270.3 228.3 270.3 215.65 Z
M 245 215.65
L 253.15 215.65 253.15 228.3 245 228.3 245 215.65 Z
M 258.2 232.6
L 266.35 232.6 266.35 245.25 258.2 245.25 258.2 232.6 Z
M 245.25 232.6
L 253.4 232.6 253.4 245.25 245.25 245.25 245.25 232.6 Z
M 270.55 232.6
L 278.7 232.6 278.7 245.25 270.55 245.25 270.55 232.6 Z
M 257.95 215.65
L 266.1 215.65 266.1 228.3 257.95 228.3 257.95 215.65 Z
M 232.9 232.6
L 241.05 232.6 241.05 245.25 232.9 245.25 232.9 232.6 Z
M 232.65 215.65
L 240.8 215.65 240.8 228.3 232.65 228.3 232.65 215.65 Z"/>

<path id="Tween_5_0_Layer0_0_1_STROKES" stroke="#333333" stroke-width="2" stroke-linejoin="round" stroke-linecap="round" fill="none" d="
M 719.25 345.1
L 709.6 345.1 697.6 345.1 689.6 345.1 677.6 345.1 669 345.1 657 345.1 649 345.1 637 345.1 423.55 345.1 411.55 345.1 403.55 345.1 391.55 345.1 384.05 345.1 372.05 345.1 364.05 345.1 352.05 345.1 343.45 345.1 331.45 345.1 323.45 345.1 311.45 345.1 304.15 345.1 292.15 345.1 284.15 345.1 272.15 345.1 263.55 345.1 251.55 345.1 243.55 345.1 231.55 345.1 220.05 345.1 220.05 300.55 445.65 300.55 445.65 275.1 460.1 275.1 460.1 262.8 553.65 262.8 553.65 275.1 569.4 275.1 569.4 300.55 804.2 300.55 804.2 345.1 791.85 345.1 779.85 345.1 771.85 345.1 759.85 345.1 751.25 345.1 739.25 345.1 731.25 345.1 719.25 345.1 719.25 308.05 731.25 308.05 731.25 345.1
M 697.6 345.1
L 697.6 308.55 709.6 308.55 709.6 345.1
M 677.6 345.1
L 677.6 308.05 689.6 308.05 689.6 345.1
M 643.25 307.55
L 643.25 308.05 649 308.05 649 345.1
M 657 345.1
L 657 308.55 669 308.55 669 345.1
M 759.85 345.1
L 759.85 308.05 771.85 308.05 771.85 345.1
M 779.85 345.1
L 779.85 308.55 791.85 308.55 791.85 345.1
M 739.25 345.1
L 739.25 308.55 751.25 308.55 751.25 345.1
M 391.55 345.1
L 391.55 308.05 403.55 308.05 403.55 345.1
M 372.05 345.1
L 372.05 308.55 384.05 308.55 384.05 345.1
M 352.05 345.1
L 352.05 308.05 364.05 308.05 364.05 345.1
M 331.45 345.1
L 331.45 308.55 343.45 308.55 343.45 345.1
M 411.55 345.1
L 411.55 308.55 423.55 308.55 423.55 345.1
M 637 345.1
L 637 308.05 643.25 308.05
M 611.25 344.1
L 611.25 307.05 623.25 307.05 623.25 344.1
M 590.65 344.1
L 590.65 307.55 602.65 307.55 602.65 344.1
M 231.55 345.1
L 231.55 308.05 243.55 308.05 243.55 345.1
M 311.45 345.1
L 311.45 308.05 323.45 308.05 323.45 345.1
M 272.15 345.1
L 272.15 308.05 284.15 308.05 284.15 345.1
M 292.15 345.1
L 292.15 308.55 304.15 308.55 304.15 345.1
M 251.55 345.1
L 251.55 308.55 263.55 308.55 263.55 345.1"/>

<path id="Tween_7_0_Layer0_0_1_STROKES" stroke="#333333" stroke-width="2" stroke-linejoin="round" stroke-linecap="round" fill="none" d="
M 67.95 -19.35
L 76.1 -19.35 76.1 -6.7 67.95 -6.7 67.95 -19.35 Z
M 67.7 -36.3
L 75.85 -36.3 75.85 -23.65 67.7 -23.65 67.7 -36.3 Z
M 106.35 -36.3
L 114.5 -36.3 114.5 -23.65 106.35 -23.65 106.35 -36.3 Z
M 81.05 -36.3
L 89.2 -36.3 89.2 -23.65 81.05 -23.65 81.05 -36.3 Z
M 81.3 -19.35
L 89.45 -19.35 89.45 -6.7 81.3 -6.7 81.3 -19.35 Z
M 93.65 -19.35
L 101.8 -19.35 101.8 -6.7 93.65 -6.7 93.65 -19.35 Z
M 118.95 -19.35
L 127.1 -19.35 127.1 -6.7 118.95 -6.7 118.95 -19.35 Z
M 106.6 -19.35
L 114.75 -19.35 114.75 -6.7 106.6 -6.7 106.6 -19.35 Z
M 93.4 -36.3
L 101.55 -36.3 101.55 -23.65 93.4 -23.65 93.4 -36.3 Z
M 118.7 -36.3
L 126.85 -36.3 126.85 -23.65 118.7 -23.65 118.7 -36.3 Z
M 143.75 -36.3
L 151.9 -36.3 151.9 -23.65 143.75 -23.65 143.75 -36.3 Z
M 131.4 -36.3
L 139.55 -36.3 139.55 -23.65 131.4 -23.65 131.4 -36.3 Z
M 131.65 -19.35
L 139.8 -19.35 139.8 -6.7 131.65 -6.7 131.65 -19.35 Z
M 156.95 -19.35
L 165.1 -19.35 165.1 -6.7 156.95 -6.7 156.95 -19.35 Z
M 144 -19.35
L 152.15 -19.35 152.15 -6.7 144 -6.7 144 -19.35 Z
M 156.7 -36.3
L 164.85 -36.3 164.85 -23.65 156.7 -23.65 156.7 -36.3 Z
M 182.4 -36.3
L 190.55 -36.3 190.55 -23.65 182.4 -23.65 182.4 -36.3 Z
M 169.05 -36.3
L 177.2 -36.3 177.2 -23.65 169.05 -23.65 169.05 -36.3 Z
M 169.3 -19.35
L 177.45 -19.35 177.45 -6.7 169.3 -6.7 169.3 -19.35 Z
M 182.65 -19.35
L 190.8 -19.35 190.8 -6.7 182.65 -6.7 182.65 -19.35 Z
M 195 -19.35
L 203.15 -19.35 203.15 -6.7 195 -6.7 195 -19.35 Z
M 194.75 -36.3
L 202.9 -36.3 202.9 -23.65 194.75 -23.65 194.75 -36.3 Z
M 233.95 -36.3
L 242.1 -36.3 242.1 -23.65 233.95 -23.65 233.95 -36.3 Z
M 207.7 -36.3
L 215.85 -36.3 215.85 -23.65 207.7 -23.65 207.7 -36.3 Z
M 220.3 -19.35
L 228.45 -19.35 228.45 -6.7 220.3 -6.7 220.3 -19.35 Z
M 207.95 -19.35
L 216.1 -19.35 216.1 -6.7 207.95 -6.7 207.95 -19.35 Z
M 234.2 -19.35
L 242.35 -19.35 242.35 -6.7 234.2 -6.7 234.2 -19.35 Z
M 220.05 -36.3
L 228.2 -36.3 228.2 -23.65 220.05 -23.65 220.05 -36.3 Z
M 271.6 -36.3
L 279.75 -36.3 279.75 -23.65 271.6 -23.65 271.6 -36.3 Z
M 246.3 -36.3
L 254.45 -36.3 254.45 -23.65 246.3 -23.65 246.3 -36.3 Z
M 246.55 -19.35
L 254.7 -19.35 254.7 -6.7 246.55 -6.7 246.55 -19.35 Z
M 259.5 -19.35
L 267.65 -19.35 267.65 -6.7 259.5 -6.7 259.5 -19.35 Z
M 271.85 -19.35
L 280 -19.35 280 -6.7 271.85 -6.7 271.85 -19.35 Z
M 259.25 -36.3
L 267.4 -36.3 267.4 -23.65 259.25 -23.65 259.25 -36.3 Z
M 292.1 44.55
L 292.1 -44.5 -292.05 -44.5 -292.05 44.55 292.1 44.55 Z
M -253.9 -36.3
L -245.75 -36.3 -245.75 -23.65 -253.9 -23.65 -253.9 -36.3 Z
M -279.2 -36.3
L -271.05 -36.3 -271.05 -23.65 -279.2 -23.65 -279.2 -36.3 Z
M -266.6 -19.35
L -258.45 -19.35 -258.45 -6.7 -266.6 -6.7 -266.6 -19.35 Z
M -278.95 -19.35
L -270.8 -19.35 -270.8 -6.7 -278.95 -6.7 -278.95 -19.35 Z
M -253.65 -19.35
L -245.5 -19.35 -245.5 -6.7 -253.65 -6.7 -253.65 -19.35 Z
M -266.85 -36.3
L -258.7 -36.3 -258.7 -23.65 -266.85 -23.65 -266.85 -36.3 Z
M -215.85 -36.3
L -207.7 -36.3 -207.7 -23.65 -215.85 -23.65 -215.85 -36.3 Z
M -241.55 -36.3
L -233.4 -36.3 -233.4 -23.65 -241.55 -23.65 -241.55 -36.3 Z
M -241.3 -19.35
L -233.15 -19.35 -233.15 -6.7 -241.3 -6.7 -241.3 -19.35 Z
M -227.95 -19.35
L -219.8 -19.35 -219.8 -6.7 -227.95 -6.7 -227.95 -19.35 Z
M -215.6 -19.35
L -207.45 -19.35 -207.45 -6.7 -215.6 -6.7 -215.6 -19.35 Z
M -202.65 -19.35
L -194.5 -19.35 -194.5 -6.7 -202.65 -6.7 -202.65 -19.35 Z
M -228.2 -36.3
L -220.05 -36.3 -220.05 -23.65 -228.2 -23.65 -228.2 -36.3 Z
M -202.9 -36.3
L -194.75 -36.3 -194.75 -23.65 -202.9 -23.65 -202.9 -36.3 Z
M -175.9 -36.3
L -167.75 -36.3 -167.75 -23.65 -175.9 -23.65 -175.9 -36.3 Z
M -190.55 -36.3
L -182.4 -36.3 -182.4 -23.65 -190.55 -23.65 -190.55 -36.3 Z
M -190.3 -19.35
L -182.15 -19.35 -182.15 -6.7 -190.3 -6.7 -190.3 -19.35 Z
M -175.65 -19.35
L -167.5 -19.35 -167.5 -6.7 -175.65 -6.7 -175.65 -19.35 Z
M -163.3 -19.35
L -155.15 -19.35 -155.15 -6.7 -163.3 -6.7 -163.3 -19.35 Z
M -163.55 -36.3
L -155.4 -36.3 -155.4 -23.65 -163.55 -23.65 -163.55 -36.3 Z
M -138.25 -36.3
L -130.1 -36.3 -130.1 -23.65 -138.25 -23.65 -138.25 -36.3 Z
M -150.6 -36.3
L -142.45 -36.3 -142.45 -23.65 -150.6 -23.65 -150.6 -36.3 Z
M -150.35 -19.35
L -142.2 -19.35 -142.2 -6.7 -150.35 -6.7 -150.35 -19.35 Z
M -124.65 -19.35
L -116.5 -19.35 -116.5 -6.7 -124.65 -6.7 -124.65 -19.35 Z
M -138 -19.35
L -129.85 -19.35 -129.85 -6.7 -138 -6.7 -138 -19.35 Z
M -124.9 -36.3
L -116.75 -36.3 -116.75 -23.65 -124.9 -23.65 -124.9 -36.3 Z
M -99.6 -36.3
L -91.45 -36.3 -91.45 -23.65 -99.6 -23.65 -99.6 -36.3 Z
M -112.55 -36.3
L -104.4 -36.3 -104.4 -23.65 -112.55 -23.65 -112.55 -36.3 Z
M -112.3 -19.35
L -104.15 -19.35 -104.15 -6.7 -112.3 -6.7 -112.3 -19.35 Z
M -99.35 -19.35
L -91.2 -19.35 -91.2 -6.7 -99.35 -6.7 -99.35 -19.35 Z
M -87 -19.35
L -78.85 -19.35 -78.85 -6.7 -87 -6.7 -87 -19.35 Z
M -87.25 -36.3
L -79.1 -36.3 -79.1 -23.65 -87.25 -23.65 -87.25 -36.3 Z"/>

<path id="Tween_6_0_Layer0_0_1_STROKES" stroke="#333333" stroke-width="2" stroke-linejoin="round" stroke-linecap="round" fill="none" d="
M 471.65 345.1
L 471.65 303.05 474 303.05 474 345.1 478.9 345.1 478.9 302.8 526.9 302.8 526.9 345.1 531.65 345.1
M 456.1 345.1
L 451.6 345.1 451.6 286.8 564.4 286.8 564.4 345.1 559.15 345.1 550.25 345.1 547.4 345.1 539.9 345.1 535.65 345.1 533.15 345.1
M 463.85 345.1
L 456.1 345.1 456.1 293.3 559.15 293.3 559.15 345.1
M 471.65 345.1
L 466.35 345.1 463.85 345.1 463.85 303.55 466.35 303.55 466.35 345.1
M 474 345.1
L 471.65 345.1
M 547.4 345.1
L 547.4 302.05 550.25 302.05 550.25 345.1
M 535.65 345.1
L 535.65 302.55 539.9 302.55 539.9 345.1
M 526.9 345.1
L 478.9 345.1"/>

<path id="Tween_4_0_Layer0_0_1_STROKES" stroke="#333333" stroke-width="2" stroke-linejoin="round" stroke-linecap="round" fill="none" d="
M 462.35 345.1
Q 487.1 298.75 509.6 297.65 509.8 297.65 510 297.65 532 298.8 556.9 345.1
L 548.95 345.1
Q 524.25 308 508.9 309.5 488.35 311.2 469 345.1
L 462.35 345.1 Z"/>
</defs>

<g transform="matrix( 1, 0, 0, 1, 512.1,291.1) ">
<g transform="matrix( 1, 0, 0, 1, -512.1,-291.1) ">
<use xlink:href="#Tween_10_0_Layer0_0_FILL"/>

<use xlink:href="#Tween_10_0_Layer0_0_1_STROKES"/>
</g>
</g>

<g transform="matrix( 1, 0, 0, 1, 512.1,225.55) ">
<g transform="matrix( 1, 0, 0, 1, -512.1,-225.55) ">
<use xlink:href="#Tween_8_0_Layer0_0_FILL"/>

<use xlink:href="#Tween_8_0_Layer0_0_1_STROKES"/>
</g>
</g>

<g transform="matrix( 1, 0, 0, 0.98614501953125, 512.1,304.7) ">
<g transform="matrix( 1, 0, 0, 1, -512.1,-303.95) ">
<use xlink:href="#Tween_5_0_Layer0_0_1_STROKES"/>
</g>
</g>

<g transform="matrix( 1, 0, 0, 0.9939727783203125, 512.1,300.8) ">
<g transform="matrix( 1, 0, 0, 1, 0,0) ">
<use xlink:href="#Tween_7_0_Layer0_0_FILL"/>

<use xlink:href="#Tween_7_0_Layer0_0_1_STROKES"/>
</g>
</g>

<g transform="matrix( 1, 0, 0, 1.08013916015625, 508,313.4) ">
<g transform="matrix( 1, 0, 0, 1, -508,-315.95) ">
<use xlink:href="#Tween_6_0_Layer0_0_FILL"/>

<use xlink:href="#Tween_6_0_Layer0_0_1_STROKES"/>
</g>
</g>

<g transform="matrix( 1, 0, 0, 1, 509.6,321.35) ">
<g transform="matrix( 1, 0, 0, 1, -509.6,-321.35) ">
<use xlink:href="#Tween_4_0_Layer0_0_FILL"/>

<use xlink:href="#Tween_4_0_Layer0_0_1_STROKES"/>
</g>
</g>
</svg>
