
<svg xmlns="http://www.w3.org/2000/svg" version="1.1" xmlns:xlink="http://www.w3.org/1999/xlink" preserveAspectRatio="none" x="0px" y="0px" width="1000px" height="500px" viewBox="0 0 1000 500">
<defs>
<g id="Tween_10_0_Layer0_0_FILL">
<path fill="#333333" stroke="none" d="
M -319.05 38.95
L -319.05 22.95 -335.05 22.95 -335.05 38.95 -319.05 38.95
M -319.05 -6.55
L -335.05 -6.55 -335.05 9.45 -319.05 9.45 -319.05 -6.55
M -335.05 -33.5
L -335.05 -17.5 -319.05 -17.5 -319.05 -33.5 -335.05 -33.5
M 333.85 37.4
L 333.85 21.4 317.85 21.4 317.85 37.4 333.85 37.4
M 333.85 -8.1
L 317.85 -8.1 317.85 7.9 333.85 7.9 333.85 -8.1
M 317.85 -35.05
L 317.85 -19.05 333.85 -19.05 333.85 -35.05 317.85 -35.05 Z"/>
</g>

<g id="Tween_8_0_Layer0_0_FILL">
<path fill="#333333" stroke="none" d="
M -279.2 7.05
L -279.2 19.7 -271.05 19.7 -271.05 7.05 -279.2 7.05
M -258.7 19.7
L -258.7 7.05 -266.85 7.05 -266.85 19.7 -258.7 19.7
M -253.9 7.05
L -253.9 19.7 -245.75 19.7 -245.75 7.05 -253.9 7.05
M -241.55 7.05
L -241.55 19.7 -233.4 19.7 -233.4 7.05 -241.55 7.05
M -220.05 19.7
L -220.05 7.05 -228.2 7.05 -228.2 19.7 -220.05 19.7
M -215.85 7.05
L -215.85 19.7 -207.7 19.7 -207.7 7.05 -215.85 7.05
M -194.75 19.7
L -194.75 7.05 -202.9 7.05 -202.9 19.7 -194.75 19.7
M -190.55 7.05
L -190.55 19.7 -182.4 19.7 -182.4 7.05 -190.55 7.05
M -167.75 7.05
L -175.9 7.05 -175.9 19.7 -167.75 19.7 -167.75 7.05
M -150.6 7.05
L -150.6 19.7 -142.45 19.7 -142.45 7.05 -150.6 7.05
M -155.4 19.7
L -155.4 7.05 -163.55 7.05 -163.55 19.7 -155.4 19.7
M -130.1 7.05
L -138.25 7.05 -138.25 19.7 -130.1 19.7 -130.1 7.05
M -116.75 19.7
L -116.75 7.05 -124.9 7.05 -124.9 19.7 -116.75 19.7
M -112.55 7.05
L -112.55 19.7 -104.4 19.7 -104.4 7.05 -112.55 7.05
M -91.45 7.05
L -99.6 7.05 -99.6 19.7 -91.45 19.7 -91.45 7.05
M -73.25 7.05
L -73.25 19.7 -65.1 19.7 -65.1 7.05 -73.25 7.05
M -79.1 19.7
L -79.1 7.05 -87.25 7.05 -87.25 19.7 -79.1 19.7
M -52.75 19.7
L -52.75 7.05 -60.9 7.05 -60.9 19.7 -52.75 19.7
M -39.8 19.7
L -39.8 7.05 -47.95 7.05 -47.95 19.7 -39.8 19.7
M -35.6 7.05
L -35.6 19.7 -27.45 19.7 -27.45 7.05 -35.6 7.05
M -14.1 19.7
L -14.1 7.05 -22.25 7.05 -22.25 19.7 -14.1 19.7
M -1.75 7.05
L -9.9 7.05 -9.9 19.7 -1.75 19.7 -1.75 7.05
M -155.65 -9.9
L -163.8 -9.9 -163.8 2.75 -155.65 2.75 -155.65 -9.9
M -79.35 -9.9
L -87.5 -9.9 -87.5 2.75 -79.35 2.75 -79.35 -9.9
M -40.05 -9.9
L -48.2 -9.9 -48.2 2.75 -40.05 2.75 -40.05 -9.9
M -2 -9.9
L -10.15 -9.9 -10.15 2.75 -2 2.75 -2 -9.9
M -14.35 -9.9
L -22.5 -9.9 -22.5 2.75 -14.35 2.75 -14.35 -9.9
M -27.7 -9.9
L -35.85 -9.9 -35.85 2.75 -27.7 2.75 -27.7 -9.9
M -65.35 -9.9
L -73.5 -9.9 -73.5 2.75 -65.35 2.75 -65.35 -9.9
M -53 -9.9
L -61.15 -9.9 -61.15 2.75 -53 2.75 -53 -9.9
M -117 -9.9
L -125.15 -9.9 -125.15 2.75 -117 2.75 -117 -9.9
M -104.65 -9.9
L -112.8 -9.9 -112.8 2.75 -104.65 2.75 -104.65 -9.9
M -91.7 -9.9
L -99.85 -9.9 -99.85 2.75 -91.7 2.75 -91.7 -9.9
M -142.7 -9.9
L -150.85 -9.9 -150.85 2.75 -142.7 2.75 -142.7 -9.9
M -130.35 -9.9
L -138.5 -9.9 -138.5 2.75 -130.35 2.75 -130.35 -9.9
M -195 -9.9
L -203.15 -9.9 -203.15 2.75 -195 2.75 -195 -9.9
M -182.65 -9.9
L -190.8 -9.9 -190.8 2.75 -182.65 2.75 -182.65 -9.9
M -168 -9.9
L -176.15 -9.9 -176.15 2.75 -168 2.75 -168 -9.9
M -233.65 -9.9
L -241.8 -9.9 -241.8 2.75 -233.65 2.75 -233.65 -9.9
M -207.95 -9.9
L -216.1 -9.9 -216.1 2.75 -207.95 2.75 -207.95 -9.9
M -220.3 -9.9
L -228.45 -9.9 -228.45 2.75 -220.3 2.75 -220.3 -9.9
M -271.3 -9.9
L -279.45 -9.9 -279.45 2.75 -271.3 2.75 -271.3 -9.9
M -246 -9.9
L -254.15 -9.9 -254.15 2.75 -246 2.75 -246 -9.9
M -258.95 -9.9
L -267.1 -9.9 -267.1 2.75 -258.95 2.75 -258.95 -9.9
M 3.05 7.05
L 3.05 19.7 11.2 19.7 11.2 7.05 3.05 7.05
M 23.55 19.7
L 23.55 7.05 15.4 7.05 15.4 19.7 23.55 19.7
M 30.05 7.05
L 30.05 19.7 38.2 19.7 38.2 7.05 30.05 7.05
M 42.4 7.05
L 42.4 19.7 50.55 19.7 50.55 7.05 42.4 7.05
M 63.5 19.7
L 63.5 7.05 55.35 7.05 55.35 19.7 63.5 19.7
M 67.7 7.05
L 67.7 19.7 75.85 19.7 75.85 7.05 67.7 7.05
M 81.05 7.05
L 81.05 19.7 89.2 19.7 89.2 7.05 81.05 7.05
M 101.55 19.7
L 101.55 7.05 93.4 7.05 93.4 19.7 101.55 19.7
M 114.5 7.05
L 106.35 7.05 106.35 19.7 114.5 19.7 114.5 7.05
M 131.4 7.05
L 131.4 19.7 139.55 19.7 139.55 7.05 131.4 7.05
M 126.85 19.7
L 126.85 7.05 118.7 7.05 118.7 19.7 126.85 19.7
M 151.9 7.05
L 143.75 7.05 143.75 19.7 151.9 19.7 151.9 7.05
M 169.05 7.05
L 169.05 19.7 177.2 19.7 177.2 7.05 169.05 7.05
M 164.85 19.7
L 164.85 7.05 156.7 7.05 156.7 19.7 164.85 19.7
M 190.55 7.05
L 182.4 7.05 182.4 19.7 190.55 19.7 190.55 7.05
M 207.7 7.05
L 207.7 19.7 215.85 19.7 215.85 7.05 207.7 7.05
M 202.9 19.7
L 202.9 7.05 194.75 7.05 194.75 19.7 202.9 19.7
M 228.2 19.7
L 228.2 7.05 220.05 7.05 220.05 19.7 228.2 19.7
M 233.95 7.05
L 233.95 19.7 242.1 19.7 242.1 7.05 233.95 7.05
M 246.3 7.05
L 246.3 19.7 254.45 19.7 254.45 7.05 246.3 7.05
M 267.4 19.7
L 267.4 7.05 259.25 7.05 259.25 19.7 267.4 19.7
M 271.6 7.05
L 271.6 19.7 279.75 19.7 279.75 7.05 271.6 7.05
M 164.6 -9.9
L 156.45 -9.9 156.45 2.75 164.6 2.75 164.6 -9.9
M 254.2 -9.9
L 246.05 -9.9 246.05 2.75 254.2 2.75 254.2 -9.9
M 279.5 -9.9
L 271.35 -9.9 271.35 2.75 279.5 2.75 279.5 -9.9
M 267.15 -9.9
L 259 -9.9 259 2.75 267.15 2.75 267.15 -9.9
M 202.65 -9.9
L 194.5 -9.9 194.5 2.75 202.65 2.75 202.65 -9.9
M 215.6 -9.9
L 207.45 -9.9 207.45 2.75 215.6 2.75 215.6 -9.9
M 241.85 -9.9
L 233.7 -9.9 233.7 2.75 241.85 2.75 241.85 -9.9
M 227.95 -9.9
L 219.8 -9.9 219.8 2.75 227.95 2.75 227.95 -9.9
M 176.95 -9.9
L 168.8 -9.9 168.8 2.75 176.95 2.75 176.95 -9.9
M 190.3 -9.9
L 182.15 -9.9 182.15 2.75 190.3 2.75 190.3 -9.9
M 88.95 -9.9
L 80.8 -9.9 80.8 2.75 88.95 2.75 88.95 -9.9
M 126.6 -9.9
L 118.45 -9.9 118.45 2.75 126.6 2.75 126.6 -9.9
M 139.3 -9.9
L 131.15 -9.9 131.15 2.75 139.3 2.75 139.3 -9.9
M 151.65 -9.9
L 143.5 -9.9 143.5 2.75 151.65 2.75 151.65 -9.9
M 101.3 -9.9
L 93.15 -9.9 93.15 2.75 101.3 2.75 101.3 -9.9
M 114.25 -9.9
L 106.1 -9.9 106.1 2.75 114.25 2.75 114.25 -9.9
M 50.3 -9.9
L 42.15 -9.9 42.15 2.75 50.3 2.75 50.3 -9.9
M 75.6 -9.9
L 67.45 -9.9 67.45 2.75 75.6 2.75 75.6 -9.9
M 63.25 -9.9
L 55.1 -9.9 55.1 2.75 63.25 2.75 63.25 -9.9
M 10.95 -9.9
L 2.8 -9.9 2.8 2.75 10.95 2.75 10.95 -9.9
M 37.95 -9.9
L 29.8 -9.9 29.8 2.75 37.95 2.75 37.95 -9.9
M 23.3 -9.9
L 15.15 -9.9 15.15 2.75 23.3 2.75 23.3 -9.9 Z"/>
</g>

<g id="Tween_7_0_Layer0_0_FILL">
<path fill="#333333" stroke="none" d="
M -87.25 -36.3
L -87.25 -23.65 -79.1 -23.65 -79.1 -36.3 -87.25 -36.3
M -87 -19.35
L -87 -6.7 -78.85 -6.7 -78.85 -19.35 -87 -19.35
M -99.35 -19.35
L -99.35 -6.7 -91.2 -6.7 -91.2 -19.35 -99.35 -19.35
M -112.3 -19.35
L -112.3 -6.7 -104.15 -6.7 -104.15 -19.35 -112.3 -19.35
M -104.4 -36.3
L -112.55 -36.3 -112.55 -23.65 -104.4 -23.65 -104.4 -36.3
M -91.45 -36.3
L -99.6 -36.3 -99.6 -23.65 -91.45 -23.65 -91.45 -36.3
M -124.9 -36.3
L -124.9 -23.65 -116.75 -23.65 -116.75 -36.3 -124.9 -36.3
M -138 -19.35
L -138 -6.7 -129.85 -6.7 -129.85 -19.35 -138 -19.35
M -124.65 -19.35
L -124.65 -6.7 -116.5 -6.7 -116.5 -19.35 -124.65 -19.35
M -150.35 -19.35
L -150.35 -6.7 -142.2 -6.7 -142.2 -19.35 -150.35 -19.35
M -142.45 -36.3
L -150.6 -36.3 -150.6 -23.65 -142.45 -23.65 -142.45 -36.3
M -130.1 -36.3
L -138.25 -36.3 -138.25 -23.65 -130.1 -23.65 -130.1 -36.3
M -163.55 -36.3
L -163.55 -23.65 -155.4 -23.65 -155.4 -36.3 -163.55 -36.3
M -163.3 -19.35
L -163.3 -6.7 -155.15 -6.7 -155.15 -19.35 -163.3 -19.35
M -175.65 -19.35
L -175.65 -6.7 -167.5 -6.7 -167.5 -19.35 -175.65 -19.35
M -190.3 -19.35
L -190.3 -6.7 -182.15 -6.7 -182.15 -19.35 -190.3 -19.35
M -182.4 -36.3
L -190.55 -36.3 -190.55 -23.65 -182.4 -23.65 -182.4 -36.3
M -167.75 -36.3
L -175.9 -36.3 -175.9 -23.65 -167.75 -23.65 -167.75 -36.3
M -202.9 -36.3
L -202.9 -23.65 -194.75 -23.65 -194.75 -36.3 -202.9 -36.3
M -228.2 -36.3
L -228.2 -23.65 -220.05 -23.65 -220.05 -36.3 -228.2 -36.3
M -202.65 -19.35
L -202.65 -6.7 -194.5 -6.7 -194.5 -19.35 -202.65 -19.35
M -215.6 -19.35
L -215.6 -6.7 -207.45 -6.7 -207.45 -19.35 -215.6 -19.35
M -227.95 -19.35
L -227.95 -6.7 -219.8 -6.7 -219.8 -19.35 -227.95 -19.35
M -241.3 -19.35
L -241.3 -6.7 -233.15 -6.7 -233.15 -19.35 -241.3 -19.35
M -233.4 -36.3
L -241.55 -36.3 -241.55 -23.65 -233.4 -23.65 -233.4 -36.3
M -207.7 -36.3
L -215.85 -36.3 -215.85 -23.65 -207.7 -23.65 -207.7 -36.3
M -266.85 -36.3
L -266.85 -23.65 -258.7 -23.65 -258.7 -36.3 -266.85 -36.3
M -253.65 -19.35
L -253.65 -6.7 -245.5 -6.7 -245.5 -19.35 -253.65 -19.35
M -278.95 -19.35
L -278.95 -6.7 -270.8 -6.7 -270.8 -19.35 -278.95 -19.35
M -266.6 -19.35
L -266.6 -6.7 -258.45 -6.7 -258.45 -19.35 -266.6 -19.35
M -271.05 -36.3
L -279.2 -36.3 -279.2 -23.65 -271.05 -23.65 -271.05 -36.3
M -245.75 -36.3
L -253.9 -36.3 -253.9 -23.65 -245.75 -23.65 -245.75 -36.3
M 259.25 -36.3
L 259.25 -23.65 267.4 -23.65 267.4 -36.3 259.25 -36.3
M 271.85 -19.35
L 271.85 -6.7 280 -6.7 280 -19.35 271.85 -19.35
M 259.5 -19.35
L 259.5 -6.7 267.65 -6.7 267.65 -19.35 259.5 -19.35
M 246.55 -19.35
L 246.55 -6.7 254.7 -6.7 254.7 -19.35 246.55 -19.35
M 254.45 -36.3
L 246.3 -36.3 246.3 -23.65 254.45 -23.65 254.45 -36.3
M 279.75 -36.3
L 271.6 -36.3 271.6 -23.65 279.75 -23.65 279.75 -36.3
M 220.05 -36.3
L 220.05 -23.65 228.2 -23.65 228.2 -36.3 220.05 -36.3
M 234.2 -19.35
L 234.2 -6.7 242.35 -6.7 242.35 -19.35 234.2 -19.35
M 207.95 -19.35
L 207.95 -6.7 216.1 -6.7 216.1 -19.35 207.95 -19.35
M 220.3 -19.35
L 220.3 -6.7 228.45 -6.7 228.45 -19.35 220.3 -19.35
M 215.85 -36.3
L 207.7 -36.3 207.7 -23.65 215.85 -23.65 215.85 -36.3
M 242.1 -36.3
L 233.95 -36.3 233.95 -23.65 242.1 -23.65 242.1 -36.3
M 194.75 -36.3
L 194.75 -23.65 202.9 -23.65 202.9 -36.3 194.75 -36.3
M 195 -19.35
L 195 -6.7 203.15 -6.7 203.15 -19.35 195 -19.35
M 182.65 -19.35
L 182.65 -6.7 190.8 -6.7 190.8 -19.35 182.65 -19.35
M 169.3 -19.35
L 169.3 -6.7 177.45 -6.7 177.45 -19.35 169.3 -19.35
M 177.2 -36.3
L 169.05 -36.3 169.05 -23.65 177.2 -23.65 177.2 -36.3
M 190.55 -36.3
L 182.4 -36.3 182.4 -23.65 190.55 -23.65 190.55 -36.3
M 156.7 -36.3
L 156.7 -23.65 164.85 -23.65 164.85 -36.3 156.7 -36.3
M 144 -19.35
L 144 -6.7 152.15 -6.7 152.15 -19.35 144 -19.35
M 156.95 -19.35
L 156.95 -6.7 165.1 -6.7 165.1 -19.35 156.95 -19.35
M 131.65 -19.35
L 131.65 -6.7 139.8 -6.7 139.8 -19.35 131.65 -19.35
M 139.55 -36.3
L 131.4 -36.3 131.4 -23.65 139.55 -23.65 139.55 -36.3
M 151.9 -36.3
L 143.75 -36.3 143.75 -23.65 151.9 -23.65 151.9 -36.3
M 118.7 -36.3
L 118.7 -23.65 126.85 -23.65 126.85 -36.3 118.7 -36.3
M 93.4 -36.3
L 93.4 -23.65 101.55 -23.65 101.55 -36.3 93.4 -36.3
M 106.6 -19.35
L 106.6 -6.7 114.75 -6.7 114.75 -19.35 106.6 -19.35
M 118.95 -19.35
L 118.95 -6.7 127.1 -6.7 127.1 -19.35 118.95 -19.35
M 93.65 -19.35
L 93.65 -6.7 101.8 -6.7 101.8 -19.35 93.65 -19.35
M 81.3 -19.35
L 81.3 -6.7 89.45 -6.7 89.45 -19.35 81.3 -19.35
M 89.2 -36.3
L 81.05 -36.3 81.05 -23.65 89.2 -23.65 89.2 -36.3
M 114.5 -36.3
L 106.35 -36.3 106.35 -23.65 114.5 -23.65 114.5 -36.3
M 67.7 -36.3
L 67.7 -23.65 75.85 -23.65 75.85 -36.3 67.7 -36.3
M 67.95 -19.35
L 67.95 -6.7 76.1 -6.7 76.1 -19.35 67.95 -19.35 Z"/>
</g>

<g id="Tween_6_0_Layer0_0_FILL">
<path fill="#333333" stroke="none" d="
M -34 -12.9
L -36.35 -12.9 -36.35 29.15 -34 29.15 -34 -12.9
M -41.65 -12.4
L -44.15 -12.4 -44.15 29.15 -41.65 29.15 -41.65 -12.4
M 47.25 29.15
L 52.5 29.15 52.5 -29.15 -56.4 -29.15 -56.4 29.15 -51.9 29.15 -51.9 -22.65 47.25 -22.65 47.25 29.15
M 42.25 -13.9
L 39.4 -13.9 39.4 29.15 42.25 29.15 42.25 -13.9
M 31.9 -13.4
L 27.65 -13.4 27.65 29.15 31.9 29.15 31.9 -13.4 Z"/>
</g>

<g id="Tween_4_0_Layer0_0_FILL">
<path fill="#333333" stroke="none" d="
M -6.8 -23.7
Q -7 -23.7 -7.2 -23.7 -29.7 -22.6 -54.45 23.75
L -47.8 23.75
Q -28.45 -10.15 -7.9 -11.85 7.45 -13.35 32.15 23.75
L 40.1 23.75
Q 15.2 -22.55 -6.8 -23.7 Z"/>
</g>

<path id="Tween_10_0_Layer0_0_1_STROKES" stroke="#333333" stroke-width="2" stroke-linejoin="round" stroke-linecap="round" fill="none" d="
M 292.1 -54
L 359.1 -54 359.1 54 292.1 54 292.1 -54 Z
M -359.05 -54
L -292.05 -54 -292.05 54 -359.05 54 -359.05 -54 Z"/>

<path id="Tween_8_0_Layer0_0_1_STROKES" stroke="#333333" stroke-width="2" stroke-linejoin="round" stroke-linecap="round" fill="none" d="
M 15.15 -9.9
L 23.3 -9.9 23.3 2.75 15.15 2.75 15.15 -9.9 Z
M 29.8 -9.9
L 37.95 -9.9 37.95 2.75 29.8 2.75 29.8 -9.9 Z
M 2.8 -9.9
L 10.95 -9.9 10.95 2.75 2.8 2.75 2.8 -9.9 Z
M 55.1 -9.9
L 63.25 -9.9 63.25 2.75 55.1 2.75 55.1 -9.9 Z
M 67.45 -9.9
L 75.6 -9.9 75.6 2.75 67.45 2.75 67.45 -9.9 Z
M 42.15 -9.9
L 50.3 -9.9 50.3 2.75 42.15 2.75 42.15 -9.9 Z
M 106.1 -9.9
L 114.25 -9.9 114.25 2.75 106.1 2.75 106.1 -9.9 Z
M 93.15 -9.9
L 101.3 -9.9 101.3 2.75 93.15 2.75 93.15 -9.9 Z
M 143.5 -9.9
L 151.65 -9.9 151.65 2.75 143.5 2.75 143.5 -9.9 Z
M 131.15 -9.9
L 139.3 -9.9 139.3 2.75 131.15 2.75 131.15 -9.9 Z
M 118.45 -9.9
L 126.6 -9.9 126.6 2.75 118.45 2.75 118.45 -9.9 Z
M 80.8 -9.9
L 88.95 -9.9 88.95 2.75 80.8 2.75 80.8 -9.9 Z
M 182.15 -9.9
L 190.3 -9.9 190.3 2.75 182.15 2.75 182.15 -9.9 Z
M 168.8 -9.9
L 176.95 -9.9 176.95 2.75 168.8 2.75 168.8 -9.9 Z
M 219.8 -9.9
L 227.95 -9.9 227.95 2.75 219.8 2.75 219.8 -9.9 Z
M 233.7 -9.9
L 241.85 -9.9 241.85 2.75 233.7 2.75 233.7 -9.9 Z
M 207.45 -9.9
L 215.6 -9.9 215.6 2.75 207.45 2.75 207.45 -9.9 Z
M 194.5 -9.9
L 202.65 -9.9 202.65 2.75 194.5 2.75 194.5 -9.9 Z
M 259 -9.9
L 267.15 -9.9 267.15 2.75 259 2.75 259 -9.9 Z
M 271.35 -9.9
L 279.5 -9.9 279.5 2.75 271.35 2.75 271.35 -9.9 Z
M 246.05 -9.9
L 254.2 -9.9 254.2 2.75 246.05 2.75 246.05 -9.9 Z
M 156.45 -9.9
L 164.6 -9.9 164.6 2.75 156.45 2.75 156.45 -9.9 Z
M 271.6 7.05
L 279.75 7.05 279.75 19.7 271.6 19.7 271.6 7.05 Z
M 259.25 7.05
L 267.4 7.05 267.4 19.7 259.25 19.7 259.25 7.05 Z
M 246.3 7.05
L 254.45 7.05 254.45 19.7 246.3 19.7 246.3 7.05 Z
M 233.95 7.05
L 242.1 7.05 242.1 19.7 233.95 19.7 233.95 7.05 Z
M 220.05 7.05
L 228.2 7.05 228.2 19.7 220.05 19.7 220.05 7.05 Z
M 194.75 7.05
L 202.9 7.05 202.9 19.7 194.75 19.7 194.75 7.05 Z
M 207.7 7.05
L 215.85 7.05 215.85 19.7 207.7 19.7 207.7 7.05 Z
M 182.4 7.05
L 190.55 7.05 190.55 19.7 182.4 19.7 182.4 7.05 Z
M 156.7 7.05
L 164.85 7.05 164.85 19.7 156.7 19.7 156.7 7.05 Z
M 169.05 7.05
L 177.2 7.05 177.2 19.7 169.05 19.7 169.05 7.05 Z
M 143.75 7.05
L 151.9 7.05 151.9 19.7 143.75 19.7 143.75 7.05 Z
M 118.7 7.05
L 126.85 7.05 126.85 19.7 118.7 19.7 118.7 7.05 Z
M 131.4 7.05
L 139.55 7.05 139.55 19.7 131.4 19.7 131.4 7.05 Z
M 106.35 7.05
L 114.5 7.05 114.5 19.7 106.35 19.7 106.35 7.05 Z
M 93.4 7.05
L 101.55 7.05 101.55 19.7 93.4 19.7 93.4 7.05 Z
M 81.05 7.05
L 89.2 7.05 89.2 19.7 81.05 19.7 81.05 7.05 Z
M 67.7 7.05
L 75.85 7.05 75.85 19.7 67.7 19.7 67.7 7.05 Z
M 55.35 7.05
L 63.5 7.05 63.5 19.7 55.35 19.7 55.35 7.05 Z
M 42.4 7.05
L 50.55 7.05 50.55 19.7 42.4 19.7 42.4 7.05 Z
M 30.05 7.05
L 38.2 7.05 38.2 19.7 30.05 19.7 30.05 7.05 Z
M 15.4 7.05
L 23.55 7.05 23.55 19.7 15.4 19.7 15.4 7.05 Z
M 3.05 7.05
L 11.2 7.05 11.2 19.7 3.05 19.7 3.05 7.05 Z
M -292.05 -25.5
L 292.1 -25.5 292.1 25.5 -292.05 25.5 -292.05 -25.5 Z
M -267.1 -9.9
L -258.95 -9.9 -258.95 2.75 -267.1 2.75 -267.1 -9.9 Z
M -254.15 -9.9
L -246 -9.9 -246 2.75 -254.15 2.75 -254.15 -9.9 Z
M -279.45 -9.9
L -271.3 -9.9 -271.3 2.75 -279.45 2.75 -279.45 -9.9 Z
M -228.45 -9.9
L -220.3 -9.9 -220.3 2.75 -228.45 2.75 -228.45 -9.9 Z
M -216.1 -9.9
L -207.95 -9.9 -207.95 2.75 -216.1 2.75 -216.1 -9.9 Z
M -241.8 -9.9
L -233.65 -9.9 -233.65 2.75 -241.8 2.75 -241.8 -9.9 Z
M -176.15 -9.9
L -168 -9.9 -168 2.75 -176.15 2.75 -176.15 -9.9 Z
M -190.8 -9.9
L -182.65 -9.9 -182.65 2.75 -190.8 2.75 -190.8 -9.9 Z
M -203.15 -9.9
L -195 -9.9 -195 2.75 -203.15 2.75 -203.15 -9.9 Z
M -138.5 -9.9
L -130.35 -9.9 -130.35 2.75 -138.5 2.75 -138.5 -9.9 Z
M -150.85 -9.9
L -142.7 -9.9 -142.7 2.75 -150.85 2.75 -150.85 -9.9 Z
M -99.85 -9.9
L -91.7 -9.9 -91.7 2.75 -99.85 2.75 -99.85 -9.9 Z
M -112.8 -9.9
L -104.65 -9.9 -104.65 2.75 -112.8 2.75 -112.8 -9.9 Z
M -125.15 -9.9
L -117 -9.9 -117 2.75 -125.15 2.75 -125.15 -9.9 Z
M -61.15 -9.9
L -53 -9.9 -53 2.75 -61.15 2.75 -61.15 -9.9 Z
M -73.5 -9.9
L -65.35 -9.9 -65.35 2.75 -73.5 2.75 -73.5 -9.9 Z
M -35.85 -9.9
L -27.7 -9.9 -27.7 2.75 -35.85 2.75 -35.85 -9.9 Z
M -22.5 -9.9
L -14.35 -9.9 -14.35 2.75 -22.5 2.75 -22.5 -9.9 Z
M -10.15 -9.9
L -2 -9.9 -2 2.75 -10.15 2.75 -10.15 -9.9 Z
M -48.2 -9.9
L -40.05 -9.9 -40.05 2.75 -48.2 2.75 -48.2 -9.9 Z
M -87.5 -9.9
L -79.35 -9.9 -79.35 2.75 -87.5 2.75 -87.5 -9.9 Z
M -163.8 -9.9
L -155.65 -9.9 -155.65 2.75 -163.8 2.75 -163.8 -9.9 Z
M -9.9 7.05
L -1.75 7.05 -1.75 19.7 -9.9 19.7 -9.9 7.05 Z
M -22.25 7.05
L -14.1 7.05 -14.1 19.7 -22.25 19.7 -22.25 7.05 Z
M -35.6 7.05
L -27.45 7.05 -27.45 19.7 -35.6 19.7 -35.6 7.05 Z
M -47.95 7.05
L -39.8 7.05 -39.8 19.7 -47.95 19.7 -47.95 7.05 Z
M -60.9 7.05
L -52.75 7.05 -52.75 19.7 -60.9 19.7 -60.9 7.05 Z
M -87.25 7.05
L -79.1 7.05 -79.1 19.7 -87.25 19.7 -87.25 7.05 Z
M -73.25 7.05
L -65.1 7.05 -65.1 19.7 -73.25 19.7 -73.25 7.05 Z
M -99.6 7.05
L -91.45 7.05 -91.45 19.7 -99.6 19.7 -99.6 7.05 Z
M -112.55 7.05
L -104.4 7.05 -104.4 19.7 -112.55 19.7 -112.55 7.05 Z
M -124.9 7.05
L -116.75 7.05 -116.75 19.7 -124.9 19.7 -124.9 7.05 Z
M -138.25 7.05
L -130.1 7.05 -130.1 19.7 -138.25 19.7 -138.25 7.05 Z
M -163.55 7.05
L -155.4 7.05 -155.4 19.7 -163.55 19.7 -163.55 7.05 Z
M -150.6 7.05
L -142.45 7.05 -142.45 19.7 -150.6 19.7 -150.6 7.05 Z
M -175.9 7.05
L -167.75 7.05 -167.75 19.7 -175.9 19.7 -175.9 7.05 Z
M -190.55 7.05
L -182.4 7.05 -182.4 19.7 -190.55 19.7 -190.55 7.05 Z
M -202.9 7.05
L -194.75 7.05 -194.75 19.7 -202.9 19.7 -202.9 7.05 Z
M -215.85 7.05
L -207.7 7.05 -207.7 19.7 -215.85 19.7 -215.85 7.05 Z
M -228.2 7.05
L -220.05 7.05 -220.05 19.7 -228.2 19.7 -228.2 7.05 Z
M -241.55 7.05
L -233.4 7.05 -233.4 19.7 -241.55 19.7 -241.55 7.05 Z
M -253.9 7.05
L -245.75 7.05 -245.75 19.7 -253.9 19.7 -253.9 7.05 Z
M -266.85 7.05
L -258.7 7.05 -258.7 19.7 -266.85 19.7 -266.85 7.05 Z
M -279.2 7.05
L -271.05 7.05 -271.05 19.7 -279.2 19.7 -279.2 7.05 Z"/>

<path id="Tween_7_0_Layer0_0_1_STROKES" stroke="#333333" stroke-width="2" stroke-linejoin="round" stroke-linecap="round" fill="none" d="
M 67.95 -19.35
L 76.1 -19.35 76.1 -6.7 67.95 -6.7 67.95 -19.35 Z
M 67.7 -36.3
L 75.85 -36.3 75.85 -23.65 67.7 -23.65 67.7 -36.3 Z
M 106.35 -36.3
L 114.5 -36.3 114.5 -23.65 106.35 -23.65 106.35 -36.3 Z
M 81.05 -36.3
L 89.2 -36.3 89.2 -23.65 81.05 -23.65 81.05 -36.3 Z
M 81.3 -19.35
L 89.45 -19.35 89.45 -6.7 81.3 -6.7 81.3 -19.35 Z
M 93.65 -19.35
L 101.8 -19.35 101.8 -6.7 93.65 -6.7 93.65 -19.35 Z
M 118.95 -19.35
L 127.1 -19.35 127.1 -6.7 118.95 -6.7 118.95 -19.35 Z
M 106.6 -19.35
L 114.75 -19.35 114.75 -6.7 106.6 -6.7 106.6 -19.35 Z
M 93.4 -36.3
L 101.55 -36.3 101.55 -23.65 93.4 -23.65 93.4 -36.3 Z
M 118.7 -36.3
L 126.85 -36.3 126.85 -23.65 118.7 -23.65 118.7 -36.3 Z
M 143.75 -36.3
L 151.9 -36.3 151.9 -23.65 143.75 -23.65 143.75 -36.3 Z
M 131.4 -36.3
L 139.55 -36.3 139.55 -23.65 131.4 -23.65 131.4 -36.3 Z
M 131.65 -19.35
L 139.8 -19.35 139.8 -6.7 131.65 -6.7 131.65 -19.35 Z
M 156.95 -19.35
L 165.1 -19.35 165.1 -6.7 156.95 -6.7 156.95 -19.35 Z
M 144 -19.35
L 152.15 -19.35 152.15 -6.7 144 -6.7 144 -19.35 Z
M 156.7 -36.3
L 164.85 -36.3 164.85 -23.65 156.7 -23.65 156.7 -36.3 Z
M 182.4 -36.3
L 190.55 -36.3 190.55 -23.65 182.4 -23.65 182.4 -36.3 Z
M 169.05 -36.3
L 177.2 -36.3 177.2 -23.65 169.05 -23.65 169.05 -36.3 Z
M 169.3 -19.35
L 177.45 -19.35 177.45 -6.7 169.3 -6.7 169.3 -19.35 Z
M 182.65 -19.35
L 190.8 -19.35 190.8 -6.7 182.65 -6.7 182.65 -19.35 Z
M 195 -19.35
L 203.15 -19.35 203.15 -6.7 195 -6.7 195 -19.35 Z
M 194.75 -36.3
L 202.9 -36.3 202.9 -23.65 194.75 -23.65 194.75 -36.3 Z
M 233.95 -36.3
L 242.1 -36.3 242.1 -23.65 233.95 -23.65 233.95 -36.3 Z
M 207.7 -36.3
L 215.85 -36.3 215.85 -23.65 207.7 -23.65 207.7 -36.3 Z
M 220.3 -19.35
L 228.45 -19.35 228.45 -6.7 220.3 -6.7 220.3 -19.35 Z
M 207.95 -19.35
L 216.1 -19.35 216.1 -6.7 207.95 -6.7 207.95 -19.35 Z
M 234.2 -19.35
L 242.35 -19.35 242.35 -6.7 234.2 -6.7 234.2 -19.35 Z
M 220.05 -36.3
L 228.2 -36.3 228.2 -23.65 220.05 -23.65 220.05 -36.3 Z
M 271.6 -36.3
L 279.75 -36.3 279.75 -23.65 271.6 -23.65 271.6 -36.3 Z
M 246.3 -36.3
L 254.45 -36.3 254.45 -23.65 246.3 -23.65 246.3 -36.3 Z
M 246.55 -19.35
L 254.7 -19.35 254.7 -6.7 246.55 -6.7 246.55 -19.35 Z
M 259.5 -19.35
L 267.65 -19.35 267.65 -6.7 259.5 -6.7 259.5 -19.35 Z
M 271.85 -19.35
L 280 -19.35 280 -6.7 271.85 -6.7 271.85 -19.35 Z
M 259.25 -36.3
L 267.4 -36.3 267.4 -23.65 259.25 -23.65 259.25 -36.3 Z
M 292.1 1.3
L 292.1 -44.5 -292.05 -44.5 -292.05 1.3
M -253.9 -36.3
L -245.75 -36.3 -245.75 -23.65 -253.9 -23.65 -253.9 -36.3 Z
M -279.2 -36.3
L -271.05 -36.3 -271.05 -23.65 -279.2 -23.65 -279.2 -36.3 Z
M -266.6 -19.35
L -258.45 -19.35 -258.45 -6.7 -266.6 -6.7 -266.6 -19.35 Z
M -278.95 -19.35
L -270.8 -19.35 -270.8 -6.7 -278.95 -6.7 -278.95 -19.35 Z
M -253.65 -19.35
L -245.5 -19.35 -245.5 -6.7 -253.65 -6.7 -253.65 -19.35 Z
M -266.85 -36.3
L -258.7 -36.3 -258.7 -23.65 -266.85 -23.65 -266.85 -36.3 Z
M -215.85 -36.3
L -207.7 -36.3 -207.7 -23.65 -215.85 -23.65 -215.85 -36.3 Z
M -241.55 -36.3
L -233.4 -36.3 -233.4 -23.65 -241.55 -23.65 -241.55 -36.3 Z
M -241.3 -19.35
L -233.15 -19.35 -233.15 -6.7 -241.3 -6.7 -241.3 -19.35 Z
M -227.95 -19.35
L -219.8 -19.35 -219.8 -6.7 -227.95 -6.7 -227.95 -19.35 Z
M -215.6 -19.35
L -207.45 -19.35 -207.45 -6.7 -215.6 -6.7 -215.6 -19.35 Z
M -202.65 -19.35
L -194.5 -19.35 -194.5 -6.7 -202.65 -6.7 -202.65 -19.35 Z
M -228.2 -36.3
L -220.05 -36.3 -220.05 -23.65 -228.2 -23.65 -228.2 -36.3 Z
M -202.9 -36.3
L -194.75 -36.3 -194.75 -23.65 -202.9 -23.65 -202.9 -36.3 Z
M -175.9 -36.3
L -167.75 -36.3 -167.75 -23.65 -175.9 -23.65 -175.9 -36.3 Z
M -190.55 -36.3
L -182.4 -36.3 -182.4 -23.65 -190.55 -23.65 -190.55 -36.3 Z
M -190.3 -19.35
L -182.15 -19.35 -182.15 -6.7 -190.3 -6.7 -190.3 -19.35 Z
M -175.65 -19.35
L -167.5 -19.35 -167.5 -6.7 -175.65 -6.7 -175.65 -19.35 Z
M -163.3 -19.35
L -155.15 -19.35 -155.15 -6.7 -163.3 -6.7 -163.3 -19.35 Z
M -163.55 -36.3
L -155.4 -36.3 -155.4 -23.65 -163.55 -23.65 -163.55 -36.3 Z
M -138.25 -36.3
L -130.1 -36.3 -130.1 -23.65 -138.25 -23.65 -138.25 -36.3 Z
M -150.6 -36.3
L -142.45 -36.3 -142.45 -23.65 -150.6 -23.65 -150.6 -36.3 Z
M -150.35 -19.35
L -142.2 -19.35 -142.2 -6.7 -150.35 -6.7 -150.35 -19.35 Z
M -124.65 -19.35
L -116.5 -19.35 -116.5 -6.7 -124.65 -6.7 -124.65 -19.35 Z
M -138 -19.35
L -129.85 -19.35 -129.85 -6.7 -138 -6.7 -138 -19.35 Z
M -124.9 -36.3
L -116.75 -36.3 -116.75 -23.65 -124.9 -23.65 -124.9 -36.3 Z
M -99.6 -36.3
L -91.45 -36.3 -91.45 -23.65 -99.6 -23.65 -99.6 -36.3 Z
M -112.55 -36.3
L -104.4 -36.3 -104.4 -23.65 -112.55 -23.65 -112.55 -36.3 Z
M -112.3 -19.35
L -104.15 -19.35 -104.15 -6.7 -112.3 -6.7 -112.3 -19.35 Z
M -99.35 -19.35
L -91.2 -19.35 -91.2 -6.7 -99.35 -6.7 -99.35 -19.35 Z
M -87 -19.35
L -78.85 -19.35 -78.85 -6.7 -87 -6.7 -87 -19.35 Z
M -87.25 -36.3
L -79.1 -36.3 -79.1 -23.65 -87.25 -23.65 -87.25 -36.3 Z"/>

<path id="Tween_5_0_Layer0_0_1_STROKES" stroke="#333333" stroke-width="2" stroke-linejoin="round" stroke-linecap="round" fill="none" d="
M -280.55 41.15
L -292.05 41.15 -292.05 -3.4 -66.45 -3.4 -66.45 -28.85 -52 -28.85 -52 -41.15 41.55 -41.15 41.55 -28.85 57.3 -28.85 57.3 -3.4 292.1 -3.4 292.1 41.15 279.75 41.15 267.75 41.15 259.75 41.15 247.75 41.15 239.15 41.15 227.15 41.15 219.15 41.15 207.15 41.15 197.5 41.15 185.5 41.15 177.5 41.15 165.5 41.15 156.9 41.15 144.9 41.15 136.9 41.15 124.9 41.15 -88.55 41.15 -100.55 41.15 -108.55 41.15 -120.55 41.15 -128.05 41.15 -140.05 41.15 -148.05 41.15 -160.05 41.15 -168.65 41.15 -180.65 41.15 -188.65 41.15 -200.65 41.15 -207.95 41.15 -219.95 41.15 -227.95 41.15 -239.95 41.15 -248.55 41.15 -260.55 41.15 -268.55 41.15 -280.55 41.15 -280.55 4.1 -268.55 4.1 -268.55 41.15
M 267.75 41.15
L 267.75 4.6 279.75 4.6 279.75 41.15
M 247.75 41.15
L 247.75 4.1 259.75 4.1 259.75 41.15
M 227.15 41.15
L 227.15 4.6 239.15 4.6 239.15 41.15
M 207.15 41.15
L 207.15 4.1 219.15 4.1 219.15 41.15
M 185.5 41.15
L 185.5 4.6 197.5 4.6 197.5 41.15
M 165.5 41.15
L 165.5 4.1 177.5 4.1 177.5 41.15
M 144.9 41.15
L 144.9 4.6 156.9 4.6 156.9 41.15
M 124.9 41.15
L 124.9 4.1 131.15 4.1 131.15 3.6
M 131.15 4.1
L 136.9 4.1 136.9 41.15
M 99.15 40.15
L 99.15 3.1 111.15 3.1 111.15 40.15
M 78.55 40.15
L 78.55 3.6 90.55 3.6 90.55 40.15
M -100.55 41.15
L -100.55 4.6 -88.55 4.6 -88.55 41.15
M -120.55 41.15
L -120.55 4.1 -108.55 4.1 -108.55 41.15
M -140.05 41.15
L -140.05 4.6 -128.05 4.6 -128.05 41.15
M -160.05 41.15
L -160.05 4.1 -148.05 4.1 -148.05 41.15
M -180.65 41.15
L -180.65 4.6 -168.65 4.6 -168.65 41.15
M -200.65 41.15
L -200.65 4.1 -188.65 4.1 -188.65 41.15
M -219.95 41.15
L -219.95 4.6 -207.95 4.6 -207.95 41.15
M -239.95 41.15
L -239.95 4.1 -227.95 4.1 -227.95 41.15
M -260.55 41.15
L -260.55 4.6 -248.55 4.6 -248.55 41.15"/>

<path id="Tween_6_0_Layer0_0_1_STROKES" stroke="#333333" stroke-width="2" stroke-linejoin="round" stroke-linecap="round" fill="none" d="
M 27.65 29.15
L 27.65 -13.4 31.9 -13.4 31.9 29.15 39.4 29.15 39.4 -13.9 42.25 -13.9 42.25 29.15 47.25 29.15 47.25 -22.65 -51.9 -22.65 -51.9 29.15 -44.15 29.15 -44.15 -12.4 -41.65 -12.4 -41.65 29.15 -36.35 29.15 -36.35 -12.9 -34 -12.9 -34 29.15 -29.1 29.15 -29.1 -13.15 18.9 -13.15 18.9 29.15 23.65 29.15
M -51.9 29.15
L -56.4 29.15 -56.4 -29.15 52.5 -29.15 52.5 29.15 47.25 29.15
M 31.9 29.15
L 27.65 29.15 25.15 29.15
M 42.25 29.15
L 39.4 29.15
M -34 29.15
L -36.35 29.15
M -41.65 29.15
L -44.15 29.15
M 18.9 29.15
L -29.1 29.15"/>

<path id="Tween_4_0_Layer0_0_1_STROKES" stroke="#333333" stroke-width="2" stroke-linejoin="round" stroke-linecap="round" fill="none" d="
M -54.45 23.75
Q -29.7 -22.6 -7.2 -23.7 -7 -23.7 -6.8 -23.7 15.2 -22.55 40.1 23.75
L 32.15 23.75
Q 7.45 -13.35 -7.9 -11.85 -28.45 -10.15 -47.8 23.75
L -54.45 23.75 Z"/>
</defs>

<g transform="matrix( 1.3436279296875, 0, 0, 1.3436279296875, 483.55,262.85) ">
<g transform="matrix( 1, 0, 0, 1.153076171875, 12.1,32.85) ">
<g transform="matrix( 1, 0, 0, 1, 0,0) ">
<use xlink:href="#Tween_10_0_Layer0_0_FILL"/>

<use xlink:href="#Tween_10_0_Layer0_0_1_STROKES"/>
</g>
</g>

<g transform="matrix( 1, 0, 0, 1.0886688232421875, 12.1,-55.7) ">
<g transform="matrix( 1, 0, 0, 1, 0,0) ">
<use xlink:href="#Tween_8_0_Layer0_0_FILL"/>

<use xlink:href="#Tween_8_0_Layer0_0_1_STROKES"/>
</g>
</g>

<g transform="matrix( 1, 0, 0, 1.23040771484375, 12.1,26.7) ">
<g transform="matrix( 1, 0, 0, 1, 0,0) ">
<use xlink:href="#Tween_7_0_Layer0_0_FILL"/>

<use xlink:href="#Tween_7_0_Layer0_0_1_STROKES"/>
</g>
</g>

<g transform="matrix( 1, 0, 0, 1.403106689453125, 12.1,37.15) ">
<g transform="matrix( 1, 0, 0, 1, 0,0) ">
<use xlink:href="#Tween_5_0_Layer0_0_1_STROKES"/>
</g>
</g>

<g transform="matrix( 1, 0, 0, 1.01287841796875, 7.75,65.3) ">
<g transform="matrix( 1, 0, 0, 1, 0,0) ">
<use xlink:href="#Tween_6_0_Layer0_0_FILL"/>

<use xlink:href="#Tween_6_0_Layer0_0_1_STROKES"/>
</g>
</g>

<g transform="matrix( 1, 0, 0, 1.216217041015625, 9.6,66) ">
<g transform="matrix( 1, 0, 0, 1, 0,0) ">
<use xlink:href="#Tween_4_0_Layer0_0_FILL"/>

<use xlink:href="#Tween_4_0_Layer0_0_1_STROKES"/>
</g>
</g>

<g transform="matrix( 5.344268798828125, 0, 0, 5.344268798828125, 8,11.4) ">
<g transform="matrix( 0.0499267578125, 0, 0, 0.0499267578125, -9.05,-1.35) ">
<clipPath id="Mask_Mask_1">
<rect x="-2" y="-2" width="366.8" height="57.6" fill="#FFFFFF" stroke="none"/>
</clipPath>

<text clip-path="url(#Mask_Mask_1)" writing-mode="lr"><tspan x="0" y="43.45" baseline-shift="0%" font-family="Arial" font-weight="bold" font-size="48" fill="#333333" xml:space="preserve">GEC THRISSUR</tspan></text>
</g>
</g>
</g>
</svg>
