
<svg xmlns="http://www.w3.org/2000/svg" version="1.1" xmlns:xlink="http://www.w3.org/1999/xlink" preserveAspectRatio="none" x="0px" y="0px" width="934px" height="126px" viewBox="0 0 934 126">
<defs>
<g id="Layer0_0_FILL">
<path fill="#7A540A" stroke="none" d="
M 49.35 47.95
Q 49.35 47.35 49.35 46.7 49.25 47.05 49.15 47.45
L 49.15 47.5
Q 48.65 49.55 48.35 51.9 46.2 68.2 43 84.1 41.8 90.1 43.05 95.1 41.95 93.7 40.6 92.2 37.1 88.3 32.9 88.7 36.2 90.1 38 92.95 41.7 98.9 43.2 105.75 43.25 106.1 43.35 106.5 43.4119140625 106.80078125 43.45 107.1 45.367578125 117.2017578125 40.9 125.7 42.6 125.65 44.5 125.75 51.05 126.1 54.9 123.5 50.35 122.65 50.6 117.85 50.75 114.15 53.15 111.65 53.8 110.95 54.3 110.35 55.645703125 108.74375 56.85 107.1 57.0220703125 106.850390625 57.2 106.6 61.25 100.65 62.85 93.95 61.05 95.2 59.45 97.55 56.15 102.4 50.8 102.5 45.5 92.55 47.7 81.55 50.1482421875 69.8087890625 58 61.8 57.8970703125 61.9087890625 57.85 62.05 59.7 60.9 61.7 59.15 63.9 57.35 65.4 55.85 65.8 55.65 66.15 55.45 66.8 55 67.1 54.5 67.4 54.4 67.7 54.3 67.45 54.25 67.2 54.2
L 67.2 54.15
Q 67.15 54.15 67.1 54.2 64.85 53.9 62.4 55.05 53.25 59.35 48.4 68.25 48.25 63.85 49.45 59.7 51.2 53.65 49.35 47.95 Z"/>

<path fill="#003300" stroke="none" d="
M 96.9 87.9
Q 99.75 82.2 99.9 75.75 100.15 67.4 97 60.4 93.3 51.95 86.65 46.75 83.75 44.45 80.25 42.8 80.2 42.15 80.15 41.5 79.7 38.15 78.3 34.7 74.7 25.55 66.2 20.3 57.45 14.85 46.8 14.55 38.5 15.2 31.85 20.05 21.9 27.3 20.4 39.15 20.25 40.35 20.1 41.5 19.65 44.4 19.15 47.2 13.95 50.7 9.4 55.2 -4.7 69.1 2.35 87 3.8 90.6 6 93.55 14.4521484375 104.762890625 28.35 107.1 30.8154296875 107.514453125 33.45 107.65 36.8361328125 107.7984375 39.65 107.1 41.5560546875 106.62265625 43.2 105.75 41.7 98.9 38 92.95 36.2 90.1 32.9 88.7 37.1 88.3 40.6 92.2 41.95 93.7 43.05 95.1 41.8 90.1 43 84.1 46.2 68.2 48.35 51.9 48.65 49.55 49.15 47.5
L 49.15 47.45
Q 49.25 47.05 49.35 46.7 49.35 47.35 49.35 47.95 51.2 53.65 49.45 59.7 48.25 63.85 48.4 68.25 53.25 59.35 62.4 55.05 64.85 53.9 67.1 54.2 67.15 54.15 67.2 54.15
L 67.2 54.2
Q 67.45 54.25 67.7 54.3 67.4 54.4 67.1 54.5 66.8 55 66.15 55.45 65.8 55.65 65.4 55.85 63.9 57.35 61.7 59.15 59.7 60.9 57.85 62.05 57.8970703125 61.9087890625 58 61.8 50.1482421875 69.8087890625 47.7 81.55 45.5 92.55 50.8 102.5 56.15 102.4 59.45 97.55 61.05 95.2 62.85 93.95 61.25 100.65 57.2 106.6 58.221484375 106.8833984375 59.25 107.1 65.9376953125 108.5197265625 72.7 107.1 76.419140625 106.32421875 80.15 104.7 81.95 103.95 83.45 102.9 85.15 101.8 86.65 100.6 93.15 95.45 96.9 87.9
M 782.45 42.05
Q 782.15 41.75 781.85 41.5 771.3 32.4 757.9 28.35 748.75 27.25 741.65 32.4 736.2 36.4 732.25 41.5 729.3 45.25 727.15 49.65 723.3 57.65 722.85 67 722.45 75.95 726.85 83.25 728.65 86.3 730.45 89.35 732.9 93.6 737.1 95.95 738.75 96.85 740.6 97.5 743.25 98.4 744.55 99.6 747.55 100.85 750.55 102.1 750.7 102.1 750.9 102.15 750.75 101.5 750.55 100.9 750.1 99.4 749.6 98.05 748.8 96.95 747.95 95.95 745.55 93.2 742.35 91.1 742.4 90.85 742.65 90.8 742.95 90.7 743.3 90.65 746.9 93 750 95.95 750.35 96.3 750.7 96.65 750.65 96.3 750.65 95.95 750.05 91.7 749 87.6 748.9 87.3 748.9 87 745.75 78.6 740.2 72.35 740.3 72.15 740.45 72.1 740.55 72.05 740.65 72 744.5 74.55 746.95 78.7 747.75 80.05 748.5 81.4 749.15 82.55 749.75 83.7 748.75 72.55 749.6 61.4 749.8 58.5 750.65 56.1 751.4 61.75 751.35 67.9 751.2 76.5 751.6 84.85 753.5 74.7 759.4 65.95 762.45 61.4 763.2 56.45 763.7 61.95 760.9 67.45 758.1 72.9 755.75 78.6 755.15 80.1 754.75 81.7 754.95 85.55 755.15 89.7 755.2 90.7 755.3 91.7 755.6 89.65 756.95 87.55 757.7 86.4 758.45 85.2 759.9 82.9 761.75 81.1 764.1 78.05 767.25 75.6 775.2 69.6 779.1 61.05 779.2 64.6 776.75 68.1 771.45 75.6 764.55 81.8 763 83.2 762 85.05 760.4 88.05 759.05 91.15 759.2 93 759.25 94.95 760.2 93.6 761.15 92.3 763.2 89.45 766.2 88.1 766.7 87.65 767.2 87.2 768.1 86.45 769.25 86.3 764.7 90.25 761.6 95.8 761.55 95.9 761.55 95.95 760.3 98.05 759.05 100 758.95 101.25 758.9 102.5 768.55 102.25 775.9 97.15 776.75 96.55 777.5 95.95 778.05 95.5 778.55 95.05 787 87.5 791.2 76.4 792 74.35 791.85 72.3 791.3 62.2 788.7 52.15 787.15 46.2 782.45 42.05
M 933.6 41.5
Q 933.7 40.6 933.8 39.7 935.15 27.2 928.35 17.2 925.3 12.7 920.7 10.1 907 2.35 891.6 0 883.85 0.25 875.9 1 872.85 1.25 870.2 2.2 859.2 5.9 852.25 15.5 845.9 24.3 844.5 35.4 844.1 38.5 844.4 41.5 844.65 43.9 845.3 46.25 846.15 49.35 846.75 52.4 849.15 64 856.3 72.95 857.4 74.35 858.3 75.75 861.85 81.3 867.7 83.45 869.55 84.95 871.4 86.35 874.65 88.85 877.75 91.35 878.3 91.75 878.85 91.9 878.75 91.7 878.65 91.55 875.8 86.95 871.05 85.15
L 871.9 85.25
Q 878.6 87.1 882.8 92.45 884.1 92.55 885.4 92.65 885.35 91.8 885.35 90.95 884.55 84.95 883.2 79.05 883 78.2 882.95 77.3 882.7 76.8 882.5 76.3 882.15 75.95 882 75.4 881.95 75.25 882 75.15 880.3 71.75 878.05 68.55 876.8 66.85 877.05 65.45 873.75 61.35 871.05 56.95 867.8 51.65 862.9 47.8 862.45 47.45 863 47.45 874.95 55.55 882.2 68.5 882.7 69.35 883.3 70.25 885.2 73.1 886.45 76.1 886.75 75.2 886.95 74.3 890.8 57.95 889.65 41.5 889.25 36.5 888.45 31.5 887.15 23.45 883 16.75
L 883.15 16.65
Q 891.05 28.05 892.55 41.5 893.35 49.05 892.2 57.25 890.55 69.3 888.05 81.15 888.3 82.3 888.45 83.45 895.3 66.35 912.4 57.4 915.15 56 918 55.05 918.85 54.75 919.55 54.4 920.5 55.9 917.15 57.25 915.7 57.85 914.25 58.65 898.2 67.45 891.55 83.65 891.05 88.05 890.9 92.75 891.6 92.7 892.35 92.65 893.95 92.55 895.55 92.35 897.65 90.05 900.2 88.15 900.9 87.6 901.7 87.45 902.25 88.95 899.7 91.45 899.65 91.5 899.6 91.55 902.45 90.85 905.2 89.7 912.7 86.5 918.9 80.75 925.3 74.8 928.1 66.35 932 54.2 933.6 41.5 Z"/>

<path fill="#573F0E" stroke="none" d="
M 750.65 56.1
Q 749.8 58.5 749.6 61.4 748.75 72.55 749.75 83.7 749.15 82.55 748.5 81.4 747.75 80.05 746.95 78.7 744.5 74.55 740.65 72 740.55 72.05 740.45 72.1 740.3 72.15 740.2 72.35 745.75 78.6 748.9 87 748.9 87.3 749 87.6 750.05 91.7 750.65 95.95 750.65 96.3 750.7 96.65 750.35 96.3 750 95.95 746.9 93 743.3 90.65 742.95 90.7 742.65 90.8 742.4 90.85 742.35 91.1 745.55 93.2 747.95 95.95 748.8 96.95 749.6 98.05 750.1 99.4 750.55 100.9 750.75 101.5 750.9 102.15 751.15 103.05 751.35 103.95 751.673828125 105.50859375 751.85 107.1 752.1703125 109.4396484375 752.2 111.85 752.25 113.55 752.5 115.2 753.5 121.3 748.25 124 747.9 124.15 748.1 124.2 751.5 124.85 755.4 125.2 759 125.5 762.1 123.95 762.3 123.9 762.5 123.9 762.45 123.85 762.4 123.8 762.5 123.75 762.55 123.7 762.9 123.5 762.65 123.55 762.45 123.55 762.3 123.6 761.4 122.3 760.95 120.6 759.1591796875 113.966015625 758.9 107.1 758.8720703125 105.5310546875 758.9 103.95 758.85 103.2 758.9 102.5 758.95 101.25 759.05 100 760.3 98.05 761.55 95.95 761.55 95.9 761.6 95.8 764.7 90.25 769.25 86.3 768.1 86.45 767.2 87.2 766.7 87.65 766.2 88.1 763.2 89.45 761.15 92.3 760.2 93.6 759.25 94.95 759.2 93 759.05 91.15 760.4 88.05 762 85.05 763 83.2 764.55 81.8 771.45 75.6 776.75 68.1 779.2 64.6 779.1 61.05 775.2 69.6 767.25 75.6 764.1 78.05 761.75 81.1 759.9 82.9 758.45 85.2 757.7 86.4 756.95 87.55 755.6 89.65 755.3 91.7 755.2 90.7 755.15 89.7 754.95 85.55 754.75 81.7 755.15 80.1 755.75 78.6 758.1 72.9 760.9 67.45 763.7 61.95 763.2 56.45 762.45 61.4 759.4 65.95 753.5 74.7 751.6 84.85 751.2 76.5 751.35 67.9 751.4 61.75 750.65 56.1 Z"/>

<path fill="#6A4D1A" stroke="none" d="
M 914.25 58.65
Q 915.7 57.85 917.15 57.25 920.5 55.9 919.55 54.4 918.85 54.75 918 55.05 915.15 56 912.4 57.4 895.3 66.35 888.45 83.45 888.3 82.3 888.05 81.15 890.55 69.3 892.2 57.25 893.35 49.05 892.55 41.5 891.05 28.05 883.15 16.65
L 883 16.75
Q 887.15 23.45 888.45 31.5 889.25 36.5 889.65 41.5 890.8 57.95 886.95 74.3 886.75 75.2 886.45 76.1 885.2 73.1 883.3 70.25 882.7 69.35 882.2 68.5 874.95 55.55 863 47.45 862.45 47.45 862.9 47.8 867.8 51.65 871.05 56.95 873.75 61.35 877.05 65.45 876.8 66.85 878.05 68.55 880.3 71.75 882 75.15 881.95 75.25 882 75.4 882.15 75.95 882.5 76.3 882.7 76.8 882.95 77.3 883 78.2 883.2 79.05 884.55 84.95 885.35 90.95 885.35 91.8 885.4 92.65 885.4 94.3 885.45 95.95 885.45 96.05 885.45 96.15 885.45 96.4 885.45 96.65 885.25 96.3 885.1 95.95 884.05 94.05 882.8 92.45 878.6 87.1 871.9 85.25
L 871.05 85.15
Q 875.8 86.95 878.65 91.55 878.75 91.7 878.85 91.9 879.75 93.35 880.55 94.85 880.85 95.4 881.15 95.95 882.6 98.5 884.3 100.85 884.5 101.8 884.8 102.7 885 103.3 885.15 103.95 885.35 105.1 885.35 106.3
L 885.4 106.35
Q 885.39140625 106.7251953125 885.35 107.1 885.221484375 113.31953125 884.75 119.45 884.2 119.95 883.6 120.4 882.65 121.2 882.35 122.2 883.25 122.45 884.1 122.65 886.85 123.9 889.3 123.25 892.3 123.3 894.95 122.55 892.7 122.15 892.4 119.8 891.9 115.45 891.75 111.2 891.7083984375 109.080859375 891.7 107.1 891.7 106.6970703125 891.7 106.3 892.1 105.3 892.35 104.25 892.4 104.1 892.45 103.95 893.6 99.55 896 95.95 897.55 93.6 899.6 91.55 899.65 91.5 899.7 91.45 902.25 88.95 901.7 87.45 900.9 87.6 900.2 88.15 897.65 90.05 895.55 92.35 894 94.05 892.75 95.95 891.65 97.5 890.8 99.2 890.8 97.55 890.8 95.95 890.8 94.35 890.9 92.75 891.05 88.05 891.55 83.65 898.2 67.45 914.25 58.65 Z"/>
</g>
</defs>

<g transform="matrix( 1, 0, 0, 1, 0,0) ">
<use xlink:href="#Layer0_0_FILL"/>
</g>
</svg>
