
<svg xmlns="http://www.w3.org/2000/svg" version="1.1" xmlns:xlink="http://www.w3.org/1999/xlink" preserveAspectRatio="none" x="0px" y="0px" width="2542px" height="156px" viewBox="0 0 2542 156">
<defs>
<g id="Layer1_0_FILL">
<path fill="#001600" stroke="none" d="
M 2441.8 46.7
Q 2441.2755859375 46.6810546875 2440.75 46.6 2270.336328125 28.6052734375 2020.45 16.95 1995.8 15.8 1970.4 14.7 1882.3052734375 10.9267578125 1790.75 8.1 1789.6005859375 8.08515625 1788.45 8.05 1548.6455078125 0.7490234375 1285.15 0.1 1282.45 0.05 1279.65 0.05 1255.4 0 1231.05 0 1185.1384765625 0 1140.2 0.2 1139.649609375 0.19765625 1139.1 0.2 1035.197265625 0.665234375 936.5 2.2 936.3005859375 2.196875 936.1 2.2 926.5763671875 2.3427734375 917.1 2.5 915.249609375 2.519140625 913.4 2.55 865.991796875 3.356640625 819.8 4.4 812.86171875 4.556640625 805.95 4.7 805.575 4.716796875 805.2 4.7 804.299609375 4.746484375 803.4 4.75 758.72109375 5.83984375 715.15 7.15 645.35 9.2 578.45 11.9 544.65 13.2 511.65 14.7 369.4548828125 21.1775390625 257.5 29.8 256.9748046875 29.8658203125 256.45 29.9 240.05 31.1826171875 224.3 32.5 223.6994140625 32.549609375 223.1 32.6 217.584765625 33.05703125 212.15 33.5 211.725 33.56171875 211.3 33.6 189.1330078125 35.5150390625 168.3 37.5 164.173828125 37.9232421875 160.1 38.3 159.0990234375 38.4236328125 158.1 38.5 157.74921875 38.559765625 157.4 38.6 65.171875 47.747265625 0 58.85
L 0 75.45 0 107.1 0 123.4 0 128.5 0 156.95 158.1 156.95 160.1 156.95 168.3 156.95 211.3 156.95 212.15 156.95 224.3 156.95 578.45 156.95 805.2 156.95 805.95 156.95 819.85 156.95 917.1 156.95 1139.1 156.95 1140.2 156.95 1279.65 156.95 1790.75 156.95 2440.75 156.95 2441.8 156.95 2474.9 156.95 2542.05 156.95 2542.05 58.85
Q 2510.35 54.45 2474.85 50.4 2458.7177734375 48.5423828125 2441.8 46.7 Z"/>
</g>
</defs>

<g transform="matrix( 1, 0, 0, 1, 0,0) ">
<use xlink:href="#Layer1_0_FILL"/>
</g>
</svg>
