
<svg xmlns="http://www.w3.org/2000/svg" version="1.1" xmlns:xlink="http://www.w3.org/1999/xlink" preserveAspectRatio="none" x="0px" y="0px" width="1136px" height="211px" viewBox="0 0 1136 211">
<defs>
<g id="Layer0_0_FILL">
<path fill="#0E0E0E" stroke="none" d="
M 72 89.5
L 72 109.95 87.5 109.95 87.5 89.5 72 89.5
M 129.4 162.3
L 129.4 143.2 113 143.2 113 162.3 129.4 162.3
M 107 143.2
L 93.5 143.2 93.5 162.3 107 162.3 107 143.2
M 93.5 117
L 93.5 136.15 107 136.15 107 117 93.5 117
M 155.1 143.2
L 135.4 143.2 135.4 162.3 155.1 162.3 155.1 143.2
M 135.4 117
L 135.4 136.15 155.1 136.15 155.1 117 135.4 117
M 129.4 136.15
L 129.4 117 113 117 113 136.15 129.4 136.15
M 72 143.2
L 72 162.3 87.5 162.3 87.5 143.2 72 143.2
M 44.5 162.3
L 44.5 143.2 31 143.2 31 162.3 44.5 162.3
M 72 117
L 72 136.15 87.5 136.15 87.5 117 72 117
M 66 143.2
L 50.5 143.2 50.5 162.3 66 162.3 66 143.2
M 50.5 117
L 50.5 136.15 66 136.15 66 117 50.5 117
M 44.5 136.15
L 44.5 117 31 117 31 136.15 44.5 136.15
M 44.5 89.5
L 31 89.5 31 109.95 44.5 109.95 44.5 89.5
M 44.5 51.75
L 44.5 28.75 31 28.75 31 51.75 44.5 51.75
M 66 89.5
L 50.5 89.5 50.5 109.95 66 109.95 66 89.5
M 66 82.45
L 66 58.8 50.5 58.8 50.5 82.45 66 82.45
M 31 58.8
L 31 82.45 44.5 82.45 44.5 58.8 31 58.8
M 66 28.75
L 50.5 28.75 50.5 51.75 66 51.75 66 28.75
M 87.5 51.75
L 87.5 28.75 72 28.75 72 51.75 87.5 51.75
M 129.4 89.5
L 113 89.5 113 109.95 129.4 109.95 129.4 89.5
M 129.4 51.75
L 129.4 28.75 113 28.75 113 51.75 129.4 51.75
M 155.1 89.5
L 135.4 89.5 135.4 109.95 155.1 109.95 155.1 89.5
M 155.1 82.45
L 155.1 58.8 135.4 58.8 135.4 82.45 155.1 82.45
M 87.5 82.45
L 87.5 58.8 72 58.8 72 82.45 87.5 82.45
M 107 89.5
L 93.5 89.5 93.5 109.95 107 109.95 107 89.5
M 113 58.8
L 113 82.45 129.4 82.45 129.4 58.8 113 58.8
M 107 82.45
L 107 58.8 93.5 58.8 93.5 82.45 107 82.45
M 107 28.75
L 93.5 28.75 93.5 51.75 107 51.75 107 28.75
M 155.1 28.75
L 135.4 28.75 135.4 51.75 155.1 51.75 155.1 28.75
M 1047.75 88.25
L 1047.75 108.7 1063.25 108.7 1063.25 88.25 1047.75 88.25
M 1104.25 161.05
L 1104.25 141.95 1090.75 141.95 1090.75 161.05 1104.25 161.05
M 1084.75 141.95
L 1069.25 141.95 1069.25 161.05 1084.75 161.05 1084.75 141.95
M 1084.75 134.9
L 1084.75 115.75 1069.25 115.75 1069.25 134.9 1084.75 134.9
M 1104.25 134.9
L 1104.25 115.75 1090.75 115.75 1090.75 134.9 1104.25 134.9
M 1047.75 141.95
L 1047.75 161.05 1063.25 161.05 1063.25 141.95 1047.75 141.95
M 1022.25 161.05
L 1022.25 141.95 1001.4 141.95 1001.4 161.05 1022.25 161.05
M 995.4 141.95
L 974.55 141.95 974.55 161.05 995.4 161.05 995.4 141.95
M 995.4 134.9
L 995.4 115.75 974.55 115.75 974.55 134.9 995.4 134.9
M 1041.75 141.95
L 1028.25 141.95 1028.25 161.05 1041.75 161.05 1041.75 141.95
M 1022.25 134.9
L 1022.25 115.75 1001.4 115.75 1001.4 134.9 1022.25 134.9
M 1047.75 115.75
L 1047.75 134.9 1063.25 134.9 1063.25 115.75 1047.75 115.75
M 1028.25 115.75
L 1028.25 134.9 1041.75 134.9 1041.75 115.75 1028.25 115.75
M 1022.25 88.25
L 1001.4 88.25 1001.4 108.7 1022.25 108.7 1022.25 88.25
M 1001.4 27.5
L 1001.4 50.5 1022.25 50.5 1022.25 27.5 1001.4 27.5
M 1041.75 88.25
L 1028.25 88.25 1028.25 108.7 1041.75 108.7 1041.75 88.25
M 1041.75 81.2
L 1041.75 57.55 1028.25 57.55 1028.25 81.2 1041.75 81.2
M 1001.4 57.55
L 1001.4 81.2 1022.25 81.2 1022.25 57.55 1001.4 57.55
M 995.4 88.25
L 974.55 88.25 974.55 108.7 995.4 108.7 995.4 88.25
M 995.4 81.2
L 995.4 57.55 974.55 57.55 974.55 81.2 995.4 81.2
M 995.4 27.5
L 974.55 27.5 974.55 50.5 995.4 50.5 995.4 27.5
M 1041.75 27.5
L 1028.25 27.5 1028.25 50.5 1041.75 50.5 1041.75 27.5
M 1063.25 50.5
L 1063.25 27.5 1047.75 27.5 1047.75 50.5 1063.25 50.5
M 1104.25 88.25
L 1090.75 88.25 1090.75 108.7 1104.25 108.7 1104.25 88.25
M 1090.75 27.5
L 1090.75 50.5 1104.25 50.5 1104.25 27.5 1090.75 27.5
M 1063.25 81.2
L 1063.25 57.55 1047.75 57.55 1047.75 81.2 1063.25 81.2
M 1084.75 88.25
L 1069.25 88.25 1069.25 108.7 1084.75 108.7 1084.75 88.25
M 1090.75 57.55
L 1090.75 81.2 1104.25 81.2 1104.25 57.55 1090.75 57.55
M 1084.75 81.2
L 1084.75 57.55 1069.25 57.55 1069.25 81.2 1084.75 81.2
M 1084.75 27.5
L 1069.25 27.5 1069.25 50.5 1084.75 50.5 1084.75 27.5 Z"/>

<path fill="#D03F33" stroke="none" d="
M 113 143.2
L 107 143.2 107 162.3 113 162.3 113 143.2
M 93.5 143.2
L 87.5 143.2 87.5 162.3 93.5 162.3 93.5 143.2
M 93.5 117
L 87.5 117 87.5 136.15 93.5 136.15 93.5 117
M 113 117
L 107 117 107 136.15 113 136.15 113 117
M 161.1 143.2
L 155.1 143.2 155.1 162.3 161.1 162.3 161.1 160.1 161.1 143.2
M 135.4 143.2
L 129.4 143.2 129.4 162.3 135.4 162.3 135.4 143.2
M 135.4 117
L 129.4 117 129.4 136.15 135.4 136.15 135.4 117
M 161.1 117
L 155.1 117 155.1 136.15 161.1 136.15 161.1 117
M 72 143.2
L 66 143.2 66 162.3 72 162.3 72 143.2
M 50.5 143.2
L 44.5 143.2 44.5 162.3 50.5 162.3 50.5 143.2
M 50.5 117
L 44.5 117 44.5 136.15 50.5 136.15 50.5 117
M 72 117
L 66 117 66 136.15 72 136.15 72 117
M 72 89.5
L 66 89.5 66 109.95 72 109.95 72 89.5
M 50.5 89.5
L 44.5 89.5 44.5 109.95 50.5 109.95 50.5 89.5
M 50.5 58.8
L 44.5 58.8 44.5 82.45 50.5 82.45 50.5 58.8
M 72 58.8
L 66 58.8 66 82.45 72 82.45 72 58.8
M 72 28.75
L 66 28.75 66 51.75 72 51.75 72 28.75
M 50.5 28.75
L 44.5 28.75 44.5 51.75 50.5 51.75 50.5 28.75
M 161.1 89.5
L 155.1 89.5 155.1 109.95 161.1 109.95 161.1 108.8 161.1 89.5
M 135.4 89.5
L 129.4 89.5 129.4 109.95 135.4 109.95 135.4 89.5
M 135.4 58.8
L 129.4 58.8 129.4 82.45 135.4 82.45 135.4 58.8
M 161.1 58.8
L 155.1 58.8 155.1 82.45 161.1 82.45 161.1 58.8
M 113 89.5
L 107 89.5 107 109.95 113 109.95 113 89.5
M 93.5 89.5
L 87.5 89.5 87.5 109.95 93.5 109.95 93.5 89.5
M 93.5 58.8
L 87.5 58.8 87.5 82.45 93.5 82.45 93.5 58.8
M 113 58.8
L 107 58.8 107 82.45 113 82.45 113 58.8
M 93.5 28.75
L 87.5 28.75 87.5 51.75 93.5 51.75 93.5 28.75
M 113 28.75
L 107 28.75 107 51.75 113 51.75 113 28.75
M 161.1 28.75
L 155.1 28.75 155.1 51.75 161.1 51.75 161.1 28.75
M 135.4 28.75
L 129.4 28.75 129.4 51.75 135.4 51.75 135.4 28.75
M 974.55 108.7
L 974.55 88.25 968.55 88.25 968.55 108.7 974.55 108.7
M 1090.75 141.95
L 1084.75 141.95 1084.75 161.05 1090.75 161.05 1090.75 141.95
M 1069.25 141.95
L 1063.25 141.95 1063.25 161.05 1069.25 161.05 1069.25 141.95
M 1069.25 115.75
L 1063.25 115.75 1063.25 134.9 1069.25 134.9 1069.25 115.75
M 1090.75 115.75
L 1084.75 115.75 1084.75 134.9 1090.75 134.9 1090.75 115.75
M 974.55 161.05
L 974.55 141.95 968.55 141.95 968.55 160.1 968.55 161.05 974.55 161.05
M 974.55 134.9
L 974.55 115.75 968.55 115.75 968.55 134.9 974.55 134.9
M 1001.4 141.95
L 995.4 141.95 995.4 161.05 1001.4 161.05 1001.4 141.95
M 1001.4 115.75
L 995.4 115.75 995.4 134.9 1001.4 134.9 1001.4 115.75
M 1047.75 141.95
L 1041.75 141.95 1041.75 161.05 1047.75 161.05 1047.75 141.95
M 1028.25 141.95
L 1022.25 141.95 1022.25 161.05 1028.25 161.05 1028.25 141.95
M 1028.25 115.75
L 1022.25 115.75 1022.25 134.9 1028.25 134.9 1028.25 115.75
M 1047.75 115.75
L 1041.75 115.75 1041.75 134.9 1047.75 134.9 1047.75 115.75
M 974.55 50.5
L 974.55 27.5 968.55 27.5 968.55 50.5 974.55 50.5
M 1047.75 88.25
L 1041.75 88.25 1041.75 108.7 1047.75 108.7 1047.75 88.25
M 1028.25 88.25
L 1022.25 88.25 1022.25 108.7 1028.25 108.7 1028.25 88.25
M 1028.25 57.55
L 1022.25 57.55 1022.25 81.2 1028.25 81.2 1028.25 57.55
M 1047.75 57.55
L 1041.75 57.55 1041.75 81.2 1047.75 81.2 1047.75 57.55
M 974.55 81.2
L 974.55 57.55 968.55 57.55 968.55 81.2 974.55 81.2
M 1001.4 88.25
L 995.4 88.25 995.4 108.7 1001.4 108.7 1001.4 88.25
M 1001.4 57.55
L 995.4 57.55 995.4 81.2 1001.4 81.2 1001.4 57.55
M 1001.4 27.5
L 995.4 27.5 995.4 50.5 1001.4 50.5 1001.4 27.5
M 1047.75 27.5
L 1041.75 27.5 1041.75 50.5 1047.75 50.5 1047.75 27.5
M 1028.25 27.5
L 1022.25 27.5 1022.25 50.5 1028.25 50.5 1028.25 27.5
M 1090.75 88.25
L 1084.75 88.25 1084.75 108.7 1090.75 108.7 1090.75 88.25
M 1069.25 88.25
L 1063.25 88.25 1063.25 108.7 1069.25 108.7 1069.25 88.25
M 1069.25 57.55
L 1063.25 57.55 1063.25 81.2 1069.25 81.2 1069.25 57.55
M 1090.75 57.55
L 1084.75 57.55 1084.75 81.2 1090.75 81.2 1090.75 57.55
M 1090.75 27.5
L 1084.75 27.5 1084.75 50.5 1090.75 50.5 1090.75 27.5
M 1069.25 27.5
L 1063.25 27.5 1063.25 50.5 1069.25 50.5 1069.25 27.5 Z"/>

<path fill="#F2F253" stroke="none" d="
M 72 162.3
L 66 162.3 50.5 162.3 44.5 162.3 31 162.3 31 210.55 93.1 210.55 104.9 210.55 161.1 210.55 161.1 162.3 155.1 162.3 135.4 162.3 129.4 162.3 113 162.3 107 162.3 93.5 162.3 87.5 162.3 72 162.3
M 135.4 28.75
L 155.1 28.75 161.1 28.75 161.1 1.25 104.9 1.25 93.1 1.25 31 1.25 31 28.75 44.5 28.75 50.5 28.75 66 28.75 72 28.75 87.5 28.75 93.5 28.75 107 28.75 113 28.75 129.4 28.75 135.4 28.75
M 995.4 161.05
L 974.55 161.05 968.55 161.05 968.55 206.55 1104.25 206.55 1104.25 161.05 1090.75 161.05 1084.75 161.05 1069.25 161.05 1063.25 161.05 1047.75 161.05 1041.75 161.05 1028.25 161.05 1022.25 161.05 1001.4 161.05 995.4 161.05
M 1104.25 27.5
L 1104.25 0 968.55 0 968.55 27.5 974.55 27.5 995.4 27.5 1001.4 27.5 1022.25 27.5 1028.25 27.5 1041.75 27.5 1047.75 27.5 1063.25 27.5 1069.25 27.5 1084.75 27.5 1090.75 27.5 1104.25 27.5 Z"/>

<path fill="#FEF8F6" stroke="none" d="
M 50.5 136.15
L 44.5 136.15 31 136.15 31 143.2 44.5 143.2 50.5 143.2 66 143.2 72 143.2 87.5 143.2 93.5 143.2 107 143.2 113 143.2 129.4 143.2 135.4 143.2 155.1 143.2 161.1 143.2 161.1 136.15 155.1 136.15 135.4 136.15 129.4 136.15 113 136.15 107 136.15 93.5 136.15 87.5 136.15 72 136.15 66 136.15 50.5 136.15
M 72 109.95
L 66 109.95 50.5 109.95 44.5 109.95 31 109.95 31 117 44.5 117 50.5 117 66 117 72 117 87.5 117 93.5 117 107 117 113 117 129.4 117 135.4 117 155.1 117 161.1 117 161.1 109.95 155.1 109.95 135.4 109.95 129.4 109.95 113 109.95 107 109.95 93.5 109.95 87.5 109.95 72 109.95
M 87.5 89.5
L 93.5 89.5 107 89.5 113 89.5 129.4 89.5 135.4 89.5 155.1 89.5 161.1 89.5 161.1 82.45 155.1 82.45 135.4 82.45 129.4 82.45 113 82.45 107 82.45 93.5 82.45 87.5 82.45 72 82.45 66 82.45 50.5 82.45 44.5 82.45 31 82.45 31 89.5 44.5 89.5 50.5 89.5 66 89.5 72 89.5 87.5 89.5
M 113 51.75
L 107 51.75 93.5 51.75 87.5 51.75 72 51.75 66 51.75 50.5 51.75 44.5 51.75 31 51.75 31 58.8 44.5 58.8 50.5 58.8 66 58.8 72 58.8 87.5 58.8 93.5 58.8 107 58.8 113 58.8 129.4 58.8 135.4 58.8 155.1 58.8 161.1 58.8 161.1 56.5 161.1 51.75 155.1 51.75 135.4 51.75 129.4 51.75 113 51.75
M 1022.25 141.95
L 1028.25 141.95 1041.75 141.95 1047.75 141.95 1063.25 141.95 1069.25 141.95 1084.75 141.95 1090.75 141.95 1104.25 141.95 1104.25 134.9 1090.75 134.9 1084.75 134.9 1069.25 134.9 1063.25 134.9 1047.75 134.9 1041.75 134.9 1028.25 134.9 1022.25 134.9 1001.4 134.9 995.4 134.9 974.55 134.9 968.55 134.9 968.55 141.95 974.55 141.95 995.4 141.95 1001.4 141.95 1022.25 141.95
M 1047.75 108.7
L 1041.75 108.7 1028.25 108.7 1022.25 108.7 1001.4 108.7 995.4 108.7 974.55 108.7 968.55 108.7 968.55 108.8 968.55 115.75 974.55 115.75 995.4 115.75 1001.4 115.75 1022.25 115.75 1028.25 115.75 1041.75 115.75 1047.75 115.75 1063.25 115.75 1069.25 115.75 1084.75 115.75 1090.75 115.75 1104.25 115.75 1104.25 108.7 1090.75 108.7 1084.75 108.7 1069.25 108.7 1063.25 108.7 1047.75 108.7
M 1069.25 81.2
L 1063.25 81.2 1047.75 81.2 1041.75 81.2 1028.25 81.2 1022.25 81.2 1001.4 81.2 995.4 81.2 974.55 81.2 968.55 81.2 968.55 88.25 974.55 88.25 995.4 88.25 1001.4 88.25 1022.25 88.25 1028.25 88.25 1041.75 88.25 1047.75 88.25 1063.25 88.25 1069.25 88.25 1084.75 88.25 1090.75 88.25 1104.25 88.25 1104.25 81.2 1090.75 81.2 1084.75 81.2 1069.25 81.2
M 1084.75 57.55
L 1090.75 57.55 1104.25 57.55 1104.25 50.5 1090.75 50.5 1084.75 50.5 1069.25 50.5 1063.25 50.5 1047.75 50.5 1041.75 50.5 1028.25 50.5 1022.25 50.5 1001.4 50.5 995.4 50.5 974.55 50.5 968.55 50.5 968.55 56.5 968.55 57.55 974.55 57.55 995.4 57.55 1001.4 57.55 1022.25 57.55 1028.25 57.55 1041.75 57.55 1047.75 57.55 1063.25 57.55 1069.25 57.55 1084.75 57.55 Z"/>

<path fill="#7D8894" stroke="none" d="
M 31 1.25
L 0 1.25 0 56.5 0 108.8 0 160.1 0 210.55 31 210.55 31 162.3 31 143.2 31 136.15 31 117 31 109.95 31 89.5 31 82.45 31 58.8 31 51.75 31 28.75 31 1.25
M 1135.25 56.5
L 1135.25 0 1104.25 0 1104.25 27.5 1104.25 50.5 1104.25 57.55 1104.25 81.2 1104.25 88.25 1104.25 108.7 1104.25 115.75 1104.25 134.9 1104.25 141.95 1104.25 161.05 1104.25 206.55 1135.25 206.55 1135.25 160.1 1135.25 108.8 1135.25 56.5 Z"/>
</g>
</defs>

<g transform="matrix( 1, 0, 0, 1, 0,0) ">
<use xlink:href="#Layer0_0_FILL"/>
</g>
</svg>
