
<svg xmlns="http://www.w3.org/2000/svg" version="1.1" xmlns:xlink="http://www.w3.org/1999/xlink" preserveAspectRatio="none" x="0px" y="0px" width="801px" height="248px" viewBox="0 0 801 248">
<defs>
<g id="Layer0_0_FILL">
<path fill="#D03F33" stroke="none" d="
M 83.6 96.85
L 77.8 96.85 77.8 108.3 83.6 108.3 83.6 96.85
M 102.15 112.25
L 96.35 112.25 96.35 125.3 102.15 125.3 102.15 112.25
M 117.7 112.25
L 111.75 112.25 111.75 125.3 117.7 125.3 117.7 112.25
M 136.05 112.25
L 130.1 112.25 130.1 125.3 136.05 125.3 136.05 112.25
M 151.45 112.25
L 145.65 112.25 145.65 125.3 151.45 125.3 151.45 112.25
M 5.8 112.25
L 0 112.25 0 123.4 0 125.3 5.8 125.3 5.8 112.25
M 27.75 112.25
L 21.95 112.25 21.95 125.3 27.75 125.3 27.75 112.25
M 77.8 112.25
L 77.8 125.3 83.6 125.3 83.6 112.25 77.8 112.25
M 49.7 112.25
L 43.9 112.25 43.9 125.3 49.7 125.3 49.7 112.25
M 68.05 112.25
L 62.25 112.25 62.25 125.3 68.05 125.3 68.05 112.25
M 68.05 96.85
L 62.25 96.85 62.25 108.3 68.05 108.3 68.05 96.85
M 68.05 79.75
L 62.25 79.75 62.25 93.2 68.05 93.2 68.05 79.75
M 49.7 96.85
L 43.9 96.85 43.9 108.3 49.7 108.3 49.7 96.85
M 43.9 93.2
L 49.7 93.2 49.7 79.75 43.9 79.75 43.9 93.2
M 49.7 50.8
L 43.9 50.8 43.9 64.75 43.9 75.9 49.7 75.9 49.7 64.75 49.7 50.8
M 68.05 50.8
L 62.25 50.8 62.25 64.75 62.25 75.9 68.05 75.9 68.05 64.75 68.05 50.8
M 21.95 93.2
L 27.75 93.2 27.75 79.75 21.95 79.75 21.95 93.2
M 27.75 96.85
L 21.95 96.85 21.95 108.3 27.75 108.3 27.75 96.85
M 0 96.85
L 0 97.45 0 108.3 5.8 108.3 5.8 96.85 0 96.85
M 5.8 79.75
L 0 79.75 0 93.2 5.8 93.2 5.8 79.75
M 5.8 50.8
L 0 50.8 0 64.75 0 75.9 5.8 75.9 5.8 64.75 5.8 50.8
M 27.75 50.8
L 21.95 50.8 21.95 64.75 21.95 75.9 27.75 75.9 27.75 64.75 27.75 50.8
M 27.75 32.75
L 21.95 32.75 21.95 46.85 27.75 46.85 27.75 32.75
M 5.8 32.75
L 0 32.75 0 46.85 5.8 46.85 5.8 32.75
M 5.8 11.1
L 0 11.1 0 28.9 5.8 28.9 5.8 11.1
M 27.75 11.1
L 21.95 11.1 21.95 28.9 27.75 28.9 27.75 11.1
M 68.05 32.75
L 62.25 32.75 62.25 46.85 68.05 46.85 68.05 32.75
M 49.7 32.75
L 43.9 32.75 43.9 46.85 49.7 46.85 49.7 32.75
M 49.7 11.1
L 43.9 11.1 43.9 28.9 49.7 28.9 49.7 11.1
M 68.05 11.1
L 62.25 11.1 62.25 28.9 68.05 28.9 68.05 11.1
M 151.45 96.85
L 145.65 96.85 145.65 108.3 151.45 108.3 151.45 96.85
M 145.65 93.2
L 151.45 93.2 151.45 79.75 145.65 79.75 145.65 93.2
M 136.05 96.85
L 130.1 96.85 130.1 108.3 136.05 108.3 136.05 96.85
M 130.1 93.2
L 136.05 93.2 136.05 79.75 130.1 79.75 130.1 93.2
M 136.05 50.8
L 130.1 50.8 130.1 64.75 130.1 75.9 136.05 75.9 136.05 64.75 136.05 50.8
M 151.45 50.8
L 145.65 50.8 145.65 64.75 145.65 75.9 151.45 75.9 151.45 64.75 151.45 50.8
M 102.15 96.85
L 96.35 96.85 96.35 108.3 102.15 108.3 102.15 96.85
M 117.7 96.85
L 111.75 96.85 111.75 108.3 117.7 108.3 117.7 96.85
M 117.7 79.75
L 111.75 79.75 111.75 93.2 117.7 93.2 117.7 79.75
M 96.35 79.75
L 96.35 93.2 102.15 93.2 102.15 79.75 96.35 79.75
M 83.6 93.2
L 83.6 79.75 77.8 79.75 77.8 93.2 83.6 93.2
M 83.6 64.75
L 83.6 50.8 77.8 50.8 77.8 64.75 77.8 75.9 83.6 75.9 83.6 64.75
M 102.15 64.75
L 102.15 50.8 96.35 50.8 96.35 64.75 96.35 75.9 102.15 75.9 102.15 64.75
M 117.7 50.8
L 111.75 50.8 111.75 64.75 111.75 75.9 117.7 75.9 117.7 64.75 117.7 50.8
M 83.6 28.9
L 83.6 11.1 77.8 11.1 77.8 28.9 83.6 28.9
M 102.15 11.1
L 96.35 11.1 96.35 28.9 102.15 28.9 102.15 11.1
M 117.7 32.75
L 111.75 32.75 111.75 46.85 117.7 46.85 117.7 32.75
M 96.35 32.75
L 96.35 46.85 102.15 46.85 102.15 32.75 96.35 32.75
M 83.6 46.85
L 83.6 32.75 77.8 32.75 77.8 46.85 83.6 46.85
M 117.7 11.1
L 111.75 11.1 111.75 28.9 117.7 28.9 117.7 11.1
M 151.45 32.75
L 145.65 32.75 145.65 46.85 151.45 46.85 151.45 32.75
M 136.05 32.75
L 130.1 32.75 130.1 46.85 136.05 46.85 136.05 32.75
M 136.05 11.1
L 130.1 11.1 130.1 28.9 136.05 28.9 136.05 11.1
M 151.45 11.1
L 145.65 11.1 145.65 28.9 151.45 28.9 151.45 11.1
M 255.15 112.25
L 249.35 112.25 249.35 125.3 255.15 125.3 255.15 112.25
M 272.6 112.25
L 266.95 112.25 266.95 125.3 272.6 125.3 272.6 112.25
M 289.3 125.3
L 289.3 112.25 283.45 112.25 283.45 125.3 289.3 125.3
M 307.65 112.25
L 301.8 112.25 301.8 125.3 307.65 125.3 307.65 112.25
M 323.15 112.25
L 317.2 112.25 317.2 125.3 323.15 125.3 323.15 112.25
M 186.4 112.25
L 180.6 112.25 180.6 125.3 186.4 125.3 186.4 112.25
M 168.8 112.25
L 163.15 112.25 163.15 125.3 168.8 125.3 168.8 112.25
M 203.1 125.3
L 203.1 112.25 197.25 112.25 197.25 125.3 203.1 125.3
M 221.4 112.25
L 215.6 112.25 215.6 125.3 221.4 125.3 221.4 112.25
M 236.75 112.25
L 231 112.25 231 125.3 236.75 125.3 236.75 112.25
M 203.1 96.85
L 197.25 96.85 197.25 108.3 203.1 108.3 203.1 96.85
M 236.75 96.85
L 231 96.85 231 108.3 236.75 108.3 236.75 96.85
M 231 93.2
L 236.75 93.2 236.75 79.75 231 79.75 231 93.2
M 221.4 96.85
L 215.6 96.85 215.6 108.3 221.4 108.3 221.4 96.85
M 221.4 79.75
L 215.6 79.75 215.6 93.2 221.4 93.2 221.4 79.75
M 221.4 50.8
L 215.6 50.8 215.6 64.75 215.6 75.9 221.4 75.9 221.4 64.75 221.4 50.8
M 236.75 50.8
L 231 50.8 231 64.75 231 75.9 236.75 75.9 236.75 64.75 236.75 50.8
M 186.4 96.85
L 180.6 96.85 180.6 108.3 186.4 108.3 186.4 96.85
M 197.25 79.75
L 197.25 93.2 203.1 93.2 203.1 79.75 197.25 79.75
M 180.6 79.75
L 180.6 93.2 186.4 93.2 186.4 79.75 180.6 79.75
M 168.8 96.85
L 163.15 96.85 163.15 108.3 168.8 108.3 168.8 96.85
M 168.8 79.75
L 163.15 79.75 163.15 93.2 168.8 93.2 168.8 79.75
M 168.8 50.8
L 163.15 50.8 163.15 64.75 163.15 75.9 168.8 75.9 168.8 64.75 168.8 50.8
M 186.4 64.75
L 186.4 50.8 180.6 50.8 180.6 64.75 180.6 75.9 186.4 75.9 186.4 64.75
M 197.25 50.8
L 197.25 64.75 197.25 75.9 203.1 75.9 203.1 64.75 203.1 50.8 197.25 50.8
M 186.4 11.1
L 180.6 11.1 180.6 28.9 186.4 28.9 186.4 11.1
M 180.6 32.75
L 180.6 46.85 186.4 46.85 186.4 32.75 180.6 32.75
M 168.8 32.75
L 163.15 32.75 163.15 46.85 168.8 46.85 168.8 32.75
M 168.8 11.1
L 163.15 11.1 163.15 28.9 168.8 28.9 168.8 11.1
M 203.1 28.9
L 203.1 11.1 197.25 11.1 197.25 28.9 203.1 28.9
M 236.75 32.75
L 231 32.75 231 46.85 236.75 46.85 236.75 32.75
M 203.1 46.85
L 203.1 32.75 197.25 32.75 197.25 46.85 203.1 46.85
M 221.4 32.75
L 215.6 32.75 215.6 46.85 221.4 46.85 221.4 32.75
M 221.4 11.1
L 215.6 11.1 215.6 28.9 221.4 28.9 221.4 11.1
M 236.75 11.1
L 231 11.1 231 28.9 236.75 28.9 236.75 11.1
M 289.3 96.85
L 283.45 96.85 283.45 108.3 289.3 108.3 289.3 96.85
M 307.65 96.85
L 301.8 96.85 301.8 108.3 307.65 108.3 307.65 96.85
M 323.15 96.85
L 317.2 96.85 317.2 108.3 323.15 108.3 323.15 96.85
M 323.15 79.75
L 317.2 79.75 317.2 93.2 323.15 93.2 323.15 79.75
M 301.8 79.75
L 301.8 93.2 307.65 93.2 307.65 79.75 301.8 79.75
M 307.65 64.75
L 307.65 50.8 301.8 50.8 301.8 64.75 301.8 75.9 307.65 75.9 307.65 64.75
M 323.15 50.8
L 317.2 50.8 317.2 64.75 317.2 75.9 323.15 75.9 323.15 64.75 323.15 50.8
M 283.45 79.75
L 283.45 93.2 289.3 93.2 289.3 79.75 283.45 79.75
M 272.6 96.85
L 266.95 96.85 266.95 108.3 272.6 108.3 272.6 96.85
M 272.6 79.75
L 266.95 79.75 266.95 93.2 272.6 93.2 272.6 79.75
M 255.15 96.85
L 249.35 96.85 249.35 108.3 255.15 108.3 255.15 96.85
M 249.35 93.2
L 255.15 93.2 255.15 79.75 249.35 79.75 249.35 93.2
M 255.15 50.8
L 249.35 50.8 249.35 64.75 249.35 75.9 255.15 75.9 255.15 64.75 255.15 50.8
M 283.45 50.8
L 283.45 64.75 283.45 75.9 289.3 75.9 289.3 64.75 289.3 50.8 283.45 50.8
M 272.6 50.8
L 266.95 50.8 266.95 64.75 266.95 75.9 272.6 75.9 272.6 64.75 272.6 50.8
M 272.6 32.75
L 266.95 32.75 266.95 46.85 272.6 46.85 272.6 32.75
M 255.15 32.75
L 249.35 32.75 249.35 46.85 255.15 46.85 255.15 32.75
M 255.15 11.1
L 249.35 11.1 249.35 28.9 255.15 28.9 255.15 11.1
M 272.6 11.1
L 266.95 11.1 266.95 28.9 272.6 28.9 272.6 11.1
M 289.3 28.9
L 289.3 11.1 283.45 11.1 283.45 28.9 289.3 28.9
M 307.65 11.1
L 301.8 11.1 301.8 28.9 307.65 28.9 307.65 11.1
M 323.15 32.75
L 317.2 32.75 317.2 46.85 323.15 46.85 323.15 32.75
M 289.3 46.85
L 289.3 32.75 283.45 32.75 283.45 46.85 289.3 46.85
M 301.8 32.75
L 301.8 46.85 307.65 46.85 307.65 32.75 301.8 32.75
M 323.15 11.1
L 317.2 11.1 317.2 28.9 323.15 28.9 323.15 11.1
M 429.4 112.25
L 423.55 112.25 423.55 125.3 429.4 125.3 429.4 112.25
M 411.1 112.25
L 405.2 112.25 405.2 125.3 411.1 125.3 411.1 112.25
M 444.8 112.25
L 439.1 112.25 439.1 125.3 444.8 125.3 444.8 112.25
M 463.5 112.25
L 457.7 112.25 457.7 125.3 463.5 125.3 463.5 112.25
M 479.05 112.25
L 473.2 112.25 473.2 125.3 479.05 125.3 479.05 112.25
M 340.7 112.25
L 334.8 112.25 334.8 125.3 340.7 125.3 340.7 112.25
M 360.25 112.25
L 354.35 112.25 354.35 125.3 360.25 125.3 360.25 112.25
M 379.25 112.25
L 373.5 112.25 373.5 125.3 379.25 125.3 379.25 112.25
M 395.65 112.25
L 389.85 112.25 389.85 125.3 395.65 125.3 395.65 112.25
M 395.65 96.85
L 389.85 96.85 389.85 108.3 395.65 108.3 395.65 96.85
M 389.85 93.2
L 395.65 93.2 395.65 79.75 389.85 79.75 389.85 93.2
M 379.25 96.85
L 373.5 96.85 373.5 108.3 379.25 108.3 379.25 96.85
M 373.5 93.2
L 379.25 93.2 379.25 79.75 373.5 79.75 373.5 93.2
M 379.25 50.8
L 373.5 50.8 373.5 64.75 373.5 75.9 379.25 75.9 379.25 64.75 379.25 50.8
M 395.65 50.8
L 389.85 50.8 389.85 64.75 389.85 75.9 395.65 75.9 395.65 64.75 395.65 50.8
M 360.25 96.85
L 354.35 96.85 354.35 108.3 360.25 108.3 360.25 96.85
M 354.35 93.2
L 360.25 93.2 360.25 79.75 354.35 79.75 354.35 93.2
M 340.7 96.85
L 334.8 96.85 334.8 108.3 340.7 108.3 340.7 96.85
M 334.8 93.2
L 340.7 93.2 340.7 79.75 334.8 79.75 334.8 93.2
M 340.7 50.8
L 334.8 50.8 334.8 64.75 334.8 75.9 340.7 75.9 340.7 64.75 340.7 50.8
M 360.25 50.8
L 354.35 50.8 354.35 64.75 354.35 75.9 360.25 75.9 360.25 64.75 360.25 50.8
M 360.25 32.75
L 354.35 32.75 354.35 46.85 360.25 46.85 360.25 32.75
M 340.7 32.75
L 334.8 32.75 334.8 46.85 340.7 46.85 340.7 32.75
M 340.7 11.1
L 334.8 11.1 334.8 28.9 340.7 28.9 340.7 11.1
M 360.25 11.1
L 354.35 11.1 354.35 28.9 360.25 28.9 360.25 11.1
M 395.65 32.75
L 389.85 32.75 389.85 46.85 395.65 46.85 395.65 32.75
M 379.25 32.75
L 373.5 32.75 373.5 46.85 379.25 46.85 379.25 32.75
M 379.25 11.1
L 373.5 11.1 373.5 28.9 379.25 28.9 379.25 11.1
M 395.65 11.1
L 389.85 11.1 389.85 28.9 395.65 28.9 395.65 11.1
M 479.05 96.85
L 473.2 96.85 473.2 108.3 479.05 108.3 479.05 96.85
M 473.2 93.2
L 479.05 93.2 479.05 79.75 473.2 79.75 473.2 93.2
M 463.5 96.85
L 457.7 96.85 457.7 108.3 463.5 108.3 463.5 96.85
M 457.7 93.2
L 463.5 93.2 463.5 79.75 457.7 79.75 457.7 93.2
M 463.5 50.8
L 457.7 50.8 457.7 64.75 457.7 75.9 463.5 75.9 463.5 64.75 463.5 50.8
M 479.05 50.8
L 473.2 50.8 473.2 64.75 473.2 75.9 479.05 75.9 479.05 64.75 479.05 50.8
M 429.4 96.85
L 423.55 96.85 423.55 108.3 429.4 108.3 429.4 96.85
M 444.8 96.85
L 439.1 96.85 439.1 108.3 444.8 108.3 444.8 96.85
M 444.8 79.75
L 439.1 79.75 439.1 93.2 444.8 93.2 444.8 79.75
M 423.55 79.75
L 423.55 93.2 429.4 93.2 429.4 79.75 423.55 79.75
M 411.1 96.85
L 405.2 96.85 405.2 108.3 411.1 108.3 411.1 96.85
M 411.1 79.75
L 405.2 79.75 405.2 93.2 411.1 93.2 411.1 79.75
M 411.1 50.8
L 405.2 50.8 405.2 64.75 405.2 75.9 411.1 75.9 411.1 64.75 411.1 50.8
M 429.4 64.75
L 429.4 50.8 423.55 50.8 423.55 64.75 423.55 75.9 429.4 75.9 429.4 64.75
M 444.8 50.8
L 439.1 50.8 439.1 64.75 439.1 75.9 444.8 75.9 444.8 64.75 444.8 50.8
M 429.4 11.1
L 423.55 11.1 423.55 28.9 429.4 28.9 429.4 11.1
M 444.8 32.75
L 439.1 32.75 439.1 46.85 444.8 46.85 444.8 32.75
M 423.55 32.75
L 423.55 46.85 429.4 46.85 429.4 32.75 423.55 32.75
M 411.1 32.75
L 405.2 32.75 405.2 46.85 411.1 46.85 411.1 32.75
M 411.1 11.1
L 405.2 11.1 405.2 28.9 411.1 28.9 411.1 11.1
M 444.8 11.1
L 439.1 11.1 439.1 28.9 444.8 28.9 444.8 11.1
M 479.05 32.75
L 473.2 32.75 473.2 46.85 479.05 46.85 479.05 32.75
M 463.5 32.75
L 457.7 32.75 457.7 46.85 463.5 46.85 463.5 32.75
M 463.5 11.1
L 457.7 11.1 457.7 28.9 463.5 28.9 463.5 11.1
M 479.05 11.1
L 473.2 11.1 473.2 28.9 479.05 28.9 479.05 11.1
M 580.2 112.25
L 574.35 112.25 574.35 125.3 580.2 125.3 580.2 112.25
M 599 112.25
L 593.1 112.25 593.1 125.3 599 125.3 599 112.25
M 632.65 112.25
L 626.9 112.25 626.9 125.3 632.65 125.3 632.65 112.25
M 614.25 112.25
L 608.5 112.25 608.5 125.3 614.25 125.3 614.25 112.25
M 497.4 112.25
L 491.45 112.25 491.45 125.3 497.4 125.3 497.4 112.25
M 512.8 112.25
L 506.95 112.25 506.95 125.3 512.8 125.3 512.8 112.25
M 530.9 125.3
L 530.9 112.25 525.15 112.25 525.15 125.3 530.9 125.3
M 546.4 112.25
L 540.55 112.25 540.55 125.3 546.4 125.3 546.4 112.25
M 564.8 112.25
L 558.85 112.25 558.85 125.3 564.8 125.3 564.8 112.25
M 530.9 96.85
L 525.15 96.85 525.15 108.3 530.9 108.3 530.9 96.85
M 564.8 96.85
L 558.85 96.85 558.85 108.3 564.8 108.3 564.8 96.85
M 558.85 93.2
L 564.8 93.2 564.8 79.75 558.85 79.75 558.85 93.2
M 546.4 96.85
L 540.55 96.85 540.55 108.3 546.4 108.3 546.4 96.85
M 546.4 79.75
L 540.55 79.75 540.55 93.2 546.4 93.2 546.4 79.75
M 546.4 50.8
L 540.55 50.8 540.55 64.75 540.55 75.9 546.4 75.9 546.4 64.75 546.4 50.8
M 564.8 50.8
L 558.85 50.8 558.85 64.75 558.85 75.9 564.8 75.9 564.8 64.75 564.8 50.8
M 525.15 79.75
L 525.15 93.2 530.9 93.2 530.9 79.75 525.15 79.75
M 512.8 96.85
L 506.95 96.85 506.95 108.3 512.8 108.3 512.8 96.85
M 512.8 79.75
L 506.95 79.75 506.95 93.2 512.8 93.2 512.8 79.75
M 497.4 96.85
L 491.45 96.85 491.45 108.3 497.4 108.3 497.4 96.85
M 491.45 93.2
L 497.4 93.2 497.4 79.75 491.45 79.75 491.45 93.2
M 497.4 50.8
L 491.45 50.8 491.45 64.75 491.45 75.9 497.4 75.9 497.4 64.75 497.4 50.8
M 525.15 50.8
L 525.15 64.75 525.15 75.9 530.9 75.9 530.9 64.75 530.9 50.8 525.15 50.8
M 512.8 50.8
L 506.95 50.8 506.95 64.75 506.95 75.9 512.8 75.9 512.8 64.75 512.8 50.8
M 512.8 32.75
L 506.95 32.75 506.95 46.85 512.8 46.85 512.8 32.75
M 497.4 32.75
L 491.45 32.75 491.45 46.85 497.4 46.85 497.4 32.75
M 497.4 11.1
L 491.45 11.1 491.45 28.9 497.4 28.9 497.4 11.1
M 512.8 11.1
L 506.95 11.1 506.95 28.9 512.8 28.9 512.8 11.1
M 530.9 28.9
L 530.9 11.1 525.15 11.1 525.15 28.9 530.9 28.9
M 564.8 32.75
L 558.85 32.75 558.85 46.85 564.8 46.85 564.8 32.75
M 530.9 46.85
L 530.9 32.75 525.15 32.75 525.15 46.85 530.9 46.85
M 546.4 32.75
L 540.55 32.75 540.55 46.85 546.4 46.85 546.4 32.75
M 546.4 11.1
L 540.55 11.1 540.55 28.9 546.4 28.9 546.4 11.1
M 564.8 11.1
L 558.85 11.1 558.85 28.9 564.8 28.9 564.8 11.1
M 632.65 96.85
L 626.9 96.85 626.9 108.3 632.65 108.3 632.65 96.85
M 626.9 79.75
L 626.9 93.2 632.65 93.2 632.65 79.75 626.9 79.75
M 614.25 96.85
L 608.5 96.85 608.5 108.3 614.25 108.3 614.25 96.85
M 614.25 79.75
L 608.5 79.75 608.5 93.2 614.25 93.2 614.25 79.75
M 614.25 50.8
L 608.5 50.8 608.5 64.75 608.5 75.9 614.25 75.9 614.25 64.75 614.25 50.8
M 632.65 64.75
L 632.65 50.8 626.9 50.8 626.9 64.75 626.9 75.9 632.65 75.9 632.65 64.75
M 599 96.85
L 593.1 96.85 593.1 108.3 599 108.3 599 96.85
M 593.1 93.2
L 599 93.2 599 79.75 593.1 79.75 593.1 93.2
M 580.2 96.85
L 574.35 96.85 574.35 108.3 580.2 108.3 580.2 96.85
M 574.35 93.2
L 580.2 93.2 580.2 79.75 574.35 79.75 574.35 93.2
M 580.2 50.8
L 574.35 50.8 574.35 64.75 574.35 75.9 580.2 75.9 580.2 64.75 580.2 50.8
M 599 50.8
L 593.1 50.8 593.1 64.75 593.1 75.9 599 75.9 599 64.75 599 50.8
M 599 32.75
L 593.1 32.75 593.1 46.85 599 46.85 599 32.75
M 580.2 32.75
L 574.35 32.75 574.35 46.85 580.2 46.85 580.2 32.75
M 580.2 11.1
L 574.35 11.1 574.35 28.9 580.2 28.9 580.2 11.1
M 599 11.1
L 593.1 11.1 593.1 28.9 599 28.9 599 11.1
M 632.65 11.1
L 626.9 11.1 626.9 28.9 632.65 28.9 632.65 11.1
M 626.9 32.75
L 626.9 46.85 632.65 46.85 632.65 32.75 626.9 32.75
M 614.25 32.75
L 608.5 32.75 608.5 46.85 614.25 46.85 614.25 32.75
M 614.25 11.1
L 608.5 11.1 608.5 28.9 614.25 28.9 614.25 11.1
M 648.1 108.3
L 648.1 96.85 642.25 96.85 642.25 108.3 648.1 108.3
M 733.5 108.3
L 733.5 96.85 727.75 96.85 727.75 108.3 733.5 108.3
M 751.9 112.25
L 745.95 112.25 745.95 125.3 751.9 125.3 751.9 112.25
M 774.3 125.3
L 774.3 112.25 768.35 112.25 768.35 125.3 774.3 125.3
M 800.85 112.25
L 794.9 112.25 794.9 125.3 800.85 125.3 800.85 123.4 800.85 112.25
M 648.1 125.3
L 648.1 112.25 642.25 112.25 642.25 125.3 648.1 125.3
M 665.65 112.25
L 659.75 112.25 659.75 125.3 665.65 125.3 665.65 112.25
M 683.05 112.25
L 677.25 112.25 677.25 125.3 683.05 125.3 683.05 112.25
M 692.9 144.25
L 712.7 144.25 800.85 144.25 800.85 135.1 367.85 135.1 362.3 135.1 291.85 135.1 158.1 135.1 0 135.1 0 144.4 41.1 144.4
Q 41.85 144.4 42.6 144.4 43.25 144.4 43.9 144.4 52.35 144.45 60.8 144.45
L 111.75 144.55 111.75 144.25 131.55 144.25 131.55 144.55 171.25 144.6
Q 175.55 144.6 179.9 144.6 180.1 144.6 180.4 144.6
L 180.6 144.6 180.6 144.25 200.4 144.25 200.4 144.65 249.35 144.7 249.35 144.25 269.15 144.25 269.15 144.7
Q 280.5 144.7 291.85 144.7 313.15 144.7 334.55 144.65
L 334.55 144.25 354.35 144.25 354.35 144.6
Q 358.3 144.6 362.3 144.6 365.05 144.6 367.85 144.6 393.55 144.5 419.3 144.45
L 419.3 144.25 439.1 144.25 439.1 144.4
Q 442.05 144.35 445 144.35 447.9 144.25 450.8 144.25
L 564.8 144.25 584.6 144.25 632.65 144.25 652.45 144.25 692.9 144.25
M 727.75 112.25
L 727.75 125.3 733.5 125.3 733.5 112.25 727.75 112.25
M 699.75 112.25
L 693.85 112.25 693.85 125.3 699.75 125.3 699.75 112.25
M 718 112.25
L 712.2 112.25 712.2 125.3 718 125.3 718 112.25
M 718 96.85
L 712.2 96.85 712.2 108.3 718 108.3 718 96.85
M 718 79.75
L 712.2 79.75 712.2 93.2 718 93.2 718 79.75
M 699.75 96.85
L 693.85 96.85 693.85 108.3 699.75 108.3 699.75 96.85
M 693.85 93.2
L 699.75 93.2 699.75 79.75 693.85 79.75 693.85 93.2
M 699.75 50.8
L 693.85 50.8 693.85 64.75 693.85 75.9 699.75 75.9 699.75 64.75 699.75 50.8
M 718 50.8
L 712.2 50.8 712.2 64.75 712.2 75.9 718 75.9 718 64.75 718 50.8
M 683.05 96.85
L 677.25 96.85 677.25 108.3 683.05 108.3 683.05 96.85
M 677.25 93.2
L 683.05 93.2 683.05 79.75 677.25 79.75 677.25 93.2
M 648.1 93.2
L 648.1 79.75 642.25 79.75 642.25 93.2 648.1 93.2
M 665.65 96.85
L 659.75 96.85 659.75 108.3 665.65 108.3 665.65 96.85
M 665.65 79.75
L 659.75 79.75 659.75 93.2 665.65 93.2 665.65 79.75
M 648.1 64.75
L 648.1 50.8 642.25 50.8 642.25 64.75 642.25 75.9 648.1 75.9 648.1 64.75
M 665.65 50.8
L 659.75 50.8 659.75 64.75 659.75 75.9 665.65 75.9 665.65 64.75 665.65 50.8
M 683.05 50.8
L 677.25 50.8 677.25 64.75 677.25 75.9 683.05 75.9 683.05 64.75 683.05 50.8
M 648.1 28.9
L 648.1 11.1 642.25 11.1 642.25 28.9 648.1 28.9
M 683.05 32.75
L 677.25 32.75 677.25 46.85 683.05 46.85 683.05 32.75
M 648.1 46.85
L 648.1 32.75 642.25 32.75 642.25 46.85 648.1 46.85
M 665.65 32.75
L 659.75 32.75 659.75 46.85 665.65 46.85 665.65 32.75
M 665.65 11.1
L 659.75 11.1 659.75 28.9 665.65 28.9 665.65 11.1
M 683.05 11.1
L 677.25 11.1 677.25 28.9 683.05 28.9 683.05 11.1
M 718 32.75
L 712.2 32.75 712.2 46.85 718 46.85 718 32.75
M 699.75 32.75
L 693.85 32.75 693.85 46.85 699.75 46.85 699.75 32.75
M 699.75 11.1
L 693.85 11.1 693.85 28.9 699.75 28.9 699.75 11.1
M 718 11.1
L 712.2 11.1 712.2 28.9 718 28.9 718 11.1
M 774.3 96.85
L 768.35 96.85 768.35 108.3 774.3 108.3 774.3 96.85
M 794.9 79.75
L 794.9 93.2 800.85 93.2 800.85 79.75 794.9 79.75
M 800.85 97.45
L 800.85 96.85 794.9 96.85 794.9 108.3 800.85 108.3 800.85 97.45
M 800.85 50.8
L 794.9 50.8 794.9 64.75 794.9 75.9 800.85 75.9 800.85 64.75 800.85 50.8
M 751.9 96.85
L 745.95 96.85 745.95 108.3 751.9 108.3 751.9 96.85
M 768.35 79.75
L 768.35 93.2 774.3 93.2 774.3 79.75 768.35 79.75
M 745.95 79.75
L 745.95 93.2 751.9 93.2 751.9 79.75 745.95 79.75
M 733.5 93.2
L 733.5 79.75 727.75 79.75 727.75 93.2 733.5 93.2
M 733.5 64.75
L 733.5 50.8 727.75 50.8 727.75 64.75 727.75 75.9 733.5 75.9 733.5 64.75
M 751.9 64.75
L 751.9 50.8 745.95 50.8 745.95 64.75 745.95 75.9 751.9 75.9 751.9 64.75
M 768.35 50.8
L 768.35 64.75 768.35 75.9 774.3 75.9 774.3 64.75 774.3 50.8 768.35 50.8
M 733.5 28.9
L 733.5 11.1 727.75 11.1 727.75 28.9 733.5 28.9
M 751.9 11.1
L 745.95 11.1 745.95 28.9 751.9 28.9 751.9 11.1
M 745.95 32.75
L 745.95 46.85 751.9 46.85 751.9 32.75 745.95 32.75
M 733.5 46.85
L 733.5 32.75 727.75 32.75 727.75 46.85 733.5 46.85
M 774.3 28.9
L 774.3 11.1 768.35 11.1 768.35 28.9 774.3 28.9
M 794.9 32.75
L 794.9 46.85 800.85 46.85 800.85 32.75 794.9 32.75
M 774.3 46.85
L 774.3 32.75 768.35 32.75 768.35 46.85 774.3 46.85
M 800.85 11.1
L 794.9 11.1 794.9 28.9 800.85 28.9 800.85 11.1 Z"/>

<path fill="#0E0E0E" stroke="none" d="
M 96.35 112.25
L 83.6 112.25 83.6 125.3 96.35 125.3 96.35 112.25
M 111.75 112.25
L 102.15 112.25 102.15 125.3 111.75 125.3 111.75 112.25
M 130.1 125.3
L 130.1 112.25 117.7 112.25 117.7 125.3 130.1 125.3
M 145.65 112.25
L 136.05 112.25 136.05 125.3 145.65 125.3 145.65 112.25
M 21.95 112.25
L 5.8 112.25 5.8 125.3 21.95 125.3 21.95 112.25
M 43.9 125.3
L 43.9 112.25 27.75 112.25 27.75 125.3 43.9 125.3
M 62.25 112.25
L 49.7 112.25 49.7 125.3 62.25 125.3 62.25 112.25
M 106.2 183.4
L 104.55 183.4 103.75 183.4 103.75 188.25 104.55 188.25 106.2 188.25 106.3 188.25 106.3 183.4 106.2 183.4
M 104.55 176.65
L 103.75 176.65 103.75 181.95 104.55 181.95 106.2 181.95 106.3 181.95 106.3 176.65 106.2 176.65 104.55 176.65
M 93.05 183.4
L 90.65 183.4 90.65 188.25 93.05 188.25 93.05 183.4
M 89.35 183.4
L 87.15 183.4 87.15 188.25 89.35 188.25 89.35 183.4
M 85.55 183.4
L 83.1 183.4 83.1 188.25 85.55 188.25 85.55 183.4
M 85.55 176.65
L 83.1 176.65 83.1 181.95 85.55 181.95 85.55 176.65
M 89.35 176.65
L 87.15 176.65 87.15 181.95 89.35 181.95 89.35 176.65
M 93.05 181.95
L 93.05 176.65 90.65 176.65 90.65 181.95 93.05 181.95
M 100.8 183.4
L 100.25 183.4 100.25 188.25 100.8 188.25 102.1 188.25 102.45 188.25 102.45 183.4 102.1 183.4 100.8 183.4
M 98.75 183.4
L 97.15 183.4 96.35 183.4 96.35 188.25 97.15 188.25 98.75 188.25 98.75 183.4
M 97.15 176.65
L 96.35 176.65 96.35 181.95 97.15 181.95 98.75 181.95 98.75 176.65 97.15 176.65
M 100.8 176.65
L 100.25 176.65 100.25 181.95 100.8 181.95 102.1 181.95 102.45 181.95 102.45 176.65 102.1 176.65 100.8 176.65
M 97.15 169.7
L 96.35 169.7 96.35 175 97.15 175 98.75 175 98.75 169.7 97.15 169.7
M 85.55 169.7
L 83.1 169.7 83.1 175 85.55 175 85.55 169.7
M 93.05 169.7
L 90.65 169.7 90.65 175 93.05 175 93.05 169.7
M 89.35 169.7
L 87.15 169.7 87.15 175 89.35 175 89.35 169.7
M 106.2 169.7
L 104.55 169.7 103.75 169.7 103.75 175 104.55 175 106.2 175 106.3 175 106.3 169.7 106.2 169.7
M 102.45 169.7
L 102.1 169.7 100.8 169.7 100.25 169.7 100.25 175 100.8 175 102.1 175 102.45 175 102.45 169.7
M 77.8 112.25
L 68.05 112.25 68.05 125.3 77.8 125.3 77.8 112.25
M 43.9 96.85
L 27.75 96.85 27.75 108.3 43.9 108.3 43.9 96.85
M 62.25 96.85
L 49.7 96.85 49.7 108.3 62.25 108.3 62.25 96.85
M 77.8 96.85
L 68.05 96.85 68.05 108.3 77.8 108.3 77.8 96.85
M 68.05 93.2
L 77.8 93.2 77.8 79.75 68.05 79.75 68.05 93.2
M 49.7 79.75
L 49.7 93.2 62.25 93.2 62.25 79.75 49.7 79.75
M 62.25 64.75
L 62.25 50.8 49.7 50.8 49.7 64.75 62.25 64.75
M 77.8 50.8
L 68.05 50.8 68.05 64.75 77.8 64.75 77.8 50.8
M 21.95 96.85
L 5.8 96.85 5.8 108.3 21.95 108.3 21.95 96.85
M 27.75 79.75
L 27.75 93.2 43.9 93.2 43.9 79.75 27.75 79.75
M 5.8 79.75
L 5.8 93.2 21.95 93.2 21.95 79.75 5.8 79.75
M 21.95 64.75
L 21.95 50.8 5.8 50.8 5.8 64.75 21.95 64.75
M 27.75 50.8
L 27.75 64.75 43.9 64.75 43.9 50.8 27.75 50.8
M 21.95 11.1
L 5.8 11.1 5.8 28.9 21.95 28.9 21.95 11.1
M 5.8 32.75
L 5.8 46.85 21.95 46.85 21.95 32.75 5.8 32.75
M 43.9 28.9
L 43.9 11.1 27.75 11.1 27.75 28.9 43.9 28.9
M 62.25 11.1
L 49.7 11.1 49.7 28.9 62.25 28.9 62.25 11.1
M 68.05 32.75
L 68.05 46.85 77.8 46.85 77.8 32.75 68.05 32.75
M 43.9 46.85
L 43.9 32.75 27.75 32.75 27.75 46.85 43.9 46.85
M 49.7 32.75
L 49.7 46.85 62.25 46.85 62.25 32.75 49.7 32.75
M 77.8 11.1
L 68.05 11.1 68.05 28.9 77.8 28.9 77.8 11.1
M 130.1 96.85
L 117.7 96.85 117.7 108.3 130.1 108.3 130.1 96.85
M 145.65 96.85
L 136.05 96.85 136.05 108.3 145.65 108.3 145.65 96.85
M 136.05 79.75
L 136.05 93.2 145.65 93.2 145.65 79.75 136.05 79.75
M 145.65 64.75
L 145.65 50.8 136.05 50.8 136.05 64.75 145.65 64.75
M 111.75 96.85
L 102.15 96.85 102.15 108.3 111.75 108.3 111.75 96.85
M 117.7 79.75
L 117.7 93.2 130.1 93.2 130.1 79.75 117.7 79.75
M 102.15 93.2
L 111.75 93.2 111.75 79.75 102.15 79.75 102.15 93.2
M 96.35 96.85
L 83.6 96.85 83.6 108.3 96.35 108.3 96.35 96.85
M 83.6 93.2
L 96.35 93.2 96.35 79.75 83.6 79.75 83.6 93.2
M 96.35 50.8
L 83.6 50.8 83.6 64.75 96.35 64.75 96.35 50.8
M 117.7 50.8
L 117.7 64.75 130.1 64.75 130.1 50.8 117.7 50.8
M 111.75 50.8
L 102.15 50.8 102.15 64.75 111.75 64.75 111.75 50.8
M 102.15 32.75
L 102.15 46.85 111.75 46.85 111.75 32.75 102.15 32.75
M 96.35 32.75
L 83.6 32.75 83.6 46.85 96.35 46.85 96.35 32.75
M 96.35 11.1
L 83.6 11.1 83.6 28.9 96.35 28.9 96.35 11.1
M 111.75 11.1
L 102.15 11.1 102.15 28.9 111.75 28.9 111.75 11.1
M 130.1 28.9
L 130.1 11.1 117.7 11.1 117.7 28.9 130.1 28.9
M 145.65 11.1
L 136.05 11.1 136.05 28.9 145.65 28.9 145.65 11.1
M 130.1 46.85
L 130.1 32.75 117.7 32.75 117.7 46.85 130.1 46.85
M 136.05 32.75
L 136.05 46.85 145.65 46.85 145.65 32.75 136.05 32.75
M 163.15 108.3
L 163.15 96.85 151.45 96.85 151.45 108.3 163.15 108.3
M 249.35 96.85
L 236.75 96.85 236.75 108.3 249.35 108.3 249.35 96.85
M 266.95 112.25
L 255.15 112.25 255.15 125.3 266.95 125.3 266.95 112.25
M 283.45 112.25
L 272.6 112.25 272.6 125.3 283.45 125.3 283.45 112.25
M 301.8 112.25
L 289.3 112.25 289.3 125.3 301.8 125.3 301.8 112.25
M 317.2 112.25
L 307.65 112.25 307.65 125.3 317.2 125.3 317.2 112.25
M 223.9 183.4
L 223.1 183.4 223.1 188.25 223.9 188.25 225.5 188.25 225.5 183.4 223.9 183.4
M 227.55 183.4
L 227 183.4 227 188.25 227.55 188.25 228.85 188.25 229.2 188.25 229.2 183.4 228.85 183.4 227.55 183.4
M 223.9 176.65
L 223.1 176.65 223.1 181.95 223.9 181.95 225.5 181.95 225.5 176.65 223.9 176.65
M 229.2 176.65
L 228.85 176.65 227.55 176.65 227 176.65 227 181.95 227.55 181.95 228.85 181.95 229.2 181.95 229.2 176.65
M 233.05 181.95
L 233.05 176.65 232.95 176.65 231.3 176.65 230.5 176.65 230.5 181.95 231.3 181.95 232.95 181.95 233.05 181.95
M 233.05 183.4
L 232.95 183.4 231.3 183.4 230.5 183.4 230.5 188.25 231.3 188.25 232.95 188.25 233.05 188.25 233.05 183.4
M 212.3 183.4
L 209.85 183.4 209.85 188.25 212.3 188.25 212.3 183.4
M 209.85 176.65
L 209.85 181.95 212.3 181.95 212.3 176.65 209.85 176.65
M 217.4 181.95
L 219.8 181.95 219.8 176.65 217.4 176.65 217.4 181.95
M 219.8 183.4
L 217.4 183.4 217.4 188.25 219.8 188.25 219.8 183.4
M 216.1 183.4
L 213.9 183.4 213.9 188.25 216.1 188.25 216.1 183.4
M 216.1 176.65
L 213.9 176.65 213.9 181.95 216.1 181.95 216.1 176.65
M 216.1 169.7
L 213.9 169.7 213.9 175 216.1 175 216.1 169.7
M 219.8 169.7
L 217.4 169.7 217.4 175 219.8 175 219.8 169.7
M 212.3 169.7
L 209.85 169.7 209.85 175 212.3 175 212.3 169.7
M 232.95 169.7
L 231.3 169.7 230.5 169.7 230.5 175 231.3 175 232.95 175 233.05 175 233.05 169.7 232.95 169.7
M 227.55 169.7
L 227 169.7 227 175 227.55 175 228.85 175 229.2 175 229.2 169.7 228.85 169.7 227.55 169.7
M 225.5 169.7
L 223.9 169.7 223.1 169.7 223.1 175 223.9 175 225.5 175 225.5 169.7
M 163.15 125.3
L 163.15 112.25 151.45 112.25 151.45 125.3 163.15 125.3
M 149.9 183.4
L 149.9 188.25 152.3 188.25 152.3 183.4 149.9 183.4
M 148.6 181.95
L 148.6 176.65 146.4 176.65 146.4 181.95 148.6 181.95
M 148.6 183.4
L 146.4 183.4 146.4 188.25 148.6 188.25 148.6 183.4
M 144.8 183.4
L 142.35 183.4 142.35 188.25 144.8 188.25 144.8 183.4
M 144.8 176.65
L 142.35 176.65 142.35 181.95 144.8 181.95 144.8 176.65
M 152.3 181.95
L 152.3 176.65 149.9 176.65 149.9 181.95 152.3 181.95
M 161.7 183.4
L 161.35 183.4 160.05 183.4 159.5 183.4 159.5 188.25 160.05 188.25 161.35 188.25 161.7 188.25 161.7 183.4
M 156.4 183.4
L 155.6 183.4 155.6 188.25 156.4 188.25 158 188.25 158 183.4 156.4 183.4
M 156.4 176.65
L 155.6 176.65 155.6 181.95 156.4 181.95 158 181.95 158 176.65 156.4 176.65
M 161.35 176.65
L 160.05 176.65 159.5 176.65 159.5 181.95 160.05 181.95 161.35 181.95 161.7 181.95 161.7 176.65 161.35 176.65
M 152.3 169.7
L 149.9 169.7 149.9 175 152.3 175 152.3 169.7
M 160.05 169.7
L 159.5 169.7 159.5 175 160.05 175 161.35 175 161.7 175 161.7 169.7 161.35 169.7 160.05 169.7
M 148.6 169.7
L 146.4 169.7 146.4 175 148.6 175 148.6 169.7
M 144.8 169.7
L 142.35 169.7 142.35 175 144.8 175 144.8 169.7
M 158 169.7
L 156.4 169.7 155.6 169.7 155.6 175 156.4 175 158 175 158 169.7
M 165.55 183.4
L 165.45 183.4 163.8 183.4 163 183.4 163 188.25 163.8 188.25 165.45 188.25 165.55 188.25 165.55 183.4
M 165.55 176.65
L 165.45 176.65 163.8 176.65 163 176.65 163 181.95 163.8 181.95 165.45 181.95 165.55 181.95 165.55 176.65
M 165.55 169.7
L 165.45 169.7 163.8 169.7 163 169.7 163 175 163.8 175 165.45 175 165.55 175 165.55 169.7
M 180.6 112.25
L 168.8 112.25 168.8 125.3 180.6 125.3 180.6 112.25
M 197.25 112.25
L 186.4 112.25 186.4 125.3 197.25 125.3 197.25 112.25
M 236.75 112.25
L 236.75 125.3 249.35 125.3 249.35 112.25 236.75 112.25
M 231 112.25
L 221.4 112.25 221.4 125.3 231 125.3 231 112.25
M 215.6 112.25
L 203.1 112.25 203.1 125.3 215.6 125.3 215.6 112.25
M 231 96.85
L 221.4 96.85 221.4 108.3 231 108.3 231 96.85
M 215.6 96.85
L 203.1 96.85 203.1 108.3 215.6 108.3 215.6 96.85
M 221.4 79.75
L 221.4 93.2 231 93.2 231 79.75 221.4 79.75
M 203.1 93.2
L 215.6 93.2 215.6 79.75 203.1 79.75 203.1 93.2
M 215.6 50.8
L 203.1 50.8 203.1 64.75 215.6 64.75 215.6 50.8
M 231 64.75
L 231 50.8 221.4 50.8 221.4 64.75 231 64.75
M 197.25 96.85
L 186.4 96.85 186.4 108.3 197.25 108.3 197.25 96.85
M 186.4 93.2
L 197.25 93.2 197.25 79.75 186.4 79.75 186.4 93.2
M 180.6 96.85
L 168.8 96.85 168.8 108.3 180.6 108.3 180.6 96.85
M 163.15 93.2
L 163.15 79.75 151.45 79.75 151.45 93.2 163.15 93.2
M 168.8 93.2
L 180.6 93.2 180.6 79.75 168.8 79.75 168.8 93.2
M 163.15 64.75
L 163.15 50.8 151.45 50.8 151.45 64.75 163.15 64.75
M 180.6 50.8
L 168.8 50.8 168.8 64.75 180.6 64.75 180.6 50.8
M 197.25 50.8
L 186.4 50.8 186.4 64.75 197.25 64.75 197.25 50.8
M 163.15 28.9
L 163.15 11.1 151.45 11.1 151.45 28.9 163.15 28.9
M 197.25 32.75
L 186.4 32.75 186.4 46.85 197.25 46.85 197.25 32.75
M 168.8 32.75
L 168.8 46.85 180.6 46.85 180.6 32.75 168.8 32.75
M 163.15 46.85
L 163.15 32.75 151.45 32.75 151.45 46.85 163.15 46.85
M 180.6 11.1
L 168.8 11.1 168.8 28.9 180.6 28.9 180.6 11.1
M 197.25 11.1
L 186.4 11.1 186.4 28.9 197.25 28.9 197.25 11.1
M 231 11.1
L 221.4 11.1 221.4 28.9 231 28.9 231 11.1
M 221.4 32.75
L 221.4 46.85 231 46.85 231 32.75 221.4 32.75
M 215.6 46.85
L 215.6 32.75 203.1 32.75 203.1 46.85 215.6 46.85
M 215.6 11.1
L 203.1 11.1 203.1 28.9 215.6 28.9 215.6 11.1
M 317.2 96.85
L 307.65 96.85 307.65 108.3 317.2 108.3 317.2 96.85
M 307.65 93.2
L 317.2 93.2 317.2 79.75 307.65 79.75 307.65 93.2
M 301.8 96.85
L 289.3 96.85 289.3 108.3 301.8 108.3 301.8 96.85
M 289.3 93.2
L 301.8 93.2 301.8 79.75 289.3 79.75 289.3 93.2
M 301.8 50.8
L 289.3 50.8 289.3 64.75 301.8 64.75 301.8 50.8
M 317.2 50.8
L 307.65 50.8 307.65 64.75 317.2 64.75 317.2 50.8
M 266.95 96.85
L 255.15 96.85 255.15 108.3 266.95 108.3 266.95 96.85
M 283.45 96.85
L 272.6 96.85 272.6 108.3 283.45 108.3 283.45 96.85
M 272.6 93.2
L 283.45 93.2 283.45 79.75 272.6 79.75 272.6 93.2
M 255.15 79.75
L 255.15 93.2 266.95 93.2 266.95 79.75 255.15 79.75
M 249.35 93.2
L 249.35 79.75 236.75 79.75 236.75 93.2 249.35 93.2
M 249.35 64.75
L 249.35 50.8 236.75 50.8 236.75 64.75 249.35 64.75
M 266.95 64.75
L 266.95 50.8 255.15 50.8 255.15 64.75 266.95 64.75
M 283.45 50.8
L 272.6 50.8 272.6 64.75 283.45 64.75 283.45 50.8
M 249.35 28.9
L 249.35 11.1 236.75 11.1 236.75 28.9 249.35 28.9
M 266.95 11.1
L 255.15 11.1 255.15 28.9 266.95 28.9 266.95 11.1
M 272.6 32.75
L 272.6 46.85 283.45 46.85 283.45 32.75 272.6 32.75
M 249.35 46.85
L 249.35 32.75 236.75 32.75 236.75 46.85 249.35 46.85
M 255.15 32.75
L 255.15 46.85 266.95 46.85 266.95 32.75 255.15 32.75
M 283.45 11.1
L 272.6 11.1 272.6 28.9 283.45 28.9 283.45 11.1
M 307.65 32.75
L 307.65 46.85 317.2 46.85 317.2 32.75 307.65 32.75
M 301.8 32.75
L 289.3 32.75 289.3 46.85 301.8 46.85 301.8 32.75
M 301.8 11.1
L 289.3 11.1 289.3 28.9 301.8 28.9 301.8 11.1
M 317.2 11.1
L 307.65 11.1 307.65 28.9 317.2 28.9 317.2 11.1
M 334.8 108.3
L 334.8 96.85 323.15 96.85 323.15 108.3 334.8 108.3
M 405.2 96.85
L 395.65 96.85 395.65 108.3 405.2 108.3 405.2 96.85
M 423.55 112.25
L 411.1 112.25 411.1 125.3 423.55 125.3 423.55 112.25
M 439.1 112.25
L 429.4 112.25 429.4 125.3 439.1 125.3 439.1 112.25
M 457.7 125.3
L 457.7 112.25 444.8 112.25 444.8 125.3 457.7 125.3
M 473.2 112.25
L 463.5 112.25 463.5 125.3 473.2 125.3 473.2 112.25
M 334.8 125.3
L 334.8 112.25 323.15 112.25 323.15 125.3 334.8 125.3
M 354.35 112.25
L 340.7 112.25 340.7 125.3 354.35 125.3 354.35 112.25
M 395.65 112.25
L 395.65 125.3 405.2 125.3 405.2 112.25 395.65 112.25
M 373.5 125.3
L 373.5 112.25 360.25 112.25 360.25 125.3 373.5 125.3
M 389.85 112.25
L 379.25 112.25 379.25 125.3 389.85 125.3 389.85 112.25
M 373.5 96.85
L 360.25 96.85 360.25 108.3 373.5 108.3 373.5 96.85
M 389.85 96.85
L 379.25 96.85 379.25 108.3 389.85 108.3 389.85 96.85
M 379.25 79.75
L 379.25 93.2 389.85 93.2 389.85 79.75 379.25 79.75
M 389.85 64.75
L 389.85 50.8 379.25 50.8 379.25 64.75 389.85 64.75
M 354.35 96.85
L 340.7 96.85 340.7 108.3 354.35 108.3 354.35 96.85
M 360.25 79.75
L 360.25 93.2 373.5 93.2 373.5 79.75 360.25 79.75
M 340.7 79.75
L 340.7 93.2 354.35 93.2 354.35 79.75 340.7 79.75
M 334.8 93.2
L 334.8 79.75 323.15 79.75 323.15 93.2 334.8 93.2
M 334.8 64.75
L 334.8 50.8 323.15 50.8 323.15 64.75 334.8 64.75
M 354.35 64.75
L 354.35 50.8 340.7 50.8 340.7 64.75 354.35 64.75
M 360.25 50.8
L 360.25 64.75 373.5 64.75 373.5 50.8 360.25 50.8
M 334.8 28.9
L 334.8 11.1 323.15 11.1 323.15 28.9 334.8 28.9
M 354.35 11.1
L 340.7 11.1 340.7 28.9 354.35 28.9 354.35 11.1
M 334.8 46.85
L 334.8 32.75 323.15 32.75 323.15 46.85 334.8 46.85
M 340.7 32.75
L 340.7 46.85 354.35 46.85 354.35 32.75 340.7 32.75
M 373.5 28.9
L 373.5 11.1 360.25 11.1 360.25 28.9 373.5 28.9
M 389.85 11.1
L 379.25 11.1 379.25 28.9 389.85 28.9 389.85 11.1
M 373.5 46.85
L 373.5 32.75 360.25 32.75 360.25 46.85 373.5 46.85
M 379.25 32.75
L 379.25 46.85 389.85 46.85 389.85 32.75 379.25 32.75
M 457.7 96.85
L 444.8 96.85 444.8 108.3 457.7 108.3 457.7 96.85
M 473.2 96.85
L 463.5 96.85 463.5 108.3 473.2 108.3 473.2 96.85
M 463.5 79.75
L 463.5 93.2 473.2 93.2 473.2 79.75 463.5 79.75
M 473.2 64.75
L 473.2 50.8 463.5 50.8 463.5 64.75 473.2 64.75
M 439.1 96.85
L 429.4 96.85 429.4 108.3 439.1 108.3 439.1 96.85
M 444.8 79.75
L 444.8 93.2 457.7 93.2 457.7 79.75 444.8 79.75
M 429.4 93.2
L 439.1 93.2 439.1 79.75 429.4 79.75 429.4 93.2
M 423.55 96.85
L 411.1 96.85 411.1 108.3 423.55 108.3 423.55 96.85
M 405.2 93.2
L 405.2 79.75 395.65 79.75 395.65 93.2 405.2 93.2
M 411.1 93.2
L 423.55 93.2 423.55 79.75 411.1 79.75 411.1 93.2
M 405.2 64.75
L 405.2 50.8 395.65 50.8 395.65 64.75 405.2 64.75
M 423.55 50.8
L 411.1 50.8 411.1 64.75 423.55 64.75 423.55 50.8
M 444.8 50.8
L 444.8 64.75 457.7 64.75 457.7 50.8 444.8 50.8
M 439.1 50.8
L 429.4 50.8 429.4 64.75 439.1 64.75 439.1 50.8
M 405.2 28.9
L 405.2 11.1 395.65 11.1 395.65 28.9 405.2 28.9
M 429.4 32.75
L 429.4 46.85 439.1 46.85 439.1 32.75 429.4 32.75
M 405.2 46.85
L 405.2 32.75 395.65 32.75 395.65 46.85 405.2 46.85
M 423.55 46.85
L 423.55 32.75 411.1 32.75 411.1 46.85 423.55 46.85
M 423.55 11.1
L 411.1 11.1 411.1 28.9 423.55 28.9 423.55 11.1
M 439.1 11.1
L 429.4 11.1 429.4 28.9 439.1 28.9 439.1 11.1
M 457.7 28.9
L 457.7 11.1 444.8 11.1 444.8 28.9 457.7 28.9
M 473.2 11.1
L 463.5 11.1 463.5 28.9 473.2 28.9 473.2 11.1
M 457.7 46.85
L 457.7 32.75 444.8 32.75 444.8 46.85 457.7 46.85
M 463.5 32.75
L 463.5 46.85 473.2 46.85 473.2 32.75 463.5 32.75
M 491.45 108.3
L 491.45 96.85 479.05 96.85 479.05 108.3 491.45 108.3
M 574.35 96.85
L 564.8 96.85 564.8 108.3 574.35 108.3 574.35 96.85
M 616.3 183.4
L 614.7 183.4 613.9 183.4 613.9 188.25 614.7 188.25 616.3 188.25 616.3 183.4
M 610.6 183.4
L 608.2 183.4 608.2 188.25 610.6 188.25 610.6 183.4
M 610.6 176.65
L 608.2 176.65 608.2 181.95 610.6 181.95 610.6 176.65
M 616.3 176.65
L 614.7 176.65 613.9 176.65 613.9 181.95 614.7 181.95 616.3 181.95 616.3 176.65
M 622.1 183.4
L 621.3 183.4 621.3 188.25 622.1 188.25 623.75 188.25 623.85 188.25 623.85 183.4 623.75 183.4 622.1 183.4
M 620 183.4
L 619.65 183.4 618.35 183.4 617.8 183.4 617.8 188.25 618.35 188.25 619.65 188.25 620 188.25 620 183.4
M 619.65 176.65
L 618.35 176.65 617.8 176.65 617.8 181.95 618.35 181.95 619.65 181.95 620 181.95 620 176.65 619.65 176.65
M 623.85 176.65
L 623.75 176.65 622.1 176.65 621.3 176.65 621.3 181.95 622.1 181.95 623.75 181.95 623.85 181.95 623.85 176.65
M 623.85 169.7
L 623.75 169.7 622.1 169.7 621.3 169.7 621.3 175 622.1 175 623.75 175 623.85 175 623.85 169.7
M 620 169.7
L 619.65 169.7 618.35 169.7 617.8 169.7 617.8 175 618.35 175 619.65 175 620 175 620 169.7
M 610.6 169.7
L 608.2 169.7 608.2 175 610.6 175 610.6 169.7
M 614.7 169.7
L 613.9 169.7 613.9 175 614.7 175 616.3 175 616.3 169.7 614.7 169.7
M 603.1 183.4
L 600.65 183.4 600.65 188.25 603.1 188.25 603.1 183.4
M 600.65 176.65
L 600.65 181.95 603.1 181.95 603.1 176.65 600.65 176.65
M 606.9 183.4
L 604.7 183.4 604.7 188.25 606.9 188.25 606.9 183.4
M 606.9 176.65
L 604.7 176.65 604.7 181.95 606.9 181.95 606.9 176.65
M 606.9 169.7
L 604.7 169.7 604.7 175 606.9 175 606.9 169.7
M 603.1 169.7
L 600.65 169.7 600.65 175 603.1 175 603.1 169.7
M 593.1 112.25
L 580.2 112.25 580.2 125.3 593.1 125.3 593.1 112.25
M 608.5 125.3
L 608.5 112.25 599 112.25 599 125.3 608.5 125.3
M 626.9 112.25
L 614.25 112.25 614.25 125.3 626.9 125.3 626.9 112.25
M 642.25 112.25
L 632.65 112.25 632.65 125.3 642.25 125.3 642.25 112.25
M 289.9 183.4
L 289.1 183.4 289.1 188.25 289.9 188.25 291.5 188.25 291.5 183.4 289.9 183.4
M 289.9 176.65
L 289.1 176.65 289.1 181.95 289.9 181.95 291.5 181.95 291.5 176.65 289.9 176.65
M 295.2 183.4
L 294.85 183.4 293.55 183.4 293 183.4 293 188.25 293.55 188.25 294.85 188.25 295.2 188.25 295.2 183.4
M 297.3 183.4
L 296.5 183.4 296.5 188.25 297.3 188.25 298.95 188.25 299.05 188.25 299.05 183.4 298.95 183.4 297.3 183.4
M 295.2 176.65
L 294.85 176.65 293.55 176.65 293 176.65 293 181.95 293.55 181.95 294.85 181.95 295.2 181.95 295.2 176.65
M 299.05 176.65
L 298.95 176.65 297.3 176.65 296.5 176.65 296.5 181.95 297.3 181.95 298.95 181.95 299.05 181.95 299.05 176.65
M 297.3 169.7
L 296.5 169.7 296.5 175 297.3 175 298.95 175 299.05 175 299.05 169.7 298.95 169.7 297.3 169.7
M 295.2 169.7
L 294.85 169.7 293.55 169.7 293 169.7 293 175 293.55 175 294.85 175 295.2 175 295.2 169.7
M 289.9 169.7
L 289.1 169.7 289.1 175 289.9 175 291.5 175 291.5 169.7 289.9 169.7
M 283.4 169.7
L 283.4 175 285.8 175 285.8 169.7 283.4 169.7
M 283.4 183.4
L 283.4 188.25 285.8 188.25 285.8 183.4 283.4 183.4
M 283.4 176.65
L 283.4 181.95 285.8 181.95 285.8 176.65 283.4 176.65
M 282.1 183.4
L 279.9 183.4 279.9 188.25 282.1 188.25 282.1 183.4
M 278.3 183.4
L 275.85 183.4 275.85 188.25 278.3 188.25 278.3 183.4
M 278.3 176.65
L 275.85 176.65 275.85 181.95 278.3 181.95 278.3 176.65
M 282.1 176.65
L 279.9 176.65 279.9 181.95 282.1 181.95 282.1 176.65
M 278.3 169.7
L 275.85 169.7 275.85 175 278.3 175 278.3 169.7
M 282.1 169.7
L 279.9 169.7 279.9 175 282.1 175 282.1 169.7
M 551.25 183.4
L 550.45 183.4 550.45 188.25 551.25 188.25 552.9 188.25 553 188.25 553 183.4 552.9 183.4 551.25 183.4
M 549.15 183.4
L 548.8 183.4 547.5 183.4 546.95 183.4 546.95 188.25 547.5 188.25 548.8 188.25 549.15 188.25 549.15 183.4
M 549.15 176.65
L 548.8 176.65 547.5 176.65 546.95 176.65 546.95 181.95 547.5 181.95 548.8 181.95 549.15 181.95 549.15 176.65
M 553 176.65
L 552.9 176.65 551.25 176.65 550.45 176.65 550.45 181.95 551.25 181.95 552.9 181.95 553 181.95 553 176.65
M 532.25 181.95
L 532.25 176.65 529.8 176.65 529.8 181.95 532.25 181.95
M 532.25 183.4
L 529.8 183.4 529.8 188.25 532.25 188.25 532.25 183.4
M 536.05 183.4
L 533.85 183.4 533.85 188.25 536.05 188.25 536.05 183.4
M 536.05 176.65
L 533.85 176.65 533.85 181.95 536.05 181.95 536.05 176.65
M 545.45 183.4
L 543.85 183.4 543.05 183.4 543.05 188.25 543.85 188.25 545.45 188.25 545.45 183.4
M 539.75 183.4
L 537.35 183.4 537.35 188.25 539.75 188.25 539.75 183.4
M 539.75 176.65
L 537.35 176.65 537.35 181.95 539.75 181.95 539.75 176.65
M 543.85 176.65
L 543.05 176.65 543.05 181.95 543.85 181.95 545.45 181.95 545.45 176.65 543.85 176.65
M 543.85 169.7
L 543.05 169.7 543.05 175 543.85 175 545.45 175 545.45 169.7 543.85 169.7
M 532.25 169.7
L 529.8 169.7 529.8 175 532.25 175 532.25 169.7
M 536.05 169.7
L 533.85 169.7 533.85 175 536.05 175 536.05 169.7
M 539.75 169.7
L 537.35 169.7 537.35 175 539.75 175 539.75 169.7
M 552.9 169.7
L 551.25 169.7 550.45 169.7 550.45 175 551.25 175 552.9 175 553 175 553 169.7 552.9 169.7
M 547.5 169.7
L 546.95 169.7 546.95 175 547.5 175 548.8 175 549.15 175 549.15 169.7 548.8 169.7 547.5 169.7
M 491.45 125.3
L 491.45 112.25 479.05 112.25 479.05 125.3 491.45 125.3
M 506.95 112.25
L 497.4 112.25 497.4 125.3 506.95 125.3 506.95 112.25
M 525.15 112.25
L 512.8 112.25 512.8 125.3 525.15 125.3 525.15 112.25
M 564.8 112.25
L 564.8 125.3 574.35 125.3 574.35 112.25 564.8 112.25
M 558.85 112.25
L 546.4 112.25 546.4 125.3 558.85 125.3 558.85 112.25
M 540.55 112.25
L 530.9 112.25 530.9 125.3 540.55 125.3 540.55 112.25
M 558.85 96.85
L 546.4 96.85 546.4 108.3 558.85 108.3 558.85 96.85
M 540.55 96.85
L 530.9 96.85 530.9 108.3 540.55 108.3 540.55 96.85
M 546.4 79.75
L 546.4 93.2 558.85 93.2 558.85 79.75 546.4 79.75
M 530.9 93.2
L 540.55 93.2 540.55 79.75 530.9 79.75 530.9 93.2
M 540.55 50.8
L 530.9 50.8 530.9 64.75 540.55 64.75 540.55 50.8
M 558.85 64.75
L 558.85 50.8 546.4 50.8 546.4 64.75 558.85 64.75
M 506.95 96.85
L 497.4 96.85 497.4 108.3 506.95 108.3 506.95 96.85
M 525.15 96.85
L 512.8 96.85 512.8 108.3 525.15 108.3 525.15 96.85
M 512.8 93.2
L 525.15 93.2 525.15 79.75 512.8 79.75 512.8 93.2
M 497.4 79.75
L 497.4 93.2 506.95 93.2 506.95 79.75 497.4 79.75
M 491.45 93.2
L 491.45 79.75 479.05 79.75 479.05 93.2 491.45 93.2
M 491.45 64.75
L 491.45 50.8 479.05 50.8 479.05 64.75 491.45 64.75
M 506.95 64.75
L 506.95 50.8 497.4 50.8 497.4 64.75 506.95 64.75
M 525.15 50.8
L 512.8 50.8 512.8 64.75 525.15 64.75 525.15 50.8
M 491.45 28.9
L 491.45 11.1 479.05 11.1 479.05 28.9 491.45 28.9
M 506.95 11.1
L 497.4 11.1 497.4 28.9 506.95 28.9 506.95 11.1
M 512.8 32.75
L 512.8 46.85 525.15 46.85 525.15 32.75 512.8 32.75
M 491.45 46.85
L 491.45 32.75 479.05 32.75 479.05 46.85 491.45 46.85
M 497.4 32.75
L 497.4 46.85 506.95 46.85 506.95 32.75 497.4 32.75
M 525.15 11.1
L 512.8 11.1 512.8 28.9 525.15 28.9 525.15 11.1
M 558.85 11.1
L 546.4 11.1 546.4 28.9 558.85 28.9 558.85 11.1
M 546.4 32.75
L 546.4 46.85 558.85 46.85 558.85 32.75 546.4 32.75
M 540.55 46.85
L 540.55 32.75 530.9 32.75 530.9 46.85 540.55 46.85
M 540.55 11.1
L 530.9 11.1 530.9 28.9 540.55 28.9 540.55 11.1
M 608.5 96.85
L 599 96.85 599 108.3 608.5 108.3 608.5 96.85
M 642.25 96.85
L 632.65 96.85 632.65 108.3 642.25 108.3 642.25 96.85
M 632.65 93.2
L 642.25 93.2 642.25 79.75 632.65 79.75 632.65 93.2
M 626.9 96.85
L 614.25 96.85 614.25 108.3 626.9 108.3 626.9 96.85
M 614.25 93.2
L 626.9 93.2 626.9 79.75 614.25 79.75 614.25 93.2
M 626.9 50.8
L 614.25 50.8 614.25 64.75 626.9 64.75 626.9 50.8
M 642.25 50.8
L 632.65 50.8 632.65 64.75 642.25 64.75 642.25 50.8
M 593.1 96.85
L 580.2 96.85 580.2 108.3 593.1 108.3 593.1 96.85
M 599 79.75
L 599 93.2 608.5 93.2 608.5 79.75 599 79.75
M 580.2 79.75
L 580.2 93.2 593.1 93.2 593.1 79.75 580.2 79.75
M 574.35 93.2
L 574.35 79.75 564.8 79.75 564.8 93.2 574.35 93.2
M 574.35 64.75
L 574.35 50.8 564.8 50.8 564.8 64.75 574.35 64.75
M 593.1 64.75
L 593.1 50.8 580.2 50.8 580.2 64.75 593.1 64.75
M 599 50.8
L 599 64.75 608.5 64.75 608.5 50.8 599 50.8
M 574.35 28.9
L 574.35 11.1 564.8 11.1 564.8 28.9 574.35 28.9
M 593.1 11.1
L 580.2 11.1 580.2 28.9 593.1 28.9 593.1 11.1
M 574.35 46.85
L 574.35 32.75 564.8 32.75 564.8 46.85 574.35 46.85
M 580.2 32.75
L 580.2 46.85 593.1 46.85 593.1 32.75 580.2 32.75
M 608.5 28.9
L 608.5 11.1 599 11.1 599 28.9 608.5 28.9
M 642.25 32.75
L 632.65 32.75 632.65 46.85 642.25 46.85 642.25 32.75
M 614.25 32.75
L 614.25 46.85 626.9 46.85 626.9 32.75 614.25 32.75
M 608.5 46.85
L 608.5 32.75 599 32.75 599 46.85 608.5 46.85
M 626.9 11.1
L 614.25 11.1 614.25 28.9 626.9 28.9 626.9 11.1
M 642.25 11.1
L 632.65 11.1 632.65 28.9 642.25 28.9 642.25 11.1
M 745.95 112.25
L 733.5 112.25 733.5 125.3 745.95 125.3 745.95 112.25
M 768.35 112.25
L 751.9 112.25 751.9 125.3 768.35 125.3 768.35 112.25
M 794.9 112.25
L 774.3 112.25 774.3 125.3 794.9 125.3 794.9 112.25
M 735.85 183.4
L 735.3 183.4 735.3 188.25 735.85 188.25 737.15 188.25 737.5 188.25 737.5 183.4 737.15 183.4 735.85 183.4
M 733.8 183.4
L 732.2 183.4 731.4 183.4 731.4 188.25 732.2 188.25 733.8 188.25 733.8 183.4
M 733.8 176.65
L 732.2 176.65 731.4 176.65 731.4 181.95 732.2 181.95 733.8 181.95 733.8 176.65
M 737.15 176.65
L 735.85 176.65 735.3 176.65 735.3 181.95 735.85 181.95 737.15 181.95 737.5 181.95 737.5 176.65 737.15 176.65
M 741.25 183.4
L 739.6 183.4 738.8 183.4 738.8 188.25 739.6 188.25 741.25 188.25 741.35 188.25 741.35 183.4 741.25 183.4
M 741.25 176.65
L 739.6 176.65 738.8 176.65 738.8 181.95 739.6 181.95 741.25 181.95 741.35 181.95 741.35 176.65 741.25 176.65
M 741.25 169.7
L 739.6 169.7 738.8 169.7 738.8 175 739.6 175 741.25 175 741.35 175 741.35 169.7 741.25 169.7
M 737.5 169.7
L 737.15 169.7 735.85 169.7 735.3 169.7 735.3 175 735.85 175 737.15 175 737.5 175 737.5 169.7
M 732.2 169.7
L 731.4 169.7 731.4 175 732.2 175 733.8 175 733.8 169.7 732.2 169.7
M 720.6 183.4
L 718.15 183.4 718.15 188.25 720.6 188.25 720.6 183.4
M 724.4 183.4
L 722.2 183.4 722.2 188.25 724.4 188.25 724.4 183.4
M 720.6 181.95
L 720.6 176.65 718.15 176.65 718.15 181.95 720.6 181.95
M 722.2 176.65
L 722.2 181.95 724.4 181.95 724.4 176.65 722.2 176.65
M 728.1 183.4
L 725.7 183.4 725.7 188.25 728.1 188.25 728.1 183.4
M 728.1 176.65
L 725.7 176.65 725.7 181.95 728.1 181.95 728.1 176.65
M 724.4 169.7
L 722.2 169.7 722.2 175 724.4 175 724.4 169.7
M 720.6 169.7
L 718.15 169.7 718.15 175 720.6 175 720.6 169.7
M 728.1 169.7
L 725.7 169.7 725.7 175 728.1 175 728.1 169.7
M 675.45 183.4
L 674.65 183.4 674.65 188.25 675.45 188.25 677.05 188.25 677.05 183.4 675.45 183.4
M 671.35 183.4
L 668.95 183.4 668.95 188.25 671.35 188.25 671.35 183.4
M 671.35 176.65
L 668.95 176.65 668.95 181.95 671.35 181.95 671.35 176.65
M 675.45 176.65
L 674.65 176.65 674.65 181.95 675.45 181.95 677.05 181.95 677.05 176.65 675.45 176.65
M 682.85 183.4
L 682.05 183.4 682.05 188.25 682.85 188.25 684.5 188.25 684.6 188.25 684.6 183.4 684.5 183.4 682.85 183.4
M 679.1 183.4
L 678.55 183.4 678.55 188.25 679.1 188.25 680.4 188.25 680.75 188.25 680.75 183.4 680.4 183.4 679.1 183.4
M 680.4 176.65
L 679.1 176.65 678.55 176.65 678.55 181.95 679.1 181.95 680.4 181.95 680.75 181.95 680.75 176.65 680.4 176.65
M 684.6 176.65
L 684.5 176.65 682.85 176.65 682.05 176.65 682.05 181.95 682.85 181.95 684.5 181.95 684.6 181.95 684.6 176.65
M 663.85 181.95
L 663.85 176.65 661.4 176.65 661.4 181.95 663.85 181.95
M 663.85 183.4
L 661.4 183.4 661.4 188.25 663.85 188.25 663.85 183.4
M 667.65 183.4
L 665.45 183.4 665.45 188.25 667.65 188.25 667.65 183.4
M 667.65 176.65
L 665.45 176.65 665.45 181.95 667.65 181.95 667.65 176.65
M 667.65 169.7
L 665.45 169.7 665.45 175 667.65 175 667.65 169.7
M 663.85 169.7
L 661.4 169.7 661.4 175 663.85 175 663.85 169.7
M 684.6 169.7
L 684.5 169.7 682.85 169.7 682.05 169.7 682.05 175 682.85 175 684.5 175 684.6 175 684.6 169.7
M 680.75 169.7
L 680.4 169.7 679.1 169.7 678.55 169.7 678.55 175 679.1 175 680.4 175 680.75 175 680.75 169.7
M 671.35 169.7
L 668.95 169.7 668.95 175 671.35 175 671.35 169.7
M 677.05 169.7
L 675.45 169.7 674.65 169.7 674.65 175 675.45 175 677.05 175 677.05 169.7
M 665.65 125.3
L 677.25 125.3 677.25 112.25 665.65 112.25 665.65 125.3
M 659.75 112.25
L 648.1 112.25 648.1 125.3 659.75 125.3 659.75 112.25
M 693.85 125.3
L 693.85 112.25 683.05 112.25 683.05 125.3 693.85 125.3
M 699.75 112.25
L 699.75 125.3 712.2 125.3 712.2 112.25 699.75 112.25
M 727.75 112.25
L 718 112.25 718 125.3 727.75 125.3 727.75 112.25
M 693.85 96.85
L 683.05 96.85 683.05 108.3 693.85 108.3 693.85 96.85
M 712.2 96.85
L 699.75 96.85 699.75 108.3 712.2 108.3 712.2 96.85
M 727.75 96.85
L 718 96.85 718 108.3 727.75 108.3 727.75 96.85
M 718 93.2
L 727.75 93.2 727.75 79.75 718 79.75 718 93.2
M 699.75 79.75
L 699.75 93.2 712.2 93.2 712.2 79.75 699.75 79.75
M 712.2 64.75
L 712.2 50.8 699.75 50.8 699.75 64.75 712.2 64.75
M 727.75 50.8
L 718 50.8 718 64.75 727.75 64.75 727.75 50.8
M 677.25 96.85
L 665.65 96.85 665.65 108.3 677.25 108.3 677.25 96.85
M 683.05 79.75
L 683.05 93.2 693.85 93.2 693.85 79.75 683.05 79.75
M 659.75 96.85
L 648.1 96.85 648.1 108.3 659.75 108.3 659.75 96.85
M 665.65 79.75
L 665.65 93.2 677.25 93.2 677.25 79.75 665.65 79.75
M 648.1 93.2
L 659.75 93.2 659.75 79.75 648.1 79.75 648.1 93.2
M 659.75 50.8
L 648.1 50.8 648.1 64.75 659.75 64.75 659.75 50.8
M 677.25 64.75
L 677.25 50.8 665.65 50.8 665.65 64.75 677.25 64.75
M 683.05 50.8
L 683.05 64.75 693.85 64.75 693.85 50.8 683.05 50.8
M 677.25 11.1
L 665.65 11.1 665.65 28.9 677.25 28.9 677.25 11.1
M 665.65 32.75
L 665.65 46.85 677.25 46.85 677.25 32.75 665.65 32.75
M 659.75 46.85
L 659.75 32.75 648.1 32.75 648.1 46.85 659.75 46.85
M 659.75 11.1
L 648.1 11.1 648.1 28.9 659.75 28.9 659.75 11.1
M 693.85 28.9
L 693.85 11.1 683.05 11.1 683.05 28.9 693.85 28.9
M 712.2 11.1
L 699.75 11.1 699.75 28.9 712.2 28.9 712.2 11.1
M 718 32.75
L 718 46.85 727.75 46.85 727.75 32.75 718 32.75
M 693.85 46.85
L 693.85 32.75 683.05 32.75 683.05 46.85 693.85 46.85
M 699.75 32.75
L 699.75 46.85 712.2 46.85 712.2 32.75 699.75 32.75
M 727.75 11.1
L 718 11.1 718 28.9 727.75 28.9 727.75 11.1
M 794.9 96.85
L 774.3 96.85 774.3 108.3 794.9 108.3 794.9 96.85
M 774.3 79.75
L 774.3 93.2 794.9 93.2 794.9 79.75 774.3 79.75
M 794.9 64.75
L 794.9 50.8 774.3 50.8 774.3 64.75 794.9 64.75
M 751.9 93.2
L 768.35 93.2 768.35 79.75 751.9 79.75 751.9 93.2
M 768.35 96.85
L 751.9 96.85 751.9 108.3 768.35 108.3 768.35 96.85
M 733.5 93.2
L 745.95 93.2 745.95 79.75 733.5 79.75 733.5 93.2
M 745.95 96.85
L 733.5 96.85 733.5 108.3 745.95 108.3 745.95 96.85
M 745.95 50.8
L 733.5 50.8 733.5 64.75 745.95 64.75 745.95 50.8
M 768.35 50.8
L 751.9 50.8 751.9 64.75 768.35 64.75 768.35 50.8
M 768.35 46.85
L 768.35 32.75 751.9 32.75 751.9 46.85 768.35 46.85
M 745.95 32.75
L 733.5 32.75 733.5 46.85 745.95 46.85 745.95 32.75
M 745.95 11.1
L 733.5 11.1 733.5 28.9 745.95 28.9 745.95 11.1
M 768.35 11.1
L 751.9 11.1 751.9 28.9 768.35 28.9 768.35 11.1
M 774.3 28.9
L 794.9 28.9 794.9 11.1 774.3 11.1 774.3 28.9
M 774.3 32.75
L 774.3 46.85 794.9 46.85 794.9 32.75 774.3 32.75 Z"/>

<path fill="#7D8894" stroke="none" d="
M 131.55 144.55
L 131.55 144.25 111.75 144.25 111.75 144.55 111.75 166.4 111.75 215.2 111.75 247.8 131.55 247.8 131.55 215.2 131.55 166.4 131.55 144.55
M 249.35 144.25
L 249.35 144.7 249.35 166.4 249.35 215.2 249.35 247.8 269.15 247.8 269.15 215.2 269.15 166.4 269.15 144.7 269.15 144.25 249.35 144.25
M 180.6 144.25
L 180.6 144.6 180.6 166.4 180.6 215.2 180.6 247.8 200.4 247.8 200.4 215.2 200.4 166.4 200.4 144.65 200.4 144.25 180.6 144.25
M 564.8 144.25
L 564.8 166.4 564.8 215.2 564.8 247.8 584.6 247.8 584.6 215.2 584.6 166.4 584.6 144.25 564.8 144.25
M 652.45 166.4
L 652.45 144.25 632.65 144.25 632.65 166.4 632.65 215.2 632.65 247.8 652.45 247.8 652.45 215.2 652.45 166.4
M 712.7 144.25
L 692.9 144.25 692.9 166.4 692.9 215.2 692.9 247.8 712.7 247.8 712.7 215.2 712.7 166.4 712.7 144.25 Z"/>

<path fill="#394552" stroke="none" d="
M 43.9 144.4
Q 43.25 144.4 42.6 144.4 41.85 144.4 41.1 144.4
L 0 144.4 0 166.4 0 215.2 0 247.8 111.75 247.8 111.75 215.2 111.75 166.4 111.75 144.55 60.8 144.45
Q 52.35 144.45 43.9 144.4
M 107.9 190.35
L 81.45 190.35 81.45 167.6 107.9 167.6 107.9 190.35
M 200.4 144.65
L 200.4 166.4 200.4 215.2 200.4 247.8 249.35 247.8 249.35 215.2 249.35 166.4 249.35 144.7 200.4 144.65
M 234.65 190.35
L 208.2 190.35 208.2 167.6 234.65 167.6 234.65 190.35
M 180.6 144.6
L 180.4 144.6
Q 180.1 144.6 179.9 144.6 175.55 144.6 171.25 144.6
L 131.55 144.55 131.55 166.4 131.55 215.2 131.55 247.8 158.1 247.8 180.6 247.8 180.6 215.2 180.6 166.4 180.6 144.6
M 167.15 167.6
L 167.15 190.35 158.1 190.35 140.7 190.35 140.7 167.6 167.15 167.6
M 632.65 144.25
L 584.6 144.25 584.6 166.4 584.6 215.2 584.6 247.8 632.65 247.8 632.65 215.2 632.65 166.4 632.65 144.25
M 599 190.35
L 599 167.6 625.45 167.6 625.45 190.35 599 190.35
M 564.8 166.4
L 564.8 144.25 450.8 144.25
Q 447.9 144.25 445 144.35 442.05 144.35 439.1 144.4
L 439.1 144.25 419.3 144.25 419.3 144.45
Q 393.55 144.5 367.85 144.6 365.05 144.6 362.3 144.6 358.3 144.6 354.35 144.6
L 354.35 144.25 334.55 144.25 334.55 144.65
Q 313.15 144.7 291.85 144.7 280.5 144.7 269.15 144.7
L 269.15 166.4 269.15 215.2 269.15 247.8 362.3 247.8 564.8 247.8 564.8 215.2 564.8 166.4
M 554.6 190.35
L 528.15 190.35 528.15 167.6 554.6 167.6 554.6 190.35
M 274.2 190.35
L 274.2 167.6 300.65 167.6 300.65 190.35 274.2 190.35
M 712.7 144.25
L 712.7 166.4 712.7 215.2 712.7 247.8 800.85 247.8 800.85 215.2 800.85 166.4 800.85 144.25 712.7 144.25
M 716.5 190.35
L 716.5 167.6 742.95 167.6 742.95 190.35 716.5 190.35
M 652.45 144.25
L 652.45 166.4 652.45 215.2 652.45 247.8 692.9 247.8 692.9 215.2 692.9 166.4 692.9 144.25 652.45 144.25
M 659.75 167.6
L 686.2 167.6 686.2 190.35 659.75 190.35 659.75 167.6 Z"/>

<path fill="#BFBF36" stroke="none" d="
M 81.45 190.35
L 107.9 190.35 107.9 167.6 81.45 167.6 81.45 190.35
M 102.1 169.7
L 102.45 169.7 102.45 175 102.1 175 100.8 175 100.25 175 100.25 169.7 100.8 169.7 102.1 169.7
M 104.55 169.7
L 106.2 169.7 106.3 169.7 106.3 175 106.2 175 104.55 175 103.75 175 103.75 169.7 104.55 169.7
M 87.15 169.7
L 89.35 169.7 89.35 175 87.15 175 87.15 169.7
M 90.65 169.7
L 93.05 169.7 93.05 175 90.65 175 90.65 169.7
M 83.1 169.7
L 85.55 169.7 85.55 175 83.1 175 83.1 169.7
M 96.35 169.7
L 97.15 169.7 98.75 169.7 98.75 175 97.15 175 96.35 175 96.35 169.7
M 100.25 176.65
L 100.8 176.65 102.1 176.65 102.45 176.65 102.45 181.95 102.1 181.95 100.8 181.95 100.25 181.95 100.25 176.65
M 96.35 176.65
L 97.15 176.65 98.75 176.65 98.75 181.95 97.15 181.95 96.35 181.95 96.35 176.65
M 97.15 183.4
L 98.75 183.4 98.75 188.25 97.15 188.25 96.35 188.25 96.35 183.4 97.15 183.4
M 100.25 183.4
L 100.8 183.4 102.1 183.4 102.45 183.4 102.45 188.25 102.1 188.25 100.8 188.25 100.25 188.25 100.25 183.4
M 93.05 176.65
L 93.05 181.95 90.65 181.95 90.65 176.65 93.05 176.65
M 87.15 176.65
L 89.35 176.65 89.35 181.95 87.15 181.95 87.15 176.65
M 83.1 176.65
L 85.55 176.65 85.55 181.95 83.1 181.95 83.1 176.65
M 83.1 183.4
L 85.55 183.4 85.55 188.25 83.1 188.25 83.1 183.4
M 87.15 183.4
L 89.35 183.4 89.35 188.25 87.15 188.25 87.15 183.4
M 90.65 183.4
L 93.05 183.4 93.05 188.25 90.65 188.25 90.65 183.4
M 103.75 176.65
L 104.55 176.65 106.2 176.65 106.3 176.65 106.3 181.95 106.2 181.95 104.55 181.95 103.75 181.95 103.75 176.65
M 104.55 183.4
L 106.2 183.4 106.3 183.4 106.3 188.25 106.2 188.25 104.55 188.25 103.75 188.25 103.75 183.4 104.55 183.4
M 208.2 190.35
L 234.65 190.35 234.65 167.6 208.2 167.6 208.2 190.35
M 223.9 169.7
L 225.5 169.7 225.5 175 223.9 175 223.1 175 223.1 169.7 223.9 169.7
M 227 169.7
L 227.55 169.7 228.85 169.7 229.2 169.7 229.2 175 228.85 175 227.55 175 227 175 227 169.7
M 231.3 169.7
L 232.95 169.7 233.05 169.7 233.05 175 232.95 175 231.3 175 230.5 175 230.5 169.7 231.3 169.7
M 209.85 169.7
L 212.3 169.7 212.3 175 209.85 175 209.85 169.7
M 217.4 169.7
L 219.8 169.7 219.8 175 217.4 175 217.4 169.7
M 213.9 169.7
L 216.1 169.7 216.1 175 213.9 175 213.9 169.7
M 213.9 176.65
L 216.1 176.65 216.1 181.95 213.9 181.95 213.9 176.65
M 213.9 183.4
L 216.1 183.4 216.1 188.25 213.9 188.25 213.9 183.4
M 217.4 183.4
L 219.8 183.4 219.8 188.25 217.4 188.25 217.4 183.4
M 219.8 181.95
L 217.4 181.95 217.4 176.65 219.8 176.65 219.8 181.95
M 209.85 181.95
L 209.85 176.65 212.3 176.65 212.3 181.95 209.85 181.95
M 209.85 183.4
L 212.3 183.4 212.3 188.25 209.85 188.25 209.85 183.4
M 232.95 183.4
L 233.05 183.4 233.05 188.25 232.95 188.25 231.3 188.25 230.5 188.25 230.5 183.4 231.3 183.4 232.95 183.4
M 233.05 176.65
L 233.05 181.95 232.95 181.95 231.3 181.95 230.5 181.95 230.5 176.65 231.3 176.65 232.95 176.65 233.05 176.65
M 228.85 176.65
L 229.2 176.65 229.2 181.95 228.85 181.95 227.55 181.95 227 181.95 227 176.65 227.55 176.65 228.85 176.65
M 223.1 176.65
L 223.9 176.65 225.5 176.65 225.5 181.95 223.9 181.95 223.1 181.95 223.1 176.65
M 227 183.4
L 227.55 183.4 228.85 183.4 229.2 183.4 229.2 188.25 228.85 188.25 227.55 188.25 227 188.25 227 183.4
M 223.1 183.4
L 223.9 183.4 225.5 183.4 225.5 188.25 223.9 188.25 223.1 188.25 223.1 183.4
M 167.15 190.35
L 167.15 167.6 140.7 167.6 140.7 190.35 158.1 190.35 167.15 190.35
M 165.45 169.7
L 165.55 169.7 165.55 175 165.45 175 163.8 175 163 175 163 169.7 163.8 169.7 165.45 169.7
M 165.45 176.65
L 165.55 176.65 165.55 181.95 165.45 181.95 163.8 181.95 163 181.95 163 176.65 163.8 176.65 165.45 176.65
M 165.45 183.4
L 165.55 183.4 165.55 188.25 165.45 188.25 163.8 188.25 163 188.25 163 183.4 163.8 183.4 165.45 183.4
M 156.4 169.7
L 158 169.7 158 175 156.4 175 155.6 175 155.6 169.7 156.4 169.7
M 142.35 169.7
L 144.8 169.7 144.8 175 142.35 175 142.35 169.7
M 146.4 169.7
L 148.6 169.7 148.6 175 146.4 175 146.4 169.7
M 159.5 169.7
L 160.05 169.7 161.35 169.7 161.7 169.7 161.7 175 161.35 175 160.05 175 159.5 175 159.5 169.7
M 149.9 169.7
L 152.3 169.7 152.3 175 149.9 175 149.9 169.7
M 160.05 176.65
L 161.35 176.65 161.7 176.65 161.7 181.95 161.35 181.95 160.05 181.95 159.5 181.95 159.5 176.65 160.05 176.65
M 155.6 176.65
L 156.4 176.65 158 176.65 158 181.95 156.4 181.95 155.6 181.95 155.6 176.65
M 155.6 183.4
L 156.4 183.4 158 183.4 158 188.25 156.4 188.25 155.6 188.25 155.6 183.4
M 161.35 183.4
L 161.7 183.4 161.7 188.25 161.35 188.25 160.05 188.25 159.5 188.25 159.5 183.4 160.05 183.4 161.35 183.4
M 152.3 176.65
L 152.3 181.95 149.9 181.95 149.9 176.65 152.3 176.65
M 142.35 176.65
L 144.8 176.65 144.8 181.95 142.35 181.95 142.35 176.65
M 142.35 183.4
L 144.8 183.4 144.8 188.25 142.35 188.25 142.35 183.4
M 146.4 183.4
L 148.6 183.4 148.6 188.25 146.4 188.25 146.4 183.4
M 148.6 176.65
L 148.6 181.95 146.4 181.95 146.4 176.65 148.6 176.65
M 149.9 188.25
L 149.9 183.4 152.3 183.4 152.3 188.25 149.9 188.25
M 599 167.6
L 599 190.35 625.45 190.35 625.45 167.6 599 167.6
M 600.65 169.7
L 603.1 169.7 603.1 175 600.65 175 600.65 169.7
M 604.7 169.7
L 606.9 169.7 606.9 175 604.7 175 604.7 169.7
M 604.7 176.65
L 606.9 176.65 606.9 181.95 604.7 181.95 604.7 176.65
M 604.7 183.4
L 606.9 183.4 606.9 188.25 604.7 188.25 604.7 183.4
M 600.65 181.95
L 600.65 176.65 603.1 176.65 603.1 181.95 600.65 181.95
M 600.65 183.4
L 603.1 183.4 603.1 188.25 600.65 188.25 600.65 183.4
M 613.9 169.7
L 614.7 169.7 616.3 169.7 616.3 175 614.7 175 613.9 175 613.9 169.7
M 608.2 169.7
L 610.6 169.7 610.6 175 608.2 175 608.2 169.7
M 619.65 169.7
L 620 169.7 620 175 619.65 175 618.35 175 617.8 175 617.8 169.7 618.35 169.7 619.65 169.7
M 623.75 169.7
L 623.85 169.7 623.85 175 623.75 175 622.1 175 621.3 175 621.3 169.7 622.1 169.7 623.75 169.7
M 623.75 176.65
L 623.85 176.65 623.85 181.95 623.75 181.95 622.1 181.95 621.3 181.95 621.3 176.65 622.1 176.65 623.75 176.65
M 618.35 176.65
L 619.65 176.65 620 176.65 620 181.95 619.65 181.95 618.35 181.95 617.8 181.95 617.8 176.65 618.35 176.65
M 619.65 183.4
L 620 183.4 620 188.25 619.65 188.25 618.35 188.25 617.8 188.25 617.8 183.4 618.35 183.4 619.65 183.4
M 621.3 183.4
L 622.1 183.4 623.75 183.4 623.85 183.4 623.85 188.25 623.75 188.25 622.1 188.25 621.3 188.25 621.3 183.4
M 614.7 176.65
L 616.3 176.65 616.3 181.95 614.7 181.95 613.9 181.95 613.9 176.65 614.7 176.65
M 608.2 176.65
L 610.6 176.65 610.6 181.95 608.2 181.95 608.2 176.65
M 608.2 183.4
L 610.6 183.4 610.6 188.25 608.2 188.25 608.2 183.4
M 614.7 183.4
L 616.3 183.4 616.3 188.25 614.7 188.25 613.9 188.25 613.9 183.4 614.7 183.4
M 274.2 167.6
L 274.2 190.35 300.65 190.35 300.65 167.6 274.2 167.6
M 279.9 169.7
L 282.1 169.7 282.1 175 279.9 175 279.9 169.7
M 275.85 169.7
L 278.3 169.7 278.3 175 275.85 175 275.85 169.7
M 279.9 176.65
L 282.1 176.65 282.1 181.95 279.9 181.95 279.9 176.65
M 275.85 176.65
L 278.3 176.65 278.3 181.95 275.85 181.95 275.85 176.65
M 275.85 183.4
L 278.3 183.4 278.3 188.25 275.85 188.25 275.85 183.4
M 279.9 183.4
L 282.1 183.4 282.1 188.25 279.9 188.25 279.9 183.4
M 283.4 181.95
L 283.4 176.65 285.8 176.65 285.8 181.95 283.4 181.95
M 283.4 188.25
L 283.4 183.4 285.8 183.4 285.8 188.25 283.4 188.25
M 283.4 175
L 283.4 169.7 285.8 169.7 285.8 175 283.4 175
M 289.1 169.7
L 289.9 169.7 291.5 169.7 291.5 175 289.9 175 289.1 175 289.1 169.7
M 294.85 169.7
L 295.2 169.7 295.2 175 294.85 175 293.55 175 293 175 293 169.7 293.55 169.7 294.85 169.7
M 296.5 169.7
L 297.3 169.7 298.95 169.7 299.05 169.7 299.05 175 298.95 175 297.3 175 296.5 175 296.5 169.7
M 298.95 176.65
L 299.05 176.65 299.05 181.95 298.95 181.95 297.3 181.95 296.5 181.95 296.5 176.65 297.3 176.65 298.95 176.65
M 294.85 176.65
L 295.2 176.65 295.2 181.95 294.85 181.95 293.55 181.95 293 181.95 293 176.65 293.55 176.65 294.85 176.65
M 296.5 183.4
L 297.3 183.4 298.95 183.4 299.05 183.4 299.05 188.25 298.95 188.25 297.3 188.25 296.5 188.25 296.5 183.4
M 294.85 183.4
L 295.2 183.4 295.2 188.25 294.85 188.25 293.55 188.25 293 188.25 293 183.4 293.55 183.4 294.85 183.4
M 289.1 176.65
L 289.9 176.65 291.5 176.65 291.5 181.95 289.9 181.95 289.1 181.95 289.1 176.65
M 289.1 183.4
L 289.9 183.4 291.5 183.4 291.5 188.25 289.9 188.25 289.1 188.25 289.1 183.4
M 528.15 190.35
L 554.6 190.35 554.6 167.6 528.15 167.6 528.15 190.35
M 546.95 169.7
L 547.5 169.7 548.8 169.7 549.15 169.7 549.15 175 548.8 175 547.5 175 546.95 175 546.95 169.7
M 551.25 169.7
L 552.9 169.7 553 169.7 553 175 552.9 175 551.25 175 550.45 175 550.45 169.7 551.25 169.7
M 537.35 169.7
L 539.75 169.7 539.75 175 537.35 175 537.35 169.7
M 533.85 169.7
L 536.05 169.7 536.05 175 533.85 175 533.85 169.7
M 529.8 169.7
L 532.25 169.7 532.25 175 529.8 175 529.8 169.7
M 543.05 169.7
L 543.85 169.7 545.45 169.7 545.45 175 543.85 175 543.05 175 543.05 169.7
M 543.05 176.65
L 543.85 176.65 545.45 176.65 545.45 181.95 543.85 181.95 543.05 181.95 543.05 176.65
M 537.35 176.65
L 539.75 176.65 539.75 181.95 537.35 181.95 537.35 176.65
M 537.35 183.4
L 539.75 183.4 539.75 188.25 537.35 188.25 537.35 183.4
M 543.85 183.4
L 545.45 183.4 545.45 188.25 543.85 188.25 543.05 188.25 543.05 183.4 543.85 183.4
M 533.85 176.65
L 536.05 176.65 536.05 181.95 533.85 181.95 533.85 176.65
M 533.85 183.4
L 536.05 183.4 536.05 188.25 533.85 188.25 533.85 183.4
M 529.8 183.4
L 532.25 183.4 532.25 188.25 529.8 188.25 529.8 183.4
M 532.25 176.65
L 532.25 181.95 529.8 181.95 529.8 176.65 532.25 176.65
M 552.9 176.65
L 553 176.65 553 181.95 552.9 181.95 551.25 181.95 550.45 181.95 550.45 176.65 551.25 176.65 552.9 176.65
M 548.8 176.65
L 549.15 176.65 549.15 181.95 548.8 181.95 547.5 181.95 546.95 181.95 546.95 176.65 547.5 176.65 548.8 176.65
M 548.8 183.4
L 549.15 183.4 549.15 188.25 548.8 188.25 547.5 188.25 546.95 188.25 546.95 183.4 547.5 183.4 548.8 183.4
M 550.45 183.4
L 551.25 183.4 552.9 183.4 553 183.4 553 188.25 552.9 188.25 551.25 188.25 550.45 188.25 550.45 183.4
M 716.5 167.6
L 716.5 190.35 742.95 190.35 742.95 167.6 716.5 167.6
M 725.7 169.7
L 728.1 169.7 728.1 175 725.7 175 725.7 169.7
M 718.15 169.7
L 720.6 169.7 720.6 175 718.15 175 718.15 169.7
M 722.2 169.7
L 724.4 169.7 724.4 175 722.2 175 722.2 169.7
M 725.7 176.65
L 728.1 176.65 728.1 181.95 725.7 181.95 725.7 176.65
M 725.7 183.4
L 728.1 183.4 728.1 188.25 725.7 188.25 725.7 183.4
M 722.2 181.95
L 722.2 176.65 724.4 176.65 724.4 181.95 722.2 181.95
M 720.6 176.65
L 720.6 181.95 718.15 181.95 718.15 176.65 720.6 176.65
M 722.2 183.4
L 724.4 183.4 724.4 188.25 722.2 188.25 722.2 183.4
M 718.15 183.4
L 720.6 183.4 720.6 188.25 718.15 188.25 718.15 183.4
M 731.4 169.7
L 732.2 169.7 733.8 169.7 733.8 175 732.2 175 731.4 175 731.4 169.7
M 737.15 169.7
L 737.5 169.7 737.5 175 737.15 175 735.85 175 735.3 175 735.3 169.7 735.85 169.7 737.15 169.7
M 739.6 169.7
L 741.25 169.7 741.35 169.7 741.35 175 741.25 175 739.6 175 738.8 175 738.8 169.7 739.6 169.7
M 739.6 176.65
L 741.25 176.65 741.35 176.65 741.35 181.95 741.25 181.95 739.6 181.95 738.8 181.95 738.8 176.65 739.6 176.65
M 739.6 183.4
L 741.25 183.4 741.35 183.4 741.35 188.25 741.25 188.25 739.6 188.25 738.8 188.25 738.8 183.4 739.6 183.4
M 735.85 176.65
L 737.15 176.65 737.5 176.65 737.5 181.95 737.15 181.95 735.85 181.95 735.3 181.95 735.3 176.65 735.85 176.65
M 732.2 176.65
L 733.8 176.65 733.8 181.95 732.2 181.95 731.4 181.95 731.4 176.65 732.2 176.65
M 732.2 183.4
L 733.8 183.4 733.8 188.25 732.2 188.25 731.4 188.25 731.4 183.4 732.2 183.4
M 735.3 183.4
L 735.85 183.4 737.15 183.4 737.5 183.4 737.5 188.25 737.15 188.25 735.85 188.25 735.3 188.25 735.3 183.4
M 686.2 167.6
L 659.75 167.6 659.75 190.35 686.2 190.35 686.2 167.6
M 675.45 169.7
L 677.05 169.7 677.05 175 675.45 175 674.65 175 674.65 169.7 675.45 169.7
M 668.95 169.7
L 671.35 169.7 671.35 175 668.95 175 668.95 169.7
M 680.4 169.7
L 680.75 169.7 680.75 175 680.4 175 679.1 175 678.55 175 678.55 169.7 679.1 169.7 680.4 169.7
M 684.5 169.7
L 684.6 169.7 684.6 175 684.5 175 682.85 175 682.05 175 682.05 169.7 682.85 169.7 684.5 169.7
M 661.4 169.7
L 663.85 169.7 663.85 175 661.4 175 661.4 169.7
M 665.45 169.7
L 667.65 169.7 667.65 175 665.45 175 665.45 169.7
M 665.45 176.65
L 667.65 176.65 667.65 181.95 665.45 181.95 665.45 176.65
M 665.45 183.4
L 667.65 183.4 667.65 188.25 665.45 188.25 665.45 183.4
M 661.4 183.4
L 663.85 183.4 663.85 188.25 661.4 188.25 661.4 183.4
M 663.85 176.65
L 663.85 181.95 661.4 181.95 661.4 176.65 663.85 176.65
M 684.5 176.65
L 684.6 176.65 684.6 181.95 684.5 181.95 682.85 181.95 682.05 181.95 682.05 176.65 682.85 176.65 684.5 176.65
M 679.1 176.65
L 680.4 176.65 680.75 176.65 680.75 181.95 680.4 181.95 679.1 181.95 678.55 181.95 678.55 176.65 679.1 176.65
M 678.55 183.4
L 679.1 183.4 680.4 183.4 680.75 183.4 680.75 188.25 680.4 188.25 679.1 188.25 678.55 188.25 678.55 183.4
M 682.05 183.4
L 682.85 183.4 684.5 183.4 684.6 183.4 684.6 188.25 684.5 188.25 682.85 188.25 682.05 188.25 682.05 183.4
M 674.65 176.65
L 675.45 176.65 677.05 176.65 677.05 181.95 675.45 181.95 674.65 181.95 674.65 176.65
M 668.95 176.65
L 671.35 176.65 671.35 181.95 668.95 181.95 668.95 176.65
M 668.95 183.4
L 671.35 183.4 671.35 188.25 668.95 188.25 668.95 183.4
M 674.65 183.4
L 675.45 183.4 677.05 183.4 677.05 188.25 675.45 188.25 674.65 188.25 674.65 183.4 Z"/>

<path fill="#F1F165" stroke="none" d="
M 49.7 75.9
L 62.25 75.9 62.25 64.75 49.7 64.75 49.7 75.9
M 77.8 64.75
L 68.05 64.75 68.05 75.9 77.8 75.9 77.8 64.75
M 27.75 64.75
L 27.75 75.9 43.9 75.9 43.9 64.75 27.75 64.75
M 5.8 75.9
L 21.95 75.9 21.95 64.75 5.8 64.75 5.8 75.9
M 136.05 75.9
L 145.65 75.9 145.65 64.75 136.05 64.75 136.05 75.9
M 117.7 64.75
L 117.7 75.9 130.1 75.9 130.1 64.75 117.7 64.75
M 96.35 64.75
L 83.6 64.75 83.6 75.9 96.35 75.9 96.35 64.75
M 111.75 64.75
L 102.15 64.75 102.15 75.9 111.75 75.9 111.75 64.75
M 221.4 75.9
L 231 75.9 231 64.75 221.4 64.75 221.4 75.9
M 215.6 64.75
L 203.1 64.75 203.1 75.9 215.6 75.9 215.6 64.75
M 163.15 75.9
L 163.15 64.75 151.45 64.75 151.45 75.9 163.15 75.9
M 180.6 64.75
L 168.8 64.75 168.8 75.9 180.6 75.9 180.6 64.75
M 197.25 64.75
L 186.4 64.75 186.4 75.9 197.25 75.9 197.25 64.75
M 301.8 64.75
L 289.3 64.75 289.3 75.9 301.8 75.9 301.8 64.75
M 317.2 64.75
L 307.65 64.75 307.65 75.9 317.2 75.9 317.2 64.75
M 249.35 75.9
L 249.35 64.75 236.75 64.75 236.75 75.9 249.35 75.9
M 255.15 75.9
L 266.95 75.9 266.95 64.75 255.15 64.75 255.15 75.9
M 283.45 64.75
L 272.6 64.75 272.6 75.9 283.45 75.9 283.45 64.75
M 379.25 75.9
L 389.85 75.9 389.85 64.75 379.25 64.75 379.25 75.9
M 360.25 64.75
L 360.25 75.9 373.5 75.9 373.5 64.75 360.25 64.75
M 334.8 75.9
L 334.8 64.75 323.15 64.75 323.15 75.9 334.8 75.9
M 340.7 75.9
L 354.35 75.9 354.35 64.75 340.7 64.75 340.7 75.9
M 463.5 75.9
L 473.2 75.9 473.2 64.75 463.5 64.75 463.5 75.9
M 444.8 64.75
L 444.8 75.9 457.7 75.9 457.7 64.75 444.8 64.75
M 405.2 75.9
L 405.2 64.75 395.65 64.75 395.65 75.9 405.2 75.9
M 423.55 64.75
L 411.1 64.75 411.1 75.9 423.55 75.9 423.55 64.75
M 439.1 64.75
L 429.4 64.75 429.4 75.9 439.1 75.9 439.1 64.75
M 546.4 75.9
L 558.85 75.9 558.85 64.75 546.4 64.75 546.4 75.9
M 540.55 64.75
L 530.9 64.75 530.9 75.9 540.55 75.9 540.55 64.75
M 491.45 75.9
L 491.45 64.75 479.05 64.75 479.05 75.9 491.45 75.9
M 497.4 75.9
L 506.95 75.9 506.95 64.75 497.4 64.75 497.4 75.9
M 525.15 64.75
L 512.8 64.75 512.8 75.9 525.15 75.9 525.15 64.75
M 626.9 64.75
L 614.25 64.75 614.25 75.9 626.9 75.9 626.9 64.75
M 642.25 64.75
L 632.65 64.75 632.65 75.9 642.25 75.9 642.25 64.75
M 599 64.75
L 599 75.9 608.5 75.9 608.5 64.75 599 64.75
M 574.35 75.9
L 574.35 64.75 564.8 64.75 564.8 75.9 574.35 75.9
M 580.2 75.9
L 593.1 75.9 593.1 64.75 580.2 64.75 580.2 75.9
M 699.75 125.3
L 693.85 125.3 683.05 125.3 677.25 125.3 665.65 125.3 659.75 125.3 648.1 125.3 642.25 125.3 632.65 125.3 626.9 125.3 614.25 125.3 608.5 125.3 599 125.3 593.1 125.3 580.2 125.3 574.35 125.3 564.8 125.3 558.85 125.3 546.4 125.3 540.55 125.3 530.9 125.3 525.15 125.3 512.8 125.3 506.95 125.3 497.4 125.3 491.45 125.3 479.05 125.3 473.2 125.3 463.5 125.3 457.7 125.3 444.8 125.3 439.1 125.3 429.4 125.3 423.55 125.3 411.1 125.3 405.2 125.3 395.65 125.3 389.85 125.3 379.25 125.3 373.5 125.3 360.25 125.3 354.35 125.3 340.7 125.3 334.8 125.3 323.15 125.3 317.2 125.3 307.65 125.3 301.8 125.3 289.3 125.3 283.45 125.3 272.6 125.3 266.95 125.3 255.15 125.3 249.35 125.3 236.75 125.3 231 125.3 221.4 125.3 215.6 125.3 203.1 125.3 197.25 125.3 186.4 125.3 180.6 125.3 168.8 125.3 163.15 125.3 151.45 125.3 145.65 125.3 136.05 125.3 130.1 125.3 117.7 125.3 111.75 125.3 102.15 125.3 96.35 125.3 83.6 125.3 77.8 125.3 68.05 125.3 62.25 125.3 49.7 125.3 43.9 125.3 27.75 125.3 21.95 125.3 5.8 125.3 0 125.3 0 135.1 158.1 135.1 291.85 135.1 362.3 135.1 367.85 135.1 800.85 135.1 800.85 125.3 794.9 125.3 774.3 125.3 768.35 125.3 751.9 125.3 745.95 125.3 733.5 125.3 727.75 125.3 718 125.3 712.2 125.3 699.75 125.3
M 699.75 75.9
L 712.2 75.9 712.2 64.75 699.75 64.75 699.75 75.9
M 727.75 64.75
L 718 64.75 718 75.9 727.75 75.9 727.75 64.75
M 683.05 64.75
L 683.05 75.9 693.85 75.9 693.85 64.75 683.05 64.75
M 665.65 75.9
L 677.25 75.9 677.25 64.75 665.65 64.75 665.65 75.9
M 659.75 64.75
L 648.1 64.75 648.1 75.9 659.75 75.9 659.75 64.75
M 774.3 64.75
L 774.3 75.9 794.9 75.9 794.9 64.75 774.3 64.75
M 745.95 64.75
L 733.5 64.75 733.5 75.9 745.95 75.9 745.95 64.75
M 768.35 64.75
L 751.9 64.75 751.9 75.9 768.35 75.9 768.35 64.75
M 800.85 11.1
L 800.85 0 367.85 0 362.3 0 334.05 0 291.85 0 158.1 0 157.4 0 0 0 0 11.1 5.8 11.1 21.95 11.1 27.75 11.1 43.9 11.1 49.7 11.1 62.25 11.1 68.05 11.1 77.8 11.1 83.6 11.1 96.35 11.1 102.15 11.1 111.75 11.1 117.7 11.1 130.1 11.1 136.05 11.1 145.65 11.1 151.45 11.1 163.15 11.1 168.8 11.1 180.6 11.1 186.4 11.1 197.25 11.1 203.1 11.1 215.6 11.1 221.4 11.1 231 11.1 236.75 11.1 249.35 11.1 255.15 11.1 266.95 11.1 272.6 11.1 283.45 11.1 289.3 11.1 301.8 11.1 307.65 11.1 317.2 11.1 323.15 11.1 334.8 11.1 340.7 11.1 354.35 11.1 360.25 11.1 373.5 11.1 379.25 11.1 389.85 11.1 395.65 11.1 405.2 11.1 411.1 11.1 423.55 11.1 429.4 11.1 439.1 11.1 444.8 11.1 457.7 11.1 463.5 11.1 473.2 11.1 479.05 11.1 491.45 11.1 497.4 11.1 506.95 11.1 512.8 11.1 525.15 11.1 530.9 11.1 540.55 11.1 546.4 11.1 558.85 11.1 564.8 11.1 574.35 11.1 580.2 11.1 593.1 11.1 599 11.1 608.5 11.1 614.25 11.1 626.9 11.1 632.65 11.1 642.25 11.1 648.1 11.1 659.75 11.1 665.65 11.1 677.25 11.1 683.05 11.1 693.85 11.1 699.75 11.1 712.2 11.1 718 11.1 727.75 11.1 733.5 11.1 745.95 11.1 751.9 11.1 768.35 11.1 774.3 11.1 794.9 11.1 800.85 11.1 Z"/>

<path fill="#FEF8F6" stroke="none" d="
M 727.75 108.3
L 718 108.3 712.2 108.3 699.75 108.3 693.85 108.3 683.05 108.3 677.25 108.3 665.65 108.3 659.75 108.3 648.1 108.3 642.25 108.3 632.65 108.3 626.9 108.3 614.25 108.3 608.5 108.3 599 108.3 593.1 108.3 580.2 108.3 574.35 108.3 564.8 108.3 558.85 108.3 546.4 108.3 540.55 108.3 530.9 108.3 525.15 108.3 512.8 108.3 506.95 108.3 497.4 108.3 491.45 108.3 479.05 108.3 473.2 108.3 463.5 108.3 457.7 108.3 444.8 108.3 439.1 108.3 429.4 108.3 423.55 108.3 411.1 108.3 405.2 108.3 395.65 108.3 389.85 108.3 379.25 108.3 373.5 108.3 360.25 108.3 354.35 108.3 340.7 108.3 334.8 108.3 323.15 108.3 317.2 108.3 307.65 108.3 301.8 108.3 289.3 108.3 283.45 108.3 272.6 108.3 266.95 108.3 255.15 108.3 249.35 108.3 236.75 108.3 231 108.3 221.4 108.3 215.6 108.3 203.1 108.3 197.25 108.3 186.4 108.3 180.6 108.3 168.8 108.3 163.15 108.3 151.45 108.3 145.65 108.3 136.05 108.3 130.1 108.3 117.7 108.3 111.75 108.3 102.15 108.3 96.35 108.3 83.6 108.3 77.8 108.3 68.05 108.3 62.25 108.3 49.7 108.3 43.9 108.3 27.75 108.3 21.95 108.3 5.8 108.3 0 108.3 0 112.25 5.8 112.25 21.95 112.25 27.75 112.25 43.9 112.25 49.7 112.25 62.25 112.25 68.05 112.25 77.8 112.25 83.6 112.25 96.35 112.25 102.15 112.25 111.75 112.25 117.7 112.25 130.1 112.25 136.05 112.25 145.65 112.25 151.45 112.25 163.15 112.25 168.8 112.25 180.6 112.25 186.4 112.25 197.25 112.25 203.1 112.25 215.6 112.25 221.4 112.25 231 112.25 236.75 112.25 249.35 112.25 255.15 112.25 266.95 112.25 272.6 112.25 283.45 112.25 289.3 112.25 301.8 112.25 307.65 112.25 317.2 112.25 323.15 112.25 334.8 112.25 340.7 112.25 354.35 112.25 360.25 112.25 373.5 112.25 379.25 112.25 389.85 112.25 395.65 112.25 405.2 112.25 411.1 112.25 423.55 112.25 429.4 112.25 439.1 112.25 444.8 112.25 457.7 112.25 463.5 112.25 473.2 112.25 479.05 112.25 491.45 112.25 497.4 112.25 506.95 112.25 512.8 112.25 525.15 112.25 530.9 112.25 540.55 112.25 546.4 112.25 558.85 112.25 564.8 112.25 574.35 112.25 580.2 112.25 593.1 112.25 599 112.25 608.5 112.25 614.25 112.25 626.9 112.25 632.65 112.25 642.25 112.25 648.1 112.25 659.75 112.25 665.65 112.25 677.25 112.25 683.05 112.25 693.85 112.25 699.75 112.25 712.2 112.25 718 112.25 727.75 112.25 733.5 112.25 745.95 112.25 751.9 112.25 768.35 112.25 774.3 112.25 794.9 112.25 800.85 112.25 800.85 108.3 794.9 108.3 774.3 108.3 768.35 108.3 751.9 108.3 745.95 108.3 733.5 108.3 727.75 108.3
M 745.95 75.9
L 733.5 75.9 727.75 75.9 718 75.9 712.2 75.9 699.75 75.9 693.85 75.9 683.05 75.9 677.25 75.9 665.65 75.9 659.75 75.9 648.1 75.9 642.25 75.9 632.65 75.9 626.9 75.9 614.25 75.9 608.5 75.9 599 75.9 593.1 75.9 580.2 75.9 574.35 75.9 564.8 75.9 558.85 75.9 546.4 75.9 540.55 75.9 530.9 75.9 525.15 75.9 512.8 75.9 506.95 75.9 497.4 75.9 491.45 75.9 479.05 75.9 473.2 75.9 463.5 75.9 457.7 75.9 444.8 75.9 439.1 75.9 429.4 75.9 423.55 75.9 411.1 75.9 405.2 75.9 395.65 75.9 389.85 75.9 379.25 75.9 373.5 75.9 360.25 75.9 354.35 75.9 340.7 75.9 334.8 75.9 323.15 75.9 317.2 75.9 307.65 75.9 301.8 75.9 289.3 75.9 283.45 75.9 272.6 75.9 266.95 75.9 255.15 75.9 249.35 75.9 236.75 75.9 231 75.9 221.4 75.9 215.6 75.9 203.1 75.9 197.25 75.9 186.4 75.9 180.6 75.9 168.8 75.9 163.15 75.9 151.45 75.9 145.65 75.9 136.05 75.9 130.1 75.9 117.7 75.9 111.75 75.9 102.15 75.9 96.35 75.9 83.6 75.9 77.8 75.9 68.05 75.9 62.25 75.9 49.7 75.9 43.9 75.9 27.75 75.9 21.95 75.9 5.8 75.9 0 75.9 0 79.75 5.8 79.75 21.95 79.75 27.75 79.75 43.9 79.75 49.7 79.75 62.25 79.75 68.05 79.75 77.8 79.75 83.6 79.75 96.35 79.75 102.15 79.75 111.75 79.75 117.7 79.75 130.1 79.75 136.05 79.75 145.65 79.75 151.45 79.75 163.15 79.75 168.8 79.75 180.6 79.75 186.4 79.75 197.25 79.75 203.1 79.75 215.6 79.75 221.4 79.75 231 79.75 236.75 79.75 249.35 79.75 255.15 79.75 266.95 79.75 272.6 79.75 283.45 79.75 289.3 79.75 301.8 79.75 307.65 79.75 317.2 79.75 323.15 79.75 334.8 79.75 340.7 79.75 354.35 79.75 360.25 79.75 373.5 79.75 379.25 79.75 389.85 79.75 395.65 79.75 405.2 79.75 411.1 79.75 423.55 79.75 429.4 79.75 439.1 79.75 444.8 79.75 457.7 79.75 463.5 79.75 473.2 79.75 479.05 79.75 491.45 79.75 497.4 79.75 506.95 79.75 512.8 79.75 525.15 79.75 530.9 79.75 540.55 79.75 546.4 79.75 558.85 79.75 564.8 79.75 574.35 79.75 580.2 79.75 593.1 79.75 599 79.75 608.5 79.75 614.25 79.75 626.9 79.75 632.65 79.75 642.25 79.75 648.1 79.75 659.75 79.75 665.65 79.75 677.25 79.75 683.05 79.75 693.85 79.75 699.75 79.75 712.2 79.75 718 79.75 727.75 79.75 733.5 79.75 745.95 79.75 751.9 79.75 768.35 79.75 774.3 79.75 794.9 79.75 800.85 79.75 800.85 75.9 794.9 75.9 774.3 75.9 768.35 75.9 751.9 75.9 745.95 75.9
M 733.5 96.85
L 745.95 96.85 751.9 96.85 768.35 96.85 774.3 96.85 794.9 96.85 800.85 96.85 800.85 93.2 794.9 93.2 774.3 93.2 768.35 93.2 751.9 93.2 745.95 93.2 733.5 93.2 727.75 93.2 718 93.2 712.2 93.2 699.75 93.2 693.85 93.2 683.05 93.2 677.25 93.2 665.65 93.2 659.75 93.2 648.1 93.2 642.25 93.2 632.65 93.2 626.9 93.2 614.25 93.2 608.5 93.2 599 93.2 593.1 93.2 580.2 93.2 574.35 93.2 564.8 93.2 558.85 93.2 546.4 93.2 540.55 93.2 530.9 93.2 525.15 93.2 512.8 93.2 506.95 93.2 497.4 93.2 491.45 93.2 479.05 93.2 473.2 93.2 463.5 93.2 457.7 93.2 444.8 93.2 439.1 93.2 429.4 93.2 423.55 93.2 411.1 93.2 405.2 93.2 395.65 93.2 389.85 93.2 379.25 93.2 373.5 93.2 360.25 93.2 354.35 93.2 340.7 93.2 334.8 93.2 323.15 93.2 317.2 93.2 307.65 93.2 301.8 93.2 289.3 93.2 283.45 93.2 272.6 93.2 266.95 93.2 255.15 93.2 249.35 93.2 236.75 93.2 231 93.2 221.4 93.2 215.6 93.2 203.1 93.2 197.25 93.2 186.4 93.2 180.6 93.2 168.8 93.2 163.15 93.2 151.45 93.2 145.65 93.2 136.05 93.2 130.1 93.2 117.7 93.2 111.75 93.2 102.15 93.2 96.35 93.2 83.6 93.2 77.8 93.2 68.05 93.2 62.25 93.2 49.7 93.2 43.9 93.2 27.75 93.2 21.95 93.2 5.8 93.2 0 93.2 0 96.85 5.8 96.85 21.95 96.85 27.75 96.85 43.9 96.85 49.7 96.85 62.25 96.85 68.05 96.85 77.8 96.85 83.6 96.85 96.35 96.85 102.15 96.85 111.75 96.85 117.7 96.85 130.1 96.85 136.05 96.85 145.65 96.85 151.45 96.85 163.15 96.85 168.8 96.85 180.6 96.85 186.4 96.85 197.25 96.85 203.1 96.85 215.6 96.85 221.4 96.85 231 96.85 236.75 96.85 249.35 96.85 255.15 96.85 266.95 96.85 272.6 96.85 283.45 96.85 289.3 96.85 301.8 96.85 307.65 96.85 317.2 96.85 323.15 96.85 334.8 96.85 340.7 96.85 354.35 96.85 360.25 96.85 373.5 96.85 379.25 96.85 389.85 96.85 395.65 96.85 405.2 96.85 411.1 96.85 423.55 96.85 429.4 96.85 439.1 96.85 444.8 96.85 457.7 96.85 463.5 96.85 473.2 96.85 479.05 96.85 491.45 96.85 497.4 96.85 506.95 96.85 512.8 96.85 525.15 96.85 530.9 96.85 540.55 96.85 546.4 96.85 558.85 96.85 564.8 96.85 574.35 96.85 580.2 96.85 593.1 96.85 599 96.85 608.5 96.85 614.25 96.85 626.9 96.85 632.65 96.85 642.25 96.85 648.1 96.85 659.75 96.85 665.65 96.85 677.25 96.85 683.05 96.85 693.85 96.85 699.75 96.85 712.2 96.85 718 96.85 727.75 96.85 733.5 96.85
M 800.85 46.85
L 794.9 46.85 774.3 46.85 768.35 46.85 751.9 46.85 745.95 46.85 733.5 46.85 727.75 46.85 718 46.85 712.2 46.85 699.75 46.85 693.85 46.85 683.05 46.85 677.25 46.85 665.65 46.85 659.75 46.85 648.1 46.85 642.25 46.85 632.65 46.85 626.9 46.85 614.25 46.85 608.5 46.85 599 46.85 593.1 46.85 580.2 46.85 574.35 46.85 564.8 46.85 558.85 46.85 546.4 46.85 540.55 46.85 530.9 46.85 525.15 46.85 512.8 46.85 506.95 46.85 497.4 46.85 491.45 46.85 479.05 46.85 473.2 46.85 463.5 46.85 457.7 46.85 444.8 46.85 439.1 46.85 429.4 46.85 423.55 46.85 411.1 46.85 405.2 46.85 395.65 46.85 389.85 46.85 379.25 46.85 373.5 46.85 360.25 46.85 354.35 46.85 340.7 46.85 334.8 46.85 323.15 46.85 317.2 46.85 307.65 46.85 301.8 46.85 289.3 46.85 283.45 46.85 272.6 46.85 266.95 46.85 255.15 46.85 249.35 46.85 236.75 46.85 231 46.85 221.4 46.85 215.6 46.85 203.1 46.85 197.25 46.85 186.4 46.85 180.6 46.85 168.8 46.85 163.15 46.85 151.45 46.85 145.65 46.85 136.05 46.85 130.1 46.85 117.7 46.85 111.75 46.85 102.15 46.85 96.35 46.85 83.6 46.85 77.8 46.85 68.05 46.85 62.25 46.85 49.7 46.85 43.9 46.85 27.75 46.85 21.95 46.85 5.8 46.85 0 46.85 0 50.8 5.8 50.8 21.95 50.8 27.75 50.8 43.9 50.8 49.7 50.8 62.25 50.8 68.05 50.8 77.8 50.8 83.6 50.8 96.35 50.8 102.15 50.8 111.75 50.8 117.7 50.8 130.1 50.8 136.05 50.8 145.65 50.8 151.45 50.8 163.15 50.8 168.8 50.8 180.6 50.8 186.4 50.8 197.25 50.8 203.1 50.8 215.6 50.8 221.4 50.8 231 50.8 236.75 50.8 249.35 50.8 255.15 50.8 266.95 50.8 272.6 50.8 283.45 50.8 289.3 50.8 301.8 50.8 307.65 50.8 317.2 50.8 323.15 50.8 334.8 50.8 340.7 50.8 354.35 50.8 360.25 50.8 373.5 50.8 379.25 50.8 389.85 50.8 395.65 50.8 405.2 50.8 411.1 50.8 423.55 50.8 429.4 50.8 439.1 50.8 444.8 50.8 457.7 50.8 463.5 50.8 473.2 50.8 479.05 50.8 491.45 50.8 497.4 50.8 506.95 50.8 512.8 50.8 525.15 50.8 530.9 50.8 540.55 50.8 546.4 50.8 558.85 50.8 564.8 50.8 574.35 50.8 580.2 50.8 593.1 50.8 599 50.8 608.5 50.8 614.25 50.8 626.9 50.8 632.65 50.8 642.25 50.8 648.1 50.8 659.75 50.8 665.65 50.8 677.25 50.8 683.05 50.8 693.85 50.8 699.75 50.8 712.2 50.8 718 50.8 727.75 50.8 733.5 50.8 745.95 50.8 751.9 50.8 768.35 50.8 774.3 50.8 794.9 50.8 800.85 50.8 800.85 46.85
M 800.85 32.75
L 800.85 28.9 794.9 28.9 774.3 28.9 768.35 28.9 751.9 28.9 745.95 28.9 733.5 28.9 727.75 28.9 718 28.9 712.2 28.9 699.75 28.9 693.85 28.9 683.05 28.9 677.25 28.9 665.65 28.9 659.75 28.9 648.1 28.9 642.25 28.9 632.65 28.9 626.9 28.9 614.25 28.9 608.5 28.9 599 28.9 593.1 28.9 580.2 28.9 574.35 28.9 564.8 28.9 558.85 28.9 546.4 28.9 540.55 28.9 530.9 28.9 525.15 28.9 512.8 28.9 506.95 28.9 497.4 28.9 491.45 28.9 479.05 28.9 473.2 28.9 463.5 28.9 457.7 28.9 444.8 28.9 439.1 28.9 429.4 28.9 423.55 28.9 411.1 28.9 405.2 28.9 395.65 28.9 389.85 28.9 379.25 28.9 373.5 28.9 360.25 28.9 354.35 28.9 340.7 28.9 334.8 28.9 323.15 28.9 317.2 28.9 307.65 28.9 301.8 28.9 289.3 28.9 283.45 28.9 272.6 28.9 266.95 28.9 255.15 28.9 249.35 28.9 236.75 28.9 231 28.9 221.4 28.9 215.6 28.9 203.1 28.9 197.25 28.9 186.4 28.9 180.6 28.9 168.8 28.9 163.15 28.9 151.45 28.9 145.65 28.9 136.05 28.9 130.1 28.9 117.7 28.9 111.75 28.9 102.15 28.9 96.35 28.9 83.6 28.9 77.8 28.9 68.05 28.9 62.25 28.9 49.7 28.9 43.9 28.9 27.75 28.9 21.95 28.9 5.8 28.9 0 28.9 0 32.75 5.8 32.75 21.95 32.75 27.75 32.75 43.9 32.75 49.7 32.75 62.25 32.75 68.05 32.75 77.8 32.75 83.6 32.75 96.35 32.75 102.15 32.75 111.75 32.75 117.7 32.75 130.1 32.75 136.05 32.75 145.65 32.75 151.45 32.75 163.15 32.75 168.8 32.75 180.6 32.75 186.4 32.75 197.25 32.75 203.1 32.75 215.6 32.75 221.4 32.75 231 32.75 236.75 32.75 249.35 32.75 255.15 32.75 266.95 32.75 272.6 32.75 283.45 32.75 289.3 32.75 301.8 32.75 307.65 32.75 317.2 32.75 323.15 32.75 334.8 32.75 340.7 32.75 354.35 32.75 360.25 32.75 373.5 32.75 379.25 32.75 389.85 32.75 395.65 32.75 405.2 32.75 411.1 32.75 423.55 32.75 429.4 32.75 439.1 32.75 444.8 32.75 457.7 32.75 463.5 32.75 473.2 32.75 479.05 32.75 491.45 32.75 497.4 32.75 506.95 32.75 512.8 32.75 525.15 32.75 530.9 32.75 540.55 32.75 546.4 32.75 558.85 32.75 564.8 32.75 574.35 32.75 580.2 32.75 593.1 32.75 599 32.75 608.5 32.75 614.25 32.75 626.9 32.75 632.65 32.75 642.25 32.75 648.1 32.75 659.75 32.75 665.65 32.75 677.25 32.75 683.05 32.75 693.85 32.75 699.75 32.75 712.2 32.75 718 32.75 727.75 32.75 733.5 32.75 745.95 32.75 751.9 32.75 768.35 32.75 774.3 32.75 794.9 32.75 800.85 32.75 Z"/>
</g>
</defs>

<g transform="matrix( 1, 0, 0, 1, 0,0) ">
<use xlink:href="#Layer0_0_FILL"/>
</g>
</svg>
