
<svg xmlns="http://www.w3.org/2000/svg" version="1.1" xmlns:xlink="http://www.w3.org/1999/xlink" preserveAspectRatio="none" x="0px" y="0px" width="911px" height="306px" viewBox="0 0 911 306">
<defs>
<g id="Layer0_0_FILL">
<path fill="#7D8894" stroke="none" d="
M 119 48.75
L 119 11 119 1.25 0 1.25 0 11 0 48.75 0 123.4 0 151.5 0 203.8 0 305.05 119 305.05 119 203.8 119 151.5 119 123.4 119 48.75
M 87.05 24.85
L 87.05 58.75 54.05 58.75 54.05 24.85 87.05 24.85
M 54.05 177.4
L 54.05 143.5 87.05 143.5 87.05 177.4 54.05 177.4
M 54.05 80.05
L 87.05 80.05 87.05 113.95 54.05 113.95 54.05 80.05
M 87.05 207.05
L 87.05 240.95 54.05 240.95 54.05 207.05 87.05 207.05
M 910.15 11
L 910.15 0 791.15 0 791.15 11 791.15 123.4 791.15 151.5 791.15 203.8 791.15 301.45 910.15 301.45 910.15 203.8 910.15 151.5 910.15 123.4 910.15 11
M 856.1 23.5
L 856.1 23.6 856.1 57.5 823.1 57.5 823.1 23.6 823.1 23.5 856.1 23.5
M 823.1 78.8
L 856.1 78.8 856.1 112.7 823.1 112.7 823.1 78.8
M 823.1 142.25
L 856.1 142.25 856.1 176.15 823.1 176.15 823.1 142.25
M 856.1 205.8
L 856.1 239.7 823.1 239.7 823.1 205.8 856.1 205.8 Z"/>

<path fill="#D03F33" stroke="none" d="
M 87.05 240.95
L 87.05 207.05 54.05 207.05 54.05 240.95 87.05 240.95
M 84.2 210.5
L 84.2 237.5 56.8 237.5 56.8 210.5 84.2 210.5
M 87.05 80.05
L 54.05 80.05 54.05 113.95 87.05 113.95 87.05 80.05
M 56.8 110.5
L 56.8 83.5 84.2 83.5 84.2 110.5 56.8 110.5
M 54.05 143.5
L 54.05 177.4 87.05 177.4 87.05 143.5 54.05 143.5
M 56.8 173.95
L 56.8 146.95 84.2 146.95 84.2 173.95 56.8 173.95
M 87.05 58.75
L 87.05 24.85 54.05 24.85 54.05 58.75 87.05 58.75
M 84.2 28.3
L 84.2 55.3 56.8 55.3 56.8 28.3 84.2 28.3
M 856.1 239.7
L 856.1 205.8 823.1 205.8 823.1 239.7 856.1 239.7
M 853.35 209.25
L 853.35 236.25 825.95 236.25 825.95 209.25 853.35 209.25
M 856.1 142.25
L 823.1 142.25 823.1 176.15 856.1 176.15 856.1 142.25
M 853.35 172.7
L 825.95 172.7 825.95 145.7 853.35 145.7 853.35 172.7
M 856.1 78.8
L 823.1 78.8 823.1 112.7 856.1 112.7 856.1 78.8
M 825.95 82.25
L 853.35 82.25 853.35 109.25 825.95 109.25 825.95 82.25
M 856.1 57.5
L 856.1 23.6 823.1 23.6 823.1 57.5 856.1 57.5
M 853.35 27.05
L 853.35 54.05 825.95 54.05 825.95 27.05 853.35 27.05 Z"/>

<path fill="#BFBF36" stroke="none" d="
M 84.2 237.5
L 84.2 210.5 56.8 210.5 56.8 237.5 84.2 237.5
M 81.75 214
L 81.75 221.75 72.4 221.75 72.4 214 81.75 214
M 81.75 225.75
L 81.75 234.5 72.4 234.5 72.4 225.75 81.75 225.75
M 68.45 214
L 68.45 221.75 59.25 221.75 59.25 214 68.45 214
M 59.25 234.5
L 59.25 225.75 68.45 225.75 68.45 234.5 59.25 234.5
M 56.8 83.5
L 56.8 110.5 84.2 110.5 84.2 83.5 56.8 83.5
M 81.75 87
L 81.75 94.75 72.4 94.75 72.4 87 81.75 87
M 59.25 94.75
L 59.25 87 68.45 87 68.45 94.75 59.25 94.75
M 59.25 98.75
L 68.45 98.75 68.45 107.5 59.25 107.5 59.25 98.75
M 81.75 98.75
L 81.75 107.5 72.4 107.5 72.4 98.75 81.75 98.75
M 56.8 146.95
L 56.8 173.95 84.2 173.95 84.2 146.95 56.8 146.95
M 68.45 162.2
L 68.45 170.95 59.25 170.95 59.25 162.2 68.45 162.2
M 72.4 170.95
L 72.4 162.2 81.75 162.2 81.75 170.95 72.4 170.95
M 68.45 150.45
L 68.45 158.2 59.25 158.2 59.25 150.45 68.45 150.45
M 72.4 158.2
L 72.4 150.45 81.75 150.45 81.75 158.2 72.4 158.2
M 84.2 55.3
L 84.2 28.3 56.8 28.3 56.8 55.3 84.2 55.3
M 81.75 31.8
L 81.75 39.55 72.4 39.55 72.4 31.8 81.75 31.8
M 81.75 43.55
L 81.75 52.3 72.4 52.3 72.4 43.55 81.75 43.55
M 59.25 43.55
L 68.45 43.55 68.45 52.3 59.25 52.3 59.25 43.55
M 68.45 39.55
L 59.25 39.55 59.25 31.8 68.45 31.8 68.45 39.55
M 853.35 236.25
L 853.35 209.25 825.95 209.25 825.95 236.25 853.35 236.25
M 850.9 212.75
L 850.9 220.5 841.7 220.5 841.7 212.75 850.9 212.75
M 850.9 224.5
L 850.9 233.25 841.7 233.25 841.7 224.5 850.9 224.5
M 837.75 212.75
L 837.75 220.5 828.4 220.5 828.4 212.75 837.75 212.75
M 828.4 233.25
L 828.4 224.5 837.75 224.5 837.75 233.25 828.4 233.25
M 825.95 172.7
L 853.35 172.7 853.35 145.7 825.95 145.7 825.95 172.7
M 837.75 160.95
L 837.75 169.7 828.4 169.7 828.4 160.95 837.75 160.95
M 841.7 169.7
L 841.7 160.95 850.9 160.95 850.9 169.7 841.7 169.7
M 841.7 156.95
L 841.7 149.2 850.9 149.2 850.9 156.95 841.7 156.95
M 837.75 149.2
L 837.75 156.95 828.4 156.95 828.4 149.2 837.75 149.2
M 853.35 82.25
L 825.95 82.25 825.95 109.25 853.35 109.25 853.35 82.25
M 837.75 85.75
L 837.75 93.5 828.4 93.5 828.4 85.75 837.75 85.75
M 841.7 93.5
L 841.7 85.75 850.9 85.75 850.9 93.5 841.7 93.5
M 828.4 97.5
L 837.75 97.5 837.75 106.25 828.4 106.25 828.4 97.5
M 841.7 97.5
L 850.9 97.5 850.9 106.25 841.7 106.25 841.7 97.5
M 853.35 54.05
L 853.35 27.05 825.95 27.05 825.95 54.05 853.35 54.05
M 850.9 30.55
L 850.9 38.3 841.7 38.3 841.7 30.55 850.9 30.55
M 828.4 42.3
L 837.75 42.3 837.75 51.05 828.4 51.05 828.4 42.3
M 828.4 30.55
L 837.75 30.55 837.75 38.3 828.4 38.3 828.4 30.55
M 841.7 51.05
L 841.7 42.3 850.9 42.3 850.9 51.05 841.7 51.05 Z"/>

<path fill="#0E0E0E" stroke="none" d="
M 59.25 225.75
L 59.25 234.5 68.45 234.5 68.45 225.75 59.25 225.75
M 68.45 221.75
L 68.45 214 59.25 214 59.25 221.75 68.45 221.75
M 81.75 234.5
L 81.75 225.75 72.4 225.75 72.4 234.5 81.75 234.5
M 81.75 221.75
L 81.75 214 72.4 214 72.4 221.75 81.75 221.75
M 81.75 107.5
L 81.75 98.75 72.4 98.75 72.4 107.5 81.75 107.5
M 68.45 98.75
L 59.25 98.75 59.25 107.5 68.45 107.5 68.45 98.75
M 59.25 87
L 59.25 94.75 68.45 94.75 68.45 87 59.25 87
M 81.75 94.75
L 81.75 87 72.4 87 72.4 94.75 81.75 94.75
M 72.4 150.45
L 72.4 158.2 81.75 158.2 81.75 150.45 72.4 150.45
M 68.45 158.2
L 68.45 150.45 59.25 150.45 59.25 158.2 68.45 158.2
M 72.4 162.2
L 72.4 170.95 81.75 170.95 81.75 162.2 72.4 162.2
M 68.45 170.95
L 68.45 162.2 59.25 162.2 59.25 170.95 68.45 170.95
M 59.25 39.55
L 68.45 39.55 68.45 31.8 59.25 31.8 59.25 39.55
M 68.45 43.55
L 59.25 43.55 59.25 52.3 68.45 52.3 68.45 43.55
M 81.75 52.3
L 81.75 43.55 72.4 43.55 72.4 52.3 81.75 52.3
M 81.75 39.55
L 81.75 31.8 72.4 31.8 72.4 39.55 81.75 39.55
M 828.4 224.5
L 828.4 233.25 837.75 233.25 837.75 224.5 828.4 224.5
M 837.75 220.5
L 837.75 212.75 828.4 212.75 828.4 220.5 837.75 220.5
M 850.9 233.25
L 850.9 224.5 841.7 224.5 841.7 233.25 850.9 233.25
M 850.9 220.5
L 850.9 212.75 841.7 212.75 841.7 220.5 850.9 220.5
M 837.75 156.95
L 837.75 149.2 828.4 149.2 828.4 156.95 837.75 156.95
M 841.7 149.2
L 841.7 156.95 850.9 156.95 850.9 149.2 841.7 149.2
M 841.7 160.95
L 841.7 169.7 850.9 169.7 850.9 160.95 841.7 160.95
M 837.75 169.7
L 837.75 160.95 828.4 160.95 828.4 169.7 837.75 169.7
M 850.9 97.5
L 841.7 97.5 841.7 106.25 850.9 106.25 850.9 97.5
M 837.75 97.5
L 828.4 97.5 828.4 106.25 837.75 106.25 837.75 97.5
M 841.7 85.75
L 841.7 93.5 850.9 93.5 850.9 85.75 841.7 85.75
M 837.75 93.5
L 837.75 85.75 828.4 85.75 828.4 93.5 837.75 93.5
M 841.7 42.3
L 841.7 51.05 850.9 51.05 850.9 42.3 841.7 42.3
M 837.75 30.55
L 828.4 30.55 828.4 38.3 837.75 38.3 837.75 30.55
M 837.75 42.3
L 828.4 42.3 828.4 51.05 837.75 51.05 837.75 42.3
M 850.9 38.3
L 850.9 30.55 841.7 30.55 841.7 38.3 850.9 38.3 Z"/>
</g>
</defs>

<g transform="matrix( 1, 0, 0, 1, 0,0) ">
<use xlink:href="#Layer0_0_FILL"/>
</g>
</svg>
