
<svg xmlns="http://www.w3.org/2000/svg" version="1.1" xmlns:xlink="http://www.w3.org/1999/xlink" preserveAspectRatio="none" x="0px" y="0px" width="2594px" height="595px" viewBox="0 0 2594 595">
<defs>
<g id="Layer0_0_FILL">
<path fill="#006600" stroke="none" d="
M 1244.4 14
L 1244.4 0 917.1 0 849.05 0 837.25 0 674.05 0 658.35 0 17.05 0 3.95 0 1.6 0 1.6 14 3.95 14 17.05 14 658.35 14 674.05 14 837.25 14 849.05 14 917.1 14 1244.4 14
M 2589.15 0
L 2582.15 0 1388.4 0 1388.4 14 2582.15 14 2589.15 14 2593.7 14 2593.7 0 2589.15 0 Z"/>

<path fill="#003300" stroke="none" d="
M 2589.15 103.55
L 2582.1 103.55 1305.6 103.55 917.1 103.55 849.05 103.55 837.25 103.55 674.05 103.55 658.35 103.55 17.05 103.55 3.95 103.55 0 103.55 0 312.1 0 594.45 1305.65 594.45 2589.15 594.45 2593.05 594.45 2593.05 479.8 2593.05 312.1 2593.05 103.55 2589.15 103.55 Z"/>

<path fill="#333333" stroke="none" d="
M 2589.15 14
L 2582.15 14 1388.4 14 1388.4 0 1305.65 0 1244.4 0 1244.4 14 917.1 14 849.05 14 837.25 14 674.05 14 658.35 14 17.05 14 3.95 14 1.6 14 0 103.55 3.95 103.55 17.05 103.55 658.35 103.55 674.05 103.55 837.25 103.55 849.05 103.55 917.1 103.55 1305.6 103.55 2582.1 103.55 2589.15 103.55 2593.05 103.55 2593.7 14 2589.15 14 Z"/>
</g>
</defs>

<g transform="matrix( 1, 0, 0, 1, 0,0) ">
<use xlink:href="#Layer0_0_FILL"/>
</g>
</svg>
