
<svg xmlns="http://www.w3.org/2000/svg" version="1.1" xmlns:xlink="http://www.w3.org/1999/xlink" preserveAspectRatio="none" x="0px" y="0px" width="208px" height="165px" viewBox="0 0 208 165">
<defs>
<g id="Layer0_0_FILL">
<path fill="#981E1E" stroke="none" d="
M 67.1 70.3
L 67.1 70.4 71.95 70.4 71.95 70.3 71.95 58.85 67.1 58.85 67.1 70.3
M 141.6 58.85
L 136.85 58.85 136.85 70.3 136.85 70.4 141.6 70.4 141.6 70.3 141.6 58.85
M 90.4 58.85
L 87.1 58.85 87.1 70.3 87.1 70.4 90.4 70.4 90.4 70.3 90.4 58.85
M 98.15 58.85
L 96.05 58.85 94.75 58.85 94.75 70.3 94.75 70.4 96.05 70.4 98.15 70.4 98.15 70.3 98.15 58.85
M 119.5 70.3
L 119.5 70.4 123.25 70.4 123.25 70.3 123.25 58.85 119.5 58.85 119.5 70.3
M 111.2 70.3
L 111.2 70.4 115 70.4 115 70.3 115 58.85 111.2 58.85 111.2 70.3
M 115 47.95
L 111.2 47.95 111.2 55.9 115 55.9 115 47.95
M 96.05 47.95
L 94.75 47.95 94.75 55.9 96.05 55.9 98.15 55.9 98.15 47.95 96.05 47.95
M 111.2 39.5
L 111.2 39.6 111.2 44.9 115 44.9 115 39.5 111.2 39.5
M 98.15 39.6
L 98.15 39.5 96.05 39.5 94.75 39.5 94.75 44.9 96.05 44.9 98.15 44.9 98.15 39.6
M 67.1 44.9
L 71.95 44.9 71.95 39.6 71.95 39.5 67.1 39.5 67.1 44.9
M 87.1 39.5
L 87.1 39.6 87.1 44.9 90.4 44.9 90.4 39.5 87.1 39.5
M 71.95 47.95
L 67.1 47.95 67.1 55.9 71.95 55.9 71.95 47.95
M 90.4 47.95
L 87.1 47.95 87.1 55.9 90.4 55.9 90.4 47.95
M 123.25 55.9
L 123.25 47.95 119.5 47.95 119.5 55.9 123.25 55.9
M 141.6 47.95
L 136.85 47.95 136.85 55.9 141.6 55.9 141.6 47.95
M 136.85 39.6
L 136.85 44.9 141.6 44.9 141.6 39.6 136.85 39.6
M 123.25 44.9
L 123.25 39.6 123.25 39.5 119.5 39.5 119.5 44.9 123.25 44.9 Z"/>

<path fill="#66798F" stroke="none" d="
M 21.1 20.95
Q 0 20.95 0 20.35
L 0 28.85 0 32.8 0 45.85 0 55.65 0 64.8 0 70.3 0 164.55 32 164.55 49.05 164.55 49.05 70.4
Q 49.03671875 71 45.65 71 42.2 71 42.2 70.4
L 42.2 20.35
Q 42.2 20.9 25.6 20.95 23.5 20.95 21.1 20.95
M 41.8 164.05
L 42.25 164.35 41.8 164.35 41.8 164.05
M 207.7 45.45
L 207.7 19.95
Q 207.7 20.55 185.75 20.55 163.75 20.55 163.75 19.95
L 163.75 70.3 163.75 70.4
Q 163.75 71 161.2 71 158.669921875 71 158.65 70.4
L 158.65 163.95 168.05 164.15 207.7 164.15 207.7 70.3 207.7 64.4 207.7 55.25 207.7 45.45 Z"/>

<path fill="#35424B" stroke="none" d="
M 42.25 164.35
L 41.8 164.05 41.8 164.35 42.25 164.35 Z"/>

<path fill="#0E0E0E" stroke="none" d="
M 123.25 70.3
L 123.25 70.4 136.85 70.4 136.85 70.3 136.85 58.85 123.25 58.85 123.25 70.3
M 87.1 70.4
L 87.1 70.3 87.1 58.85 71.95 58.85 71.95 70.3 71.95 70.4 87.1 70.4
M 111.2 47.95
L 101.6 47.95 98.15 47.95 98.15 55.9 101.6 55.9 111.2 55.9 111.2 47.95
M 98.15 39.6
L 98.15 44.9 101.6 44.9 111.2 44.9 111.2 39.6 101.6 39.6 98.15 39.6
M 87.1 44.9
L 87.1 39.6 71.95 39.6 71.95 44.9 87.1 44.9
M 87.1 55.9
L 87.1 47.95 71.95 47.95 71.95 55.9 87.1 55.9
M 136.85 47.95
L 123.25 47.95 123.25 55.9 136.85 55.9 136.85 47.95
M 123.25 39.6
L 123.25 44.9 136.85 44.9 136.85 39.6 123.25 39.6
M 111.2 58.85
L 101.6 58.85 98.15 58.85 98.15 70.3 98.15 70.4 111.2 70.4 111.2 70.3 111.2 58.85 Z"/>

<path fill="#D03F33" stroke="none" d="
M 101.6 58.85
L 111.2 58.85 115 58.85 115 70.3 115 70.4 119.5 70.4 119.5 70.3 119.5 58.85 123.25 58.85 136.85 58.85 141.6 58.85 141.6 70.3 141.6 70.4 144.7 70.4 144.7 70.3 144.7 35.55 63.95 35.55 63.95 70.3 63.95 70.4 67.1 70.4 67.1 70.3 67.1 58.85 71.95 58.85 87.1 58.85 90.4 58.85 90.4 70.3 90.4 70.4 94.75 70.4 94.75 70.3 94.75 58.85 96.05 58.85 98.15 58.85 101.6 58.85
M 123.25 39.5
L 123.25 39.6 136.85 39.6 141.6 39.6 141.6 44.9 136.85 44.9 123.25 44.9 119.5 44.9 119.5 39.5 123.25 39.5
M 136.85 47.95
L 141.6 47.95 141.6 55.9 136.85 55.9 123.25 55.9 119.5 55.9 119.5 47.95 123.25 47.95 136.85 47.95
M 87.1 47.95
L 90.4 47.95 90.4 55.9 87.1 55.9 71.95 55.9 67.1 55.9 67.1 47.95 71.95 47.95 87.1 47.95
M 87.1 39.6
L 87.1 39.5 90.4 39.5 90.4 44.9 87.1 44.9 71.95 44.9 67.1 44.9 67.1 39.5 71.95 39.5 71.95 39.6 87.1 39.6
M 98.15 39.5
L 98.15 39.6 101.6 39.6 111.2 39.6 111.2 39.5 115 39.5 115 44.9 111.2 44.9 101.6 44.9 98.15 44.9 96.05 44.9 94.75 44.9 94.75 39.5 96.05 39.5 98.15 39.5
M 94.75 47.95
L 96.05 47.95 98.15 47.95 101.6 47.95 111.2 47.95 115 47.95 115 55.9 111.2 55.9 101.6 55.9 98.15 55.9 96.05 55.9 94.75 55.9 94.75 47.95 Z"/>

<path fill="#F2F253" stroke="none" d="
M 163.75 18
L 163.75 0 101.6 0 96.05 0 42.2 0 42.2 20.35 42.2 70.4
Q 42.2 71 45.65 71 49.03671875 71 49.05 70.4 49.05 71 56.5 71 63.95 71 63.95 70.4
L 63.95 70.3 63.95 35.55 144.7 35.55 144.7 70.3 144.7 70.4
Q 144.7 71 151.7 71 158.65 71 158.65 70.4 158.669921875 71 161.2 71 163.75 71 163.75 70.4
L 163.75 70.3 163.75 19.95 163.75 18 Z"/>
</g>
</defs>

<g transform="matrix( 1, 0, 0, 1, 0,0) ">
<use xlink:href="#Layer0_0_FILL"/>
</g>

<g transform="matrix( 0.145538330078125, 0, 0, 0.1733551025390625, 51.4,12.5) ">
<clipPath id="Mask_Mask_1">
<rect x="-2" y="-2" width="742.9" height="113.2" fill="#FFFFFF" stroke="none"/>
</clipPath>

<text clip-path="url(#Mask_Mask_1)" writing-mode="lr"><tspan x="0.1" y="43.45" baseline-shift="0%" font-family="Arial" font-weight="bold" font-size="48" fill="#000000" xml:space="preserve">GOVT. ENGINEERING COLLEGE</tspan><tspan x="246.8" y="99.05" baseline-shift="0%" font-family="Arial" font-weight="bold" font-size="48" fill="#000000" xml:space="preserve">THRISSUR</tspan></text>
</g>
</svg>
